<svg width="720" height="540" viewBox="0 0 720 540" fill="none" xmlns="http://www.w3.org/2000/svg">
    <rect width="720" height="540" fill="white"/>
    <path d="M155 171.395C155.484 170.972 156.775 187.219 157.222 190.173C157.582 192.548 157.983 196.886 159.222 198.951C161.454 202.67 160.598 190.38 161 186.062C161.505 180.63 162.606 171.592 168 168.895C169.031 168.38 171.804 166.419 172.444 168.34C174.288 173.871 173.192 181.317 173.778 187.173C173.961 189.002 173.177 193.326 174.222 194.951C174.368 195.177 178.46 185.459 178.778 184.618C180.465 180.144 182.913 164.806 191 167.951C197.729 170.568 195 182.08 195 187.784C195 189.986 196 199.297 196 192.395" stroke="url(#paint0_linear_1_709)" stroke-width="7" stroke-linecap="round"/>
    <path d="M223 171.395C224.067 170.176 222.809 170.274 221.778 170.618C216.253 172.459 213.481 179.889 211.222 184.618C209.34 188.558 205.914 194.631 210.444 198.173C216.494 202.903 225.167 198.626 229.722 193.951C235.029 188.504 237.157 175.395 226 175.395C225.047 175.395 222.289 177.658 222.056 176.84C221.681 175.53 222.004 174.893 223 174.395" stroke="url(#paint1_linear_1_709)" stroke-width="7" stroke-linecap="round"/>
    <path d="M245 173.395C245.145 171.067 245.908 171.542 246 173.618C246.223 178.639 247.047 183.985 248.556 188.784C250.432 194.756 254.891 202.144 262 201.395C265.244 201.054 270.13 174.823 271.444 171.118C272.967 166.827 273 166.642 273 170.395" stroke="url(#paint2_linear_1_709)" stroke-width="7" stroke-linecap="round"/>
    <path d="M325.214 175.395C324.804 161.892 308.714 179.617 306.88 184.784C302.015 198.494 318.722 198.537 322.603 186.895C323.738 183.488 323.214 179.497 323.214 175.951C323.214 173.162 323.981 178.623 324.214 179.395C325.858 184.843 325.389 190.897 330.769 194.34C333.523 196.102 336.09 196.767 337.214 193.395" stroke="url(#paint3_linear_1_709)" stroke-width="7" stroke-linecap="round"/>
    <path d="M341.214 172.395C342.63 168.324 342.891 172.061 344.325 174.451C346.847 178.654 349.998 183.124 353.436 186.618C354.647 187.848 365.214 198.625 365.214 193.395" stroke="url(#paint4_linear_1_709)" stroke-width="7" stroke-linecap="round"/>
    <path d="M367.214 172.395C357.058 174.361 346.688 181.681 342.936 191.784C341.01 196.97 343.75 198.883 348.214 197.395" stroke="url(#paint5_linear_1_709)" stroke-width="7" stroke-linecap="round"/>
    <path d="M392.214 187.395C390.519 194.273 389.762 203.018 383.991 207.951C381.09 210.431 376.227 212.422 374.214 208.395" stroke="url(#paint6_linear_1_709)" stroke-width="7" stroke-linecap="round"/>
    <path d="M410.214 176.395C412.909 175.796 416.794 167.713 417.991 165.618C419.414 163.127 426.753 148.281 425.991 158.618C425.2 169.363 421.907 181.272 425.991 191.729C427.251 194.953 430.884 197.148 427.214 194.395" stroke="url(#paint7_linear_1_709)" stroke-width="7" stroke-linecap="round"/>
    <path d="M418.214 201.395C427.972 197.426 437.83 198.395 448.214 198.395" stroke="url(#paint8_linear_1_709)" stroke-width="7" stroke-linecap="round"/>
    <path d="M156.259 257.413C156.259 265.847 155.549 274.583 156.481 282.969C157.519 292.309 159.493 285.068 160.259 279.747C160.546 277.751 163.187 252.89 168.481 255.08C173.074 256.981 177.389 269.437 178.036 273.969C178.81 279.383 177.903 282.687 180.703 274.969C181.209 273.574 191.335 253.794 193.259 259.969C195.759 267.996 192.058 276.186 193.481 284.191C194.299 288.791 195.704 286.74 196.259 283.413" stroke="url(#paint9_linear_1_709)" stroke-width="7" stroke-linecap="round"/>
    <path d="M217.259 255.413C212.578 260.268 206.762 266.047 207.925 273.358C208.759 278.597 215.385 283.593 220.259 278.969C225.942 273.577 223.36 263.451 220.759 257.247C219.668 254.647 217.252 253.433 216.259 256.413" stroke="url(#paint10_linear_1_709)" stroke-width="7" stroke-linecap="round"/>
    <path d="M236.259 257.413C236.844 259.136 245.217 282.99 249.036 278.747C250.829 276.755 258.8 249.955 261.259 252.413" stroke="url(#paint11_linear_1_709)" stroke-width="7" stroke-linecap="round"/>
    <path d="M314.472 248.413C312.495 244.706 312.565 252.235 312.528 253.302C312.217 262.152 313.812 269.562 316.917 277.747C318.219 281.181 319.696 284.861 318.972 278.636C318.072 270.896 319.656 265.101 325.917 260.136C333.27 254.304 344.32 283.28 335.028 287.747C330.187 290.074 324.292 285.222 321.694 281.636C317.974 276.498 326.545 279.088 329.472 279.413" stroke="url(#paint12_linear_1_709)" stroke-width="7" stroke-linecap="round"/>
    <path d="M345.472 265.413C351.317 270.342 357.219 275.227 363.028 280.191C364.746 281.66 370.72 287.513 365.472 285.413" stroke="url(#paint13_linear_1_709)" stroke-width="7" stroke-linecap="round"/>
    <path d="M370.472 260.413C363.754 267.186 348.57 278.064 346.694 288.636C346.295 290.889 346.991 294.654 349.472 293.413" stroke="url(#paint14_linear_1_709)" stroke-width="7" stroke-linecap="round"/>
    <path d="M403.214 278.395C402.554 283.553 400.769 298.543 395.214 300.395" stroke="url(#paint15_linear_1_709)" stroke-width="7" stroke-linecap="round"/>
    <path d="M418.472 274.413C425.052 273.755 430.344 265.489 433.583 260.747C434.967 258.721 436.155 255.842 437.917 254.08C438.56 253.437 437.33 261.209 437.25 261.636C435.692 269.943 432.732 283.336 436.694 291.413C438.909 295.927 441.668 296.239 442.472 291.413" stroke="url(#paint16_linear_1_709)" stroke-width="7" stroke-linecap="round"/>
    <path d="M436.214 298.395C446.013 297.827 455.691 295.953 465.214 293.617C466.523 293.296 467.645 293.111 466.214 292.395" stroke="url(#paint17_linear_1_709)" stroke-width="7" stroke-linecap="round"/>
    <path d="M178.618 353.395C174.193 350.024 171.025 348.159 166.174 352.006C161.747 355.517 157.801 360.651 155.84 365.951C150.061 381.577 175.82 377.635 180.396 366.451C181.871 362.846 182.383 357.474 180.618 353.84C178.977 350.461 178.586 356.99 178.785 357.951C179.471 361.268 191.356 378.444 192.618 373.395" stroke="url(#paint18_linear_1_709)" stroke-width="7" stroke-linecap="round"/>
    <path d="M219.618 328.395C217.893 339.132 216.063 351.162 218.396 361.951C218.615 362.963 219.194 364.5 218.174 363.173C215.775 360.055 211.205 357.284 207.174 357.562C197.572 358.224 198.927 369.777 206.896 372.229C212.691 374.012 224.618 374.944 224.618 366.395" stroke="url(#paint19_linear_1_709)" stroke-width="7" stroke-linecap="round"/>
    <path d="M251.618 327.395C249.381 338.83 251.931 348.152 253.84 359.395C255.304 368.012 247.11 358.787 242.952 357.84C232.647 355.492 221.53 372.514 232.952 376.395C244.35 380.268 258.41 373.427 252.618 360.395" stroke="url(#paint20_linear_1_709)" stroke-width="7" stroke-linecap="round"/>
    <path d="M322.583 352.395C324.735 352.126 322.222 351.395 321.36 351.395C317.134 351.395 314.874 352.729 312.083 356.006C303.635 365.924 309.582 384.5 324.472 376.229C329.85 373.24 331.475 367.532 329.472 361.951C328.823 360.144 323.803 352.455 328.027 357.617C331.137 361.418 345.16 381.509 347.583 369.395" stroke="url(#paint21_linear_1_709)" stroke-width="7" stroke-linecap="round"/>
    <path d="M351.583 348.395C357.816 355.322 362.953 358.571 371.583 361.395C372.822 361.801 376.583 363.934 376.583 363.395" stroke="url(#paint22_linear_1_709)" stroke-width="7" stroke-linecap="round"/>
    <path d="M379.583 341.395C370.727 348.986 361.653 357.916 355.249 367.729C353.076 371.058 350.656 374.216 355.583 373.395" stroke="url(#paint23_linear_1_709)" stroke-width="7" stroke-linecap="round"/>
    <path d="M394.583 360.395C394.195 365.134 395.827 383.314 389.583 385.395" stroke="url(#paint24_linear_1_709)" stroke-width="7" stroke-linecap="round"/>
    <path d="M418.448 340.395C416.743 353.826 419.705 362.864 424.837 374.84C426.371 378.417 425.391 375.387 425.226 372.951C424.838 367.212 426.177 357.228 432.671 355.117C445.035 351.099 458.052 369.345 443.337 374.173C436.787 376.322 427.394 376.906 421.282 372.951C418.835 371.368 433.948 367.753 435.448 367.395" stroke="url(#paint25_linear_1_709)" stroke-width="7" stroke-linecap="round"/>
    <path d="M454.448 355.395C465.401 359.959 472.873 366.658 482.226 373.673C483.866 374.903 489.812 379.122 487.448 374.395" stroke="url(#paint26_linear_1_709)" stroke-width="7" stroke-linecap="round"/>
    <path d="M484.448 351.395C476.23 355.214 467.952 358.901 460.226 363.673C456.523 365.96 450.319 369.431 448.393 373.729C446.179 378.668 455.742 375.964 457.448 375.395" stroke="url(#paint27_linear_1_709)" stroke-width="7" stroke-linecap="round"/>
    <path d="M295.293 54.6312C294.889 59.073 290.491 65.7185 295.376 69.0329C300.412 72.4504 306.972 69.8975 309.406 65.0301" stroke="url(#paint28_linear_1_709)" stroke-width="4" stroke-linecap="round"/>
    <path d="M293.808 65.0301C297.61 63.2888 303.537 61.9376 305.692 58.3451" stroke="url(#paint29_linear_1_709)" stroke-width="4" stroke-linecap="round"/>
    <path d="M291.579 56.1168C297.215 52.9037 303.36 47.4922 310.149 49.4318" stroke="url(#paint30_linear_1_709)" stroke-width="4" stroke-linecap="round"/>
    <path d="M317.577 69.4868C317.071 69.3423 319.874 43.8111 326.16 47.0797C328.541 48.3178 335.56 64.131 333.918 65.7729" stroke="url(#paint31_linear_1_709)" stroke-width="4" stroke-linecap="round"/>
    <path d="M319.805 60.5734C327.232 59.7273 334.976 59.2304 342.088 56.8596" stroke="url(#paint32_linear_1_709)" stroke-width="4" stroke-linecap="round"/>
    <path d="M353.973 47.2035C351.357 47.0166 344.057 45.5782 343.202 49.6381C342.426 53.3254 346.585 55.9925 349.764 55.9517C354.075 55.8965 356.001 54.4567 355.046 60.3259C354.624 62.9148 354.488 70.9271 350.96 71.6326C349.071 72.0105 340.857 68.9882 342.831 68.0012" stroke="url(#paint33_linear_1_709)" stroke-width="4" stroke-linecap="round"/>
    <path d="M364.372 49.4318C365.307 54.5099 365.604 60.6337 371.717 61.5638C374.858 62.0418 377.021 60.8584 378.897 58.3451C380.657 55.9877 381.716 52.9046 382.116 50.0095C382.67 45.9923 382.198 52.3706 382.198 53.0219C382.198 57.913 384.646 68.9894 379.227 71.7564C374.033 74.4089 366.819 78.7064 362.886 73.2007" stroke="url(#paint34_linear_1_709)" stroke-width="4" stroke-linecap="round"/>
    <path d="M415.623 48.689C416.235 48.7764 412.695 57.3365 412.405 58.3039C411.526 61.2339 409.131 70.9686 412.57 73.2007C416.575 75.8007 423.951 72.9556 427.714 71.0136C428.2 70.7628 431.322 69.4868 430.479 69.4868" stroke="url(#paint35_linear_1_709)" stroke-width="4" stroke-linecap="round"/>
    <path d="M416.366 61.3162C422.333 60.6845 427.749 59.7133 433.45 58.3451" stroke="url(#paint36_linear_1_709)" stroke-width="4" stroke-linecap="round"/>
    <path d="M423.051 47.9462C428.236 47.6622 433.452 47.2035 438.649 47.2035" stroke="url(#paint37_linear_1_709)" stroke-width="4" stroke-linecap="round"/>
    <path d="M435.678 76.1718C437.231 71.7631 438.277 67.6271 438.649 62.9668C438.807 61.0016 438.914 58.695 440.135 57.0246C442.151 54.2653 449.232 68.8384 450.534 70.4359C456.015 77.1628 457.105 63.9308 457.178 60.9861C457.199 60.1206 456.476 46.2346 456.476 51.6601" stroke="url(#paint38_linear_1_709)" stroke-width="4" stroke-linecap="round"/>
    <path d="M471.332 52.4029C467.004 55.6483 464.779 62.1572 465.142 67.506C465.511 72.9482 471.035 75.3089 475.376 72.169C484.002 65.9289 481.238 48.4389 471.332 58.3451" stroke="url(#paint39_linear_1_709)" stroke-width="4" stroke-linecap="round"/>
    <path d="M492.872 48.689C489.402 53.894 488.392 65.3145 491.799 70.766C496.228 77.8521 505.3 60.9663 506.49 58.4277C506.548 58.3032 508.514 53.7065 507.563 54.59C504.669 57.2774 503.529 62.7252 503.395 66.4744C503.112 74.4028 506.084 77.9908 512.927 73.2007" stroke="url(#paint40_linear_1_709)" stroke-width="4" stroke-linecap="round"/>
    <path d="M529.268 50.1746C524.664 51.4141 522.498 53.9464 520.85 58.4277C519.848 61.1533 517.469 67.8276 520.561 70.147C525.963 74.1983 531.551 69.2981 532.982 64.2873" stroke="url(#paint41_linear_1_709)" stroke-width="4" stroke-linecap="round"/>
    <path d="M521.098 64.2874C526.544 63.5902 532.031 63.1254 537.439 62.2241C539.58 61.8673 537.679 68.0466 537.604 69.1567C537.366 72.6904 537.689 76.4003 538.347 79.8857C539.076 83.7518 539.921 80.0298 540.41 78.4001" stroke="url(#paint42_linear_1_709)" stroke-width="4" stroke-linecap="round"/>
    <path d="M551.552 46.4607C551.599 54.275 552.226 61.6669 552.996 69.363C553.215 71.5561 553.037 69.9251 553.037 68.744" stroke="url(#paint43_linear_1_709)" stroke-width="4" stroke-linecap="round"/>
    <path d="M547.095 58.3451C553.35 58.7186 567.775 62.0799 571.607 55.374" stroke="url(#paint44_linear_1_709)" stroke-width="4" stroke-linecap="round"/>
    <path d="M567.893 45.7179C567.515 53.3197 566.991 60.9615 567.15 68.579C567.206 71.27 567.784 68.0226 567.893 67.2585" stroke="url(#paint45_linear_1_709)" stroke-width="4" stroke-linecap="round"/>
    <path d="M593.147 43.4896C595.654 43.8029 592.897 54.5161 592.57 55.7867C591.954 58.1731 591.531 67.0375 593.147 60.5735" stroke="url(#paint46_linear_1_709)" stroke-width="4" stroke-linecap="round"/>
    <path d="M589.433 76.9146C590.64 77.2666 590.829 77.1921 591.662 76.9146" stroke="url(#paint47_linear_1_709)" stroke-width="4" stroke-linecap="round"/>
    <path d="M163.348 58.0391C171.233 57.163 174.332 42.0731 172.99 57.5067C172.546 62.6189 173.439 67.8482 172.872 72.9467C172.396 77.2301 171.927 80.2202 173.996 74.0115" stroke="url(#paint48_linear_1_709)" stroke-width="4" stroke-linecap="round"/>
    <path d="M164.413 78.2708C158.014 78.2708 177.181 77.206 183.58 77.206" stroke="url(#paint49_linear_1_709)" stroke-width="4" stroke-linecap="round"/>
    <path d="M187.839 63.3633C188.506 66.031 202.791 65.3576 203.811 62.2984" stroke="url(#paint50_linear_1_709)" stroke-width="4" stroke-linecap="round"/>
    <path d="M195.293 56.9743C193.156 54.5704 194.228 56.7912 194.228 59.3406C194.228 61.7463 194.228 64.152 194.228 66.5577C194.228 68.8053 194.945 76.8473 196.357 76.1411" stroke="url(#paint51_linear_1_709)" stroke-width="4" stroke-linecap="round"/>
    <path d="M213.395 56.9743C213.869 55.0761 222.131 50.4015 223.925 49.1064C228.397 45.8766 223.61 53.9704 222.978 56.1461C220.919 63.2368 221.913 85.6542 221.913 78.2708" stroke="url(#paint52_linear_1_709)" stroke-width="4" stroke-linecap="round"/>
    <path d="M211.265 79.3356C215.796 82.9603 227.87 80.4004 233.626 80.4004" stroke="url(#paint53_linear_1_709)" stroke-width="4" stroke-linecap="round"/>
    <path d="M30.4998 505.518C30.4998 508.735 29.5991 511.397 29.5991 514.675C29.5991 518.864 29.3866 523.027 30.2997 527.136C30.9581 530.099 32.0747 520.476 32.3013 519.229C33.0344 515.197 35.3748 494.518 43.5607 503.416C46.7961 506.933 47.3195 511.697 48.5148 516.126C48.8626 517.415 49.3463 522.84 50.3163 519.93" stroke="url(#paint54_linear_1_709)" stroke-width="7" stroke-linecap="round"/>
    <path d="M73.7357 499.212C66.9423 496.948 61.0482 514.445 61.2753 519.329C61.4914 523.975 64.5715 525.654 68.8816 524.133C74.8292 522.034 78.2867 516.646 80.3411 510.972C81.226 508.528 81.6082 496.749 80.7415 504.117C79.8685 511.537 83.2177 515 88.1476 519.93" stroke="url(#paint55_linear_1_709)" stroke-width="7" stroke-linecap="round"/>
    <path d="M106.163 486.602C102.343 489.408 94.9751 497.985 101.959 501.865C106.676 504.485 113.408 502.91 114.069 509.521C114.552 514.346 111.45 520.16 106.713 521.981C103.73 523.129 105.905 514.528 106.163 513.624" stroke="url(#paint56_linear_1_709)" stroke-width="7" stroke-linecap="round"/>
    <path d="M125.979 492.006C126.108 498.729 125.776 507.084 128.281 513.524C128.614 514.382 131.403 518.212 131.934 517.327C133.694 514.394 135.149 483.984 141.742 496.31C143.923 500.388 144.129 504.684 145.595 508.92C145.992 510.068 151.631 498.289 152.801 496.61C159.389 487.158 162.797 516.046 167.413 509.121" stroke="url(#paint57_linear_1_709)" stroke-width="7" stroke-linecap="round"/>
    <path d="M184.527 473.091C187.351 470.581 187.149 484.881 187.43 486.602C188.337 492.151 189.238 497.825 191.733 502.815" stroke="url(#paint58_linear_1_709)" stroke-width="7" stroke-linecap="round"/>
    <path d="M192.634 527.136C194.141 527.501 195.617 527.783 197.138 528.036" stroke="url(#paint59_linear_1_709)" stroke-width="7" stroke-linecap="round"/>
    <defs>
        <linearGradient id="paint0_linear_1_709" x1="175.5" y1="167.513" x2="175.5" y2="199.642" gradientUnits="userSpaceOnUse">
            <stop stop-color="#656565"/>
            <stop offset="1"/>
        </linearGradient>
        <linearGradient id="paint1_linear_1_709" x1="221.126" y1="170.391" x2="221.126" y2="200.232" gradientUnits="userSpaceOnUse">
            <stop stop-color="#656565"/>
            <stop offset="1"/>
        </linearGradient>
        <linearGradient id="paint2_linear_1_709" x1="259" y1="167.73" x2="259" y2="201.448" gradientUnits="userSpaceOnUse">
            <stop stop-color="#656565"/>
            <stop offset="1"/>
        </linearGradient>
        <linearGradient id="paint3_linear_1_709" x1="321.607" y1="170.424" x2="321.607" y2="195.794" gradientUnits="userSpaceOnUse">
            <stop stop-color="#656565"/>
            <stop offset="1"/>
        </linearGradient>
        <linearGradient id="paint4_linear_1_709" x1="353.214" y1="170.586" x2="353.214" y2="194.818" gradientUnits="userSpaceOnUse">
            <stop stop-color="#656565"/>
            <stop offset="1"/>
        </linearGradient>
        <linearGradient id="paint5_linear_1_709" x1="354.762" y1="172.395" x2="354.762" y2="197.885" gradientUnits="userSpaceOnUse">
            <stop stop-color="#656565"/>
            <stop offset="1"/>
        </linearGradient>
        <linearGradient id="paint6_linear_1_709" x1="383.214" y1="187.395" x2="383.214" y2="210.695" gradientUnits="userSpaceOnUse">
            <stop stop-color="#656565"/>
            <stop offset="1"/>
        </linearGradient>
        <linearGradient id="paint7_linear_1_709" x1="419.512" y1="155" x2="419.512" y2="195.646" gradientUnits="userSpaceOnUse">
            <stop stop-color="#656565"/>
            <stop offset="1"/>
        </linearGradient>
        <linearGradient id="paint8_linear_1_709" x1="433.214" y1="198.291" x2="433.214" y2="201.395" gradientUnits="userSpaceOnUse">
            <stop stop-color="#656565"/>
            <stop offset="1"/>
        </linearGradient>
        <linearGradient id="paint9_linear_1_709" x1="176.129" y1="254.944" x2="176.129" y2="287.476" gradientUnits="userSpaceOnUse">
            <stop stop-color="#656565"/>
            <stop offset="1"/>
        </linearGradient>
        <linearGradient id="paint10_linear_1_709" x1="215.719" y1="254.669" x2="215.719" y2="280.796" gradientUnits="userSpaceOnUse">
            <stop stop-color="#656565"/>
            <stop offset="1"/>
        </linearGradient>
        <linearGradient id="paint11_linear_1_709" x1="248.759" y1="252.254" x2="248.759" y2="279.252" gradientUnits="userSpaceOnUse">
            <stop stop-color="#656565"/>
            <stop offset="1"/>
        </linearGradient>
        <linearGradient id="paint12_linear_1_709" x1="325.534" y1="247.395" x2="325.534" y2="288.355" gradientUnits="userSpaceOnUse">
            <stop stop-color="#656565"/>
            <stop offset="1"/>
        </linearGradient>
        <linearGradient id="paint13_linear_1_709" x1="356.528" y1="265.413" x2="356.528" y2="285.863" gradientUnits="userSpaceOnUse">
            <stop stop-color="#656565"/>
            <stop offset="1"/>
        </linearGradient>
        <linearGradient id="paint14_linear_1_709" x1="358.531" y1="260.413" x2="358.531" y2="293.658" gradientUnits="userSpaceOnUse">
            <stop stop-color="#656565"/>
            <stop offset="1"/>
        </linearGradient>
        <linearGradient id="paint15_linear_1_709" x1="399.214" y1="278.395" x2="399.214" y2="300.395" gradientUnits="userSpaceOnUse">
            <stop stop-color="#656565"/>
            <stop offset="1"/>
        </linearGradient>
        <linearGradient id="paint16_linear_1_709" x1="430.472" y1="254.042" x2="430.472" y2="294.916" gradientUnits="userSpaceOnUse">
            <stop stop-color="#656565"/>
            <stop offset="1"/>
        </linearGradient>
        <linearGradient id="paint17_linear_1_709" x1="451.548" y1="292.395" x2="451.548" y2="298.395" gradientUnits="userSpaceOnUse">
            <stop stop-color="#656565"/>
            <stop offset="1"/>
        </linearGradient>
        <linearGradient id="paint18_linear_1_709" x1="173.809" y1="349.862" x2="173.809" y2="376.296" gradientUnits="userSpaceOnUse">
            <stop stop-color="#656565"/>
            <stop offset="1"/>
        </linearGradient>
        <linearGradient id="paint19_linear_1_709" x1="212.529" y1="328.395" x2="212.529" y2="373.421" gradientUnits="userSpaceOnUse">
            <stop stop-color="#656565"/>
            <stop offset="1"/>
        </linearGradient>
        <linearGradient id="paint20_linear_1_709" x1="241.07" y1="327.395" x2="241.07" y2="377.474" gradientUnits="userSpaceOnUse">
            <stop stop-color="#656565"/>
            <stop offset="1"/>
        </linearGradient>
        <linearGradient id="paint21_linear_1_709" x1="327.898" y1="351.395" x2="327.898" y2="378.295" gradientUnits="userSpaceOnUse">
            <stop stop-color="#656565"/>
            <stop offset="1"/>
        </linearGradient>
        <linearGradient id="paint22_linear_1_709" x1="364.083" y1="348.395" x2="364.083" y2="363.482" gradientUnits="userSpaceOnUse">
            <stop stop-color="#656565"/>
            <stop offset="1"/>
        </linearGradient>
        <linearGradient id="paint23_linear_1_709" x1="366.141" y1="341.395" x2="366.141" y2="373.527" gradientUnits="userSpaceOnUse">
            <stop stop-color="#656565"/>
            <stop offset="1"/>
        </linearGradient>
        <linearGradient id="paint24_linear_1_709" x1="392.083" y1="360.395" x2="392.083" y2="385.395" gradientUnits="userSpaceOnUse">
            <stop stop-color="#656565"/>
            <stop offset="1"/>
        </linearGradient>
        <linearGradient id="paint25_linear_1_709" x1="433.92" y1="340.395" x2="433.92" y2="376.482" gradientUnits="userSpaceOnUse">
            <stop stop-color="#656565"/>
            <stop offset="1"/>
        </linearGradient>
        <linearGradient id="paint26_linear_1_709" x1="471.222" y1="355.395" x2="471.222" y2="376.583" gradientUnits="userSpaceOnUse">
            <stop stop-color="#656565"/>
            <stop offset="1"/>
        </linearGradient>
        <linearGradient id="paint27_linear_1_709" x1="466.255" y1="351.395" x2="466.255" y2="376.645" gradientUnits="userSpaceOnUse">
            <stop stop-color="#656565"/>
            <stop offset="1"/>
        </linearGradient>
        <linearGradient id="paint28_linear_1_709" x1="301.248" y1="54.6312" x2="301.248" y2="70.5995" gradientUnits="userSpaceOnUse">
            <stop/>
            <stop offset="1" stop-color="#6A6A6A"/>
        </linearGradient>
        <linearGradient id="paint29_linear_1_709" x1="299.75" y1="58.3451" x2="299.75" y2="65.0301" gradientUnits="userSpaceOnUse">
            <stop/>
            <stop offset="1" stop-color="#6A6A6A"/>
        </linearGradient>
        <linearGradient id="paint30_linear_1_709" x1="300.864" y1="49.0226" x2="300.864" y2="56.1168" gradientUnits="userSpaceOnUse">
            <stop/>
            <stop offset="1" stop-color="#6A6A6A"/>
        </linearGradient>
        <linearGradient id="paint31_linear_1_709" x1="325.841" y1="46.7906" x2="325.841" y2="69.4868" gradientUnits="userSpaceOnUse">
            <stop/>
            <stop offset="1" stop-color="#6A6A6A"/>
        </linearGradient>
        <linearGradient id="paint32_linear_1_709" x1="330.947" y1="56.8596" x2="330.947" y2="60.5734" gradientUnits="userSpaceOnUse">
            <stop/>
            <stop offset="1" stop-color="#6A6A6A"/>
        </linearGradient>
        <linearGradient id="paint33_linear_1_709" x1="348.906" y1="46.8047" x2="348.906" y2="71.6651" gradientUnits="userSpaceOnUse">
            <stop/>
            <stop offset="1" stop-color="#6A6A6A"/>
        </linearGradient>
        <linearGradient id="paint34_linear_1_709" x1="372.818" y1="48.6903" x2="372.818" y2="75.8701" gradientUnits="userSpaceOnUse">
            <stop/>
            <stop offset="1" stop-color="#6A6A6A"/>
        </linearGradient>
        <linearGradient id="paint35_linear_1_709" x1="420.697" y1="48.689" x2="420.697" y2="74.2438" gradientUnits="userSpaceOnUse">
            <stop/>
            <stop offset="1" stop-color="#6A6A6A"/>
        </linearGradient>
        <linearGradient id="paint36_linear_1_709" x1="424.908" y1="58.3451" x2="424.908" y2="61.3162" gradientUnits="userSpaceOnUse">
            <stop/>
            <stop offset="1" stop-color="#6A6A6A"/>
        </linearGradient>
        <linearGradient id="paint37_linear_1_709" x1="430.85" y1="47.2035" x2="430.85" y2="47.9462" gradientUnits="userSpaceOnUse">
            <stop/>
            <stop offset="1" stop-color="#6A6A6A"/>
        </linearGradient>
        <linearGradient id="paint38_linear_1_709" x1="446.428" y1="50.4063" x2="446.428" y2="76.1718" gradientUnits="userSpaceOnUse">
            <stop/>
            <stop offset="1" stop-color="#6A6A6A"/>
        </linearGradient>
        <linearGradient id="paint39_linear_1_709" x1="472.819" y1="52.4029" x2="472.819" y2="73.5756" gradientUnits="userSpaceOnUse">
            <stop/>
            <stop offset="1" stop-color="#6A6A6A"/>
        </linearGradient>
        <linearGradient id="paint40_linear_1_709" x1="501.313" y1="48.689" x2="501.313" y2="75.3604" gradientUnits="userSpaceOnUse">
            <stop/>
            <stop offset="1" stop-color="#6A6A6A"/>
        </linearGradient>
        <linearGradient id="paint41_linear_1_709" x1="526.005" y1="50.1746" x2="526.005" y2="71.6471" gradientUnits="userSpaceOnUse">
            <stop/>
            <stop offset="1" stop-color="#6A6A6A"/>
        </linearGradient>
        <linearGradient id="paint42_linear_1_709" x1="530.754" y1="62.2092" x2="530.754" y2="81.5833" gradientUnits="userSpaceOnUse">
            <stop/>
            <stop offset="1" stop-color="#6A6A6A"/>
        </linearGradient>
        <linearGradient id="paint43_linear_1_709" x1="552.329" y1="46.4607" x2="552.329" y2="70.4441" gradientUnits="userSpaceOnUse">
            <stop/>
            <stop offset="1" stop-color="#6A6A6A"/>
        </linearGradient>
        <linearGradient id="paint44_linear_1_709" x1="559.351" y1="55.374" x2="559.351" y2="59.5163" gradientUnits="userSpaceOnUse">
            <stop/>
            <stop offset="1" stop-color="#6A6A6A"/>
        </linearGradient>
        <linearGradient id="paint45_linear_1_709" x1="567.507" y1="45.7179" x2="567.507" y2="69.6277" gradientUnits="userSpaceOnUse">
            <stop/>
            <stop offset="1" stop-color="#6A6A6A"/>
        </linearGradient>
        <linearGradient id="paint46_linear_1_709" x1="593.105" y1="43.4896" x2="593.105" y2="62.8902" gradientUnits="userSpaceOnUse">
            <stop/>
            <stop offset="1" stop-color="#6A6A6A"/>
        </linearGradient>
        <linearGradient id="paint47_linear_1_709" x1="590.547" y1="76.9146" x2="590.547" y2="77.1515" gradientUnits="userSpaceOnUse">
            <stop/>
            <stop offset="1" stop-color="#6A6A6A"/>
        </linearGradient>
        <linearGradient id="paint48_linear_1_709" x1="168.672" y1="50.5905" x2="168.672" y2="77.5541" gradientUnits="userSpaceOnUse">
            <stop/>
            <stop offset="1" stop-color="#6A6A6A"/>
        </linearGradient>
        <linearGradient id="paint49_linear_1_709" x1="173.351" y1="77.206" x2="173.351" y2="78.2708" gradientUnits="userSpaceOnUse">
            <stop/>
            <stop offset="1" stop-color="#6A6A6A"/>
        </linearGradient>
        <linearGradient id="paint50_linear_1_709" x1="195.825" y1="62.2984" x2="195.825" y2="65.0275" gradientUnits="userSpaceOnUse">
            <stop/>
            <stop offset="1" stop-color="#6A6A6A"/>
        </linearGradient>
        <linearGradient id="paint51_linear_1_709" x1="195.158" y1="55.9434" x2="195.158" y2="76.1849" gradientUnits="userSpaceOnUse">
            <stop/>
            <stop offset="1" stop-color="#6A6A6A"/>
        </linearGradient>
        <linearGradient id="paint52_linear_1_709" x1="219.604" y1="48.3549" x2="219.604" y2="79.7435" gradientUnits="userSpaceOnUse">
            <stop/>
            <stop offset="1" stop-color="#6A6A6A"/>
        </linearGradient>
        <linearGradient id="paint53_linear_1_709" x1="222.446" y1="79.3356" x2="222.446" y2="81.2779" gradientUnits="userSpaceOnUse">
            <stop/>
            <stop offset="1" stop-color="#6A6A6A"/>
        </linearGradient>
        <linearGradient id="paint54_linear_1_709" x1="39.9469" y1="501.214" x2="39.9469" y2="527.699" gradientUnits="userSpaceOnUse">
            <stop/>
            <stop offset="1" stop-color="#6A6A6A"/>
        </linearGradient>
        <linearGradient id="paint55_linear_1_709" x1="74.7083" y1="499.011" x2="74.7083" y2="524.679" gradientUnits="userSpaceOnUse">
            <stop/>
            <stop offset="1" stop-color="#6A6A6A"/>
        </linearGradient>
        <linearGradient id="paint56_linear_1_709" x1="106.592" y1="486.602" x2="106.592" y2="522.087" gradientUnits="userSpaceOnUse">
            <stop/>
            <stop offset="1" stop-color="#6A6A6A"/>
        </linearGradient>
        <linearGradient id="paint57_linear_1_709" x1="146.696" y1="492.006" x2="146.696" y2="517.459" gradientUnits="userSpaceOnUse">
            <stop/>
            <stop offset="1" stop-color="#6A6A6A"/>
        </linearGradient>
        <linearGradient id="paint58_linear_1_709" x1="188.13" y1="472.796" x2="188.13" y2="502.815" gradientUnits="userSpaceOnUse">
            <stop/>
            <stop offset="1" stop-color="#6A6A6A"/>
        </linearGradient>
        <linearGradient id="paint59_linear_1_709" x1="194.886" y1="527.136" x2="194.886" y2="528.036" gradientUnits="userSpaceOnUse">
            <stop/>
            <stop offset="1" stop-color="#6A6A6A"/>
        </linearGradient>
    </defs>
</svg>
