<svg width="720" height="540" viewBox="0 0 720 540" fill="none" xmlns="http://www.w3.org/2000/svg">
    <g clip-path="url(#clip0_7_2160)">
        <rect width="720" height="540" fill="white"/>
        <path d="M43.8353 30.2913C46.3978 30.6116 47.2666 52.5523 47.6406 54.9253C47.8404 56.1932 51.4933 74.4627 52.8477 69.0447" stroke="url(#paint0_linear_7_2160)" stroke-width="7" stroke-linecap="round"/>
        <path d="M36.6254 34.7975C48.3512 30.2626 60.5402 25.9944 71.7738 20.3776" stroke="url(#paint1_linear_7_2160)" stroke-width="7" stroke-linecap="round"/>
        <path d="M50.144 55.5261C59.3568 55.4124 68.3637 55.0664 76.2801 50.1187" stroke="url(#paint2_linear_7_2160)" stroke-width="7" stroke-linecap="round"/>
        <path d="M82.5887 36.6C82.0009 41.3027 76.6722 62.0253 84.7918 64.5385C92.2934 66.8604 105.608 54.676 105.971 47.4149C106.338 40.0783 102.631 35.8265 106.922 29.3901" stroke="url(#paint3_linear_7_2160)" stroke-width="7" stroke-linecap="round"/>
        <path d="M123.145 60.9336C124.444 56.7743 124.445 53.1538 124.046 48.8169C123.766 45.7743 122.032 39.9335 123.245 36.9004C124.082 34.8069 126.449 40.0825 127.901 41.8072C132.111 46.806 136.454 52.1217 142.271 55.3258C145.464 57.0849 149.753 58.8342 153.486 58.7305C157.644 58.615 156.041 49.6478 155.89 47.5151C155.239 38.3083 150.631 27.5938 152.886 18.5752" stroke="url(#paint4_linear_7_2160)" stroke-width="7" stroke-linecap="round"/>
        <path d="M204.256 23.9826C204.256 36.0119 206.07 47.5025 210.916 58.6303C211.599 60.1997 216.569 69.3629 217.775 64.5385" stroke="url(#paint5_linear_7_2160)" stroke-width="7" stroke-linecap="round"/>
        <path d="M201.553 33.8963C211.895 30.5556 222.445 26.4956 233.296 25.0841C235.179 24.8393 235.696 24.7799 236.701 25.7851" stroke="url(#paint6_linear_7_2160)" stroke-width="7" stroke-linecap="round"/>
        <path d="M204.256 59.131C213.251 57.0421 222.245 54.6321 231.294 52.8223" stroke="url(#paint7_linear_7_2160)" stroke-width="7" stroke-linecap="round"/>
        <path d="M244.812 72.6497C245.942 62.322 243.911 52.0615 243.911 41.707C243.911 31.6614 251.248 36.4881 257.329 40.7057C259.21 42.0096 282.934 61.4445 273.652 64.5385" stroke="url(#paint8_linear_7_2160)" stroke-width="7" stroke-linecap="round"/>
        <path d="M246.615 57.3286C252.868 54.3138 259.053 51.8303 266.042 51.2202C270.201 50.857 274.167 51.1164 278.158 50.1187" stroke="url(#paint9_linear_7_2160)" stroke-width="7" stroke-linecap="round"/>
        <path d="M306.998 36.6C301.352 33.451 298.748 34.6762 294.931 39.9546C291.228 45.0759 289.439 50.6836 292.778 56.5274C295.194 60.7554 299.969 62.55 304.595 62.9863C309.111 63.4124 310.569 61.2715 313.307 58.2298" stroke="url(#paint10_linear_7_2160)" stroke-width="7" stroke-linecap="round"/>
        <path d="M331.331 31.1925C329.486 31.1925 330.394 31.2707 331.732 31.0924C338.06 30.2487 344.283 29.4298 350.658 28.9394C352.553 28.7937 366.892 26.5185 363.776 31.1925" stroke="url(#paint11_linear_7_2160)" stroke-width="7" stroke-linecap="round"/>
        <path d="M350.258 30.2913C349.812 40.6704 348.763 51.688 351.159 61.9349C351.634 63.9676 352.258 65.271 353.863 66.341" stroke="url(#paint12_linear_7_2160)" stroke-width="7" stroke-linecap="round"/>
        <path d="M389.011 24.8839C389.011 31.7096 388.807 38.5595 389.462 45.3621C389.738 48.235 389.676 52.5865 391.715 54.6248" stroke="url(#paint13_linear_7_2160)" stroke-width="7" stroke-linecap="round"/>
        <path d="M397.122 69.0447C397.303 69.4289 398.023 72.0894 398.023 70.8472" stroke="url(#paint14_linear_7_2160)" stroke-width="7" stroke-linecap="round"/>
        <path d="M31.218 117.712C33.1377 117.952 34.3739 132.222 35.0233 134.435C35.2529 135.217 39.2578 144.285 39.3292 141.645C39.5293 134.239 37.1127 126.088 38.6282 118.813C40.4276 110.176 51.7988 124.386 53.3485 126.324C56.0715 129.727 59.1565 138.04 59.1565 138.04C59.1565 138.04 59.4784 125.791 62.5612 120.816C68.3788 111.428 72.7057 122.656 74.4776 128.326C75.1911 130.61 76.4947 140.257 79.8851 135.737" stroke="url(#paint15_linear_7_2160)" stroke-width="7" stroke-linecap="round"/>
        <path d="M105.12 115.909C99.1197 105.465 92.3639 120.11 91.1005 126.724C88.7145 139.215 104.315 136.184 108.625 128.777C110.194 126.079 114.179 109.413 111.428 118.763C109.066 126.794 112.807 132.654 120.441 134.835" stroke="url(#paint16_linear_7_2160)" stroke-width="7" stroke-linecap="round"/>
        <path d="M141.169 111.403C136.378 116.708 130.393 126.861 134.16 134.184C137.013 139.733 144.742 140.781 149.281 137.539" stroke="url(#paint17_linear_7_2160)" stroke-width="7" stroke-linecap="round"/>
        <path d="M165.503 97.8844C165.503 107.81 162.838 124.975 169.308 133.934C173.109 139.197 177.99 121.009 179.222 118.713C184.333 109.184 184.524 125.971 186.432 129.929C189.04 135.339 191.811 135.259 192.54 129.428" stroke="url(#paint18_linear_7_2160)" stroke-width="7" stroke-linecap="round"/>
        <path d="M201.553 116.811C202.55 123.92 203.194 131.17 204.457 138.24C204.604 139.064 204.36 136.567 204.256 135.737" stroke="url(#paint19_linear_7_2160)" stroke-width="7" stroke-linecap="round"/>
        <path d="M206.059 104.193C207.319 105.086 207.916 105.768 208.763 106.897" stroke="url(#paint20_linear_7_2160)" stroke-width="7" stroke-linecap="round"/>
        <path d="M215.973 118.613C217.606 125.88 219.174 133.15 220.679 140.443C220.767 140.867 221.306 143.976 221.43 143.047C222.426 135.577 223.339 123.964 228.94 118.363C229.607 117.696 237.728 132.913 238.454 134.235C241.078 139.014 242.039 141.229 246.615 138.941C251.401 136.548 274.149 120.414 262.437 115.208C252.683 110.873 249.448 133.203 251.722 138.54C254.09 144.1 261.043 146.287 266.592 146.051C275.922 145.654 280.262 139.942 286.269 133.934" stroke="url(#paint21_linear_7_2160)" stroke-width="7" stroke-linecap="round"/>
        <path d="M330.43 112.304C330.195 110.426 326.954 112.011 325.924 112.354C321.194 113.931 316.753 118.178 315.109 122.819C312.038 131.489 315.056 137.588 323.771 140.493C329.096 142.268 337.628 143.89 339.443 137.539" stroke="url(#paint22_linear_7_2160)" stroke-width="7" stroke-linecap="round"/>
        <path d="M362.875 114.107C359.576 118.373 351.76 125.442 354.964 131.731C357.606 136.917 368.217 134.573 370.936 130.63C373.917 126.307 373.982 120.096 369.183 117.011C364.786 114.184 363.658 117.749 364.677 121.317" stroke="url(#paint23_linear_7_2160)" stroke-width="7" stroke-linecap="round"/>
        <path d="M400.727 99.6869C401.774 109.107 401.317 118.576 402.53 127.976C403.318 134.085 401.126 129.173 396.922 127.826C393.121 126.607 381.438 128.212 383.804 134.835C387.763 145.922 408.635 137.535 415.047 134.835C421.822 131.983 431.573 129.634 435.876 123.119C438.574 119.032 437.214 113.601 431.219 114.457C423.471 115.564 416.483 125.416 420.054 132.933C421.956 136.938 428.668 138.366 432.571 138.54C437.481 138.76 439.067 136.726 441.283 133.033" stroke="url(#paint24_linear_7_2160)" stroke-width="7" stroke-linecap="round"/>
        <path d="M482.74 112.304C483.25 119.856 482.93 128.715 486.796 135.586C488.027 137.775 488.147 134.895 488.147 133.934" stroke="url(#paint25_linear_7_2160)" stroke-width="7" stroke-linecap="round"/>
        <path d="M491.752 99.6869L495.357 105.094" stroke="url(#paint26_linear_7_2160)" stroke-width="7" stroke-linecap="round"/>
        <path d="M526 110.502C523.484 110.577 512.047 111.044 513.583 116.61C514.547 120.105 523.328 122.216 525.9 124.972C529.535 128.867 529.116 133.883 525.499 137.789C520.564 143.119 516.62 134.901 514.284 131.23" stroke="url(#paint27_linear_7_2160)" stroke-width="7" stroke-linecap="round"/>
        <path d="M42.0328 170.885C42.0328 179.827 42.9826 189.152 44.7366 197.922" stroke="url(#paint28_linear_7_2160)" stroke-width="7" stroke-linecap="round"/>
        <path d="M42.9341 158.268L45.6378 160.971" stroke="url(#paint29_linear_7_2160)" stroke-width="7" stroke-linecap="round"/>
        <path d="M60.0577 175.391C60.7864 181.676 61.1975 188.083 62.3108 194.317C62.5529 195.673 61.3847 198.423 62.7615 198.423C63.2941 198.423 66.3687 177.291 68.1689 174.69C78.1525 160.27 83.8741 195.027 85.2925 194.317" stroke="url(#paint30_linear_7_2160)" stroke-width="7" stroke-linecap="round"/>
        <path d="M104.218 157.366C106.474 164.134 107.416 170.788 108.274 177.845C108.615 180.646 108.319 186.75 110.077 189.21C112.731 192.926 106.419 177.908 101.865 178.245C94.0644 178.823 90.9536 189.38 97.4091 193.917C105.709 199.749 118.328 196.942 126.649 192.815C132.296 190.015 146.822 184.623 144.174 175.541C141.395 166.017 132.74 175.428 130.505 179.897C127.677 185.552 127.984 193.68 133.258 197.922C141.527 204.573 150.716 195.002 155.589 188.91" stroke="url(#paint31_linear_7_2160)" stroke-width="7" stroke-linecap="round"/>
        <path d="M167.305 169.984C167.305 182.771 165.301 199.222 171.311 211.241C171.674 211.967 170.252 203.476 170.009 202.228C168.403 193.966 167.082 184.38 168.607 175.992C169.349 171.913 171.869 169.21 176.218 169.683C183.789 170.508 187.23 177.286 186.432 184.354C185.919 188.896 183.183 194.482 178.671 196.32C174.153 198.161 175.417 190.167 175.417 188.009" stroke="url(#paint32_linear_7_2160)" stroke-width="7" stroke-linecap="round"/>
        <path d="M193.441 182.601C200.475 183.524 208.742 184.352 211.066 175.792C212.086 172.034 209.541 162 204.557 167.981C199.479 174.074 196.152 189.555 202.654 195.919C209.542 202.661 217.566 188.196 219.577 183.502" stroke="url(#paint33_linear_7_2160)" stroke-width="7" stroke-linecap="round"/>
        <path d="M226.787 169.083C228.471 177.362 229.265 185.049 229.491 193.416C229.517 194.388 229.747 195.708 230.593 194.017C233.283 188.637 234.884 182.626 237.102 177.043C238.049 174.658 239.373 170.141 242.058 168.932C244.549 167.812 246.049 174.551 246.414 175.491C248.521 180.918 250.853 186.238 253.524 191.413C254.842 193.966 253.91 190.321 253.825 189.811" stroke="url(#paint34_linear_7_2160)" stroke-width="7" stroke-linecap="round"/>
        <path d="M279.059 159.169C279.597 169.091 281.059 178.854 281.763 188.71C281.77 188.8 281.123 181.388 279.56 178.696C275.809 172.235 266.911 175.006 264.139 180.999C260.742 188.342 266.513 194.117 273.702 194.117C281.974 194.117 290.507 188.362 297.435 184.404C300.514 182.644 313.028 177.193 311.304 172.237C310.032 168.581 304.6 168.666 301.59 169.633C296.659 171.218 293.691 178.152 294.781 183.002C296.198 189.305 303.902 194.705 310.302 194.117C318.32 193.381 324.242 186.96 326.224 179.397C326.653 177.763 325.072 169.787 324.322 173.288C323.441 177.397 324.478 183.208 327.226 186.456C329.978 189.709 340.182 157.559 346.502 169.884C349.448 175.628 347.945 182.652 348.505 188.81C348.982 194.054 351.385 186.823 352.06 185.305" stroke="url(#paint35_linear_7_2160)" stroke-width="7" stroke-linecap="round"/>
        <path d="M369.184 155.564C367.329 163.198 358.09 186.287 368.032 191.864C376.041 196.357 387.355 188.469 389.912 180.799" stroke="url(#paint36_linear_7_2160)" stroke-width="7" stroke-linecap="round"/>
        <path d="M358.369 177.194C365.458 174.936 376.365 173.617 381.801 168.181" stroke="url(#paint37_linear_7_2160)" stroke-width="7" stroke-linecap="round"/>
        <path d="M445.789 159.169C434.651 168.625 432.767 186.38 440.582 198.623C441.004 199.285 444.693 201.548 443.786 199.524C442.34 196.299 437.792 194.308 434.974 192.515" stroke="url(#paint38_linear_7_2160)" stroke-width="7" stroke-linecap="round"/>
        <path d="M428.666 185.305C435.848 184.119 443.016 183.007 450.245 182.151C454.13 181.691 458.859 180.284 462.813 180.849C465.285 181.202 463.814 193.56 463.814 195.118C463.814 196.906 463.142 201.184 464.515 202.729C466.689 205.174 464.688 196.187 464.715 192.915C464.815 181.038 469.999 177.511 481.538 176.493C481.869 176.464 487.165 175.743 487.447 176.493C487.886 177.665 483.252 184.668 482.84 186.256C480.609 194.862 486.684 205.63 495.958 196.871C500.32 192.752 500.957 174.653 492.654 174.49C490.542 174.449 488.007 176.075 488.748 178.596C489.529 181.249 495.955 179.298 497.46 178.796C501.876 177.324 506.854 171.61 511.93 172.738C513.773 173.147 512.481 191.675 512.481 194.217C512.481 202.785 514.01 195.883 514.484 191.714C515.054 186.692 515.754 173.839 523.696 173.989C531.667 174.14 529.979 189.378 528.303 194.167C528.231 194.371 526.829 197.257 527.051 195.369C527.649 190.282 530.869 184.484 533.81 180.448C536.104 177.302 539.521 173.087 543.123 171.286C545.799 169.948 544.982 176.358 545.126 177.494C545.608 181.303 547.4 184.768 549.933 187.608C551.678 189.566 549.798 188.515 548.531 188.009" stroke="url(#paint39_linear_7_2160)" stroke-width="7" stroke-linecap="round"/>
        <path d="M44.7366 224.058C44.7366 231.521 41.6588 240.791 47.5405 246.94C53.7798 253.463 69.9552 243.098 70.8726 236.676" stroke="url(#paint40_linear_7_2160)" stroke-width="7" stroke-linecap="round"/>
        <path d="M40.2303 239.379C48.645 236.685 57.0563 233.981 65.4651 231.268" stroke="url(#paint41_linear_7_2160)" stroke-width="7" stroke-linecap="round"/>
        <path d="M78.0825 212.342C81.3151 220.783 81.2293 230.285 84.7918 238.428C85.3416 239.685 85.0547 240.339 85.693 238.779C87.2896 234.876 89.0085 230.875 91.8014 227.663C99.2944 219.046 99.6226 232.612 101.064 238.378C101.309 239.358 104.219 248.597 104.219 243.886" stroke="url(#paint42_linear_7_2160)" stroke-width="7" stroke-linecap="round"/>
        <path d="M116.836 228.565C120.613 230.342 127.124 233.574 131.206 230.768C134.937 228.202 132.602 221.178 127.951 221.655C119.332 222.539 114.076 236.535 117.437 243.685C121.565 252.47 134.964 251.908 141.169 246.589" stroke="url(#paint43_linear_7_2160)" stroke-width="7" stroke-linecap="round"/>
        <path d="M179.022 219.552C181.062 219.807 184.098 239.446 184.83 241.883C185.666 244.671 186.305 248.777 187.984 251.296C188.541 252.132 188.139 249.292 188.234 248.292C188.528 245.228 188.922 242.171 189.386 239.129C190.091 234.506 195.327 224.385 200.251 232.37C201.897 235.038 203.436 246.836 207.861 243.886" stroke="url(#paint44_linear_7_2160)" stroke-width="7" stroke-linecap="round"/>
        <path d="M222.281 229.466C220.737 233.852 216.417 243.129 220.629 247.34C225.676 252.387 231.044 241.941 231.444 238.028C231.83 234.245 228.597 226.755 223.583 229.165C220.065 230.857 220.712 234.823 223.182 236.676" stroke="url(#paint45_linear_7_2160)" stroke-width="7" stroke-linecap="round"/>
        <path d="M262.837 221.354C259.173 221.801 248.488 222.44 251.521 229.265C253.207 233.059 263.17 232.87 263.588 236.425C264.3 242.477 255.748 247.677 251.371 249.994C245.362 253.175 249.313 245.255 250.22 242.083" stroke="url(#paint46_linear_7_2160)" stroke-width="7" stroke-linecap="round"/>
        <path d="M281.763 218.651C281.276 226.233 278.952 241.947 284.667 248.592C287.389 251.757 296.637 243.658 298.887 242.083" stroke="url(#paint47_linear_7_2160)" stroke-width="7" stroke-linecap="round"/>
        <path d="M274.553 235.774C285.14 234.228 295.625 232.461 306.097 230.367" stroke="url(#paint48_linear_7_2160)" stroke-width="7" stroke-linecap="round"/>
        <path d="M353.862 218.651C345.353 223.994 340.109 233.404 343.448 243.685C347.348 255.692 360.901 255.638 368.182 246.79C374.566 239.032 367.935 225.238 361.974 219.051C355.99 212.842 356.566 230.561 356.566 233.972" stroke="url(#paint49_linear_7_2160)" stroke-width="7" stroke-linecap="round"/>
        <path d="M402.53 215.046C396.646 208.508 388.806 221.085 387.058 226.462C384.457 234.465 400.831 233.626 404.983 233.972C413.602 234.69 407.873 243.81 403.631 247.29C396.571 253.083 393.283 250.086 392.616 242.083" stroke="url(#paint50_linear_7_2160)" stroke-width="7" stroke-linecap="round"/>
        <path d="M22.2056 288.948H651.272" stroke="url(#paint51_linear_7_2160)" stroke-width="7" stroke-linecap="round"/>
        <path d="M98.8111 396.195C96.5825 400.157 95.4107 398.963 95.1561 395.144C94.5056 385.386 94.3049 375.756 94.3049 365.954C94.3049 362.232 94.3049 358.51 94.3049 354.788C94.3049 354.046 93.2814 352.234 93.9544 352.085C97.2434 351.354 101.492 352.035 104.819 352.035C111.547 352.035 118.098 351.536 124.797 351.183C131.937 350.808 139.434 350.757 146.577 351.133C148.232 351.22 146.549 380.483 146.577 383.578C146.615 387.849 146.711 392.703 147.678 396.896C148.099 398.719 139.942 397.119 138.566 397.097C135.365 397.044 109.733 393.278 108.725 395.294" stroke="url(#paint52_linear_7_2160)" stroke-width="7" stroke-linecap="round"/>
        <path d="M78.9837 423.233C78.209 417.035 73.6399 437.78 78.2828 441.958C78.6617 442.299 85.9579 440.934 86.6443 440.807C93.4955 439.538 101.192 439.955 108.174 439.505C115.761 439.016 123.06 441.719 130.855 441.057C137.343 440.506 143.633 438.554 150.182 438.554C155.638 438.554 160.967 439.455 166.404 439.455C167.647 439.455 177.277 439.012 177.019 438.754C174.683 436.419 173.315 436.112 172.713 431.744C172.212 428.116 172.753 420.229 170.009 417.324C169.439 416.721 164.837 416.123 164.051 416.123C156.515 416.123 148.911 418.886 141.52 420.078C133.931 421.302 125.795 420.529 118.138 420.529C111.609 420.529 105.378 421.693 98.9112 422.281C94.0478 422.723 89.4053 421.509 84.5914 421.43C82.6118 421.398 77.2389 422.447 76.28 420.529" stroke="url(#paint53_linear_7_2160)" stroke-width="7" stroke-linecap="round"/>
        <path d="M54.6502 322.294C53.0082 319.215 55.0024 330.114 56.4527 332.007C59.573 336.081 64.8323 337.716 65.4151 331.306C65.7151 328.006 65.7734 329.221 66.8671 331.707C67.997 334.275 70.2025 335.836 73.0756 335.261C79.6128 333.954 76.4269 325.752 76.28 325.899" stroke="url(#paint54_linear_7_2160)" stroke-width="7" stroke-linecap="round"/>
        <path d="M88.8975 323.195C89.1646 323.985 92.103 334.809 93.4037 332.207" stroke="url(#paint55_linear_7_2160)" stroke-width="7" stroke-linecap="round"/>
        <path d="M102.416 319.59C102.446 322.776 100.949 332.443 103.768 335.261C104.372 335.865 107.529 330.2 107.824 329.704C109.037 327.658 110.931 324.049 111.428 328.402C111.976 333.195 112.893 336.939 115.033 341.22" stroke="url(#paint56_linear_7_2160)" stroke-width="7" stroke-linecap="round"/>
        <path d="M132.157 313.281C132.92 320.674 134.861 342.843 134.861 335.412C134.861 332.035 131.541 330.544 128.953 332.408C127.15 333.705 121.211 340.774 125.648 342.371C131.923 344.63 139.943 336.138 143.873 332.207" stroke="url(#paint57_linear_7_2160)" stroke-width="7" stroke-linecap="round"/>
        <path d="M146.577 325.899C137.231 335.528 149.175 335.696 151.584 328.602C154.139 321.078 143.081 320.232 148.379 329.504" stroke="url(#paint58_linear_7_2160)" stroke-width="7" stroke-linecap="round"/>
        <path d="M160.096 321.392C159.966 323 156.995 341.274 164.401 336.513C167.723 334.378 166.436 326.039 167.406 330.405C170.329 343.558 182.083 318.961 175.417 322.294" stroke="url(#paint59_linear_7_2160)" stroke-width="7" stroke-linecap="round"/>
        <path d="M195.244 315.985C188.251 322.342 189.313 323.688 197.297 326.349C203.62 328.457 194.588 333.448 192.54 334.911" stroke="url(#paint60_linear_7_2160)" stroke-width="7" stroke-linecap="round"/>
        <path d="M297.084 351.133C297.084 341.801 295.451 369.741 295.282 379.072C295.09 389.598 293.479 386.197 293.479 397.047C293.479 398.391 291.482 405.208 292.578 405.208C296.615 405.208 301.558 403.377 305.696 402.955C321.713 401.32 337.949 399.8 354.063 399.8C357.652 399.8 364.541 398.423 367.832 400.251C368.669 400.716 366.273 398.15 366.68 395.094C367.845 386.361 367.637 377.488 366.029 368.808C365.377 365.285 363.542 362.136 362.925 358.744C362.671 357.347 363.804 353.014 361.773 352.936C356.207 352.722 350.749 353.737 345.251 353.737C335.124 353.737 325.884 353.266 315.71 354.538C311.365 355.081 305.411 354.631 301.59 356.541" stroke="url(#paint61_linear_7_2160)" stroke-width="7" stroke-linecap="round"/>
        <path d="M297.985 406.109C292.682 406.109 288.834 417.691 287.171 421.63C285.687 425.144 283.143 428.276 280.912 431.344C280.318 432.161 277.341 438.405 278.659 437.653C285.629 433.669 295.701 434.048 303.393 434.048C315.126 434.048 326.859 434.048 338.591 434.048C349.582 434.048 361.049 435.472 371.937 434.899C376.312 434.668 380.978 433.612 385.206 432.445C386.72 432.028 390.375 433.057 391.514 432.045C391.543 432.02 385.509 420.835 385.356 420.529C381.213 412.244 369.184 408.57 369.184 398.899" stroke="url(#paint62_linear_7_2160)" stroke-width="7" stroke-linecap="round"/>
        <path d="M306.998 410.615C306.998 410.044 306.998 410.044 306.998 410.615" stroke="url(#paint63_linear_7_2160)" stroke-width="7" stroke-linecap="round"/>
        <path d="M317.813 422.331H319.615" stroke="url(#paint64_linear_7_2160)" stroke-width="7" stroke-linecap="round"/>
        <path d="M333.134 419.628C334.356 419.7 334.815 420.018 335.838 420.529" stroke="url(#paint65_linear_7_2160)" stroke-width="7" stroke-linecap="round"/>
        <path d="M352.961 420.529H354.764" stroke="url(#paint66_linear_7_2160)" stroke-width="7" stroke-linecap="round"/>
        <path d="M367.381 416.924L369.184 416.023" stroke="url(#paint67_linear_7_2160)" stroke-width="7" stroke-linecap="round"/>
        <path d="M345.751 409.714C345.104 410.289 344.715 410.36 343.949 410.615" stroke="url(#paint68_linear_7_2160)" stroke-width="7" stroke-linecap="round"/>
        <path d="M328.628 413.319C327.357 413.394 326.205 413.826 325.023 414.22" stroke="url(#paint69_linear_7_2160)" stroke-width="7" stroke-linecap="round"/>
        <path d="M294.38 425.936C295.959 425.761 297.203 425.035 298.887 425.035" stroke="url(#paint70_linear_7_2160)" stroke-width="7" stroke-linecap="round"/>
        <path d="M302.492 367.356C301.794 367.443 300.765 384.52 300.689 387.183C300.458 395.275 308.317 390.996 313.307 389.887C323 387.733 334.561 390.788 344.65 390.788C351.06 390.788 358.701 392.56 365.078 390.738C366.602 390.302 360.947 377.43 359.771 375.917C357.27 372.702 360.437 365.318 358.168 363.05C356.261 361.143 348.172 363.688 346.252 364.151C339.153 365.865 330.592 365.684 323.27 366.454C318.282 366.98 313.617 369.344 308.6 369.158C307.139 369.104 297.174 368.257 302.492 368.257" stroke="url(#paint71_linear_7_2160)" stroke-width="7" stroke-linecap="round"/>
        <path d="M300.689 467.394C300.689 471.792 301.395 490.321 302.692 476.406C303.171 471.268 304.089 463.656 308.8 460.384C311.875 458.249 315.459 464.511 316.711 466.492C318.315 469.029 319.027 474.508 320.016 469.797C320.246 468.701 321.989 458.947 325.023 460.384C329.186 462.356 327.066 475.895 332.233 474.603" stroke="url(#paint72_linear_7_2160)" stroke-width="7" stroke-linecap="round"/>
        <path d="M350.257 458.381C345.738 454.866 339.752 467.107 341.646 470.998C345.323 478.559 352.407 472.367 355.665 468.295" stroke="url(#paint73_linear_7_2160)" stroke-width="7" stroke-linecap="round"/>
        <path d="M357.468 458.381C352.973 459.38 351.418 476.302 360.171 472.801" stroke="url(#paint74_linear_7_2160)" stroke-width="7" stroke-linecap="round"/>
        <path d="M384.505 453.875C378.294 456.766 371.704 462.725 374.992 470.598C378.494 478.985 388.843 478.095 395.32 475.505" stroke="url(#paint75_linear_7_2160)" stroke-width="7" stroke-linecap="round"/>
        <path d="M491.135 448.279C483.422 448.279 506.403 450.983 514.117 450.983C518.145 450.983 517.271 425.596 517.271 421.292C517.271 404.712 519.074 388.209 519.074 371.673C519.074 370.601 520.29 364.706 519.424 364.514C512.075 362.88 504.077 365.139 496.543 363.362C492.025 362.296 485.982 358.496 481.222 359.056C478.131 359.42 476.592 379.263 476.265 381.587C474.604 393.395 473.834 405.372 472.009 417.136C471.241 422.082 468.604 427.658 468.604 432.557C468.604 435.92 465.819 448.279 472.209 448.279C478.174 448.279 483.829 448.259 489.683 449.581C494.319 450.627 508.505 451.884 503.753 451.884" stroke="url(#paint76_linear_7_2160)" stroke-width="7" stroke-linecap="round"/>
        <path d="M490.234 379.785C495.065 380.268 498.868 379.767 503.853 379.084C507.403 378.597 511.023 376.482 511.864 380.686" stroke="url(#paint77_linear_7_2160)" stroke-width="7" stroke-linecap="round"/>
        <path d="M492.037 401.414C492.434 399.824 503.362 398.711 505.555 398.711" stroke="url(#paint78_linear_7_2160)" stroke-width="7" stroke-linecap="round"/>
        <path d="M485.728 423.044C489.319 422.223 493.061 422.527 496.593 421.592C499.015 420.951 501.211 419.439 503.753 419.439" stroke="url(#paint79_linear_7_2160)" stroke-width="7" stroke-linecap="round"/>
        <path d="M483.024 441.069C492.13 439.33 500.838 438.365 510.061 438.365" stroke="url(#paint80_linear_7_2160)" stroke-width="7" stroke-linecap="round"/>
        <path d="M550.617 377.081C551.604 374.983 552.057 373.022 550.617 371.223C549.765 370.158 548.815 365.914 547.914 369.971C546.332 377.088 546.167 384.468 544.709 391.551C543.584 397.018 541.605 403.563 541.605 409.125C541.605 410.914 539.553 415.834 542.055 415.834C546.135 415.834 549.207 413.131 553.471 413.131C566.182 413.131 578.824 412.229 591.574 412.229C593.011 412.229 603.725 411.535 603.791 410.427C604.453 399.166 604.677 387.279 606.695 376.18C607.174 373.54 612.019 365.255 606.695 366.967C600.067 369.097 593.153 369.802 586.166 369.871C577.988 369.951 569.76 370.772 561.632 370.772C557.504 370.772 553.269 369.82 549.366 368.519C545.979 367.39 547.64 367.724 549.716 368.97" stroke="url(#paint81_linear_7_2160)" stroke-width="7" stroke-linecap="round"/>
        <path d="M566.84 416.735C566.83 416.82 563.508 425.406 565.037 423.495C566.359 421.842 571.11 421.242 573.148 421.242C578.155 421.242 576.832 405.713 574.1 420.741C573.268 425.314 578.051 424.847 581.059 424.847C586.164 424.847 590.923 426.649 596.08 426.649C600.286 426.649 596.133 425.693 593.677 426.449C588.967 427.898 581.715 426.814 576.954 425.948C571.995 425.047 566.043 425.272 560.982 424.897C555.836 424.516 550.533 423.945 545.41 423.945C540.832 423.945 542.463 424.788 541.154 428.452C539.453 433.215 541.66 432.958 545.711 432.958C558.207 432.958 570.515 432.057 583.012 432.057C587.592 432.057 605.044 435.858 607.396 431.155" stroke="url(#paint82_linear_7_2160)" stroke-width="7" stroke-linecap="round"/>
        <path d="M484.542 315.985C481.133 312.954 480.55 315.317 479.836 318.889C478.607 325.032 478.403 332.574 478.634 338.816C478.648 339.174 487.471 339.344 488.348 339.217C490.182 338.951 499.438 335.098 497.16 338.516" stroke="url(#paint83_linear_7_2160)" stroke-width="7" stroke-linecap="round"/>
        <path d="M506.172 329.504C506.172 325.598 506.172 337.314 506.172 341.22" stroke="url(#paint84_linear_7_2160)" stroke-width="7" stroke-linecap="round"/>
        <path d="M510.678 314.182C509.971 314.182 502.276 314.938 506.172 316.886" stroke="url(#paint85_linear_7_2160)" stroke-width="7" stroke-linecap="round"/>
        <path d="M516.987 331.306C516.987 333.791 515.502 343.657 517.488 345.075C518.5 345.798 523.71 328.518 525.148 326.9C529.093 322.462 532.173 328.839 533.209 332.408C534.116 335.53 534.111 345.373 534.111 342.121" stroke="url(#paint86_linear_7_2160)" stroke-width="7" stroke-linecap="round"/>
        <path d="M546.728 326.8C546.436 330.305 542.084 337.193 545.126 340.118C548.786 343.638 554.863 333.863 556.091 331.406C557.34 328.908 558.452 334.163 560.697 336.213C564.362 339.559 565.323 339.675 563.852 344.825" stroke="url(#paint87_linear_7_2160)" stroke-width="7" stroke-linecap="round"/>
        <path d="M574.667 325.899C583.038 327.148 586.922 331.365 593.593 335.812" stroke="url(#paint88_linear_7_2160)" stroke-width="7" stroke-linecap="round"/>
        <path d="M599.901 320.491C593.657 326.392 586.284 332.238 581.276 339.317C578.816 342.794 580.979 343.8 582.778 346.627" stroke="url(#paint89_linear_7_2160)" stroke-width="7" stroke-linecap="round"/>
        <path d="M114.451 496.077C110.361 496.077 106.784 496.627 102.785 496.127C96.4022 495.329 94.6233 496.368 94.6233 502.986C94.6233 505.874 92.5262 525.669 96.0252 526.669C101.769 528.31 107.112 524.015 112.648 524.015" stroke="url(#paint90_linear_7_2160)" stroke-width="7" stroke-linecap="round"/>
        <path d="M133.377 507.793C125.062 500.402 118.665 516.63 126.367 516.805C129.693 516.881 132.792 515.488 135.129 513.15C136.79 511.489 138.705 504.46 137.833 506.641C135.202 513.217 137.718 516.723 143.29 519.509" stroke="url(#paint91_linear_7_2160)" stroke-width="7" stroke-linecap="round"/>
        <path d="M164.92 501.484C160.297 505.552 150.348 515.866 161.315 518.608" stroke="url(#paint92_linear_7_2160)" stroke-width="7" stroke-linecap="round"/>
        <path d="M178.439 504.188C179.288 507.245 179.857 513.5 182.645 515.704C183.96 516.744 186.024 516.892 184.697 514.903C182.498 511.603 182.08 507.051 184.948 503.988C188.575 500.113 193.661 497.078 199.117 497.078C201.854 497.078 205.67 500.287 205.326 503.387C204.927 506.973 202.122 510.028 204.775 513.701C207.355 517.274 212.328 515.66 214.438 512.6C217.629 507.973 217.104 502.944 211.084 501.684C207.758 500.988 209.541 504.188 212.686 504.188" stroke="url(#paint93_linear_7_2160)" stroke-width="7" stroke-linecap="round"/>
        <path d="M237.921 498.781C230.474 499.172 226.233 508.314 236.118 508.694C245.114 509.04 233.415 518.899 233.415 515.904" stroke="url(#paint94_linear_7_2160)" stroke-width="7" stroke-linecap="round"/>
        <path d="M262.254 499.682C261.12 500.086 250.242 502.901 254.293 505.94C256.719 507.759 260.288 506.14 262.555 508.494C266.012 512.084 251.231 524.639 254.143 515.904" stroke="url(#paint95_linear_7_2160)" stroke-width="7" stroke-linecap="round"/>
        <path d="M319.934 503.287C313.26 502.352 309.304 504.645 308.318 511.798C307.03 521.137 316.971 516.285 320.334 512.249C321.818 510.469 324.44 503.013 324.44 507.492C324.44 514.424 327.074 517.707 334.354 517.707" stroke="url(#paint96_linear_7_2160)" stroke-width="7" stroke-linecap="round"/>
        <path d="M384.823 505.99C384.23 501.245 377.079 506.942 375.811 507.993C373.339 510.041 372.163 513.923 374.409 516.605C377.904 520.779 384.673 519.819 389.33 519.509" stroke="url(#paint97_linear_7_2160)" stroke-width="7" stroke-linecap="round"/>
        <path d="M402.848 505.089C403.452 511.797 403.967 517.43 406.854 523.464C407.139 524.061 408.334 526.875 407.354 524.916" stroke="url(#paint98_linear_7_2160)" stroke-width="7" stroke-linecap="round"/>
        <path d="M406.453 502.385C409.263 501.671 418.221 497.88 421.374 499.682C423.047 500.638 416.637 505.657 416.317 505.89C415.371 506.578 407.958 512.292 409.157 508.694" stroke="url(#paint99_linear_7_2160)" stroke-width="7" stroke-linecap="round"/>
        <path d="M428.083 497.879C427.52 501.047 423.508 513.339 429.885 514.402C433.832 515.06 437.334 506.246 437.896 503.437C438.605 499.893 437.97 505.354 438.197 506.691C438.808 510.295 442.524 514.096 446.108 513.2" stroke="url(#paint100_linear_7_2160)" stroke-width="7" stroke-linecap="round"/>
        <path d="M493.873 487.966C493.696 486.549 491.697 486.975 490.769 487.465C484.83 490.599 483.636 497.453 483.259 503.587C482.898 509.45 484.44 514.849 489.367 518.407C492.048 520.344 492.038 517.641 491.17 515.904" stroke="url(#paint101_linear_7_2160)" stroke-width="7" stroke-linecap="round"/>
        <path d="M479.454 506.892C485.185 507.791 492.281 509.109 497.478 505.99" stroke="url(#paint102_linear_7_2160)" stroke-width="7" stroke-linecap="round"/>
        <path d="M507.392 505.089C510.982 505.687 501.053 508.824 498.48 511.398C493.956 515.922 499.789 518.918 504.238 517.106C506.462 516.199 508.471 514.199 509.895 512.299C510.239 511.841 510.997 509.341 510.997 510.497C510.997 514.579 511.941 519.294 516.404 520.41" stroke="url(#paint103_linear_7_2160)" stroke-width="7" stroke-linecap="round"/>
        <path d="M520.911 507.793C520.966 508.294 521.604 519.108 522.913 519.108C523.708 519.108 525.434 511.564 525.867 510.697C529.167 504.099 530.423 513.63 531.525 516.605C532.728 519.852 539.541 509.084 541.589 508.444C544.206 507.626 542.321 518.729 543.442 520.41" stroke="url(#paint104_linear_7_2160)" stroke-width="7" stroke-linecap="round"/>
        <path d="M553.355 508.694C553.51 509.399 554.765 519.394 556.059 516.805" stroke="url(#paint105_linear_7_2160)" stroke-width="7" stroke-linecap="round"/>
        <path d="M547.047 498.78C549.17 490.021 545.439 499.852 549.75 496.978" stroke="url(#paint106_linear_7_2160)" stroke-width="7" stroke-linecap="round"/>
        <path d="M564.17 489.768C568.332 495.779 567.808 506.123 569.578 513.2" stroke="url(#paint107_linear_7_2160)" stroke-width="7" stroke-linecap="round"/>
        <path d="M610.134 492.472C609.862 490.302 622.912 487.96 625.955 487.265C628.385 486.709 625.728 490.19 625.505 491.27C624.384 496.685 623.693 502.164 623.652 507.693C623.614 512.887 623.268 517.775 622.801 522.914C622.616 524.946 623.075 524.549 623.452 522.914C624.434 518.657 609.234 520.41 606.529 520.41" stroke="url(#paint108_linear_7_2160)" stroke-width="7" stroke-linecap="round"/>
        <path d="M577.689 499.385C577.689 503.293 576.359 510.163 578.79 513.405C584.012 520.367 592.011 501.53 592.96 498.684C593.898 495.869 593.911 500.522 593.911 500.988C593.911 506.161 593.911 511.335 593.911 516.509C593.911 522.119 593.847 528.152 589.906 532.631C585.333 537.828 579.491 538.578 579.491 530.929" stroke="url(#paint109_linear_7_2160)" stroke-width="7" stroke-linecap="round"/>
    </g>
    <defs>
        <linearGradient id="paint0_linear_7_2160" x1="48.3415" y1="30.2913" x2="48.3415" y2="70.0463" gradientUnits="userSpaceOnUse">
            <stop/>
            <stop offset="1" stop-color="#6A6A6A"/>
        </linearGradient>
        <linearGradient id="paint1_linear_7_2160" x1="54.1996" y1="20.3776" x2="54.1996" y2="34.7975" gradientUnits="userSpaceOnUse">
            <stop/>
            <stop offset="1" stop-color="#6A6A6A"/>
        </linearGradient>
        <linearGradient id="paint2_linear_7_2160" x1="63.212" y1="50.1187" x2="63.212" y2="55.5261" gradientUnits="userSpaceOnUse">
            <stop/>
            <stop offset="1" stop-color="#6A6A6A"/>
        </linearGradient>
        <linearGradient id="paint3_linear_7_2160" x1="93.6262" y1="29.3901" x2="93.6262" y2="64.8281" gradientUnits="userSpaceOnUse">
            <stop/>
            <stop offset="1" stop-color="#6A6A6A"/>
        </linearGradient>
        <linearGradient id="paint4_linear_7_2160" x1="139.568" y1="18.5752" x2="139.568" y2="60.9336" gradientUnits="userSpaceOnUse">
            <stop/>
            <stop offset="1" stop-color="#6A6A6A"/>
        </linearGradient>
        <linearGradient id="paint5_linear_7_2160" x1="211.016" y1="23.9826" x2="211.016" y2="65.9279" gradientUnits="userSpaceOnUse">
            <stop/>
            <stop offset="1" stop-color="#6A6A6A"/>
        </linearGradient>
        <linearGradient id="paint6_linear_7_2160" x1="219.127" y1="24.9328" x2="219.127" y2="33.8963" gradientUnits="userSpaceOnUse">
            <stop/>
            <stop offset="1" stop-color="#6A6A6A"/>
        </linearGradient>
        <linearGradient id="paint7_linear_7_2160" x1="217.775" y1="52.8223" x2="217.775" y2="59.131" gradientUnits="userSpaceOnUse">
            <stop/>
            <stop offset="1" stop-color="#6A6A6A"/>
        </linearGradient>
        <linearGradient id="paint8_linear_7_2160" x1="259.854" y1="35.7657" x2="259.854" y2="72.6497" gradientUnits="userSpaceOnUse">
            <stop/>
            <stop offset="1" stop-color="#6A6A6A"/>
        </linearGradient>
        <linearGradient id="paint9_linear_7_2160" x1="262.386" y1="50.1187" x2="262.386" y2="57.3286" gradientUnits="userSpaceOnUse">
            <stop/>
            <stop offset="1" stop-color="#6A6A6A"/>
        </linearGradient>
        <linearGradient id="paint10_linear_7_2160" x1="302.161" y1="34.8845" x2="302.161" y2="63.0404" gradientUnits="userSpaceOnUse">
            <stop/>
            <stop offset="1" stop-color="#6A6A6A"/>
        </linearGradient>
        <linearGradient id="paint11_linear_7_2160" x1="347.254" y1="28.2585" x2="347.254" y2="31.2096" gradientUnits="userSpaceOnUse">
            <stop/>
            <stop offset="1" stop-color="#6A6A6A"/>
        </linearGradient>
        <linearGradient id="paint12_linear_7_2160" x1="351.752" y1="30.2913" x2="351.752" y2="66.341" gradientUnits="userSpaceOnUse">
            <stop/>
            <stop offset="1" stop-color="#6A6A6A"/>
        </linearGradient>
        <linearGradient id="paint13_linear_7_2160" x1="390.348" y1="24.8839" x2="390.348" y2="54.6248" gradientUnits="userSpaceOnUse">
            <stop/>
            <stop offset="1" stop-color="#6A6A6A"/>
        </linearGradient>
        <linearGradient id="paint14_linear_7_2160" x1="397.573" y1="69.0447" x2="397.573" y2="71.1751" gradientUnits="userSpaceOnUse">
            <stop/>
            <stop offset="1" stop-color="#6A6A6A"/>
        </linearGradient>
        <linearGradient id="paint15_linear_7_2160" x1="55.5515" y1="116.052" x2="55.5515" y2="142.125" gradientUnits="userSpaceOnUse">
            <stop/>
            <stop offset="1" stop-color="#6A6A6A"/>
        </linearGradient>
        <linearGradient id="paint16_linear_7_2160" x1="105.647" y1="112.263" x2="105.647" y2="135.217" gradientUnits="userSpaceOnUse">
            <stop/>
            <stop offset="1" stop-color="#6A6A6A"/>
        </linearGradient>
        <linearGradient id="paint17_linear_7_2160" x1="141.127" y1="111.403" x2="141.127" y2="139.365" gradientUnits="userSpaceOnUse">
            <stop/>
            <stop offset="1" stop-color="#6A6A6A"/>
        </linearGradient>
        <linearGradient id="paint18_linear_7_2160" x1="178.75" y1="97.8844" x2="178.75" y2="134.885" gradientUnits="userSpaceOnUse">
            <stop/>
            <stop offset="1" stop-color="#6A6A6A"/>
        </linearGradient>
        <linearGradient id="paint19_linear_7_2160" x1="203.028" y1="116.811" x2="203.028" y2="138.405" gradientUnits="userSpaceOnUse">
            <stop/>
            <stop offset="1" stop-color="#6A6A6A"/>
        </linearGradient>
        <linearGradient id="paint20_linear_7_2160" x1="207.411" y1="104.193" x2="207.411" y2="106.897" gradientUnits="userSpaceOnUse">
            <stop/>
            <stop offset="1" stop-color="#6A6A6A"/>
        </linearGradient>
        <linearGradient id="paint21_linear_7_2160" x1="251.121" y1="114.654" x2="251.121" y2="146.068" gradientUnits="userSpaceOnUse">
            <stop/>
            <stop offset="1" stop-color="#6A6A6A"/>
        </linearGradient>
        <linearGradient id="paint22_linear_7_2160" x1="326.692" y1="111.403" x2="326.692" y2="142.084" gradientUnits="userSpaceOnUse">
            <stop/>
            <stop offset="1" stop-color="#6A6A6A"/>
        </linearGradient>
        <linearGradient id="paint23_linear_7_2160" x1="363.61" y1="114.107" x2="363.61" y2="134.721" gradientUnits="userSpaceOnUse">
            <stop/>
            <stop offset="1" stop-color="#6A6A6A"/>
        </linearGradient>
        <linearGradient id="paint24_linear_7_2160" x1="412.387" y1="99.6869" x2="412.387" y2="140.419" gradientUnits="userSpaceOnUse">
            <stop/>
            <stop offset="1" stop-color="#6A6A6A"/>
        </linearGradient>
        <linearGradient id="paint25_linear_7_2160" x1="485.444" y1="112.304" x2="485.444" y2="136.389" gradientUnits="userSpaceOnUse">
            <stop/>
            <stop offset="1" stop-color="#6A6A6A"/>
        </linearGradient>
        <linearGradient id="paint26_linear_7_2160" x1="493.555" y1="99.6869" x2="493.555" y2="105.094" gradientUnits="userSpaceOnUse">
            <stop/>
            <stop offset="1" stop-color="#6A6A6A"/>
        </linearGradient>
        <linearGradient id="paint27_linear_7_2160" x1="520.935" y1="110.502" x2="520.935" y2="139.537" gradientUnits="userSpaceOnUse">
            <stop/>
            <stop offset="1" stop-color="#6A6A6A"/>
        </linearGradient>
        <linearGradient id="paint28_linear_7_2160" x1="43.3847" y1="170.885" x2="43.3847" y2="197.922" gradientUnits="userSpaceOnUse">
            <stop/>
            <stop offset="1" stop-color="#6A6A6A"/>
        </linearGradient>
        <linearGradient id="paint29_linear_7_2160" x1="44.2859" y1="158.268" x2="44.2859" y2="160.971" gradientUnits="userSpaceOnUse">
            <stop/>
            <stop offset="1" stop-color="#6A6A6A"/>
        </linearGradient>
        <linearGradient id="paint30_linear_7_2160" x1="72.6751" y1="171.183" x2="72.6751" y2="198.423" gradientUnits="userSpaceOnUse">
            <stop/>
            <stop offset="1" stop-color="#6A6A6A"/>
        </linearGradient>
        <linearGradient id="paint31_linear_7_2160" x1="124.757" y1="157.366" x2="124.757" y2="200.18" gradientUnits="userSpaceOnUse">
            <stop/>
            <stop offset="1" stop-color="#6A6A6A"/>
        </linearGradient>
        <linearGradient id="paint32_linear_7_2160" x1="176.765" y1="169.63" x2="176.765" y2="211.285" gradientUnits="userSpaceOnUse">
            <stop/>
            <stop offset="1" stop-color="#6A6A6A"/>
        </linearGradient>
        <linearGradient id="paint33_linear_7_2160" x1="206.509" y1="166.122" x2="206.509" y2="197.68" gradientUnits="userSpaceOnUse">
            <stop/>
            <stop offset="1" stop-color="#6A6A6A"/>
        </linearGradient>
        <linearGradient id="paint34_linear_7_2160" x1="240.506" y1="168.807" x2="240.506" y2="194.83" gradientUnits="userSpaceOnUse">
            <stop/>
            <stop offset="1" stop-color="#6A6A6A"/>
        </linearGradient>
        <linearGradient id="paint35_linear_7_2160" x1="307.599" y1="159.169" x2="307.599" y2="194.161" gradientUnits="userSpaceOnUse">
            <stop/>
            <stop offset="1" stop-color="#6A6A6A"/>
        </linearGradient>
        <linearGradient id="paint36_linear_7_2160" x1="376.705" y1="155.564" x2="376.705" y2="193.175" gradientUnits="userSpaceOnUse">
            <stop/>
            <stop offset="1" stop-color="#6A6A6A"/>
        </linearGradient>
        <linearGradient id="paint37_linear_7_2160" x1="370.085" y1="168.181" x2="370.085" y2="177.194" gradientUnits="userSpaceOnUse">
            <stop/>
            <stop offset="1" stop-color="#6A6A6A"/>
        </linearGradient>
        <linearGradient id="paint38_linear_7_2160" x1="440.382" y1="159.169" x2="440.382" y2="200.347" gradientUnits="userSpaceOnUse">
            <stop/>
            <stop offset="1" stop-color="#6A6A6A"/>
        </linearGradient>
        <linearGradient id="paint39_linear_7_2160" x1="489.653" y1="171.103" x2="489.653" y2="203.145" gradientUnits="userSpaceOnUse">
            <stop/>
            <stop offset="1" stop-color="#6A6A6A"/>
        </linearGradient>
        <linearGradient id="paint40_linear_7_2160" x1="57.4022" y1="224.058" x2="57.4022" y2="249.015" gradientUnits="userSpaceOnUse">
            <stop/>
            <stop offset="1" stop-color="#6A6A6A"/>
        </linearGradient>
        <linearGradient id="paint41_linear_7_2160" x1="52.8477" y1="231.268" x2="52.8477" y2="239.379" gradientUnits="userSpaceOnUse">
            <stop/>
            <stop offset="1" stop-color="#6A6A6A"/>
        </linearGradient>
        <linearGradient id="paint42_linear_7_2160" x1="91.1505" y1="212.342" x2="91.1505" y2="245.216" gradientUnits="userSpaceOnUse">
            <stop/>
            <stop offset="1" stop-color="#6A6A6A"/>
        </linearGradient>
        <linearGradient id="paint43_linear_7_2160" x1="128.79" y1="221.632" x2="128.79" y2="250.463" gradientUnits="userSpaceOnUse">
            <stop/>
            <stop offset="1" stop-color="#6A6A6A"/>
        </linearGradient>
        <linearGradient id="paint44_linear_7_2160" x1="193.441" y1="219.552" x2="193.441" y2="251.448" gradientUnits="userSpaceOnUse">
            <stop/>
            <stop offset="1" stop-color="#6A6A6A"/>
        </linearGradient>
        <linearGradient id="paint45_linear_7_2160" x1="225.155" y1="228.697" x2="225.155" y2="248.69" gradientUnits="userSpaceOnUse">
            <stop/>
            <stop offset="1" stop-color="#6A6A6A"/>
        </linearGradient>
        <linearGradient id="paint46_linear_7_2160" x1="255.868" y1="221.354" x2="255.868" y2="250.733" gradientUnits="userSpaceOnUse">
            <stop/>
            <stop offset="1" stop-color="#6A6A6A"/>
        </linearGradient>
        <linearGradient id="paint47_linear_7_2160" x1="289.885" y1="218.651" x2="289.885" y2="249.319" gradientUnits="userSpaceOnUse">
            <stop/>
            <stop offset="1" stop-color="#6A6A6A"/>
        </linearGradient>
        <linearGradient id="paint48_linear_7_2160" x1="290.325" y1="230.367" x2="290.325" y2="235.774" gradientUnits="userSpaceOnUse">
            <stop/>
            <stop offset="1" stop-color="#6A6A6A"/>
        </linearGradient>
        <linearGradient id="paint49_linear_7_2160" x1="356.609" y1="217.743" x2="356.609" y2="253.1" gradientUnits="userSpaceOnUse">
            <stop/>
            <stop offset="1" stop-color="#6A6A6A"/>
        </linearGradient>
        <linearGradient id="paint50_linear_7_2160" x1="398.121" y1="213.206" x2="398.121" y2="250.306" gradientUnits="userSpaceOnUse">
            <stop/>
            <stop offset="1" stop-color="#6A6A6A"/>
        </linearGradient>
        <linearGradient id="paint51_linear_7_2160" x1="336.739" y1="288.948" x2="336.739" y2="289.948" gradientUnits="userSpaceOnUse">
            <stop/>
            <stop offset="1" stop-color="#6A6A6A"/>
        </linearGradient>
        <linearGradient id="paint52_linear_7_2160" x1="120.71" y1="350.875" x2="120.71" y2="398.647" gradientUnits="userSpaceOnUse">
            <stop/>
            <stop offset="1" stop-color="#6A6A6A"/>
        </linearGradient>
        <linearGradient id="paint53_linear_7_2160" x1="126.626" y1="416.123" x2="126.626" y2="442.013" gradientUnits="userSpaceOnUse">
            <stop/>
            <stop offset="1" stop-color="#6A6A6A"/>
        </linearGradient>
        <linearGradient id="paint54_linear_7_2160" x1="65.6087" y1="321.749" x2="65.6087" y2="335.596" gradientUnits="userSpaceOnUse">
            <stop/>
            <stop offset="1" stop-color="#6A6A6A"/>
        </linearGradient>
        <linearGradient id="paint55_linear_7_2160" x1="91.1506" y1="323.195" x2="91.1506" y2="332.61" gradientUnits="userSpaceOnUse">
            <stop/>
            <stop offset="1" stop-color="#6A6A6A"/>
        </linearGradient>
        <linearGradient id="paint56_linear_7_2160" x1="108.539" y1="319.59" x2="108.539" y2="341.22" gradientUnits="userSpaceOnUse">
            <stop/>
            <stop offset="1" stop-color="#6A6A6A"/>
        </linearGradient>
        <linearGradient id="paint57_linear_7_2160" x1="133.955" y1="313.281" x2="133.955" y2="342.747" gradientUnits="userSpaceOnUse">
            <stop/>
            <stop offset="1" stop-color="#6A6A6A"/>
        </linearGradient>
        <linearGradient id="paint58_linear_7_2160" x1="147.514" y1="322.755" x2="147.514" y2="333.568" gradientUnits="userSpaceOnUse">
            <stop/>
            <stop offset="1" stop-color="#6A6A6A"/>
        </linearGradient>
        <linearGradient id="paint59_linear_7_2160" x1="168.416" y1="321.392" x2="168.416" y2="337.302" gradientUnits="userSpaceOnUse">
            <stop/>
            <stop offset="1" stop-color="#6A6A6A"/>
        </linearGradient>
        <linearGradient id="paint60_linear_7_2160" x1="195.051" y1="315.985" x2="195.051" y2="334.911" gradientUnits="userSpaceOnUse">
            <stop/>
            <stop offset="1" stop-color="#6A6A6A"/>
        </linearGradient>
        <linearGradient id="paint61_linear_7_2160" x1="330.13" y1="349.252" x2="330.13" y2="405.208" gradientUnits="userSpaceOnUse">
            <stop/>
            <stop offset="1" stop-color="#6A6A6A"/>
        </linearGradient>
        <linearGradient id="paint62_linear_7_2160" x1="334.92" y1="398.899" x2="334.92" y2="437.715" gradientUnits="userSpaceOnUse">
            <stop/>
            <stop offset="1" stop-color="#6A6A6A"/>
        </linearGradient>
        <linearGradient id="paint63_linear_7_2160" x1="307.498" y1="410.187" x2="307.498" y2="410.615" gradientUnits="userSpaceOnUse">
            <stop/>
            <stop offset="1" stop-color="#6A6A6A"/>
        </linearGradient>
        <linearGradient id="paint64_linear_7_2160" x1="318.714" y1="422.331" x2="318.714" y2="423.331" gradientUnits="userSpaceOnUse">
            <stop/>
            <stop offset="1" stop-color="#6A6A6A"/>
        </linearGradient>
        <linearGradient id="paint65_linear_7_2160" x1="334.486" y1="419.628" x2="334.486" y2="420.529" gradientUnits="userSpaceOnUse">
            <stop/>
            <stop offset="1" stop-color="#6A6A6A"/>
        </linearGradient>
        <linearGradient id="paint66_linear_7_2160" x1="353.862" y1="420.529" x2="353.862" y2="421.529" gradientUnits="userSpaceOnUse">
            <stop/>
            <stop offset="1" stop-color="#6A6A6A"/>
        </linearGradient>
        <linearGradient id="paint67_linear_7_2160" x1="368.282" y1="416.023" x2="368.282" y2="416.924" gradientUnits="userSpaceOnUse">
            <stop/>
            <stop offset="1" stop-color="#6A6A6A"/>
        </linearGradient>
        <linearGradient id="paint68_linear_7_2160" x1="344.85" y1="409.714" x2="344.85" y2="410.615" gradientUnits="userSpaceOnUse">
            <stop/>
            <stop offset="1" stop-color="#6A6A6A"/>
        </linearGradient>
        <linearGradient id="paint69_linear_7_2160" x1="326.825" y1="413.319" x2="326.825" y2="414.22" gradientUnits="userSpaceOnUse">
            <stop/>
            <stop offset="1" stop-color="#6A6A6A"/>
        </linearGradient>
        <linearGradient id="paint70_linear_7_2160" x1="296.634" y1="425.035" x2="296.634" y2="425.936" gradientUnits="userSpaceOnUse">
            <stop/>
            <stop offset="1" stop-color="#6A6A6A"/>
        </linearGradient>
        <linearGradient id="paint71_linear_7_2160" x1="333.01" y1="362.35" x2="333.01" y2="392.009" gradientUnits="userSpaceOnUse">
            <stop/>
            <stop offset="1" stop-color="#6A6A6A"/>
        </linearGradient>
        <linearGradient id="paint72_linear_7_2160" x1="316.461" y1="459.946" x2="316.461" y2="481.5" gradientUnits="userSpaceOnUse">
            <stop/>
            <stop offset="1" stop-color="#6A6A6A"/>
        </linearGradient>
        <linearGradient id="paint73_linear_7_2160" x1="348.475" y1="457.754" x2="348.475" y2="474.565" gradientUnits="userSpaceOnUse">
            <stop/>
            <stop offset="1" stop-color="#6A6A6A"/>
        </linearGradient>
        <linearGradient id="paint74_linear_7_2160" x1="357.007" y1="458.381" x2="357.007" y2="473.277" gradientUnits="userSpaceOnUse">
            <stop/>
            <stop offset="1" stop-color="#6A6A6A"/>
        </linearGradient>
        <linearGradient id="paint75_linear_7_2160" x1="384.718" y1="453.875" x2="384.718" y2="477.312" gradientUnits="userSpaceOnUse">
            <stop/>
            <stop offset="1" stop-color="#6A6A6A"/>
        </linearGradient>
        <linearGradient id="paint76_linear_7_2160" x1="493.868" y1="359" x2="493.868" y2="451.884" gradientUnits="userSpaceOnUse">
            <stop/>
            <stop offset="1" stop-color="#6A6A6A"/>
        </linearGradient>
        <linearGradient id="paint77_linear_7_2160" x1="501.049" y1="378.121" x2="501.049" y2="380.686" gradientUnits="userSpaceOnUse">
            <stop/>
            <stop offset="1" stop-color="#6A6A6A"/>
        </linearGradient>
        <linearGradient id="paint78_linear_7_2160" x1="498.796" y1="398.711" x2="498.796" y2="401.414" gradientUnits="userSpaceOnUse">
            <stop/>
            <stop offset="1" stop-color="#6A6A6A"/>
        </linearGradient>
        <linearGradient id="paint79_linear_7_2160" x1="494.74" y1="419.439" x2="494.74" y2="423.044" gradientUnits="userSpaceOnUse">
            <stop/>
            <stop offset="1" stop-color="#6A6A6A"/>
        </linearGradient>
        <linearGradient id="paint80_linear_7_2160" x1="496.543" y1="438.365" x2="496.543" y2="441.069" gradientUnits="userSpaceOnUse">
            <stop/>
            <stop offset="1" stop-color="#6A6A6A"/>
        </linearGradient>
        <linearGradient id="paint81_linear_7_2160" x1="574.992" y1="366.736" x2="574.992" y2="415.834" gradientUnits="userSpaceOnUse">
            <stop/>
            <stop offset="1" stop-color="#6A6A6A"/>
        </linearGradient>
        <linearGradient id="paint82_linear_7_2160" x1="573.985" y1="414.189" x2="573.985" y2="433.508" gradientUnits="userSpaceOnUse">
            <stop/>
            <stop offset="1" stop-color="#6A6A6A"/>
        </linearGradient>
        <linearGradient id="paint83_linear_7_2160" x1="488.035" y1="314.595" x2="488.035" y2="339.259" gradientUnits="userSpaceOnUse">
            <stop/>
            <stop offset="1" stop-color="#6A6A6A"/>
        </linearGradient>
        <linearGradient id="paint84_linear_7_2160" x1="506.672" y1="328.718" x2="506.672" y2="341.22" gradientUnits="userSpaceOnUse">
            <stop/>
            <stop offset="1" stop-color="#6A6A6A"/>
        </linearGradient>
        <linearGradient id="paint85_linear_7_2160" x1="507.878" y1="314.182" x2="507.878" y2="316.886" gradientUnits="userSpaceOnUse">
            <stop/>
            <stop offset="1" stop-color="#6A6A6A"/>
        </linearGradient>
        <linearGradient id="paint86_linear_7_2160" x1="525.282" y1="325.385" x2="525.282" y2="345.097" gradientUnits="userSpaceOnUse">
            <stop/>
            <stop offset="1" stop-color="#6A6A6A"/>
        </linearGradient>
        <linearGradient id="paint87_linear_7_2160" x1="554.282" y1="326.8" x2="554.282" y2="344.825" gradientUnits="userSpaceOnUse">
            <stop/>
            <stop offset="1" stop-color="#6A6A6A"/>
        </linearGradient>
        <linearGradient id="paint88_linear_7_2160" x1="584.13" y1="325.899" x2="584.13" y2="335.812" gradientUnits="userSpaceOnUse">
            <stop/>
            <stop offset="1" stop-color="#6A6A6A"/>
        </linearGradient>
        <linearGradient id="paint89_linear_7_2160" x1="590.036" y1="320.491" x2="590.036" y2="346.627" gradientUnits="userSpaceOnUse">
            <stop/>
            <stop offset="1" stop-color="#6A6A6A"/>
        </linearGradient>
        <linearGradient id="paint90_linear_7_2160" x1="104.225" y1="495.896" x2="104.225" y2="527.043" gradientUnits="userSpaceOnUse">
            <stop/>
            <stop offset="1" stop-color="#6A6A6A"/>
        </linearGradient>
        <linearGradient id="paint91_linear_7_2160" x1="133.098" y1="505.865" x2="133.098" y2="519.509" gradientUnits="userSpaceOnUse">
            <stop/>
            <stop offset="1" stop-color="#6A6A6A"/>
        </linearGradient>
        <linearGradient id="paint92_linear_7_2160" x1="160.634" y1="501.484" x2="160.634" y2="518.608" gradientUnits="userSpaceOnUse">
            <stop/>
            <stop offset="1" stop-color="#6A6A6A"/>
        </linearGradient>
        <linearGradient id="paint93_linear_7_2160" x1="197.405" y1="497.078" x2="197.405" y2="516.453" gradientUnits="userSpaceOnUse">
            <stop/>
            <stop offset="1" stop-color="#6A6A6A"/>
        </linearGradient>
        <linearGradient id="paint94_linear_7_2160" x1="234.924" y1="498.781" x2="234.924" y2="516.47" gradientUnits="userSpaceOnUse">
            <stop/>
            <stop offset="1" stop-color="#6A6A6A"/>
        </linearGradient>
        <linearGradient id="paint95_linear_7_2160" x1="258.238" y1="499.682" x2="258.238" y2="518.936" gradientUnits="userSpaceOnUse">
            <stop/>
            <stop offset="1" stop-color="#6A6A6A"/>
        </linearGradient>
        <linearGradient id="paint96_linear_7_2160" x1="321.279" y1="503.089" x2="321.279" y2="517.707" gradientUnits="userSpaceOnUse">
            <stop/>
            <stop offset="1" stop-color="#6A6A6A"/>
        </linearGradient>
        <linearGradient id="paint97_linear_7_2160" x1="381.272" y1="504.128" x2="381.272" y2="519.827" gradientUnits="userSpaceOnUse">
            <stop/>
            <stop offset="1" stop-color="#6A6A6A"/>
        </linearGradient>
        <linearGradient id="paint98_linear_7_2160" x1="405.291" y1="505.089" x2="405.291" y2="525.6" gradientUnits="userSpaceOnUse">
            <stop/>
            <stop offset="1" stop-color="#6A6A6A"/>
        </linearGradient>
        <linearGradient id="paint99_linear_7_2160" x1="414.052" y1="499.201" x2="414.052" y2="509.874" gradientUnits="userSpaceOnUse">
            <stop/>
            <stop offset="1" stop-color="#6A6A6A"/>
        </linearGradient>
        <linearGradient id="paint100_linear_7_2160" x1="436.214" y1="497.879" x2="436.214" y2="514.437" gradientUnits="userSpaceOnUse">
            <stop/>
            <stop offset="1" stop-color="#6A6A6A"/>
        </linearGradient>
        <linearGradient id="paint101_linear_7_2160" x1="488.541" y1="487" x2="488.541" y2="519.078" gradientUnits="userSpaceOnUse">
            <stop/>
            <stop offset="1" stop-color="#6A6A6A"/>
        </linearGradient>
        <linearGradient id="paint102_linear_7_2160" x1="488.466" y1="505.99" x2="488.466" y2="507.952" gradientUnits="userSpaceOnUse">
            <stop/>
            <stop offset="1" stop-color="#6A6A6A"/>
        </linearGradient>
        <linearGradient id="paint103_linear_7_2160" x1="506.625" y1="505.089" x2="506.625" y2="520.41" gradientUnits="userSpaceOnUse">
            <stop/>
            <stop offset="1" stop-color="#6A6A6A"/>
        </linearGradient>
        <linearGradient id="paint104_linear_7_2160" x1="532.176" y1="507.793" x2="532.176" y2="520.41" gradientUnits="userSpaceOnUse">
            <stop/>
            <stop offset="1" stop-color="#6A6A6A"/>
        </linearGradient>
        <linearGradient id="paint105_linear_7_2160" x1="554.707" y1="508.694" x2="554.707" y2="517.232" gradientUnits="userSpaceOnUse">
            <stop/>
            <stop offset="1" stop-color="#6A6A6A"/>
        </linearGradient>
        <linearGradient id="paint106_linear_7_2160" x1="548.398" y1="495.056" x2="548.398" y2="498.78" gradientUnits="userSpaceOnUse">
            <stop/>
            <stop offset="1" stop-color="#6A6A6A"/>
        </linearGradient>
        <linearGradient id="paint107_linear_7_2160" x1="566.874" y1="489.768" x2="566.874" y2="513.2" gradientUnits="userSpaceOnUse">
            <stop/>
            <stop offset="1" stop-color="#6A6A6A"/>
        </linearGradient>
        <linearGradient id="paint108_linear_7_2160" x1="616.75" y1="487.205" x2="616.75" y2="524.293" gradientUnits="userSpaceOnUse">
            <stop/>
            <stop offset="1" stop-color="#6A6A6A"/>
        </linearGradient>
        <linearGradient id="paint109_linear_7_2160" x1="585.618" y1="497.785" x2="585.618" y2="536.604" gradientUnits="userSpaceOnUse">
            <stop/>
            <stop offset="1" stop-color="#6A6A6A"/>
        </linearGradient>
        <clipPath id="clip0_7_2160">
            <rect width="720" height="540" fill="white"/>
        </clipPath>
    </defs>
</svg>
