<svg width="720" height="540" viewBox="0 0 720 540" fill="none" xmlns="http://www.w3.org/2000/svg">
    <rect width="720" height="540" fill="white"/>
    <path d="M43.7517 462.771C43.7517 463.566 44.6153 461.124 45.221 460.172C46.7264 457.806 48.5226 455.124 49.8549 452.599C52.5834 447.429 56.2994 441.126 61.044 437.567C68.6838 431.838 77.5674 429.006 85.6828 424.344C92.9495 420.169 101.708 415.71 109.756 413.494C118.039 411.213 126.991 407.276 134.734 403.548C142.103 400 151.635 398.226 159.712 396.88C168.719 395.378 175.332 394.947 183.673 390.776C189.57 387.828 195.416 385.523 201.191 382.187C212.414 375.702 224.739 371.102 235.776 364.329C240.831 361.227 243.012 354.493 247.191 350.315C253.09 344.416 262.989 338.642 270.812 335.848C272.914 335.097 273.629 333.302 275.277 332.57C283.276 329.015 290 324.493 298.729 322.398C316.835 318.053 335.641 316.295 354.222 316.295C365.595 316.295 376.692 314.353 388.016 314.261C435.306 313.876 483.501 298.901 528.276 284.762C548.809 278.278 562.819 261.85 573.484 244.074C578.92 235.014 588.223 224.637 596.88 218.644C602.285 214.902 603.652 206.713 606.035 201.352C607.179 198.778 606.477 194.467 608.521 192.423C610.712 190.232 613.796 190.238 616.433 188.92C620.019 187.126 621.114 189.971 624.57 190.163C627.957 190.351 630.946 190.034 632.934 193.215C634.481 195.69 638.983 195.387 641.071 197.057C644.504 199.804 651.596 199.992 655.877 201.578C658.117 202.408 660.053 207.353 660.172 209.49C660.416 213.88 656.811 213.868 654.069 216.61C651.255 219.424 648.15 220.583 644.688 222.713C642.573 224.015 638.682 226.782 636.776 226.782" stroke="url(#paint0_linear_1_1466)" stroke-width="7" stroke-linecap="round"/>
    <path d="M633.725 229.834C636.707 224.532 633.994 229.565 631.634 231.924C626.438 237.121 620.585 241.678 616.998 248.2C611.521 258.156 604.298 269.148 596.315 277.416C592.367 281.504 589.664 286.639 585.917 290.922C581.666 295.78 577.268 301.55 574.162 307.197C568.293 317.868 559.406 327.211 554.949 338.673C544.601 365.281 550.666 391.321 552.293 418.975C553.211 434.592 557.435 449.268 557.435 465.032C557.435 475.107 558.452 485.478 558.452 495.322" stroke="url(#paint1_linear_1_1466)" stroke-width="7" stroke-linecap="round"/>
    <path d="M503.524 412.929C503.524 419.745 506.181 426.66 507.593 433.272C509.738 443.319 509.702 453.857 512.114 463.788C513.587 469.856 514.574 474.613 514.713 480.855C514.837 486.447 521.72 501.311 517.765 497.356" stroke="url(#paint2_linear_1_1466)" stroke-width="7" stroke-linecap="round"/>
    <path d="M466.905 425.135C467.367 425.201 465.376 430.056 465.097 431.238C464.092 435.478 463.485 439.466 464.644 443.671C466.922 451.927 464.203 461.024 467.922 468.874C471.221 475.838 472.601 483.826 474.251 491.253C475.446 496.629 477.077 504.062 477.077 509.562" stroke="url(#paint3_linear_1_1466)" stroke-width="7" stroke-linecap="round"/>
    <path d="M302.119 456.668C308.105 455.528 311.721 457.507 317.603 457.685C327.368 457.981 337.593 460.35 347.158 462.263C353.194 463.47 359.229 464.837 365.242 462.715C371.72 460.428 378.918 460.081 385.755 460.963C397.712 462.506 406.637 459.099 417.627 455.142C423.43 453.053 428.769 449.974 434.694 448.135C439.263 446.717 445.651 448.262 447.578 443.445" stroke="url(#paint4_linear_1_1466)" stroke-width="7" stroke-linecap="round"/>
    <path d="M303.136 452.599C303.136 463.588 306.987 474.45 309.24 485.149C310.751 492.33 312.847 499.445 314.834 506.51C315.766 509.825 319.355 514.818 318.394 517.7" stroke="url(#paint5_linear_1_1466)" stroke-width="7" stroke-linecap="round"/>
    <path d="M232.95 459.72C232.95 472.161 232.95 484.699 232.95 497.299C232.95 513.771 238.535 524.814 252.277 533.975" stroke="url(#paint6_linear_1_1466)" stroke-width="7" stroke-linecap="round"/>
    <path d="M277.707 465.823C279.729 477.507 284.25 488.95 287.879 500.238C289.089 504.003 294.325 513.288 290.93 516.683" stroke="url(#paint7_linear_1_1466)" stroke-width="7" stroke-linecap="round"/>
    <path d="M40.7001 462.771C40.7001 473.833 34.9758 484.847 33.0147 495.774C31.1715 506.043 31.0686 516.675 25.4422 525.611C24.2076 527.572 19.6792 533.233 22.9557 527.872C25.8164 523.191 31.4143 519.204 35.1621 515.157C40.9407 508.916 47.3311 502.931 53.3586 496.904C61.0992 489.163 71.0106 484.875 81.1619 481.081C99.4732 474.237 119.182 472.303 137.39 464.806C152.328 458.655 170.365 455.443 186.385 455.651C192.198 455.726 241.088 463.47 241.088 455.651" stroke="url(#paint8_linear_1_1466)" stroke-width="7" stroke-linecap="round"/>
    <path d="M274.655 309.175C276.761 306.768 248.62 288.226 246.287 285.892C239.597 279.202 232.354 273.455 225.038 267.47C222.023 265.003 217.573 262.345 215.206 259.332C213.304 256.912 212.422 253.224 210.12 251.251C206.423 248.083 203.342 242.375 200.456 238.48C195.743 232.117 190.174 224.379 183.107 220.453C179.62 218.516 176.84 213.394 173.953 210.507C170.367 206.921 166.542 203.811 162.255 200.843C152.144 193.843 147.787 182.528 134.847 179.991C129.822 179.006 124.404 178.982 119.533 177.9C116.11 177.14 112.636 175.168 109.078 174.905C103.922 174.523 99.0897 172.871 93.8203 172.871C87.7925 172.871 81.7647 172.871 75.7369 172.871C67.5712 172.871 60.1335 172.871 52.1153 172.871C48.5778 172.871 45.2829 173.69 41.7173 173.888C36.5001 174.178 33.4576 179.704 29.511 182.025C24.1276 185.192 20.6826 189.956 17.3047 195.023C14.2957 199.536 9.96084 205.979 8.1499 210.959C5.57732 218.033 3.33543 226.387 6.34155 233.902C7.86237 237.704 6.49081 243.084 9.39313 246.335C13.0776 250.461 15.639 252.826 20.8083 254.303C23.5428 255.084 25.6709 256.964 29.0024 256.224C34.0448 255.104 39.5591 252.212 44.7689 252.212C50.9672 252.212 59.1422 250.31 65.1128 248.652C69.3586 247.472 74.3372 247.934 78.3364 246.335C80.5522 245.448 101.305 242.952 96.0808 249.669C90.2524 257.162 84.9 267.082 74.0415 267.47C68.6432 267.663 65.8838 269.365 61.044 270.747C55.5033 272.33 53.3964 271.832 47.8205 271.539C45.6559 271.425 38.8741 271.503 40.9262 275.607C43.083 279.921 51.8287 284.223 55.9581 286.288C64.9865 290.802 73.5904 293.896 83.1963 296.742C92.1886 299.407 101.066 297.115 109.926 296.008C113.977 295.501 118.826 292.9 122.584 292.9C128.184 292.9 127.533 291.422 131.796 296.46C135.271 300.567 141.102 303.645 145.528 306.688C151.703 310.934 158.584 315.412 165.815 317.538C171.087 319.089 177.11 322.813 182.09 325.45C187.149 328.128 181.338 328.261 178.474 330.084C167.815 336.866 156.351 342.714 144.68 347.037C139.049 349.123 134.085 352.756 128.405 354.722C125.192 355.835 119.501 355.886 116.99 358C113.874 360.624 106.033 379.921 112.412 381.339C113.466 381.573 119.594 389.652 119.985 387.894C120.959 383.51 117.384 378.474 119.25 374.275C120.838 370.704 130.635 370.697 127.953 374.049C125.828 376.706 129.644 382.682 132.756 383.373C137.844 384.504 130.817 379.357 130.27 375.801C129.801 372.757 129.349 366.964 131.231 364.612C133.073 362.309 138.903 363.086 141.459 363.086C147.227 363.086 152.404 363.17 157.678 360.826C161.257 359.235 176.518 353.355 180.112 357.548C182.328 360.133 187.073 362.4 189.776 364.612C191.945 366.387 202.928 377.85 204.469 376.31" stroke="url(#paint9_linear_1_1466)" stroke-width="7" stroke-linecap="round"/>
    <path d="M77.3192 193.214C80.7385 189.307 69.7936 200.72 67.7123 205.477C66.5997 208.02 62.1438 217.349 67.1472 217.627C70.0814 217.79 72.0602 215.593 74.7762 215.593C77.9221 215.593 82.2952 214.977 83.9309 212.033C86.2555 207.848 89.5255 208.014 89.5255 202.369" stroke="url(#paint10_linear_1_1466)" stroke-width="7" stroke-linecap="round"/>
    <path d="M75.2847 208.472C75.1745 207.59 73.1918 206.519 73.2504 207.455C73.3576 209.171 74.2675 208.675 74.2675 210.507" stroke="url(#paint11_linear_1_1466)" stroke-width="7" stroke-linecap="round"/>
    <path d="M26.4594 257.298C26.728 261.865 29.6001 265.435 34.0319 265.435C37.6481 265.435 40.6615 258.101 42.2259 255.32C49.6829 242.063 44.3322 266.921 53.4151 261.875C59.1452 258.692 60.3 247.73 65.904 258.315C69.0581 264.273 79.4412 249.47 83.4223 248.143" stroke="url(#paint12_linear_1_1466)" stroke-width="7" stroke-linecap="round"/>
    <path d="M622.536 203.386C621.976 198.907 616.382 211.768 622.762 206.664C624.573 205.215 625.865 209.13 625.587 204.404C625.488 202.723 623.554 202.369 623.553 202.369" stroke="url(#paint13_linear_1_1466)" stroke-width="7" stroke-linecap="round"/>
    <path d="M633.725 223.73C631.473 224.012 629.986 226.782 627.113 226.782C623.228 226.782 621.519 225.789 621.519 221.696" stroke="url(#paint14_linear_1_1466)" stroke-width="7" stroke-linecap="round"/>
    <path d="M81.3879 33.5148C76.5889 33.5148 71.0039 31.2442 65.6779 32.7237C61.7025 33.8279 56.0745 38.2433 55.958 42.6696C55.7623 50.1059 63.7411 55.1124 68.6165 59.3968C75.4284 65.383 82.8642 70.859 88.3387 78.1584C94.0821 85.8162 86.571 88.9916 79.3535 92.3426C71.975 95.7683 64.4251 94.6341 57.5968 90.4777C56.4085 89.7544 54.8041 88.735 54.1497 87.4262C53.7476 86.6219 61.3746 90.1573 62.0612 90.4777" stroke="url(#paint15_linear_1_1466)" stroke-width="7" stroke-linecap="round"/>
    <path d="M107.835 45.7212C107.835 32.3177 104.307 73.9521 110.491 85.8439C114.028 92.6461 123.692 89.6854 129.422 87.9913C133.144 86.8909 142.239 85.6633 144.454 82.3402" stroke="url(#paint16_linear_1_1466)" stroke-width="7" stroke-linecap="round"/>
    <path d="M109.869 72.1683C115.374 67.5809 126.457 69.6652 130.213 64.0308" stroke="url(#paint17_linear_1_1466)" stroke-width="7" stroke-linecap="round"/>
    <path d="M104.783 45.7212C115.904 44.3974 126.877 42.3428 137.899 40.4092C140.129 40.018 141.402 38.9172 141.402 41.6525" stroke="url(#paint18_linear_1_1466)" stroke-width="7" stroke-linecap="round"/>
    <path d="M154.626 43.6868C158.276 55.2452 161.305 66.8725 166.267 77.9889C166.864 79.3259 173.795 94.2974 175.478 88.4999C179.246 75.5227 174.432 61.0282 175.196 47.7556C175.51 42.2934 175.289 37.69 181.073 39.618" stroke="url(#paint19_linear_1_1466)" stroke-width="7" stroke-linecap="round"/>
    <path d="M203.451 36.5664C202.745 43.4772 193.587 78.9874 208.198 78.1019C213.222 77.7974 216.993 74.2943 221.761 73.4115C224.903 72.8296 228.013 73.9111 230.916 73.1854" stroke="url(#paint20_linear_1_1466)" stroke-width="7" stroke-linecap="round"/>
    <path d="M206.503 63.0135C208.129 62.4766 231.426 55.3861 229.898 53.8588" stroke="url(#paint21_linear_1_1466)" stroke-width="7" stroke-linecap="round"/>
    <path d="M201.417 41.6524C211.771 37.7081 221.73 40.6445 231.933 37.5836" stroke="url(#paint22_linear_1_1466)" stroke-width="7" stroke-linecap="round"/>
    <path d="M243.122 31.4805C243.122 46.2132 243.861 60.2679 246.061 74.8808C246.963 80.8763 247.323 81.7945 246.061 75.8415C244.447 68.2367 242.315 60.5944 241.54 52.8416C240.387 41.3177 243.863 31.3438 257.25 32.3281C268.227 33.1353 276.55 46.4261 267.761 55.215C264.318 58.6577 254.327 62.6158 249.677 58.9447C246.126 56.141 255.362 65.9863 258.267 69.4558C263.503 75.7106 276.584 91.5302 285.844 88.4434" stroke="url(#paint23_linear_1_1466)" stroke-width="7" stroke-linecap="round"/>
    <path d="M292.965 90.4778C289.996 77.4888 291.194 63.8486 293.021 50.8072C293.062 50.5183 293.679 32.958 298.277 36.2274C302.899 39.5145 304.969 47.4905 306.64 52.5025C308.809 59.0085 310.494 65.6932 312.178 72.3378C313.251 76.5684 313.731 81.5313 316.36 85.1658C317.953 87.3679 321.822 89.0067 319.412 85.3918" stroke="url(#paint24_linear_1_1466)" stroke-width="7" stroke-linecap="round"/>
    <path d="M288.896 73.1854C299.159 67.2141 311.235 69.8894 322.463 67.0823" stroke="url(#paint25_linear_1_1466)" stroke-width="7" stroke-linecap="round"/>
    <path d="M327.549 37.5836C329.684 48.3902 329.584 58.9933 329.584 69.9643C329.584 73.1443 327.93 86.1642 332.24 87.8218C336.208 89.3481 345.157 85.9482 349.362 85.6178C357.148 85.0061 364.58 83.0426 372.306 82.3402" stroke="url(#paint26_linear_1_1466)" stroke-width="7" stroke-linecap="round"/>
    <path d="M425.2 85.3918C426.937 83.2205 426.914 78.4634 427.46 75.898C429.864 64.6211 431.706 53.2245 434.298 41.9915C435.77 35.6144 439.174 51.6692 439.328 52.559C440.322 58.3099 438.118 73.5633 443.509 77.8194C446.082 79.8501 452.236 55.9602 452.664 54.0848C453.037 52.4504 458.662 28.8844 461.254 38.5443C464.546 50.815 466.905 88.9417 466.905 76.2371" stroke="url(#paint27_linear_1_1466)" stroke-width="7" stroke-linecap="round"/>
    <path d="M490.3 37.5836C489.057 52.5001 488.266 67.379 488.266 82.3402" stroke="url(#paint28_linear_1_1466)" stroke-width="7" stroke-linecap="round"/>
    <path d="M508.61 38.6008C510.638 48.335 509.45 56.7404 508.045 66.4042C507.753 68.4118 506.138 76.281 508.836 77.4803C516.763 81.0036 526.828 88.5802 533.023 79.2886" stroke="url(#paint29_linear_1_1466)" stroke-width="7" stroke-linecap="round"/>
    <path d="M542.177 42.6696C538.744 49.5354 535.826 56.2345 534.266 63.8046C533.352 68.2374 529.521 81.5754 535.227 84.7136C539.833 87.247 546.624 83.079 550.767 81.3795C554.694 79.7684 558.913 79.4189 562.521 77.2542" stroke="url(#paint30_linear_1_1466)" stroke-width="7" stroke-linecap="round"/>
    <path d="M573.71 42.6696C570.293 51.9215 567.607 60.219 567.607 70.0773C567.607 73.7 567.912 77.0005 566.59 80.3058" stroke="url(#paint31_linear_1_1466)" stroke-width="7" stroke-linecap="round"/>
    <path d="M577.779 25.3773V24.3601" stroke="url(#paint32_linear_1_1466)" stroke-width="7" stroke-linecap="round"/>
    <path d="M598.123 42.6696C592.425 51.3751 584.243 62.5325 585.521 73.5245C586.481 81.7823 592.428 84.789 599.197 79.5711C607.447 73.2119 611.694 63.036 607.278 53.0675C606.215 50.6683 597.773 44.564 603.209 46.7383" stroke="url(#paint33_linear_1_1466)" stroke-width="7" stroke-linecap="round"/>
    <path d="M624.57 80.3059C622.915 87.1617 625.69 73.4785 625.813 72.6204C627.02 64.2174 628.426 55.6944 628.639 47.1905C628.669 45.9892 630.548 55.989 630.899 57.3625C632.889 65.1373 635.273 73.1936 640.619 79.4017C650.918 91.3611 656.903 76.5682 658.364 66.9693C659.852 57.1854 660.35 47.1889 662.206 37.4707C663.492 30.741 663.224 39.8681 663.224 41.6525" stroke="url(#paint34_linear_1_1466)" stroke-width="7" stroke-linecap="round"/>
    <path d="M184.125 117.942C188.547 124.841 210.346 165.455 221.761 149.475" stroke="url(#paint35_linear_1_1466)" stroke-width="7" stroke-linecap="round"/>
    <path d="M220.744 115.908C220.352 133.91 214.509 149.915 205.26 165.298C201.431 171.666 197.521 178.152 193.505 184.399C192.319 186.245 194.969 176.078 195.314 174.905" stroke="url(#paint36_linear_1_1466)" stroke-width="7" stroke-linecap="round"/>
    <path d="M243.122 133.2C241.272 138.749 228.784 163.242 236.906 167.672C244.846 172.003 258.193 168.112 262.449 160.664" stroke="url(#paint37_linear_1_1466)" stroke-width="7" stroke-linecap="round"/>
    <path d="M238.036 150.492C245.494 148.223 255.65 147.119 261.431 141.338" stroke="url(#paint38_linear_1_1466)" stroke-width="7" stroke-linecap="round"/>
    <path d="M244.139 133.2C253.76 132.31 265.395 133.235 274.655 130.148" stroke="url(#paint39_linear_1_1466)" stroke-width="7" stroke-linecap="round"/>
    <path d="M273.638 174.905C274.955 166.344 275.34 157.845 278.837 149.758C279.977 147.122 287.628 131.522 292.512 135.234C298.164 139.53 298.106 151.049 299.068 157.387C299.218 158.376 299.723 166.112 301.102 164.733" stroke="url(#paint40_linear_1_1466)" stroke-width="7" stroke-linecap="round"/>
    <path d="M280.758 153.544C290.224 151.697 299.747 150.04 309.24 148.458" stroke="url(#paint41_linear_1_1466)" stroke-width="7" stroke-linecap="round"/>
    <path d="M317.377 130.148C316.665 141.545 316.001 152.693 317.151 164.055C318.412 176.502 314.552 155.29 314.552 152.188C314.552 145.532 316.292 129.923 325.967 130.035C332.476 130.111 338.527 139.152 336.139 145.293C333.363 152.432 309.254 136.647 319.864 153.544C323.832 159.864 341.301 173.359 348.91 165.75" stroke="url(#paint42_linear_1_1466)" stroke-width="7" stroke-linecap="round"/>
    <path d="M376.375 132.183C369.242 130.36 361.134 127.064 358.687 136.308C355.856 147.001 372.241 150.239 379.144 153.487C386.163 156.791 384.01 163.779 378.748 168.011C374.819 171.17 368.234 174.747 362.981 173.097C358.993 171.843 359.539 166.914 359.082 163.716" stroke="url(#paint43_linear_1_1466)" stroke-width="7" stroke-linecap="round"/>
    <path d="M445.544 131.166C445.544 139.778 444.527 148.314 444.527 156.934C444.527 158.335 442.955 170.266 447.013 168.35C456.417 163.909 464.82 165.123 475.268 164.62C479.505 164.416 483.854 163.923 487.814 162.303C490.117 161.361 481.682 160.736 481.146 160.664" stroke="url(#paint44_linear_1_1466)" stroke-width="7" stroke-linecap="round"/>
    <path d="M485.214 168.802C485.214 159.101 486.432 115.562 501.376 140.885C505.469 147.82 507.365 155.946 511.661 162.699C512.523 164.052 514.33 168.55 515.73 165.75" stroke="url(#paint45_linear_1_1466)" stroke-width="7" stroke-linecap="round"/>
    <path d="M490.3 151.509C498.811 150.478 507.172 149.475 515.73 149.475" stroke="url(#paint46_linear_1_1466)" stroke-width="7" stroke-linecap="round"/>
    <path d="M516.747 137.269H557.435" stroke="url(#paint47_linear_1_1466)" stroke-width="7" stroke-linecap="round"/>
    <path d="M536.074 138.286C535.527 149.056 531.738 164.143 535.622 174.735C537.842 180.79 540.307 173.182 541.16 170.836" stroke="url(#paint48_linear_1_1466)" stroke-width="7" stroke-linecap="round"/>
    <path d="M560.487 140.32C560.036 146.458 556.432 167.907 568.398 168.632C574.968 169.03 581.74 165.671 587.669 163.32C590.433 162.224 595.923 161.515 593.037 158.63" stroke="url(#paint49_linear_1_1466)" stroke-width="7" stroke-linecap="round"/>
    <path d="M567.607 154.561C574.125 153.424 590.887 154.006 593.037 145.406" stroke="url(#paint50_linear_1_1466)" stroke-width="7" stroke-linecap="round"/>
    <path d="M564.556 137.269C575.95 135.421 586.671 134.217 598.123 134.217" stroke="url(#paint51_linear_1_1466)" stroke-width="7" stroke-linecap="round"/>
    <path d="M612.364 131.166C612.97 140.782 611.189 151.056 612.59 160.551C613.667 167.852 614.406 153.382 614.398 152.301C614.347 145.415 610.727 131.088 615.867 125.288C621.403 119.043 631.806 130.164 635.307 133.765C648.507 147.342 603.909 132.267 615.528 148.458C617.781 151.597 644.54 164.09 641.862 166.767" stroke="url(#paint52_linear_1_1466)" stroke-width="7" stroke-linecap="round"/>
    <defs>
        <linearGradient id="paint0_linear_1_1466" x1="351.968" y1="188.329" x2="351.968" y2="462.928" gradientUnits="userSpaceOnUse">
            <stop/>
            <stop offset="1" stop-color="#6A6A6A"/>
        </linearGradient>
        <linearGradient id="paint1_linear_1_1466" x1="592.041" y1="227.493" x2="592.041" y2="495.322" gradientUnits="userSpaceOnUse">
            <stop/>
            <stop offset="1" stop-color="#6A6A6A"/>
        </linearGradient>
        <linearGradient id="paint2_linear_1_1466" x1="511.256" y1="412.929" x2="511.256" y2="498.016" gradientUnits="userSpaceOnUse">
            <stop/>
            <stop offset="1" stop-color="#6A6A6A"/>
        </linearGradient>
        <linearGradient id="paint3_linear_1_1466" x1="470.545" y1="425.135" x2="470.545" y2="509.562" gradientUnits="userSpaceOnUse">
            <stop/>
            <stop offset="1" stop-color="#6A6A6A"/>
        </linearGradient>
        <linearGradient id="paint4_linear_1_1466" x1="374.849" y1="443.445" x2="374.849" y2="463.823" gradientUnits="userSpaceOnUse">
            <stop/>
            <stop offset="1" stop-color="#6A6A6A"/>
        </linearGradient>
        <linearGradient id="paint5_linear_1_1466" x1="310.846" y1="452.599" x2="310.846" y2="517.7" gradientUnits="userSpaceOnUse">
            <stop/>
            <stop offset="1" stop-color="#6A6A6A"/>
        </linearGradient>
        <linearGradient id="paint6_linear_1_1466" x1="242.613" y1="459.72" x2="242.613" y2="533.975" gradientUnits="userSpaceOnUse">
            <stop/>
            <stop offset="1" stop-color="#6A6A6A"/>
        </linearGradient>
        <linearGradient id="paint7_linear_1_1466" x1="284.882" y1="465.823" x2="284.882" y2="516.683" gradientUnits="userSpaceOnUse">
            <stop/>
            <stop offset="1" stop-color="#6A6A6A"/>
        </linearGradient>
        <linearGradient id="paint8_linear_1_1466" x1="131.438" y1="455.641" x2="131.438" y2="530.119" gradientUnits="userSpaceOnUse">
            <stop/>
            <stop offset="1" stop-color="#6A6A6A"/>
        </linearGradient>
        <linearGradient id="paint9_linear_1_1466" x1="139.835" y1="172.871" x2="139.835" y2="388.144" gradientUnits="userSpaceOnUse">
            <stop/>
            <stop offset="1" stop-color="#6A6A6A"/>
        </linearGradient>
        <linearGradient id="paint10_linear_1_1466" x1="77.1731" y1="192.414" x2="77.1731" y2="217.636" gradientUnits="userSpaceOnUse">
            <stop/>
            <stop offset="1" stop-color="#6A6A6A"/>
        </linearGradient>
        <linearGradient id="paint11_linear_1_1466" x1="74.2669" y1="207.093" x2="74.2669" y2="210.507" gradientUnits="userSpaceOnUse">
            <stop/>
            <stop offset="1" stop-color="#6A6A6A"/>
        </linearGradient>
        <linearGradient id="paint12_linear_1_1466" x1="54.9409" y1="248.143" x2="54.9409" y2="265.435" gradientUnits="userSpaceOnUse">
            <stop/>
            <stop offset="1" stop-color="#6A6A6A"/>
        </linearGradient>
        <linearGradient id="paint13_linear_1_1466" x1="622.679" y1="202.369" x2="622.679" y2="207.883" gradientUnits="userSpaceOnUse">
            <stop/>
            <stop offset="1" stop-color="#6A6A6A"/>
        </linearGradient>
        <linearGradient id="paint14_linear_1_1466" x1="627.622" y1="221.696" x2="627.622" y2="226.782" gradientUnits="userSpaceOnUse">
            <stop/>
            <stop offset="1" stop-color="#6A6A6A"/>
        </linearGradient>
        <linearGradient id="paint15_linear_1_1466" x1="72.2536" y1="32.223" x2="72.2536" y2="94.3632" gradientUnits="userSpaceOnUse">
            <stop/>
            <stop offset="1" stop-color="#6A6A6A"/>
        </linearGradient>
        <linearGradient id="paint16_linear_1_1466" x1="125.644" y1="43.0933" x2="125.644" y2="90.1109" gradientUnits="userSpaceOnUse">
            <stop/>
            <stop offset="1" stop-color="#6A6A6A"/>
        </linearGradient>
        <linearGradient id="paint17_linear_1_1466" x1="120.041" y1="64.0308" x2="120.041" y2="72.1683" gradientUnits="userSpaceOnUse">
            <stop/>
            <stop offset="1" stop-color="#6A6A6A"/>
        </linearGradient>
        <linearGradient id="paint18_linear_1_1466" x1="123.093" y1="39.8578" x2="123.093" y2="45.7212" gradientUnits="userSpaceOnUse">
            <stop/>
            <stop offset="1" stop-color="#6A6A6A"/>
        </linearGradient>
        <linearGradient id="paint19_linear_1_1466" x1="167.85" y1="39.1709" x2="167.85" y2="89.8286" gradientUnits="userSpaceOnUse">
            <stop/>
            <stop offset="1" stop-color="#6A6A6A"/>
        </linearGradient>
        <linearGradient id="paint20_linear_1_1466" x1="215.443" y1="36.5664" x2="215.443" y2="78.1182" gradientUnits="userSpaceOnUse">
            <stop/>
            <stop offset="1" stop-color="#6A6A6A"/>
        </linearGradient>
        <linearGradient id="paint21_linear_1_1466" x1="218.237" y1="53.8588" x2="218.237" y2="63.0135" gradientUnits="userSpaceOnUse">
            <stop/>
            <stop offset="1" stop-color="#6A6A6A"/>
        </linearGradient>
        <linearGradient id="paint22_linear_1_1466" x1="216.675" y1="37.5836" x2="216.675" y2="41.6524" gradientUnits="userSpaceOnUse">
            <stop/>
            <stop offset="1" stop-color="#6A6A6A"/>
        </linearGradient>
        <linearGradient id="paint23_linear_1_1466" x1="263.589" y1="31.4805" x2="263.589" y2="88.8385" gradientUnits="userSpaceOnUse">
            <stop/>
            <stop offset="1" stop-color="#6A6A6A"/>
        </linearGradient>
        <linearGradient id="paint24_linear_1_1466" x1="305.673" y1="35.8218" x2="305.673" y2="90.4778" gradientUnits="userSpaceOnUse">
            <stop/>
            <stop offset="1" stop-color="#6A6A6A"/>
        </linearGradient>
        <linearGradient id="paint25_linear_1_1466" x1="305.679" y1="67.0823" x2="305.679" y2="73.1854" gradientUnits="userSpaceOnUse">
            <stop/>
            <stop offset="1" stop-color="#6A6A6A"/>
        </linearGradient>
        <linearGradient id="paint26_linear_1_1466" x1="349.927" y1="37.5836" x2="349.927" y2="88.2138" gradientUnits="userSpaceOnUse">
            <stop/>
            <stop offset="1" stop-color="#6A6A6A"/>
        </linearGradient>
        <linearGradient id="paint27_linear_1_1466" x1="446.052" y1="36.2274" x2="446.052" y2="85.3918" gradientUnits="userSpaceOnUse">
            <stop/>
            <stop offset="1" stop-color="#6A6A6A"/>
        </linearGradient>
        <linearGradient id="paint28_linear_1_1466" x1="489.283" y1="37.5836" x2="489.283" y2="82.3402" gradientUnits="userSpaceOnUse">
            <stop/>
            <stop offset="1" stop-color="#6A6A6A"/>
        </linearGradient>
        <linearGradient id="paint29_linear_1_1466" x1="520.161" y1="38.6008" x2="520.161" y2="83.7429" gradientUnits="userSpaceOnUse">
            <stop/>
            <stop offset="1" stop-color="#6A6A6A"/>
        </linearGradient>
        <linearGradient id="paint30_linear_1_1466" x1="547.34" y1="42.6696" x2="547.34" y2="85.5104" gradientUnits="userSpaceOnUse">
            <stop/>
            <stop offset="1" stop-color="#6A6A6A"/>
        </linearGradient>
        <linearGradient id="paint31_linear_1_1466" x1="570.15" y1="42.6696" x2="570.15" y2="80.3058" gradientUnits="userSpaceOnUse">
            <stop/>
            <stop offset="1" stop-color="#6A6A6A"/>
        </linearGradient>
        <linearGradient id="paint32_linear_1_1466" x1="578.279" y1="24.3601" x2="578.279" y2="25.3773" gradientUnits="userSpaceOnUse">
            <stop/>
            <stop offset="1" stop-color="#6A6A6A"/>
        </linearGradient>
        <linearGradient id="paint33_linear_1_1466" x1="597.22" y1="42.6696" x2="597.22" y2="82.158" gradientUnits="userSpaceOnUse">
            <stop/>
            <stop offset="1" stop-color="#6A6A6A"/>
        </linearGradient>
        <linearGradient id="paint34_linear_1_1466" x1="643.646" y1="35.0293" x2="643.646" y2="83.8679" gradientUnits="userSpaceOnUse">
            <stop/>
            <stop offset="1" stop-color="#6A6A6A"/>
        </linearGradient>
        <linearGradient id="paint35_linear_1_1466" x1="202.943" y1="117.942" x2="202.943" y2="153.17" gradientUnits="userSpaceOnUse">
            <stop/>
            <stop offset="1" stop-color="#6A6A6A"/>
        </linearGradient>
        <linearGradient id="paint36_linear_1_1466" x1="206.973" y1="115.908" x2="206.973" y2="184.622" gradientUnits="userSpaceOnUse">
            <stop/>
            <stop offset="1" stop-color="#6A6A6A"/>
        </linearGradient>
        <linearGradient id="paint37_linear_1_1466" x1="248.318" y1="133.2" x2="248.318" y2="169.479" gradientUnits="userSpaceOnUse">
            <stop/>
            <stop offset="1" stop-color="#6A6A6A"/>
        </linearGradient>
        <linearGradient id="paint38_linear_1_1466" x1="249.734" y1="141.338" x2="249.734" y2="150.492" gradientUnits="userSpaceOnUse">
            <stop/>
            <stop offset="1" stop-color="#6A6A6A"/>
        </linearGradient>
        <linearGradient id="paint39_linear_1_1466" x1="259.397" y1="130.148" x2="259.397" y2="133.2" gradientUnits="userSpaceOnUse">
            <stop/>
            <stop offset="1" stop-color="#6A6A6A"/>
        </linearGradient>
        <linearGradient id="paint40_linear_1_1466" x1="287.37" y1="134.667" x2="287.37" y2="174.905" gradientUnits="userSpaceOnUse">
            <stop/>
            <stop offset="1" stop-color="#6A6A6A"/>
        </linearGradient>
        <linearGradient id="paint41_linear_1_1466" x1="294.999" y1="148.458" x2="294.999" y2="153.544" gradientUnits="userSpaceOnUse">
            <stop/>
            <stop offset="1" stop-color="#6A6A6A"/>
        </linearGradient>
        <linearGradient id="paint42_linear_1_1466" x1="331.731" y1="130.035" x2="331.731" y2="168.014" gradientUnits="userSpaceOnUse">
            <stop/>
            <stop offset="1" stop-color="#6A6A6A"/>
        </linearGradient>
        <linearGradient id="paint43_linear_1_1466" x1="370.981" y1="130.089" x2="370.981" y2="173.513" gradientUnits="userSpaceOnUse">
            <stop/>
            <stop offset="1" stop-color="#6A6A6A"/>
        </linearGradient>
        <linearGradient id="paint44_linear_1_1466" x1="466.219" y1="131.166" x2="466.219" y2="168.557" gradientUnits="userSpaceOnUse">
            <stop/>
            <stop offset="1" stop-color="#6A6A6A"/>
        </linearGradient>
        <linearGradient id="paint45_linear_1_1466" x1="500.472" y1="133.077" x2="500.472" y2="168.802" gradientUnits="userSpaceOnUse">
            <stop/>
            <stop offset="1" stop-color="#6A6A6A"/>
        </linearGradient>
        <linearGradient id="paint46_linear_1_1466" x1="503.015" y1="149.475" x2="503.015" y2="151.509" gradientUnits="userSpaceOnUse">
            <stop/>
            <stop offset="1" stop-color="#6A6A6A"/>
        </linearGradient>
        <linearGradient id="paint47_linear_1_1466" x1="537.091" y1="137.269" x2="537.091" y2="138.269" gradientUnits="userSpaceOnUse">
            <stop/>
            <stop offset="1" stop-color="#6A6A6A"/>
        </linearGradient>
        <linearGradient id="paint48_linear_1_1466" x1="537.526" y1="138.286" x2="537.526" y2="177.024" gradientUnits="userSpaceOnUse">
            <stop/>
            <stop offset="1" stop-color="#6A6A6A"/>
        </linearGradient>
        <linearGradient id="paint49_linear_1_1466" x1="576.741" y1="140.32" x2="576.741" y2="168.665" gradientUnits="userSpaceOnUse">
            <stop/>
            <stop offset="1" stop-color="#6A6A6A"/>
        </linearGradient>
        <linearGradient id="paint50_linear_1_1466" x1="580.322" y1="145.406" x2="580.322" y2="154.561" gradientUnits="userSpaceOnUse">
            <stop/>
            <stop offset="1" stop-color="#6A6A6A"/>
        </linearGradient>
        <linearGradient id="paint51_linear_1_1466" x1="581.339" y1="134.217" x2="581.339" y2="137.269" gradientUnits="userSpaceOnUse">
            <stop/>
            <stop offset="1" stop-color="#6A6A6A"/>
        </linearGradient>
        <linearGradient id="paint52_linear_1_1466" x1="627.044" y1="123.421" x2="627.044" y2="166.767" gradientUnits="userSpaceOnUse">
            <stop/>
            <stop offset="1" stop-color="#6A6A6A"/>
        </linearGradient>
    </defs>
</svg>
