<svg width="720" height="540" viewBox="0 0 720 540" fill="none" xmlns="http://www.w3.org/2000/svg">
    <rect width="720" height="540" fill="white"/>
    <path d="M323.964 105.411C324.292 105.452 324.132 104.579 324.132 104.153C324.132 103.366 324.347 103.231 325.138 103.231C326.795 103.231 328.344 102.727 330.012 102.727C332.442 102.727 334.82 102.325 337.215 102.858C338.123 103.06 339.583 102.292 340.365 102.932C340.57 103.1 340.906 103.189 340.906 103.482C340.906 103.903 340.954 104.118 340.57 103.734" stroke="black" stroke-width="7" stroke-linecap="round"/>
    <path d="M331.68 104.74C331.986 104.778 332.083 111.131 332.174 111.953C332.332 113.375 332.138 114.795 331.885 116.184C331.762 116.861 331.66 117.638 331.68 118.327C331.685 118.512 332.016 119.169 332.016 118.998" stroke="black" stroke-width="7" stroke-linecap="round"/>
    <path d="M346.944 102.392C348.656 102.392 350.329 102.224 352.042 102.224C352.484 102.224 351.153 102.228 350.718 102.308C350.543 102.341 349.512 102.304 349.47 102.494C349.207 103.678 349.443 105.21 349.46 106.418C349.482 107.941 349.818 109.489 349.591 111.021C349.382 112.434 349.293 113.963 349.293 115.392C349.293 116.585 349.293 117.777 349.293 118.97C349.293 119.334 349.279 119.593 349.46 119.911C349.605 120.164 349.628 121.23 349.628 120.675" stroke="black" stroke-width="7" stroke-linecap="round"/>
    <path d="M351.138 111.114C351.276 111.668 356.296 111.848 356.971 111.748C357.845 111.619 358.384 111.289 359.189 111.692C359.377 111.786 360.29 111.785 359.692 111.785" stroke="black" stroke-width="7" stroke-linecap="round"/>
    <path d="M359.189 102.056C359.101 101.939 361.055 101.721 361.407 101.721C362.36 101.721 363.293 101.91 364.259 101.889C364.988 101.873 365.565 101.642 366.272 101.851C366.853 102.024 367.991 101.604 366.905 102.224" stroke="black" stroke-width="7" stroke-linecap="round"/>
    <path d="M361.705 102.727C361.705 106.257 362.041 109.766 362.041 113.295C362.041 114.304 361.853 115.505 362.125 116.482C362.287 117.066 362.185 117.69 362.209 118.29C362.219 118.566 362.544 118.716 362.544 118.327" stroke="black" stroke-width="7" stroke-linecap="round"/>
    <path d="M357.847 121.179C359.27 122.054 361.452 121.346 363.038 121.346C363.998 121.346 364.926 121.514 365.899 121.514" stroke="black" stroke-width="7" stroke-linecap="round"/>
    <path d="M371.099 101.218C373.149 101.218 375.07 101.639 377.1 101.851C379.223 102.074 381.268 101.998 383.381 102.429C384.922 102.744 386.249 103.098 387.835 103.063C388.252 103.054 389.74 102.963 389.55 102.392" stroke="black" stroke-width="7" stroke-linecap="round"/>
    <path d="M375.124 103.231C374.72 106.87 374.174 110.483 374.118 114.171C374.098 115.49 374.02 116.634 374.584 117.824C374.782 118.241 374.418 118.566 374.957 118.793C375.825 119.159 377.174 118.484 378.144 118.625C379.755 118.86 381.395 118.759 383.008 118.961C384.448 119.141 385.731 119.561 387.164 119.706C387.815 119.772 388.567 119.746 389.196 119.921C389.7 120.061 389.29 119.934 389.047 119.837" stroke="black" stroke-width="7" stroke-linecap="round"/>
    <path d="M377.808 109.94C379.258 110.085 380.72 110.391 382.188 110.527C383.073 110.609 385.742 110.443 384.853 110.443" stroke="black" stroke-width="7" stroke-linecap="round"/>
    <path d="M382.002 181.397H415.885" stroke="black" stroke-width="7" stroke-linecap="round"/>
    <path d="M381.666 214.441H416.556" stroke="black" stroke-width="7" stroke-linecap="round"/>
    <path d="M381.666 181.229C381.666 180.272 380.848 179.18 380.688 178.191C380.489 176.963 379.99 175.949 379.569 174.78C379.208 173.776 378.847 172.472 378.116 171.668C377.124 170.577 375.822 169.688 374.696 168.742C374.076 168.222 373.277 168.146 372.515 167.978C371.684 167.794 370.914 167.359 370.12 167.055C369.025 166.636 368.343 166.3 367.157 166.3C366.525 166.3 365.941 166.067 365.321 165.965C364.264 165.79 363.211 165.797 362.143 165.797C360.799 165.797 359.441 165.942 358.164 166.384C355.217 167.404 352.185 167.977 349.237 168.947C347.949 169.371 346.973 169.694 346.031 170.662C344.918 171.805 343.773 172.856 342.807 174.128C341.709 175.573 341.002 177.209 340.235 178.843C339.375 180.677 338.235 182.343 337.514 184.248C336.841 186.027 336.699 187.936 336.246 189.784C335.78 191.687 335.758 193.672 335.575 195.617C335.426 197.205 335.761 198.817 335.957 200.389C336.218 202.473 336.737 204.486 337.653 206.399C338.555 208.28 339.482 210.126 339.909 212.186C340.146 213.332 340.45 214.604 340.822 215.718C341.189 216.82 341.163 217.994 341.67 219.054C342.324 220.421 342.959 221.934 343.757 223.22C344.519 224.446 346.197 225.751 347.476 226.36C348.63 226.91 349.801 227.069 351.007 227.432C351.94 227.712 352.821 228.114 353.766 228.364C358.268 229.553 363.217 229.37 367.837 229.37C370.665 229.37 374.038 228.67 376.429 227.096C378.637 225.643 380.157 222.947 380.157 220.275C380.157 218.16 380.656 216.311 380.995 214.274" stroke="black" stroke-width="7" stroke-linecap="round"/>
    <path d="M417.227 181.397C416.438 181.309 416.556 179.989 416.556 179.468C416.556 177.59 416.152 175.561 416.425 173.718C416.605 172.503 416.287 171.173 415.717 170.074C415.087 168.859 414.978 167.669 414.04 166.627C413.066 165.545 412.317 164.243 411.393 163.113C410.087 161.516 409.318 159.612 407.871 158.118C404.886 155.037 402.276 151.462 398.925 148.762C395.851 146.286 392.092 144.758 388.525 143.152C386.655 142.311 384.715 141.736 382.747 141.177C381.208 140.74 379.553 140.127 377.976 139.835C376.368 139.537 374.81 139.121 373.186 138.875C371.664 138.645 370.035 138.791 368.499 138.791C366.933 138.791 365.404 138.787 363.849 138.996C361.375 139.329 358.893 139.209 356.412 139.63C352.029 140.374 347.66 140.888 343.329 141.941C339.607 142.845 335.975 143.076 332.454 144.737C329.793 145.992 326.997 146.721 324.505 148.352C322.884 149.413 320.898 150.452 319.603 151.912C318.287 153.396 316.848 154.762 315.512 156.227C313.495 158.438 310.609 159.911 308.206 161.678C306.865 162.664 305.816 163.906 305.382 165.555C305.053 166.806 305.158 168.144 304.711 169.413C304.148 171.014 303.538 172.596 303.332 174.296C303.204 175.358 302.997 176.371 302.997 177.446C302.997 178.414 303.089 179.435 302.904 180.39C302.558 182.167 302.062 183.846 301.618 185.59C301.105 187.603 301.037 189.806 300.779 191.871C300.558 193.636 300.535 195.225 300.639 196.987C300.756 198.967 300.563 200.871 300.49 202.849C300.451 203.895 300.597 204.939 300.686 205.98C300.795 207.26 300.662 208.466 300.648 209.745C300.627 211.744 300.313 213.705 300.313 215.699C300.313 217.536 300.14 219.408 300.648 221.188C300.859 221.924 300.924 222.7 301.152 223.425C301.36 224.087 301.803 224.669 301.953 225.344C302.238 226.626 303 227.83 303.5 229.044C304.276 230.927 305.324 232.707 306.445 234.411C307.657 236.254 309.23 237.82 310.582 239.565C312.203 241.656 314.22 243.66 316.174 245.436C320.867 249.702 325.73 253.19 331.885 254.904C333.995 255.491 336.059 256.232 338.175 256.786C340.62 257.426 343.019 258.231 345.519 258.64C347.632 258.986 349.797 259.306 351.883 259.805C352.857 260.038 353.875 260.413 354.865 260.532C355.945 260.662 357.027 260.529 358.108 260.7C362.467 261.388 367.114 260.196 371.415 259.479C373.533 259.126 375.614 258.634 377.715 258.258C379.271 257.98 380.865 257.922 382.421 257.634C385.651 257.036 388.332 255.643 391.227 254.195C394.123 252.747 397.131 251.443 399.884 249.732C402.685 247.991 404.142 245.411 406.081 242.901C407.832 240.636 409.569 238.292 411.03 235.828C412.154 233.931 412.746 232.026 413.499 229.948C413.917 228.796 414.351 227.419 414.375 226.183C414.416 224.04 414.724 222.042 415.298 219.977C415.489 219.29 415.591 216.769 416.22 216.454" stroke="black" stroke-width="7" stroke-linecap="round"/>
    <path d="M349.125 148.688C349.102 148.872 348.604 148.688 348.361 148.688C347.955 148.688 346.254 148.995 347.112 148.744C349.089 148.165 350.981 147.344 352.927 146.675C353.953 146.322 354.99 145.991 356.039 145.715C356.119 145.694 356.69 145.538 356.887 145.538C356.98 145.538 356.741 145.656 356.655 145.687C354.759 146.368 352.671 146.58 350.709 147.01C350.343 147.091 348.332 147.597 348.379 147.616C349.986 148.273 352.124 147.878 353.775 147.672C356.186 147.371 358.584 146.969 360.997 146.675C363.039 146.426 365.077 146.068 367.11 145.752C368.615 145.519 370.255 144.998 371.77 144.998C372.898 144.998 373.875 145.284 374.957 145.501" stroke="black" stroke-width="7" stroke-linecap="round"/>
    <path d="M368.75 146.172C366.207 145.836 363.609 145.484 361.034 145.706C359.159 145.867 357.156 145.675 355.369 146.377C354.802 146.599 356.422 146.733 356.45 146.731C358.348 146.562 360.159 145.642 362.004 145.203C365.935 144.265 369.833 144.644 373.783 145.249C377.22 145.776 380.69 146.179 383.903 147.588C385.402 148.246 386.836 149.166 388.376 149.694C391.621 150.808 394.546 152.733 397.257 154.801C398.323 155.615 398.797 156.214 399.456 157.326C400.204 158.589 401.455 159.463 402.289 160.672C403.846 162.929 404.621 165.714 405.858 168.145C406.401 169.213 406.892 170.468 407.74 171.332C408.421 172.027 409.075 172.658 409.679 173.429C409.907 173.721 410.257 173.992 410.349 174.361C410.415 174.623 410.445 175.052 410.62 175.265C411.635 176.506 411.371 174.754 411.319 173.998C411.232 172.739 411.109 171.436 410.778 170.214C410.215 168.133 408.868 166.425 407.684 164.66C407.195 163.931 406.659 162.936 405.821 162.517C405.272 162.243 405.582 163.083 405.671 163.262C406.93 165.78 408.833 167.704 409.604 170.494C409.817 171.265 410.316 173.211 409.679 173.849C408.493 175.034 406.935 175.163 405.345 175.442C402.5 175.942 399.794 176.846 396.874 176.868C394.905 176.883 392.936 176.868 390.966 176.868C389.41 176.868 387.907 177.039 386.363 176.868C386.118 176.841 383.742 176.427 384.993 176.952C387.936 178.186 392.215 176.974 395.113 176.197C395.575 176.073 400.703 174.249 399.968 173.746C399.402 173.359 396.13 172.582 396.874 171.556C397.63 170.515 398.746 169.722 399.726 168.91C400.149 168.559 402.284 167.26 401.981 166.468C401.445 165.064 398.174 165.711 397.247 165.946C393.907 166.793 391.218 169.342 388.73 171.584C387.92 172.313 387.011 173.056 386.316 173.904C385.824 174.507 387.633 173.066 388.227 172.563C389.997 171.062 391.739 169.549 393.762 168.388C393.912 168.301 397.237 166.688 396.669 167.661C395.494 169.676 393.159 171.304 391.432 172.805C390.486 173.628 389.533 174.441 388.665 175.349C388.411 175.614 387.73 176.297 388.096 176.29C388.787 176.278 389.746 175.604 390.277 175.293C391.419 174.623 392.513 173.876 393.613 173.14C395.44 171.917 397.266 170.789 399.26 169.86C399.467 169.764 400.398 169.188 399.931 169.841C399.41 170.571 398.311 171.382 398.142 172.302C397.863 173.817 402.551 172.231 403.127 172.097C403.372 172.04 404.106 172.087 403.873 171.994C403.379 171.797 403.005 171.415 402.689 170.997C401.532 169.463 400.561 167.859 399.288 166.403C397.938 164.858 396.476 163.424 395.123 161.883C394.181 160.812 393.241 159.604 392.103 158.733C391.174 158.022 390.017 157.739 388.916 157.41C387.655 157.033 386.388 156.921 385.096 156.702C383.279 156.393 381.483 155.864 379.7 155.407C377.123 154.746 374.863 153.464 372.217 152.965C370.824 152.703 369.488 152.211 368.089 151.977C366.408 151.697 364.691 151.614 362.991 151.539C359.082 151.367 355.142 150.492 351.231 150.803C349.414 150.948 347.674 151.286 345.975 151.949C345.617 152.089 343.7 152.829 345.23 152.397C347.886 151.646 350.525 150.791 353.281 150.477C356.985 150.055 360.58 150.642 364.259 150.962C367.84 151.273 371.44 151.192 375.031 151.204C376.849 151.21 379.359 150.908 381.023 151.875C381.318 152.046 382.418 154.139 382.663 153.934C384.118 152.722 375.672 148.512 375.124 148.222C373.8 147.52 371.679 146.336 370.092 146.843C369.681 146.974 370.482 147.645 370.819 147.914C371.891 148.772 373.061 149.449 374.304 150.03C380.088 152.73 386.633 154.327 391.488 158.715C393.017 160.096 394.211 161.814 395.887 163.039C398.68 165.08 390.055 159.177 386.782 158.053C386.029 157.794 382.828 156.617 382.207 157.69C381.327 159.209 382.254 161.972 382.71 163.477C383.378 165.682 384.195 168.097 385.617 169.944C386.303 170.834 388.556 173.252 388.096 172.227C387.897 171.783 387.251 171.294 386.941 170.988C385.969 170.029 385.021 169.05 384.07 168.071C383.12 167.092 382.169 166.114 381.191 165.163C381.115 165.09 380.369 164.235 380.101 164.269C379.944 164.288 382.726 167.724 382.915 167.922C384.607 169.693 386.21 171.243 388.562 172.05C389.935 172.521 390.185 171.792 389.969 170.419C389.613 168.15 388.164 166.234 386.922 164.371C386.9 164.338 385.413 161.987 385.925 163.216C386.691 165.053 388.103 166.462 389.364 167.959C389.412 168.016 390.55 169.261 390.165 169.413C389.143 169.816 387.706 168.361 387.257 167.642C386.515 166.453 386.613 164.973 386.531 163.635C386.48 162.818 383.828 163.521 383.222 163.505C379.019 163.389 374.85 162.718 370.689 163.728C369.055 164.125 367.665 164.89 366.234 165.741C365.168 166.375 367.415 165.826 367.781 165.797C370.362 165.596 372.916 165.671 375.497 165.797C377.911 165.915 380.401 166.075 382.729 165.294C383.137 165.157 384.823 164.682 384.052 164.008C382.821 162.933 380.786 162.096 379.234 161.641C377.804 161.222 376.283 161.121 374.836 160.746C372.652 160.181 370.476 159.577 368.294 159.004C364.473 158 361.09 156.073 357.083 155.891C356.398 155.86 356.289 155.687 357.12 155.845C359.487 156.293 361.823 156.891 364.193 157.326C367.097 157.859 370.089 158.579 373.037 158.789C373.436 158.818 374.587 158.683 374.211 158.547C372.578 157.957 370.502 158.089 368.825 158.305C361.558 159.241 355.341 163.438 348.566 165.946C348.36 166.022 345.317 167.052 347.056 166.282C349.965 164.993 352.693 164.105 355.881 163.803C359.382 163.471 362.947 163.557 366.411 162.899C367.595 162.674 371.95 161.797 369.393 160.113C366.916 158.48 363.416 158.583 360.587 158.156C356.836 157.589 353.31 156.425 349.647 155.509C348.475 155.216 347.576 155.173 349.032 154.26C350.8 153.152 352.89 152.545 354.791 151.707C355.267 151.497 357.838 150.639 356.692 149.731C355.364 148.679 352.788 148.822 351.194 148.688C349.305 148.528 347.414 148.382 345.528 148.185C344.336 148.06 342.698 148.142 341.595 147.644C340.796 147.283 343.88 146.243 344.093 146.19C344.997 145.967 346.327 146.026 347.168 146.507C347.272 146.567 346.113 146.747 346.012 146.759C345.157 146.858 344.316 146.946 343.468 147.104C340.043 147.742 336.706 149.853 333.805 151.707C330.759 153.654 327.67 155.954 324.952 158.342C322.974 160.079 321.267 162.291 319.528 164.269C317.574 166.492 315.594 168.75 314.002 171.258C311.792 174.742 310.402 178.841 309.473 182.841C309.439 182.989 309.203 184.061 309.203 183.913C309.203 182.562 309.078 181.221 308.952 179.878C308.632 176.466 308.52 173.346 309.949 170.158C311.085 167.622 313.609 165.786 315.577 163.915C316.658 162.887 317.59 161.715 318.69 160.709C319.884 159.616 321.315 158.802 322.548 157.746C325.672 155.067 328.36 151.792 332.034 149.853C334.651 148.471 337.465 147.224 340.309 146.377C342.358 145.766 345.466 144.587 347.615 145.24C348.492 145.506 349.47 146.393 349.013 147.383C348.425 148.657 346.862 149.615 345.845 150.496C343.87 152.205 342.032 154.068 340.309 156.031C338.672 157.897 337.15 159.866 335.352 161.585C332.456 164.353 329.248 166.77 326.573 169.767C326.319 170.052 323.924 172.337 324.505 173.001C325.238 173.838 327.016 172.002 327.449 171.575C333.67 165.441 340.812 161.227 348.789 157.727C350.12 157.143 354.053 155.316 352.834 156.106C352.078 156.595 351.34 156.941 350.933 157.802C347.916 164.183 342.105 168.784 336.936 173.429C331.814 178.031 347.892 165.043 353.775 161.464C354.542 160.997 355.349 160.505 356.189 160.169C356.322 160.115 355.952 160.334 355.825 160.401C352.634 162.091 349.519 164.107 346.562 166.17C339.262 171.265 333.241 177.322 328.894 185.115C327.956 186.796 326.736 188.81 326.918 190.818C326.934 190.994 327.234 192.514 327.729 191.983C328.194 191.484 328.523 190.693 328.819 190.11C329.692 188.392 330.507 186.645 331.363 184.919C333.649 180.31 336.22 175.878 338.725 171.388C339.474 170.047 340.615 168.44 340.738 166.841C340.821 165.76 341.191 164.705 341.502 163.672C341.996 162.032 342.46 160.381 342.732 158.687C342.835 158.048 343.33 155.889 342.686 155.379C341.561 154.488 338.924 157.147 338.296 157.699C334.539 161.008 331.294 164.838 327.915 168.518C325.901 170.713 323.716 172.786 321.877 175.135C321.045 176.197 320.104 177.719 322.044 175.992C325.426 172.983 328.382 169.465 331.494 166.188C334.569 162.951 338.139 159.854 340.831 156.273C341.249 155.718 341.006 155.57 340.393 155.798C338.966 156.329 337.674 157.392 336.489 158.305C332.922 161.053 329.646 164.144 326.741 167.586C326.339 168.062 322.776 172.024 323.517 172.823C324.47 173.852 329.043 167.753 329.453 167.186C331.619 164.186 333.738 160.571 334.094 156.804C334.421 153.342 331.333 156.541 330.506 157.634C326.529 162.891 323.435 168.98 320.274 174.743C317.705 179.427 314.934 184.248 313.732 189.504C313.454 190.721 313.224 191.961 313.098 193.204C313.072 193.468 312.972 194.169 313.173 193.996C313.772 193.48 314.301 192.245 314.636 191.629C316.051 189.029 317.045 186.314 317.926 183.484C318.466 181.747 318.968 179.996 319.435 178.238C319.792 176.894 320.971 172.663 320.926 170.699C320.921 170.461 320.769 170.06 320.535 170.102C320.127 170.177 318.782 172.208 318.746 172.264C315.208 177.844 312.862 184.503 311.188 190.855C311.048 191.387 309.427 197.065 310.815 197.323C312.248 197.588 312.471 190.753 312.483 190.054C312.496 189.344 312.627 182.786 311.458 182.692C310.278 182.598 309.65 189.861 309.557 190.511C308.819 195.696 306.184 211.179 307.311 206.064C308.206 202.004 308.509 197.727 308.747 193.586C308.837 192.002 308.86 190.419 308.868 188.833C308.869 188.457 308.989 187.071 308.756 188.311C307.943 192.628 307.223 196.958 306.352 201.264C305.46 205.671 304.387 210.081 303.742 214.534C303.351 217.234 304.389 214.145 304.451 213.938C306.145 208.237 305.628 202.16 305.345 196.307C305.235 194.017 305.047 191.73 304.954 189.439C304.917 188.526 304.714 185.932 305.196 186.708C305.636 187.417 305.696 188.676 305.774 189.448C305.974 191.432 305.959 193.431 305.904 195.422C305.839 197.788 305.69 200.15 305.55 202.513C305.547 202.569 305.203 204.962 305.578 205.188C306.228 205.578 306.475 203.931 306.687 203.203C307.346 200.939 307.575 198.563 307.591 196.214C307.608 193.77 307.369 191.329 306.929 188.926C306.79 188.163 306.334 185.941 306.221 186.708C306.137 187.278 306.584 188.318 306.724 188.787C307.129 190.138 307.558 191.481 307.936 192.84C308.615 195.284 308.93 198.082 309.967 200.407C310.34 201.243 310.766 200.483 311.02 200.006C311.972 198.225 312.478 196.213 313.117 194.313C314.285 190.836 315.511 187.409 317.32 184.202C319.319 180.657 321.92 177.524 324.831 174.697C325.937 173.622 329.305 170.479 328.335 171.677C326.35 174.129 325.051 177.405 324.001 180.325C322.334 184.964 320.829 189.853 320.106 194.741C319.719 197.36 320.224 198.113 321.83 196.093C323.428 194.082 324.625 191.74 325.791 189.467C328.017 185.125 330.017 180.671 332.202 176.309C333.206 174.303 334.233 172.302 335.38 170.373C335.812 169.645 335.961 169.447 335.575 170.251C333.371 174.854 331.337 179.543 329.406 184.267C328.49 186.51 327.623 188.769 326.918 191.088C326.641 192.001 325.623 194.252 326.518 193.921C327.437 193.581 328.277 191.678 328.586 190.967C330.133 187.411 330.812 183.488 331.671 179.729C332.454 176.3 332.98 171.872 335.081 168.919C336.309 167.194 335.396 173.056 335.389 173.103C334.465 179.466 332.491 185.581 331.233 191.871C330.902 193.525 330.579 195.32 330.86 197.015C331.022 197.993 331.208 198.028 331.848 198.171" stroke="black" stroke-width="7" stroke-linecap="round"/>
    <path d="M311.887 202.7C311.404 201.999 310.602 200.5 309.576 200.388C308.089 200.227 307.364 204.766 307.19 205.626C306.456 209.256 306.305 212.947 306.221 216.64C306.147 219.922 306.195 223.367 307.843 226.313C307.931 226.471 310.011 229.693 310.471 229.258C310.823 228.925 310.426 227.306 310.359 226.984C309.944 224.999 309.172 223.065 308.569 221.132C307.948 219.137 307.326 217.143 306.762 215.131C306.55 214.378 306.301 212.152 306.053 212.894C305.727 213.874 305.931 215.451 305.997 216.435C306.177 219.092 306.888 221.601 307.908 224.049C309.255 227.283 310.661 230.9 313.015 233.563C313.205 233.779 313.695 234.322 313.695 233.675C313.695 231.98 313.127 230.186 312.782 228.55C311.112 220.646 310.051 212.432 309.911 204.349C309.903 203.861 309.556 200.541 310.126 200.034C310.318 199.863 310.27 200.533 310.293 200.789C310.456 202.563 310.488 204.351 310.582 206.129C311.071 215.382 311.504 224.812 313.061 233.955C313.408 235.99 313.766 238.567 315.037 240.292C315.831 241.37 316.387 240.413 316.546 239.527C317.108 236.404 316.616 232.967 316.304 229.855C315.68 223.636 314.784 217.446 314.086 211.236C313.665 207.482 313.259 203.717 313.098 199.941C312.964 196.771 313.451 202.533 313.453 202.55C314.228 210.807 315.171 219.469 318.233 227.245C318.571 228.104 319.211 230.358 320.078 230.973C320.947 231.588 320.402 228.844 320.283 227.786C319.344 219.457 317.392 211.25 316.956 202.858C316.841 200.639 317.064 201.797 317.329 203.203C318.22 207.928 319.139 212.643 320.218 217.33C321.29 221.988 322.408 226.671 324.02 231.178C324.558 232.681 325.151 234.937 326.238 236.191C326.968 237.033 326.226 233.954 326.042 232.855C325.124 227.369 323.979 221.924 323.07 216.435C322.034 210.189 319.941 191.32 320.33 197.639C320.952 207.75 323.13 217.806 326.163 227.45C337.774 264.367 318.159 201.929 327.039 230.209C327.155 230.578 327.147 231.026 327.412 231.308C327.644 231.556 327.334 230.634 327.263 230.302C327.133 229.69 326.234 225.746 326.219 225.68C324.803 219.235 323.567 212.757 322.641 206.222C322.037 201.955 321.85 197.587 321.113 193.343C321.079 193.151 321.085 192.911 320.936 192.784C320.856 192.717 320.764 192.926 320.74 193.027C320.52 193.953 320.378 196.448 320.348 197.071C320.087 202.488 320.157 207.922 320.311 213.342C320.426 217.351 320.664 221.368 320.572 225.382C320.556 226.087 320.752 226.897 320.367 227.488C320.315 227.568 320.154 227.463 320.097 227.385C319.619 226.736 319.129 225.042 318.979 224.534C317.634 219.999 317.021 215.296 316.649 210.593C316.346 206.766 316.002 202.733 316.435 198.897C316.692 196.616 317.352 200.08 317.376 200.193C318.159 203.9 318.751 207.623 319.761 211.282C320.806 215.064 322.041 218.858 323.638 222.446C324.112 223.512 324.997 226.138 325.744 225.242C326.104 224.81 325.976 223.546 325.958 223.257C325.861 221.63 325.539 219.757 325.297 218.187C324.15 210.743 323.186 203.299 322.287 195.822" stroke="black" stroke-width="7" stroke-linecap="round"/>
    <path d="M321.784 189.113C321.857 196.738 322.025 204.068 323.824 211.506C325.063 216.625 326.701 221.554 329.164 226.22C329.289 226.457 330.144 228.442 330.636 228.606C330.717 228.633 330.77 228.484 330.786 228.401C330.905 227.758 330.727 226.328 330.683 225.903C329.848 217.884 328.66 209.908 327.869 201.88C327.663 199.79 327.401 197.704 327.272 195.608C327.184 194.18 327.943 198.391 328.232 199.792C329.752 207.153 331.721 214.308 334.233 221.393C334.883 223.226 335.568 225.048 336.312 226.845C336.512 227.329 337.019 228.792 336.973 228.27C336.866 227.037 336.255 225.472 335.939 224.347C335.06 221.225 334.144 218.114 333.302 214.982C332.356 211.463 331.505 207.914 330.422 204.433C329.301 200.83 332.361 211.742 333.721 215.261C335.499 219.864 337.945 224.041 340.188 228.41C340.416 228.854 341.061 230.202 340.794 229.78C340.34 229.061 340.009 227.974 339.722 227.227C337.823 222.282 336.436 217.176 334.904 212.112C334.691 211.404 334.474 210.698 334.243 209.996C334.087 209.524 334.136 208.754 333.656 208.626C333.109 208.481 333.576 209.766 333.674 210.322C334.25 213.574 335.71 216.787 336.805 219.883C337.851 222.838 338.951 225.771 340.067 228.699" stroke="black" stroke-width="7" stroke-linecap="round"/>
    <path d="M337.383 220.648C336.068 218.723 335.23 216.8 334.429 214.628C332.791 210.182 330.93 205.824 329.295 201.376C328.988 200.543 327.251 197.291 328.884 196.866C330.294 196.499 331.157 197.008 331.475 198.376C332.172 201.369 331.995 204.659 332.193 207.704C332.624 214.364 333.185 221.266 332.053 227.888C331.991 228.247 330.25 234.791 329.63 234.272C328.837 233.608 328.593 231.567 328.325 230.675C327.72 228.658 326.931 226.787 326.145 224.841" stroke="black" stroke-width="7" stroke-linecap="round"/>
    <path d="M317.255 223.499C315.991 224.624 315.026 225.589 314.944 227.357C314.866 229.021 315.318 230.659 315.894 232.203C317.11 235.46 318.89 239.153 321.56 241.484C326.047 245.402 331.888 247.341 337.113 249.992C339.394 251.15 341.751 251.598 344.251 252.015C345.465 252.217 346.682 252.385 347.858 252.76C349.246 253.203 350.578 253.74 352.051 253.823C353.929 253.928 355.727 253.193 357.549 252.853C359.566 252.478 361.425 252.741 363.448 252.676C366.316 252.585 369.323 251.647 372.105 250.971C373.755 250.57 375.549 250.43 377.137 249.834C379.462 248.962 381.807 248.306 384.173 247.56C387.348 246.559 390.295 244.963 393.408 243.795C396.077 242.795 398.268 241.976 399.745 239.397C402.937 233.822 408.681 230.147 411.477 224.226C412.066 222.978 412.027 221.83 412.027 220.489C412.027 220.084 412.323 219.05 412.176 218.719C412.04 218.414 411.406 218.463 411.151 218.43C410.125 218.295 409.122 218.025 408.094 217.899C405.326 217.557 402.632 218.566 399.894 218.765C397.858 218.913 395.974 219.087 394.004 218.467C392.369 217.952 390.968 217.998 389.298 218.122C389.049 218.141 387.847 218.454 387.705 218.206C387.415 217.699 386.408 217.998 385.99 218.169C384.509 218.776 385.04 219.4 386.027 220.387C387.852 222.211 389.292 222.71 391.861 222.651C394.784 222.584 397.449 222.288 400.36 222.744C403.481 223.233 406.338 223.353 409.455 222.698C410.617 222.454 409.667 222.593 409.119 222.772C407.503 223.303 405.928 223.957 404.385 224.673C399.978 226.719 395.471 228.978 392.346 232.809C390.695 234.831 389.631 237.469 387.733 239.267C384.708 242.132 380.712 241.489 376.932 241.652C373.129 241.817 370.171 243.53 366.626 244.616C362.79 245.79 358.574 244.613 354.679 244.299C351.374 244.032 348.61 243.171 345.565 241.913C343.105 240.896 341.296 239.441 339.21 237.822C338.307 237.122 337.424 236.424 336.377 235.949C335.66 235.624 334.943 235.38 334.466 234.71C333.939 233.967 333.708 233.052 333.19 232.296C332.429 231.186 331.277 230.796 330.04 230.414C327.889 229.749 325.555 229.27 323.498 228.364C322.309 227.839 321.41 227.653 320.181 227.441C318.494 227.15 318.407 229.569 318.438 230.768C318.525 234.08 319.843 237.178 322.641 239.136C325.067 240.835 328.16 241.675 331.065 242.081C331.232 242.104 331.769 242.267 331.708 242.239C330.378 241.626 329.497 239.475 328.912 238.279C327.665 235.727 326.616 233.044 325.697 230.358C325.41 229.517 324.475 227.634 325.474 226.891C326.682 225.992 328.684 226.647 329.891 227.152C332.985 228.448 335.551 230.655 337.104 233.638C337.834 235.042 338.525 236.678 338.707 238.269C338.802 239.106 338.444 238.063 338.371 237.887C337.25 235.19 336.444 232.381 335.752 229.547C335.689 229.289 334.261 223.407 335.091 223.471C336.369 223.569 337.659 227.666 338.017 228.494C339.335 231.547 340.583 234.612 342.052 237.598C342.976 239.476 343.884 241.342 344.689 243.274C345.457 245.116 345.231 242.854 345.155 242.099C344.867 239.239 344.235 236.426 343.515 233.647C343.152 232.245 342.553 230.83 342.285 229.407C342.205 228.983 342.592 228.842 342.956 228.923C344.508 229.268 345.574 231.771 346.348 232.948C347.045 234.01 347.781 235.382 348.845 236.135C349.144 236.347 348.744 235.397 348.575 235.073C347.886 233.746 347.238 232.425 346.851 230.973C346.737 230.543 346.641 230.204 347.056 230.703C347.706 231.483 348.315 232.298 349.05 233.004C351.308 235.173 354.921 236.158 357.642 234.253C359.434 232.999 360.164 230.297 362.181 229.454C365.365 228.122 369.097 228.279 372.431 227.506C374.395 227.051 376.33 226.461 378.218 225.754C379.093 225.427 379.943 224.984 380.865 224.804C382.16 224.55 383.814 224.654 384.816 223.63C385.737 222.688 385.021 220.426 385.021 219.25C385.021 217.406 382.97 221.544 382.84 221.822C380.563 226.688 377.272 230.529 373.149 233.936C372.865 234.171 372.295 234.634 371.956 234.887C371.902 234.927 371.847 234.965 371.788 234.999C371.669 235.067 372.009 234.833 372.124 234.756C373.785 233.636 375.45 232.52 377.1 231.383C379.64 229.632 382.085 227.737 384.676 226.062C384.965 225.875 390.334 222.712 390.491 223.182C390.601 223.511 390.102 223.758 389.867 224.012C388.757 225.21 387.6 226.363 386.531 227.599C384.176 230.321 381.828 233.379 380.222 236.611C379.631 237.799 379.178 240.261 381.256 238.782C383.407 237.252 385.043 234.855 386.596 232.771C388.659 230.002 390.501 227.023 392.793 224.431C394.385 222.631 391.534 226.767 391.526 226.779C389.51 229.636 387.386 232.509 385.729 235.595C385.394 236.219 384.249 238.013 384.63 238.847C384.966 239.584 386.634 238.051 386.736 237.962C389.003 235.977 390.703 233.334 392.616 231.029C394.272 229.033 396.159 226.441 398.515 225.195C399.855 224.486 398.281 228.093 398.216 228.242C397.219 230.536 395.335 233.075 395.029 235.595C394.833 237.215 397.002 234.941 397.173 234.756C399.1 232.666 400.709 230.307 402.522 228.121C402.532 228.108 405.879 224.396 405.97 225.288C406.059 226.172 405.349 227.386 404.954 228.084C404.035 229.707 402.826 231.137 401.627 232.557C398.894 235.793 390.802 245.481 394.042 242.752C395.811 241.261 397.226 239.26 398.617 237.431C399.041 236.874 400.419 234.458 401.338 234.458C401.787 234.458 400.751 237.628 401.599 237.785C402.511 237.954 403.596 236.613 404.125 236.061C404.183 236 404.906 235.025 405.084 235.054C405.546 235.131 404.965 235.99 404.814 236.434C403.884 239.173 402.215 241.922 400.658 244.355C400.417 244.73 399.987 244.439 399.633 244.401C398.184 244.247 396.869 244.804 395.616 245.464C393.812 246.413 392.183 247.376 390.538 248.576C389.005 249.694 387.377 250.469 385.561 251.008C384.601 251.293 383.841 251.901 382.878 252.182C381.379 252.621 379.797 252.798 378.256 253.021C376.276 253.308 374.369 253.676 372.366 253.823C370.589 253.953 368.824 254.182 367.092 254.615C366.114 254.859 365.258 255.577 364.268 255.705C362.514 255.931 360.74 256.367 358.984 256.506C356.781 256.681 353.866 256.03 351.883 255.164C350.795 254.689 349.921 253.563 349.199 252.667C347.84 250.979 346.179 249.849 344.372 248.679C341.674 246.93 338.347 246.683 335.706 244.802C333.304 243.092 332.262 240.753 331.27 238.074C330.784 236.759 329.865 234.589 328.102 234.589C327.757 234.589 328.362 235.24 328.586 235.502C329.613 236.7 330.758 237.787 332.062 238.679C335.035 240.715 338.166 241.664 341.744 241.783C344.662 241.879 346.511 243.435 349.013 244.671C350.405 245.359 351.763 245.763 353.318 245.519C354.983 245.259 356.587 244.711 358.285 244.662C360.462 244.6 362.879 245.299 364.986 245.818C367.319 246.392 369.332 246.156 371.695 245.902C373.876 245.667 376.081 245.402 378.274 245.314C379.483 245.266 380.859 245.947 381.946 245.193C384.171 243.65 380.142 244.237 379.337 244.373C374.071 245.263 369.406 248.071 364.221 249.303C360.612 250.16 355.851 251.329 352.293 249.592C351.89 249.395 351.372 248.35 351.138 248.324C350.84 248.291 349.637 247.535 350.075 247.188C350.793 246.618 352.38 246.643 353.235 246.47C355.366 246.039 357.425 245.342 359.329 244.28C362.57 242.473 365.948 240.741 369.021 238.661C370.445 237.697 371.806 236.65 373.205 235.651C373.271 235.603 374.696 234.651 374.509 234.607C373.717 234.422 372.464 235.032 371.77 235.297C369.615 236.118 367.564 237.2 365.582 238.372C364.03 239.289 362.596 240.364 361.072 241.317C360.574 241.628 359.69 242.252 360.54 241.345C363.355 238.343 366.096 235.028 369.263 232.399C370.298 231.539 369.84 231.858 368.769 232.203C366.08 233.07 363.494 234.04 360.978 235.334C359.731 235.976 358.554 236.746 357.307 237.384C357.123 237.478 356.583 237.764 356.785 237.72C359.16 237.192 361.046 235.318 363.411 234.691C363.627 234.634 364.673 234.387 364.128 234.924C362.801 236.231 361.14 237.316 359.627 238.391C358.012 239.539 356.257 240.625 354.306 241.093C352.922 241.425 351.476 241.243 350.075 241.149C349.827 241.132 346.499 240.93 347.429 240.366C348.617 239.646 350.143 239.321 351.464 238.95C352.757 238.587 354.499 238 355.862 238.353C356.587 238.541 355.12 239.113 354.996 239.155C353.179 239.774 351.164 239.955 349.293 240.366C346.742 240.927 344.205 241.574 341.726 242.398C339.127 243.262 336.627 244.445 333.991 245.193C333.48 245.338 332.546 245.668 332.025 245.342C331.42 244.964 331.266 244.101 330.692 243.665C328.885 242.29 326.2 242.013 324.113 241.233C323.14 240.869 322.138 240.288 322.138 239.127C322.138 237.816 321.606 239.845 321.7 240.292C322.413 243.707 325.329 246.389 328.307 247.896C328.793 248.142 332.295 250.331 332.742 249.144C333.075 248.263 332.146 247.171 331.727 246.507C330.256 244.18 328.789 241.858 327.384 239.49C325.988 237.138 324.403 234.965 322.902 232.687C322.034 231.371 321.236 229.938 321.569 228.317C321.649 227.928 322.748 225.89 322.119 226.518" stroke="black" stroke-width="7" stroke-linecap="round"/>
    <path d="M385.86 167.642C385.56 168.07 384.81 168.842 385.058 169.45C385.111 169.58 385.567 169.864 385.543 169.991C385.495 170.242 384.606 170.545 384.425 170.662C383.535 171.234 382.949 172.16 382.458 173.075C382.223 173.514 381.294 176.173 382.915 175.135C384.402 174.182 385.44 171.99 386.298 170.466C387.218 168.829 388.374 167.345 389.261 165.685C389.744 164.782 390.113 163.567 390.761 162.778C391.205 162.238 391.973 161.415 392.737 161.688C393.078 161.809 393.255 161.71 393.576 161.604" stroke="black" stroke-width="7" stroke-linecap="round"/>
    <path d="M372.105 231.718L372.776 235.409" stroke="black" stroke-width="7" stroke-linecap="round"/>
    <path d="M373.279 238.092L373.95 239.77" stroke="black" stroke-width="7" stroke-linecap="round"/>
    <path d="M374.621 239.77C376.099 239.736 376.852 239.089 377.398 237.682C377.579 237.217 377.871 236.473 377.808 235.949C377.797 235.853 377.045 237.121 377.044 237.123C376.784 237.688 375.735 239.947 376.336 240.571C376.853 241.109 377.459 240.133 377.641 239.77" stroke="black" stroke-width="7" stroke-linecap="round"/>
    <path d="M238.158 273.737C237.732 277.565 237.68 281.483 237.954 285.364C238.043 286.63 237.886 287.874 237.886 289.139C237.886 289.905 238.022 290.654 238.022 291.419C238.022 292.134 238.022 292.848 238.022 293.563C238.022 294.034 238.022 294.366 238.022 293.714" stroke="black" stroke-width="4" stroke-linecap="round"/>
    <path d="M239.517 282.027C239.114 282.455 239.217 282.719 239.517 283.144C240.45 284.47 241.603 284.771 243.156 284.368C244.45 284.031 245.799 283.636 247.021 283.084C248.401 282.461 248.962 280.808 248.886 279.4C248.728 276.483 245.361 275.904 243.254 274.968C242.437 274.605 241.465 274.97 240.611 274.757C239.989 274.601 238.843 274.156 239.381 275.096" stroke="black" stroke-width="4" stroke-linecap="round"/>
    <path d="M259.222 273.737C259.112 274.838 259.281 275.853 259.357 276.946C259.483 278.732 259.493 280.508 259.493 282.299C259.493 285.108 259.484 287.881 259.931 290.664C260.099 291.706 260.189 292.517 259.969 293.571C259.877 294.012 259.901 294.459 259.901 294.907C259.901 294.91 260.008 294 260.037 293.714" stroke="black" stroke-width="4" stroke-linecap="round"/>
    <path d="M259.901 274.009C259.631 274.318 260.953 274.281 261.079 274.281C262.21 274.281 263.33 274.129 264.461 274.145C265.334 274.157 266.131 274.444 267.021 274.409C267.552 274.388 268.622 273.974 269.074 274.356C269.545 274.755 269.938 275.542 270.229 276.078C270.642 276.835 271.262 278.235 271.15 279.128C271.031 280.082 270.61 281.042 270.29 281.944C269.994 282.777 269.238 282.988 268.463 283.182C267.46 283.433 266.514 283.635 265.473 283.658C264.707 283.674 263.93 283.998 263.17 283.922C262.688 283.874 262.309 283.522 261.804 283.522C261.108 283.522 262.359 284.022 262.453 284.065C263.615 284.602 264.658 285.413 265.405 286.459C266.318 287.737 266.999 288.318 268.5 288.754C269.255 288.973 269.824 289.636 270.169 290.317C270.337 290.647 270.434 291.37 270.773 291.54" stroke="black" stroke-width="4" stroke-linecap="round"/>
    <path d="M281.916 276.727C281.021 277.201 280.631 278.899 280.308 279.754C279.741 281.258 279.668 282.809 279.75 284.398C279.825 285.866 280.828 287.346 281.373 288.686C281.862 289.888 282.809 290.939 283.849 291.706C284.584 292.248 285.45 292.907 286.273 293.291C286.962 293.613 288.281 293.578 289.051 293.578C291.01 293.578 292.96 291.693 293.468 289.849C294.167 287.31 293.692 284.777 294.079 282.223C294.412 280.026 293.341 277.108 291.973 275.398C290.97 274.145 288.706 273.734 287.209 273.609C286.595 273.558 286.106 273.837 285.563 274.077C284.681 274.467 283.734 274.669 282.868 275.096C282.056 275.497 281.259 275.798 282.052 276.591" stroke="black" stroke-width="4" stroke-linecap="round"/>
    <path d="M319.152 275.096C319.29 275.077 317.686 274.147 317.401 274.085C316.343 273.853 315.171 274.161 314.109 274.251C312.252 274.407 310.053 274.646 308.447 275.61C307.758 276.023 307.054 276.375 306.37 276.803C305.243 277.507 304.775 278.557 304.204 279.717C303.552 281.038 303.016 282.503 302.784 283.96C302.518 285.634 302.752 286.761 303.222 288.354C303.601 289.638 303.941 290.981 305.094 291.812C306.303 292.682 307.517 293.18 308.96 293.442C310.459 293.715 311.938 293.442 313.445 293.442C314.552 293.442 315.814 293.499 316.842 293.004C318.727 292.098 318.88 290.221 318.88 288.308C318.88 287.527 318.651 286.455 317.861 286.104C317.521 285.953 317.28 285.661 316.978 285.56" stroke="black" stroke-width="4" stroke-linecap="round"/>
    <path d="M314.668 286.104C314.276 286.076 315.498 285.835 315.679 285.832C316.698 285.818 317.699 286.115 318.714 286.021C318.969 285.997 321.001 285.324 320.239 285.832" stroke="black" stroke-width="4" stroke-linecap="round"/>
    <path d="M328.257 273.873C328.257 274.981 328.427 276.062 328.499 277.165C328.595 278.654 328.518 280.158 328.529 281.649C328.545 283.767 329.321 285.774 329.344 287.871C329.36 289.279 329.317 290.69 329.344 292.098C329.349 292.356 329.472 292.648 329.511 292.929C329.663 294.035 329.54 292.741 329.48 292.355" stroke="black" stroke-width="4" stroke-linecap="round"/>
    <path d="M327.714 274.145C327.482 273.599 326.872 273.33 327.661 273.33C329.187 273.33 330.703 273.465 332.228 273.465C333.679 273.465 335.087 273.672 336.532 273.73C337.518 273.769 338.302 274.174 339.265 274.281C339.995 274.362 340.913 274.453 341.167 275.232C341.437 276.057 341.323 277.059 341.303 277.92C341.286 278.691 340.32 279.524 339.884 280.117C339.087 281.2 338.343 281.731 337.083 282.231C335.996 282.662 334.826 283.233 333.633 283.25C332.775 283.262 331.916 283.25 331.058 283.25C331.046 283.25 333.091 284.038 333.557 284.232C334.906 284.791 335.561 286.013 336.819 286.678C337.738 287.164 338.822 287.789 339.265 288.769C339.684 289.697 339.696 290.592 340.631 291.2C341.03 291.459 341.812 291.992 341.847 292.521C341.928 293.734 342.055 293.17 342.119 292.219" stroke="black" stroke-width="4" stroke-linecap="round"/>
    <path d="M348.37 291.947C348.584 291.921 348.654 291.48 348.717 291.313C349.045 290.45 349.448 289.615 349.88 288.799C350.701 287.248 351.696 285.676 352.311 284.035C353.116 281.888 353.429 279.625 354.568 277.595C354.717 277.331 356.002 274.912 356.32 274.983C356.734 275.075 357.27 276.71 357.475 277.044C358.09 278.045 358.713 278.86 359.106 279.988C359.898 282.264 361.03 284.271 362.564 286.111C363.349 287.054 363.677 288.488 364.164 289.607C364.261 289.828 365.24 291.559 364.406 290.724" stroke="black" stroke-width="4" stroke-linecap="round"/>
    <path d="M352.583 286.783C352.432 286.498 352.069 286.338 352.538 286.27C354.064 286.048 355.633 285.799 357.173 285.726C358.693 285.654 360.049 285.964 361.522 286.24C361.892 286.309 362.488 286.557 362.639 286.104" stroke="black" stroke-width="4" stroke-linecap="round"/>
    <path d="M372.424 292.491C372.284 292.089 372.1 291.715 371.948 291.321C371.686 290.64 371.88 289.628 371.88 288.92C371.88 286.733 372.042 284.587 372.356 282.427C372.746 279.74 373.488 276.985 373.647 274.281C373.656 274.125 374.083 274.905 374.13 274.991C374.737 276.106 375.248 277.324 375.685 278.516C376.46 280.63 377.295 282.672 378.328 284.669C378.931 285.836 379.371 287.104 379.898 288.308C380.148 288.88 380.613 291.158 381.121 289.713C382.114 286.891 384.382 285.003 385.946 282.555C386.33 281.954 386.606 281.273 386.859 280.608C387.162 279.811 387.579 279.228 388.052 278.524C388.946 277.191 389.498 275.723 390.468 274.417C390.857 273.892 390.994 273.036 391.049 274.198C391.198 277.323 391.449 280.428 391.449 283.56C391.449 285.619 391.668 287.833 391.283 289.864C391.108 290.791 390.796 291.754 390.77 292.702C390.759 293.104 390.722 292.906 390.498 292.627" stroke="black" stroke-width="4" stroke-linecap="round"/>
    <path d="M401.098 292.899C401.311 292.632 401.234 292.23 401.234 291.91C401.234 290.72 401.193 289.524 401.309 288.339C401.457 286.837 401.69 285.383 401.574 283.869C401.507 283.007 401.422 282.133 401.377 281.272C401.339 280.517 401.319 279.713 401.4 278.962C401.488 278.152 401.805 277.397 401.883 276.591C401.969 275.703 401.859 274.757 402.155 273.903C402.266 273.583 402.294 273.681 402.487 273.896C403.259 274.754 404.021 275.507 404.616 276.516C405.842 278.593 406.283 280.914 407.206 283.107C407.734 284.362 407.95 285.847 408.708 286.995C409.059 287.526 409.543 287.988 409.795 288.58C410.008 289.081 410.039 289.601 410.173 290.12C410.321 290.696 411.098 288.646 411.154 288.49C411.737 286.867 412.694 285.221 413.819 283.914C414.891 282.67 415.997 281.428 416.998 280.124C418.107 278.681 418.779 277.128 419.58 275.504C419.793 275.071 420.018 274.619 420.124 274.145C420.187 273.862 420.375 273.425 420.116 273.964C419.575 275.09 419.716 276.571 419.716 277.784C419.716 279.674 419.631 281.551 419.588 283.439C419.531 285.881 419.682 288.289 419.716 290.724C419.724 291.297 419.83 291.917 420.018 292.461C420.097 292.69 419.711 291.746 419.58 291.54" stroke="black" stroke-width="4" stroke-linecap="round"/>
    <path d="M432.49 273.466C432.807 273.545 432.626 274.931 432.626 275.149C432.626 277.093 432.576 279.063 432.407 281C432.193 283.451 430.935 286.018 431.335 288.497C431.471 289.342 431.486 290.196 431.645 291.026C431.682 291.224 431.934 292.666 432.218 291.812" stroke="black" stroke-width="4" stroke-linecap="round"/>
    <path d="M443.498 291.948C443.36 291.903 442.954 291.877 442.954 291.676C442.954 291.082 443.114 290.431 443.158 289.834C443.329 287.546 443.48 285.197 443.498 282.903C443.512 281.082 443.58 279.349 443.77 277.55C443.844 276.841 443.998 276.118 444.177 275.429C444.314 274.903 444.659 274.425 444.713 273.881C444.787 273.15 444.303 273.294 444.585 273.873C444.842 274.402 445.205 274.842 445.4 275.406C445.789 276.527 446.034 277.662 446.714 278.66C447.714 280.128 449.003 281.479 450.225 282.767C451.252 283.849 451.511 285.176 452.331 286.361C452.948 287.251 453.573 287.906 454.339 288.656C455.074 289.374 455.694 290.259 456.476 290.921C456.748 291.151 457.436 291.793 457.767 291.812C458.543 291.855 458.169 289.691 458.114 289.32C457.996 288.518 457.724 287.768 457.661 286.95C457.566 285.715 457.631 284.457 457.631 283.22C457.631 281.266 457.216 279.443 457.359 277.475C457.454 276.175 457.589 274.895 457.39 273.601C457.292 272.964 457.754 272.566 457.903 271.971" stroke="black" stroke-width="4" stroke-linecap="round"/>
    <path d="M483.316 275.096C483.168 275.078 482.997 274.591 482.938 274.447C482.767 274.027 482.366 273.671 481.927 273.571C480.846 273.326 479.803 272.92 478.725 272.68C477.458 272.399 476.283 272.321 474.996 272.484C473.427 272.683 471.74 272.372 470.33 273.299C469.722 273.699 468.98 273.872 468.367 274.281C467.597 274.794 467.047 275.6 466.57 276.38C465.445 278.222 465.109 280.566 464.939 282.676C464.754 284.98 464.539 286.948 465.785 289.033C466.843 290.803 469.426 292.288 471.463 292.597C473.03 292.834 474.992 292.054 476.415 291.434C477.841 290.813 479.182 289.544 480.16 288.339C480.941 287.377 481.371 285.834 480.598 284.775C480.289 284.353 479.417 284.566 478.967 284.443C478.77 284.389 478.301 284.157 478.484 284.065C479.089 283.763 480.481 284.37 481.081 284.473C481.708 284.581 482.984 284.609 482.984 284.609C482.984 284.609 482.288 284.552 481.957 284.639C481.312 284.81 481.095 285.426 481.036 286.028C480.908 287.316 480.959 288.412 480.598 289.667C480.437 290.226 480.254 290.744 480.432 291.298C480.522 291.579 480.719 292.564 480.87 291.812" stroke="black" stroke-width="4" stroke-linecap="round"/>
    <path d="M276.888 304.722C276.086 304.722 276.203 305.565 276.239 306.232C276.4 309.207 276.664 312.206 277.092 315.156C277.329 316.785 277.432 318.396 277.432 320.04C277.432 320.732 277.432 321.425 277.432 322.117C277.432 322.211 277.67 322.105 277.839 322.147C279.538 322.572 280.874 322.939 282.641 322.555C283.353 322.4 284.108 322.163 284.838 322.328C285.589 322.498 286.276 322.732 287.058 322.592C287.863 322.448 287.882 322.838 288.515 323.068C288.897 323.207 289.859 323.351 289.119 322.796" stroke="black" stroke-width="4" stroke-linecap="round"/>
    <path d="M292.38 322.796C294.808 319.377 295.934 315.156 297.884 311.471C298.516 310.278 298.898 309.022 299.243 307.719C299.372 307.232 299.53 306.751 299.575 306.247C299.609 305.875 299.523 306.168 299.719 306.217C299.993 306.285 299.942 307.138 299.96 307.334C300.087 308.69 300.432 309.969 300.806 311.275C301.496 313.684 302.128 316.402 303.735 318.394C304.398 319.216 305.291 320.104 305.291 321.218C305.291 321.796 305.747 322.42 305.155 321.709" stroke="black" stroke-width="4" stroke-linecap="round"/>
    <path d="M292.652 315.186C292.179 316.605 298.328 316.781 299.145 316.809C299.872 316.834 300.701 316.694 301.41 316.892C301.829 317.01 302.192 317.343 302.573 317.088" stroke="black" stroke-width="4" stroke-linecap="round"/>
    <path d="M313.173 323.747C313.173 319.179 313.358 314.587 313.913 310.052C314.102 308.505 314.371 306.965 314.637 305.432C314.732 304.887 314.826 304.059 314.728 303.537C314.685 303.306 314.799 303.934 314.834 304.012C315.185 304.802 315.801 305.518 316.298 306.217C317.637 308.1 318.845 310.114 320.3 311.909C321.818 313.783 323.834 315.217 325.192 317.209C325.652 317.883 325.91 318.64 326.219 319.391C326.497 320.067 327.158 320.644 327.17 321.392C327.179 321.935 327.1 322.528 327.178 323.068C327.264 323.673 327.442 321.42 327.442 321.196C327.442 316.921 327.116 312.721 327.472 308.451C327.57 307.279 327.604 306.11 327.706 304.941C327.742 304.525 328.325 304.161 327.85 304.042" stroke="black" stroke-width="4" stroke-linecap="round"/>
    <path d="M352.039 306.081C351.964 304.88 349.677 304.337 348.77 304.11C347.669 303.835 346.141 303.603 345.003 303.801C343.897 303.993 342.828 304.61 341.839 305.137C339.639 306.311 337.782 307.507 336.819 309.916C336.302 311.209 336.251 312.65 335.943 314.016C335.784 314.721 336.099 315.451 336.275 316.13C336.546 317.174 336.925 318.282 337.498 319.202C338.553 320.895 339.325 322.721 341.137 323.717C342.917 324.695 344.867 325.521 346.943 325.167C347.801 325.02 348.514 324.63 349.238 324.163C349.884 323.746 350.681 323.425 351.224 322.872C352.267 321.808 351.797 319.569 351.216 318.372C351.097 318.126 350.376 315.429 350.197 315.48C349.934 315.556 349.916 316.039 349.646 316.122C349.098 316.291 348.259 316.145 347.691 316.137C347.295 316.132 346.627 316.119 346.256 315.971C345.836 315.803 347.568 316.173 347.698 316.19C349.178 316.38 353.668 316.273 352.175 316.273" stroke="black" stroke-width="4" stroke-linecap="round"/>
    <path d="M357.611 303.906C357.611 303.555 357.781 303.823 358.109 303.906C359.721 304.315 361.475 304.178 363.122 304.178C363.948 304.178 364.773 304.178 365.599 304.178C366.17 304.178 365.959 304.275 365.493 304.45" stroke="black" stroke-width="4" stroke-linecap="round"/>
    <path d="M360.057 305.673C360.057 308.647 359.8 311.507 360.253 314.476C360.488 316.01 360.676 317.597 361.386 318.991C361.761 319.728 362.316 320.371 362.571 321.165C362.991 322.47 364.399 323.256 365.561 323.815C366.259 324.151 366.911 324.418 367.667 324.593C368.541 324.795 369.121 324.342 369.842 323.883C371.024 323.131 371.983 322.286 372.967 321.301C374.442 319.827 374.866 317.384 375.036 315.397C375.248 312.921 375.261 310.252 374.764 307.817C374.512 306.583 374.726 305.034 373.647 304.314" stroke="black" stroke-width="4" stroke-linecap="round"/>
    <path d="M371.744 304.722C372.73 304.722 373.711 304.843 374.689 304.843C374.871 304.843 376.814 304.586 375.957 304.586" stroke="black" stroke-width="4" stroke-linecap="round"/>
    <path d="M380.306 323.611C381.601 321.868 382.663 320.237 383.537 318.236C384.424 316.204 385.472 314.218 386.293 312.166C387.113 310.116 387.557 307.987 388.248 305.9C388.485 305.184 388.699 304.44 389.071 303.778C389.405 303.184 389.458 305.1 389.479 305.273C389.825 308.197 390.678 310.628 391.782 313.336C392.598 315.339 393.683 317.174 394.228 319.263C394.491 320.272 394.678 321.285 394.922 322.298C395.003 322.634 395.144 322.746 395.36 322.962C395.758 323.36 395.168 322.223 395.119 322.117" stroke="black" stroke-width="4" stroke-linecap="round"/>
    <path d="M383.703 316.273C383.654 316.255 383.027 315.973 383.296 316.107C384.122 316.52 385.425 316.409 386.315 316.409C387.742 316.409 389.151 316.137 390.574 316.137C390.898 316.137 391.446 316.142 391.178 316.545" stroke="black" stroke-width="4" stroke-linecap="round"/>
    <path d="M419.036 306.76C418.384 306.688 418.175 305.841 417.61 305.62C416.758 305.287 415.893 304.924 415.02 304.616C414.036 304.27 412.949 304.015 411.925 303.838C410.964 303.673 410.217 303.883 409.388 304.39C407.442 305.579 406.62 308.327 405.613 310.233C405.272 310.878 404.965 311.113 404.835 311.864C404.598 313.239 403.963 314.745 404.171 316.16C404.337 317.286 404.696 318.653 405.205 319.67C405.674 320.608 406.778 321.216 407.621 321.769C408.052 322.052 408.538 322.175 408.995 322.403C409.695 322.753 410.319 323.232 411.019 323.581C412.219 324.181 413.504 324.051 414.793 323.853C415.733 323.708 416.818 323.341 417.542 322.713C418.494 321.886 418.779 320.707 419.308 319.61C419.857 318.473 419.332 317.732 418.523 316.922C418.12 316.519 417.337 315.458 416.726 315.458" stroke="black" stroke-width="4" stroke-linecap="round"/>
    <path d="M413.193 315.865C413.913 316.389 415.525 316.243 416.311 316.19C417.168 316.132 418.039 316.012 418.885 315.865C419.45 315.767 419.737 315.769 419.036 315.594" stroke="black" stroke-width="4" stroke-linecap="round"/>
    <path d="M427.598 303.635C427.598 305.482 427.891 307.19 428.066 309.018C428.327 311.741 428.126 314.475 428.345 317.194C428.48 318.865 428.676 320.522 428.413 322.192C428.394 322.314 428.028 323.725 428.149 323.785C428.298 323.86 428.286 322.115 428.277 321.981" stroke="black" stroke-width="4" stroke-linecap="round"/>
    <path d="M427.19 302.819C427.613 303.219 428.061 303.359 428.61 303.529C429.736 303.878 430.745 304.305 431.947 304.314C433.748 304.328 435.541 304.042 437.352 304.042C438.266 304.042 439.189 303.997 440.101 304.042C440.6 304.067 441.912 304.246 440.644 303.77" stroke="black" stroke-width="4" stroke-linecap="round"/>
    <path d="M426.918 312.468C427.456 312.468 427.935 312.642 428.413 312.876C430.029 313.663 432.062 313.723 433.819 313.684C434.994 313.657 436.159 313.501 437.322 313.351C437.508 313.327 439.179 313.339 438.606 313.148" stroke="black" stroke-width="4" stroke-linecap="round"/>
    <path d="M428.413 320.758C427.967 321.204 427.624 321.607 428.504 321.845C430.718 322.442 433.261 321.528 435.48 321.331C437.426 321.159 439.65 320.625 441.595 320.924C442.484 321.061 443.038 321.185 443.362 320.214" stroke="black" stroke-width="4" stroke-linecap="round"/>
    <path d="M181.061 36.5624C181.502 33.0289 276.701 35.5075 284.44 35.5075C332.809 35.5075 381.178 35.5075 429.547 35.5075C463.812 35.5075 498.076 35.5075 532.341 35.5075" stroke="url(#paint0_linear_1_1467)" stroke-width="4" stroke-linecap="round"/>
    <path d="M539.725 37.6174C539.421 35.1866 535.505 29.6932 535.505 35.5662C535.505 57.3869 535.505 79.2076 535.505 101.028C535.505 159.282 535.505 217.536 535.505 275.789C535.505 351.82 535.505 579.912 535.505 503.881" stroke="url(#paint1_linear_1_1467)" stroke-width="4" stroke-linecap="round"/>
    <path d="M182.115 32.3428L182.115 509.155" stroke="url(#paint2_linear_1_1467)" stroke-width="4" stroke-linecap="round"/>
    <path d="M183.17 505.991H534.45" stroke="url(#paint3_linear_1_1467)" stroke-width="4" stroke-linecap="round"/>
    <path d="M254.014 442.365C252.804 442.365 252.377 442.723 251.55 443.642C248.479 447.054 246.421 451.161 246.038 455.764C245.546 461.667 247.014 467.233 250.384 472.121C252.125 474.645 256.724 479.18 259.661 476.244" stroke="url(#paint4_linear_1_1467)" stroke-width="4" stroke-linecap="round"/>
    <path d="M264.5 454.465C261.935 457.351 267.185 466.105 270.326 467.08C273.882 468.183 274.74 460.846 274.897 458.812C275.002 457.445 274.206 454.055 275.793 453.658" stroke="url(#paint5_linear_1_1467)" stroke-width="4" stroke-linecap="round"/>
    <path d="M281.843 462.531C285.751 465.537 289.163 464.233 291.769 459.999C294.246 455.974 288.855 452.632 285.943 456.571C282.705 460.952 284.38 466.787 289.82 467.908C294.314 468.835 298.207 466.763 300.395 462.934" stroke="url(#paint6_linear_1_1467)" stroke-width="4" stroke-linecap="round"/>
    <path d="M304.428 456.885C305.609 459.751 306.991 462.511 308.26 465.332C308.286 465.39 308.929 466.704 308.35 466.161C306.893 464.795 306.288 462.426 306.131 460.514C305.777 456.193 309.362 454.19 313.189 453.165C315.162 452.637 317.059 452.662 318.141 454.465" stroke="url(#paint7_linear_1_1467)" stroke-width="4" stroke-linecap="round"/>
    <path d="M321.771 454.061C321.835 455.06 322.071 469.021 326.611 465.13C329.43 462.714 330.145 450.887 330.24 454.599C330.34 458.466 331.094 462.21 331.898 465.982C332.725 469.855 333.535 473.741 334.005 477.678C334.317 480.296 334.773 483.413 333.624 485.923C330.984 491.689 321.347 489.513 318.948 484.713" stroke="url(#paint8_linear_1_1467)" stroke-width="4" stroke-linecap="round"/>
    <path d="M358.472 455.675C358.472 455.063 358.161 457.776 358.159 457.826C358.024 460.514 358.203 464.721 360.713 466.452C365.776 469.944 367.476 457.716 368.152 455.182C368.174 455.1 368.674 454.455 368.734 454.577C368.937 454.983 368.665 456.081 368.645 456.436C368.532 458.372 368.659 460.316 369.048 462.217C369.517 464.51 370.345 466.786 372.364 468.133C373.654 468.992 373.291 467.715 372.992 466.967" stroke="url(#paint9_linear_1_1467)" stroke-width="4" stroke-linecap="round"/>
    <path d="M378.638 455.271C379.672 459.238 382.223 471.134 382.223 467.035C382.223 463.811 379.688 457.947 382.962 455.518C384.227 454.58 386.439 454.201 387.959 454.644C390.246 455.311 389.906 459.63 389.931 461.366C389.976 464.523 389.51 470.001 393.964 467.774" stroke="url(#paint10_linear_1_1467)" stroke-width="4" stroke-linecap="round"/>
    <path d="M405.257 456.885C405.133 452.854 403.534 451.954 400.686 455.294C396.435 460.277 404.202 460.137 407.161 460.559C411.267 461.146 404.373 478.147 403.24 464.548" stroke="url(#paint11_linear_1_1467)" stroke-width="4" stroke-linecap="round"/>
    <path d="M418.566 457.288C415.746 456.684 412.246 460.451 412.292 463.248C412.322 465.078 414.506 465.567 415.967 465.668C418.382 465.834 419.832 463.655 420.807 461.724C420.964 461.413 422.44 458.149 421.703 457.781C420.941 457.4 420.7 461.773 420.762 462.128C421.03 463.672 422.541 469.099 424.616 468.581" stroke="url(#paint12_linear_1_1467)" stroke-width="4" stroke-linecap="round"/>
    <path d="M438.328 447.205C436.178 447.558 434.08 447.817 433.399 450.163C432.223 454.214 432.718 458.639 433.713 462.665C434.304 465.059 435.239 467.33 435.886 469.701C436.25 471.034 435.389 469.011 435.102 468.581" stroke="url(#paint13_linear_1_1467)" stroke-width="4" stroke-linecap="round"/>
    <path d="M429.052 462.531C433.881 461.195 438.517 460.514 443.482 460.514C445.591 460.514 447.715 460.586 449.823 460.492C450.221 460.474 454.352 460.121 453.789 459.618C450.624 456.792 443.595 459.779 443.078 463.763C442.797 465.938 443.669 467.504 445.678 468.334C448.841 469.641 450.245 468.092 452.041 465.757" stroke="url(#paint14_linear_1_1467)" stroke-width="4" stroke-linecap="round"/>
    <path d="M457.687 443.979C462.373 449.334 474.348 457.819 469.787 466.094C467.431 470.366 462.272 473.143 458.539 476.064C457.925 476.544 455.267 479.217 455.267 478.26" stroke="url(#paint15_linear_1_1467)" stroke-width="4" stroke-linecap="round"/>
    <defs>
        <linearGradient id="paint0_linear_1_1467" x1="356.701" y1="34.6626" x2="356.701" y2="36.5624" gradientUnits="userSpaceOnUse">
            <stop/>
            <stop offset="1" stop-color="#6A6A6A"/>
        </linearGradient>
        <linearGradient id="paint1_linear_1_1467" x1="537.615" y1="32.9464" x2="537.615" y2="519.183" gradientUnits="userSpaceOnUse">
            <stop/>
            <stop offset="1" stop-color="#6A6A6A"/>
        </linearGradient>
        <linearGradient id="paint2_linear_1_1467" x1="182.615" y1="32.3428" x2="182.615" y2="509.155" gradientUnits="userSpaceOnUse">
            <stop/>
            <stop offset="1" stop-color="#6A6A6A"/>
        </linearGradient>
        <linearGradient id="paint3_linear_1_1467" x1="358.81" y1="505.991" x2="358.81" y2="506.991" gradientUnits="userSpaceOnUse">
            <stop/>
            <stop offset="1" stop-color="#6A6A6A"/>
        </linearGradient>
        <linearGradient id="paint4_linear_1_1467" x1="252.803" y1="442.365" x2="252.803" y2="477.199" gradientUnits="userSpaceOnUse">
            <stop/>
            <stop offset="1" stop-color="#6A6A6A"/>
        </linearGradient>
        <linearGradient id="paint5_linear_1_1467" x1="269.805" y1="453.658" x2="269.805" y2="467.192" gradientUnits="userSpaceOnUse">
            <stop/>
            <stop offset="1" stop-color="#6A6A6A"/>
        </linearGradient>
        <linearGradient id="paint6_linear_1_1467" x1="291.119" y1="454.81" x2="291.119" y2="468.128" gradientUnits="userSpaceOnUse">
            <stop/>
            <stop offset="1" stop-color="#6A6A6A"/>
        </linearGradient>
        <linearGradient id="paint7_linear_1_1467" x1="311.285" y1="452.866" x2="311.285" y2="466.292" gradientUnits="userSpaceOnUse">
            <stop/>
            <stop offset="1" stop-color="#6A6A6A"/>
        </linearGradient>
        <linearGradient id="paint8_linear_1_1467" x1="326.655" y1="453.884" x2="326.655" y2="489.379" gradientUnits="userSpaceOnUse">
            <stop/>
            <stop offset="1" stop-color="#6A6A6A"/>
        </linearGradient>
        <linearGradient id="paint9_linear_1_1467" x1="365.702" y1="454.562" x2="365.702" y2="468.419" gradientUnits="userSpaceOnUse">
            <stop/>
            <stop offset="1" stop-color="#6A6A6A"/>
        </linearGradient>
        <linearGradient id="paint10_linear_1_1467" x1="386.301" y1="454.459" x2="386.301" y2="468.292" gradientUnits="userSpaceOnUse">
            <stop/>
            <stop offset="1" stop-color="#6A6A6A"/>
        </linearGradient>
        <linearGradient id="paint11_linear_1_1467" x1="403.947" y1="453.247" x2="403.947" y2="469.807" gradientUnits="userSpaceOnUse">
            <stop/>
            <stop offset="1" stop-color="#6A6A6A"/>
        </linearGradient>
        <linearGradient id="paint12_linear_1_1467" x1="418.454" y1="457.223" x2="418.454" y2="468.615" gradientUnits="userSpaceOnUse">
            <stop/>
            <stop offset="1" stop-color="#6A6A6A"/>
        </linearGradient>
        <linearGradient id="paint13_linear_1_1467" x1="435.521" y1="447.205" x2="435.521" y2="470.149" gradientUnits="userSpaceOnUse">
            <stop/>
            <stop offset="1" stop-color="#6A6A6A"/>
        </linearGradient>
        <linearGradient id="paint14_linear_1_1467" x1="441.447" y1="458.505" x2="441.447" y2="468.811" gradientUnits="userSpaceOnUse">
            <stop/>
            <stop offset="1" stop-color="#6A6A6A"/>
        </linearGradient>
        <linearGradient id="paint15_linear_1_1467" x1="463.036" y1="443.979" x2="463.036" y2="478.465" gradientUnits="userSpaceOnUse">
            <stop/>
            <stop offset="1" stop-color="#6A6A6A"/>
        </linearGradient>
    </defs>
</svg>
