<svg width="720" height="540" viewBox="0 0 720 540" fill="none" xmlns="http://www.w3.org/2000/svg">
    <rect width="720" height="540" fill="white"/>
    <path d="M116.942 85.0482C122.939 85.7979 114.258 137.838 120.918 145.237C121.711 146.118 120.922 136.797 120.918 136.736C120.321 128.381 120.348 119.732 120.918 111.372C121.824 98.0832 122.1 80.194 136.616 74.217C150.036 68.6913 146.667 99.9462 141.003 105.819C138.162 108.766 133.837 112.445 129.418 111.441C127.521 111.009 124.016 106.348 124.551 108.219C126.051 113.468 130.028 118.788 132.297 123.78C134.79 129.265 136.842 133.774 141.689 137.49C148.514 142.723 159.363 143.175 161.363 133.172" stroke="url(#paint0_linear_11_6520)" stroke-width="7" stroke-linecap="round"/>
    <path d="M176.17 83.8142C177.134 99.2308 176.063 115.328 179.187 130.498C179.563 132.326 180.923 141.309 182.34 135.639" stroke="url(#paint1_linear_11_6520)" stroke-width="7" stroke-linecap="round"/>
    <path d="M167.533 115.896C178.029 112.648 188.754 109.714 199.067 105.888C202.539 104.6 200.917 105.306 202.083 103.557" stroke="url(#paint2_linear_11_6520)" stroke-width="7" stroke-linecap="round"/>
    <path d="M207.019 83.8142C206.286 100.176 200.71 115.672 200.849 132.212C200.891 137.229 200.71 152.504 208.253 147.979" stroke="url(#paint3_linear_11_6520)" stroke-width="7" stroke-linecap="round"/>
    <path d="M237.867 93.6855C241.449 107.416 222.929 124.356 230.669 137.901C237.844 150.458 255.375 137.7 260.078 129.47" stroke="url(#paint4_linear_11_6520)" stroke-width="7" stroke-linecap="round"/>
    <path d="M225.528 119.598C237.9 116.694 251.011 114.517 262.957 110.001C264.909 109.263 265.28 108.71 266.247 107.259" stroke="url(#paint5_linear_11_6520)" stroke-width="7" stroke-linecap="round"/>
    <path d="M231.697 91.2177C248.14 87.4676 264.592 83.7707 281.055 80.1123" stroke="url(#paint6_linear_11_6520)" stroke-width="7" stroke-linecap="round"/>
    <path d="M289.692 87.516C305.005 84.2345 320.417 81.0064 336.102 80.1809C344.076 79.7612 332.222 84.2128 330.412 85.0481" stroke="url(#paint7_linear_11_6520)" stroke-width="7" stroke-linecap="round"/>
    <path d="M313.137 86.282C309.617 103.755 304.499 121.787 304.499 139.752C304.499 141.965 304.357 142.9 305.733 144.277" stroke="url(#paint8_linear_11_6520)" stroke-width="7" stroke-linecap="round"/>
    <path d="M348.921 98.6213C342.871 106.838 329.92 124.272 337.13 135.365C344.282 146.369 358.977 138.066 364.002 129.881C370.308 119.611 364.744 108.242 355.913 101.501C350.462 97.339 347.473 98.6696 346.453 104.791" stroke="url(#paint9_linear_11_6520)" stroke-width="7" stroke-linecap="round"/>
    <path d="M398.278 85.0481C398.8 98.0985 398.9 111.227 399.786 124.26C400.054 128.193 400.34 132.659 401.98 136.325C403.515 139.757 401.046 121.37 400.746 119.735C398.622 108.185 394.291 87.9 407.19 80.6608C417.378 74.9427 429.581 80.4429 429.812 92.4517C430.03 103.821 421.485 106.454 411.714 107.944C407.227 108.629 398.974 106.715 401.294 113.977C404.576 124.249 416.544 130.448 425.15 135.639C428.231 137.498 431.405 139.625 429.126 143.043" stroke="url(#paint10_linear_11_6520)" stroke-width="7" stroke-linecap="round"/>
    <path d="M451.337 93.6855C453.158 108.256 452.811 125.51 461.208 138.107" stroke="url(#paint11_linear_11_6520)" stroke-width="7" stroke-linecap="round"/>
    <path d="M519.203 83.8142C508.23 94.1943 481.226 115.053 492.879 133.583C498.278 142.168 510.461 142.504 517.969 136.873" stroke="url(#paint12_linear_11_6520)" stroke-width="7" stroke-linecap="round"/>
    <path d="M534.01 136.873C535.606 124.725 534.652 104.854 544.156 95.1939C549.079 90.1904 555.081 90.1242 557.318 97.4561C560.366 107.448 559.642 118.276 559.992 128.579C560.088 131.412 562.107 139.625 561.157 140.575" stroke="url(#paint13_linear_11_6520)" stroke-width="7" stroke-linecap="round"/>
    <path d="M536.478 115.896C549.252 116.985 562.204 119.028 574.73 115.896" stroke="url(#paint14_linear_11_6520)" stroke-width="7" stroke-linecap="round"/>
    <path d="M603.111 94.9197C599.895 103.597 580.118 136.446 600.917 137.833C609.591 138.411 618.096 135.815 626.555 134.405" stroke="url(#paint15_linear_11_6520)" stroke-width="7" stroke-linecap="round"/>
    <path d="M146.556 215.845C142.129 212.303 134.402 215.623 130.789 218.587C111.728 234.227 122.607 261.946 144.568 267.19C154.765 269.625 164.358 262.158 168.904 253.48C174.363 243.059 168.755 233.2 160.061 226.745C154.525 222.635 145.499 217.915 138.261 218.518C134.203 218.857 137.277 225.939 137.918 228.184" stroke="url(#paint16_linear_11_6520)" stroke-width="7" stroke-linecap="round"/>
    <path d="M155.194 249.161C159.822 254.175 173.219 273.75 182.34 267.67" stroke="url(#paint17_linear_11_6520)" stroke-width="7" stroke-linecap="round"/>
    <path d="M200.849 220.781C204.358 235.346 205.467 258.479 223.608 261.912C231.788 263.459 239.568 257.096 241.98 249.572C245.242 239.397 240.974 228.569 232.588 222.357C230.153 220.553 228.886 220.575 227.995 223.248" stroke="url(#paint18_linear_11_6520)" stroke-width="7" stroke-linecap="round"/>
    <path d="M269.949 218.313C268.69 227.399 261.104 251.294 273.308 257.593C283.094 262.644 295.28 255.528 303.265 250.395" stroke="url(#paint19_linear_11_6520)" stroke-width="7" stroke-linecap="round"/>
    <path d="M268.715 230.652C280.928 228.848 293.456 227.562 305.322 224.003C307.298 223.41 308.191 223.258 309.435 222.015" stroke="url(#paint20_linear_11_6520)" stroke-width="7" stroke-linecap="round"/>
    <path d="M272.417 219.547L315.605 212.143" stroke="url(#paint21_linear_11_6520)" stroke-width="7" stroke-linecap="round"/>
    <path d="M357.558 209.675C349.116 211.696 330.666 214.393 328.218 225.716C326.531 233.519 348.773 235.818 353.308 238.056C360.738 241.721 363.009 254.193 354.542 258.484C347.959 261.821 337.015 261.35 334.114 254.097" stroke="url(#paint22_linear_11_6520)" stroke-width="7" stroke-linecap="round"/>
    <path d="M378.535 219.547C393.351 218.932 408.185 218.422 422.957 217.079" stroke="url(#paint23_linear_11_6520)" stroke-width="7" stroke-linecap="round"/>
    <path d="M403.214 220.781C404.713 237.149 406.916 253.669 406.916 270.138" stroke="url(#paint24_linear_11_6520)" stroke-width="7" stroke-linecap="round"/>
    <path d="M448.869 218.313C449.38 230.866 447.502 247.205 452.571 259.032" stroke="url(#paint25_linear_11_6520)" stroke-width="7" stroke-linecap="round"/>
    <path d="M485.887 213.377C485.403 216.039 483.359 217.747 481.568 219.615C477.34 224.028 475.439 230.374 474.37 236.273C472.466 246.784 477.463 267.708 492.605 261.363C509.203 254.408 510.305 233.821 499.735 221.329C497.552 218.75 489.589 209.918 489.589 217.079" stroke="url(#paint26_linear_11_6520)" stroke-width="7" stroke-linecap="round"/>
    <path d="M532.776 262.734C535.894 262.344 535.52 233.672 535.93 230.104C536.329 226.622 536.811 223.078 537.712 219.684C538.013 218.552 538.243 215.456 538.946 216.393C543.979 223.104 545.931 234.392 549.983 241.963C553.765 249.03 559.429 258.492 567.944 260.403C576.291 262.277 585.663 254.677 588.715 247.379C590.549 242.993 593.372 203.828 584.602 209.675" stroke="url(#paint27_linear_11_6520)" stroke-width="7" stroke-linecap="round"/>
    <path d="M153.96 341.706C145.763 343.345 137.087 344.228 133.051 352.468C130.373 357.936 127.981 364.461 128.047 370.635C128.235 388.272 146.172 390.602 159.032 383.385C176.347 373.669 174.364 353.923 158.073 344.037C148.869 338.451 137.9 335.724 136.685 347.875" stroke="url(#paint28_linear_11_6520)" stroke-width="7" stroke-linecap="round"/>
    <path d="M208.253 330.601C210.745 348.73 212.446 367.118 216.89 384.894" stroke="url(#paint29_linear_11_6520)" stroke-width="7" stroke-linecap="round"/>
    <path d="M204.551 329.367C212.315 327.341 236.733 317.038 244.791 324.088C250.247 328.863 242.562 337.645 239.238 340.678C231.836 347.43 223.495 353.01 215.382 358.844C208.657 363.68 215.904 361.092 219.495 360.215C226.073 358.609 234.431 356.514 241.157 358.57C249.682 361.175 240.233 374.56 237.524 377.97C232.544 384.238 225.271 391.394 217.027 392.983C209.017 394.527 207.379 379.804 205.785 375.022" stroke="url(#paint30_linear_11_6520)" stroke-width="7" stroke-linecap="round"/>
    <path d="M273.651 328.133C274.262 333.635 291.394 379.451 294.079 377.01C296.851 374.491 297.577 367.55 298.261 364.259C300.52 353.388 300.736 342.349 300.797 331.286C300.833 324.896 300.018 312.482 304.499 324.431" stroke="url(#paint31_linear_11_6520)" stroke-width="7" stroke-linecap="round"/>
    <path d="M335.348 323.197C335.488 339.486 336.599 355.283 340.283 371.183C341.276 375.469 342.751 378.966 342.751 372.554" stroke="url(#paint32_linear_11_6520)" stroke-width="7" stroke-linecap="round"/>
    <path d="M376.067 323.197C374.066 333.783 363.359 367.853 385.527 366.385C397.952 365.562 401.072 346.973 398.415 337.73C397.252 333.682 382.237 311.357 382.237 325.665" stroke="url(#paint33_linear_11_6520)" stroke-width="7" stroke-linecap="round"/>
    <path d="M420.489 320.729C421.793 331.401 420.465 357.639 431.937 365.014C438.976 369.539 449.677 365.837 455.039 360.352C463.21 351.993 463.251 340.314 458.604 330.189C457.147 327.017 454.557 319.871 451.337 318.261" stroke="url(#paint34_linear_11_6520)" stroke-width="7" stroke-linecap="round"/>
    <path d="M492.057 317.027C487.775 318.74 477.444 321.473 480.472 328.201C485.427 339.214 497.139 345.292 500.009 357.816C501.332 363.589 504.622 373.157 495.759 374.199C489.541 374.931 482.373 368.368 480.951 362.683" stroke="url(#paint35_linear_11_6520)" stroke-width="7" stroke-linecap="round"/>
    <path d="M527.841 315.793C526.869 333.536 526.533 350.069 530.309 367.481C530.445 368.112 531.913 375.594 532.502 374.474C540.525 359.231 556.276 358.981 572.262 358.981" stroke="url(#paint36_linear_11_6520)" stroke-width="7" stroke-linecap="round"/>
    <path d="M579.666 315.793C580.992 319.287 590.754 360.232 601.877 349.109" stroke="url(#paint37_linear_11_6520)" stroke-width="7" stroke-linecap="round"/>
    <path d="M622.853 307.156C623.512 328.602 631.52 370.196 606.264 382.288C593.487 388.406 568.492 388.554 556.221 381.192" stroke="url(#paint38_linear_11_6520)" stroke-width="7" stroke-linecap="round"/>
    <path d="M595.707 349.109C602.717 349.81 608.635 352.059 616.067 351.509C620.278 351.197 625.057 350.431 629.023 349.109" stroke="url(#paint39_linear_11_6520)" stroke-width="7" stroke-linecap="round"/>
    <path d="M42.9058 133.171C43.1537 131.188 47.881 128.639 49.144 127.482C53.4455 123.539 57.7722 118.968 61.4147 114.388C62.8375 112.6 64.9794 109.308 64.9794 106.848C64.9794 103.71 61.1444 111.845 59.6324 114.594C57.639 118.218 46.4098 150.254 56.9589 147.91C60.4908 147.125 53.7956 147.367 51.6118 148.596C44.5522 152.567 43.489 159.168 41.3976 166.488C40.5128 169.584 38.5772 170.168 39.8895 166.419C41.7623 161.068 43.7029 155.537 44.0711 149.83C44.2976 146.319 40.0292 129.046 37.97 139.341" stroke="url(#paint40_linear_11_6520)" stroke-width="7" stroke-linecap="round"/>
    <path d="M648.766 181.295C654.246 176.363 660.318 172.68 665.424 167.036C666.445 165.908 678.723 148.87 675.638 148.527C669.647 147.861 668.475 190.215 670.977 194.594C673.771 199.483 676.72 191.166 670.291 191.166C661.019 191.166 655.124 200.622 652.468 208.441C652.249 209.086 650.169 217.472 650.069 217.422C648.699 216.737 653.874 206.418 654.25 205.425C655.571 201.943 657.345 181.726 651.234 183.763" stroke="url(#paint41_linear_11_6520)" stroke-width="7" stroke-linecap="round"/>
    <path d="M54.0111 349.11C61.0444 348.328 67.7643 327.616 68.7498 322.032C68.9362 320.975 69.0543 307.767 67.8586 308.664C66.7631 309.486 66.533 317.624 66.3505 318.947C65.6878 323.751 62.9013 329.608 64.5681 334.371C65.8535 338.044 68.5279 341.213 68.8183 345.134C69.3023 351.667 78.5003 353.8 80.8834 346.916C81.9732 343.768 77.714 347.487 77.1816 347.876C73.374 350.658 70.4072 355.194 67.6529 358.981C60.9515 368.195 62.6328 379.007 58.9469 389.144C58.4912 390.397 57.8954 394.126 59.4953 390.926C62.006 385.905 59.2331 377.453 57.7129 372.554C56.373 368.237 55.6172 360.541 50.8578 358.501C47.6677 357.134 44.6714 357.045 47.8415 360.215" stroke="url(#paint42_linear_11_6520)" stroke-width="7" stroke-linecap="round"/>
    <path d="M543.882 452.76C544.431 447.82 554.444 440.792 558.072 437.953C561.622 435.175 564.01 431.623 567.052 428.355C568.703 426.582 570.352 423.822 567.327 426.847C560.485 433.689 556.412 441.517 554.37 450.909C553.67 454.131 553.013 471.96 560.471 469.829C561.514 469.531 561.55 465.872 560.609 465.373C558.383 464.195 554.369 465.323 552.519 466.607C546.846 470.547 537.733 478.755 536.547 485.87C535.216 493.858 540.492 470.156 542.1 462.22C544.862 448.578 533.037 452.172 531.543 462.631" stroke="url(#paint43_linear_11_6520)" stroke-width="7" stroke-linecap="round"/>
    <path d="M281.055 444.122C281.438 442.586 288.197 439.318 289.692 438.227C294.916 434.415 300.399 430.895 305.459 426.847C308.538 424.384 320.791 405.512 313.685 409.572C308.058 412.788 304.854 426.509 303.265 432.468C302.322 436.007 297.119 453.731 302.031 456.187C303.556 456.949 304.059 452.872 302.031 452.76C298.297 452.552 296.594 453.49 293.394 455.228C289.682 457.243 271.038 474.915 273.719 481.62C274.002 482.327 280.454 470.559 281.055 469.486C283.913 464.383 287.952 458.045 288.39 452.143C288.696 448.007 289.808 440.02 287.773 436.239C286.514 433.901 280.771 434.109 283.522 435.485" stroke="url(#paint44_linear_11_6520)" stroke-width="7" stroke-linecap="round"/>
    <defs>
        <linearGradient id="paint0_linear_11_6520" x1="139.152" y1="73.5652" x2="139.152" y2="145.295" gradientUnits="userSpaceOnUse">
            <stop/>
            <stop offset="1" stop-color="#6A6A6A"/>
        </linearGradient>
        <linearGradient id="paint1_linear_11_6520" x1="179.255" y1="83.8142" x2="179.255" y2="137.492" gradientUnits="userSpaceOnUse">
            <stop/>
            <stop offset="1" stop-color="#6A6A6A"/>
        </linearGradient>
        <linearGradient id="paint2_linear_11_6520" x1="184.808" y1="103.557" x2="184.808" y2="115.896" gradientUnits="userSpaceOnUse">
            <stop/>
            <stop offset="1" stop-color="#6A6A6A"/>
        </linearGradient>
        <linearGradient id="paint3_linear_11_6520" x1="204.55" y1="83.8142" x2="204.55" y2="148.806" gradientUnits="userSpaceOnUse">
            <stop/>
            <stop offset="1" stop-color="#6A6A6A"/>
        </linearGradient>
        <linearGradient id="paint4_linear_11_6520" x1="244.418" y1="93.6855" x2="244.418" y2="143.173" gradientUnits="userSpaceOnUse">
            <stop/>
            <stop offset="1" stop-color="#6A6A6A"/>
        </linearGradient>
        <linearGradient id="paint5_linear_11_6520" x1="245.887" y1="107.259" x2="245.887" y2="119.598" gradientUnits="userSpaceOnUse">
            <stop/>
            <stop offset="1" stop-color="#6A6A6A"/>
        </linearGradient>
        <linearGradient id="paint6_linear_11_6520" x1="256.376" y1="80.1123" x2="256.376" y2="91.2177" gradientUnits="userSpaceOnUse">
            <stop/>
            <stop offset="1" stop-color="#6A6A6A"/>
        </linearGradient>
        <linearGradient id="paint7_linear_11_6520" x1="314.262" y1="80.1531" x2="314.262" y2="87.516" gradientUnits="userSpaceOnUse">
            <stop/>
            <stop offset="1" stop-color="#6A6A6A"/>
        </linearGradient>
        <linearGradient id="paint8_linear_11_6520" x1="308.816" y1="86.282" x2="308.816" y2="144.277" gradientUnits="userSpaceOnUse">
            <stop/>
            <stop offset="1" stop-color="#6A6A6A"/>
        </linearGradient>
        <linearGradient id="paint9_linear_11_6520" x1="350.855" y1="98.6213" x2="350.855" y2="140.658" gradientUnits="userSpaceOnUse">
            <stop/>
            <stop offset="1" stop-color="#6A6A6A"/>
        </linearGradient>
        <linearGradient id="paint10_linear_11_6520" x1="414.09" y1="78.3899" x2="414.09" y2="143.043" gradientUnits="userSpaceOnUse">
            <stop/>
            <stop offset="1" stop-color="#6A6A6A"/>
        </linearGradient>
        <linearGradient id="paint11_linear_11_6520" x1="456.273" y1="93.6855" x2="456.273" y2="138.107" gradientUnits="userSpaceOnUse">
            <stop/>
            <stop offset="1" stop-color="#6A6A6A"/>
        </linearGradient>
        <linearGradient id="paint12_linear_11_6520" x1="504.611" y1="83.8142" x2="504.611" y2="140.646" gradientUnits="userSpaceOnUse">
            <stop/>
            <stop offset="1" stop-color="#6A6A6A"/>
        </linearGradient>
        <linearGradient id="paint13_linear_11_6520" x1="547.71" y1="91.6624" x2="547.71" y2="140.575" gradientUnits="userSpaceOnUse">
            <stop/>
            <stop offset="1" stop-color="#6A6A6A"/>
        </linearGradient>
        <linearGradient id="paint14_linear_11_6520" x1="555.604" y1="115.896" x2="555.604" y2="117.563" gradientUnits="userSpaceOnUse">
            <stop/>
            <stop offset="1" stop-color="#6A6A6A"/>
        </linearGradient>
        <linearGradient id="paint15_linear_11_6520" x1="609.041" y1="94.9197" x2="609.041" y2="137.916" gradientUnits="userSpaceOnUse">
            <stop/>
            <stop offset="1" stop-color="#6A6A6A"/>
        </linearGradient>
        <linearGradient id="paint16_linear_11_6520" x1="146.013" y1="214.314" x2="146.013" y2="267.657" gradientUnits="userSpaceOnUse">
            <stop/>
            <stop offset="1" stop-color="#6A6A6A"/>
        </linearGradient>
        <linearGradient id="paint17_linear_11_6520" x1="168.767" y1="249.161" x2="168.767" y2="268.829" gradientUnits="userSpaceOnUse">
            <stop/>
            <stop offset="1" stop-color="#6A6A6A"/>
        </linearGradient>
        <linearGradient id="paint18_linear_11_6520" x1="221.963" y1="220.781" x2="221.963" y2="262.145" gradientUnits="userSpaceOnUse">
            <stop/>
            <stop offset="1" stop-color="#6A6A6A"/>
        </linearGradient>
        <linearGradient id="paint19_linear_11_6520" x1="284.866" y1="218.313" x2="284.866" y2="259.323" gradientUnits="userSpaceOnUse">
            <stop/>
            <stop offset="1" stop-color="#6A6A6A"/>
        </linearGradient>
        <linearGradient id="paint20_linear_11_6520" x1="289.075" y1="222.015" x2="289.075" y2="230.652" gradientUnits="userSpaceOnUse">
            <stop/>
            <stop offset="1" stop-color="#6A6A6A"/>
        </linearGradient>
        <linearGradient id="paint21_linear_11_6520" x1="294.011" y1="212.143" x2="294.011" y2="219.547" gradientUnits="userSpaceOnUse">
            <stop/>
            <stop offset="1" stop-color="#6A6A6A"/>
        </linearGradient>
        <linearGradient id="paint22_linear_11_6520" x1="344.043" y1="209.675" x2="344.043" y2="260.475" gradientUnits="userSpaceOnUse">
            <stop/>
            <stop offset="1" stop-color="#6A6A6A"/>
        </linearGradient>
        <linearGradient id="paint23_linear_11_6520" x1="400.746" y1="217.079" x2="400.746" y2="219.547" gradientUnits="userSpaceOnUse">
            <stop/>
            <stop offset="1" stop-color="#6A6A6A"/>
        </linearGradient>
        <linearGradient id="paint24_linear_11_6520" x1="405.065" y1="220.781" x2="405.065" y2="270.138" gradientUnits="userSpaceOnUse">
            <stop/>
            <stop offset="1" stop-color="#6A6A6A"/>
        </linearGradient>
        <linearGradient id="paint25_linear_11_6520" x1="450.72" y1="218.313" x2="450.72" y2="259.032" gradientUnits="userSpaceOnUse">
            <stop/>
            <stop offset="1" stop-color="#6A6A6A"/>
        </linearGradient>
        <linearGradient id="paint26_linear_11_6520" x1="490.289" y1="213.377" x2="490.289" y2="262.538" gradientUnits="userSpaceOnUse">
            <stop/>
            <stop offset="1" stop-color="#6A6A6A"/>
        </linearGradient>
        <linearGradient id="paint27_linear_11_6520" x1="561.713" y1="209.082" x2="561.713" y2="262.734" gradientUnits="userSpaceOnUse">
            <stop/>
            <stop offset="1" stop-color="#6A6A6A"/>
        </linearGradient>
        <linearGradient id="paint28_linear_11_6520" x1="149.612" y1="339.298" x2="149.612" y2="387.209" gradientUnits="userSpaceOnUse">
            <stop/>
            <stop offset="1" stop-color="#6A6A6A"/>
        </linearGradient>
        <linearGradient id="paint29_linear_11_6520" x1="212.571" y1="330.601" x2="212.571" y2="384.894" gradientUnits="userSpaceOnUse">
            <stop/>
            <stop offset="1" stop-color="#6A6A6A"/>
        </linearGradient>
        <linearGradient id="paint30_linear_11_6520" x1="225.622" y1="321.654" x2="225.622" y2="393.096" gradientUnits="userSpaceOnUse">
            <stop/>
            <stop offset="1" stop-color="#6A6A6A"/>
        </linearGradient>
        <linearGradient id="paint31_linear_11_6520" x1="289.075" y1="319.434" x2="289.075" y2="377.104" gradientUnits="userSpaceOnUse">
            <stop/>
            <stop offset="1" stop-color="#6A6A6A"/>
        </linearGradient>
        <linearGradient id="paint32_linear_11_6520" x1="339.049" y1="323.197" x2="339.049" y2="376.076" gradientUnits="userSpaceOnUse">
            <stop/>
            <stop offset="1" stop-color="#6A6A6A"/>
        </linearGradient>
        <linearGradient id="paint33_linear_11_6520" x1="385.51" y1="320.934" x2="385.51" y2="366.431" gradientUnits="userSpaceOnUse">
            <stop/>
            <stop offset="1" stop-color="#6A6A6A"/>
        </linearGradient>
        <linearGradient id="paint34_linear_11_6520" x1="441.107" y1="318.261" x2="441.107" y2="367.042" gradientUnits="userSpaceOnUse">
            <stop/>
            <stop offset="1" stop-color="#6A6A6A"/>
        </linearGradient>
        <linearGradient id="paint35_linear_11_6520" x1="490.818" y1="317.027" x2="490.818" y2="374.256" gradientUnits="userSpaceOnUse">
            <stop/>
            <stop offset="1" stop-color="#6A6A6A"/>
        </linearGradient>
        <linearGradient id="paint36_linear_11_6520" x1="549.731" y1="315.793" x2="549.731" y2="374.588" gradientUnits="userSpaceOnUse">
            <stop/>
            <stop offset="1" stop-color="#6A6A6A"/>
        </linearGradient>
        <linearGradient id="paint37_linear_11_6520" x1="590.771" y1="315.793" x2="590.771" y2="351.019" gradientUnits="userSpaceOnUse">
            <stop/>
            <stop offset="1" stop-color="#6A6A6A"/>
        </linearGradient>
        <linearGradient id="paint38_linear_11_6520" x1="590.397" y1="307.156" x2="590.397" y2="386.801" gradientUnits="userSpaceOnUse">
            <stop/>
            <stop offset="1" stop-color="#6A6A6A"/>
        </linearGradient>
        <linearGradient id="paint39_linear_11_6520" x1="612.365" y1="349.109" x2="612.365" y2="351.595" gradientUnits="userSpaceOnUse">
            <stop/>
            <stop offset="1" stop-color="#6A6A6A"/>
        </linearGradient>
        <linearGradient id="paint40_linear_11_6520" x1="51.4747" y1="106.139" x2="51.4747" y2="169.024" gradientUnits="userSpaceOnUse">
            <stop/>
            <stop offset="1" stop-color="#6A6A6A"/>
        </linearGradient>
        <linearGradient id="paint41_linear_11_6520" x1="662.45" y1="148.519" x2="662.45" y2="217.422" gradientUnits="userSpaceOnUse">
            <stop/>
            <stop offset="1" stop-color="#6A6A6A"/>
        </linearGradient>
        <linearGradient id="paint42_linear_11_6520" x1="63.7766" y1="308.62" x2="63.7766" y2="392.191" gradientUnits="userSpaceOnUse">
            <stop/>
            <stop offset="1" stop-color="#6A6A6A"/>
        </linearGradient>
        <linearGradient id="paint43_linear_11_6520" x1="550.278" y1="425.498" x2="550.278" y2="487.492" gradientUnits="userSpaceOnUse">
            <stop/>
            <stop offset="1" stop-color="#6A6A6A"/>
        </linearGradient>
        <linearGradient id="paint44_linear_11_6520" x1="294.662" y1="409.002" x2="294.662" y2="481.651" gradientUnits="userSpaceOnUse">
            <stop/>
            <stop offset="1" stop-color="#6A6A6A"/>
        </linearGradient>
    </defs>
</svg>
