<svg width="720" height="540" viewBox="0 0 720 540" fill="none" xmlns="http://www.w3.org/2000/svg">
    <rect width="720" height="540" fill="white"/>
    <path d="M424.513 320.433C425.679 324.861 428.777 349.807 435.655 349.807C437.954 349.807 440.821 348.513 442.97 347.781C450.485 345.223 458.836 345.831 466.491 343.279C471.373 341.652 473.941 344.397 471.668 338.553C469.938 334.104 469.919 328.725 468.573 324.091C467.446 320.209 463.655 316.273 469.08 315.369" stroke="url(#paint0_linear_8_3552)" stroke-width="7" stroke-linecap="round"/>
    <path d="M468.067 338.665C470.271 336.706 475.361 336.554 478.195 335.627C482.338 334.271 486.426 332.588 490.8 332.588C493.517 332.588 494.524 333.034 493.895 329.887C492.301 321.916 493.39 313.354 492.376 305.24" stroke="url(#paint1_linear_8_3552)" stroke-width="7" stroke-linecap="round"/>
    <path d="M414.385 322.459C420.103 316.503 416.264 321.245 413.147 323.472C407.245 327.687 401.524 332.217 395.084 335.627C382.427 342.327 364.847 348.911 352.093 338.046C348.063 334.613 341.879 327.148 341.458 321.672C341.157 317.762 333.242 325.316 332.399 325.948C320.553 334.833 297.899 344.511 284.85 331.463C284.418 331.03 278.563 319.908 277.647 321.053C273.149 326.675 267.719 327.617 260.654 326.511C248.443 324.6 231.252 318.875 222.953 309.067C220.191 305.803 218.296 301.248 217.438 297.081C217.146 295.663 217.413 290.229 216.425 291.06C207.884 298.253 190.463 288.958 186.208 280.763C182.107 272.865 183.38 262.205 184.013 253.697C184.827 242.765 186.355 231.358 190.316 221.06C193.238 213.461 202.207 215.095 208.716 215.095C211.946 215.095 212.518 215.032 211.361 212.057C209.421 207.069 216.024 201.703 219.126 198.889C229.319 189.646 247.944 176.925 262.454 183.921C264.864 185.083 265.914 186.889 267.744 188.536C268.33 189.063 269.037 187.545 269.094 187.466C273.147 181.894 277.486 176.509 282.881 172.161C295.96 161.619 315.005 161.512 324.802 175.931C326.008 177.705 326.726 181.928 328.291 183.246C330.218 184.869 339.156 175.626 340.614 174.637C355.477 164.551 376.854 159.304 393.677 167.715C397.239 169.496 400.094 172.43 400.992 176.381C401.338 177.904 400.69 180.245 402.849 179.082C416.116 171.938 427.43 167.273 442.52 172.555C446.119 173.814 450.68 175.196 450.848 179.645C450.937 182.012 447.129 186.622 449.498 186.622C452.087 186.622 455.664 183.554 458.107 182.74C463.522 180.935 469.951 180.432 474.932 183.753C478.346 186.029 480.479 189.811 481.178 193.769C481.433 195.215 481.393 201.802 482.472 202.716C484.631 204.543 492.801 202.196 495.189 201.928C500.946 201.283 509.324 202.144 512.577 207.836C515.777 213.437 515.384 220.109 513.646 226.068C513.035 228.164 512.345 230.254 511.62 232.314C511.252 233.36 509.232 234.963 510.27 235.353C511.833 235.939 513.765 235.077 515.447 235.803C520.829 238.127 524.629 246.404 526.588 251.39C530.523 261.405 528.019 268.316 525.013 277.668C524.391 279.601 525.716 280.566 526.588 282.17C529.943 288.343 526.787 294.621 523.662 300.176C520.049 306.599 515.211 312.277 509.707 317.17C505.224 321.155 502.365 319.634 497.44 317.395" stroke="url(#paint2_linear_8_3552)" stroke-width="7" stroke-linecap="round"/>
    <path d="M259.416 255.61C261.12 255.397 263.246 249.948 264.48 248.576C268.676 243.913 275.34 239.596 281.699 239.066C292.716 238.148 293.477 253.266 304.995 247.507" stroke="url(#paint3_linear_8_3552)" stroke-width="7" stroke-linecap="round"/>
    <path d="M293.853 274.854C296.766 279.386 298.654 285.857 303.419 288.81C310.477 293.184 316.35 289.042 322.214 284.983" stroke="url(#paint4_linear_8_3552)" stroke-width="7" stroke-linecap="round"/>
    <path d="M352.6 241.43C358.897 234.474 368.088 224.654 378.934 226.462C384.302 227.356 387.116 234.2 391.089 237.378" stroke="url(#paint5_linear_8_3552)" stroke-width="7" stroke-linecap="round"/>
    <path d="M398.179 268.777C400.856 273.275 403.306 278.627 407.52 281.944C413.46 286.621 419.372 283.325 425.526 280.932" stroke="url(#paint6_linear_8_3552)" stroke-width="7" stroke-linecap="round"/>
    <path d="M443.758 238.391C450.877 232.127 462.072 221.917 470.486 233.045C475.728 239.978 474.461 254.423 483.26 256.623" stroke="url(#paint7_linear_8_3552)" stroke-width="7" stroke-linecap="round"/>
    <path d="M304.995 216.108C309.288 211.278 314.868 207.374 321.201 205.417C332.127 202.039 341.635 207.706 350.574 213.069" stroke="url(#paint8_linear_8_3552)" stroke-width="7" stroke-linecap="round"/>
    <path d="M243.21 232.314C244.106 225.686 244.568 221.227 251.088 218.584C256.386 216.436 261.85 214.791 267.519 214.082" stroke="url(#paint9_linear_8_3552)" stroke-width="7" stroke-linecap="round"/>
    <path d="M245.236 281.944C251.05 293.915 255.805 299.226 269.544 301.189" stroke="url(#paint10_linear_8_3552)" stroke-width="7" stroke-linecap="round"/>
    <path d="M354.625 299.163C354.932 296.712 361.799 293.537 363.516 292.073C368.204 288.076 370.805 284.905 368.806 278.906" stroke="url(#paint11_linear_8_3552)" stroke-width="7" stroke-linecap="round"/>
    <path d="M417.423 219.147C415.283 206.661 433.085 205.115 441.732 205.979" stroke="url(#paint12_linear_8_3552)" stroke-width="7" stroke-linecap="round"/>
    <path d="M102.077 478.441C102.077 472.929 104.615 467.235 105.06 461.672C105.616 454.713 104.73 447.878 105.904 440.965C107.217 433.233 108.599 425.925 109.224 418.119C109.455 415.232 109.216 406.527 113.219 406.527C118.881 406.527 124.27 406.411 129.875 405.514C135.81 404.565 136.985 403.996 138.316 410.354C140.047 418.625 144.405 425.346 148.107 432.749C149.789 436.115 150.644 442.827 153.227 445.41C154.333 446.516 158.488 431.839 158.798 430.836C160.822 424.287 158.382 416.323 162.85 410.579C165.242 407.503 167.28 404.279 169.94 401.463C172.86 398.371 177.781 401.858 181.644 402.476C189.489 403.731 194.607 399.994 202.126 399.437C202.817 399.386 204.088 397.995 204.321 399.043C205.153 402.786 204.209 407.594 203.871 411.31C202.285 428.755 201.163 446.51 201.339 464.036C201.366 466.76 204.377 483.497 204.377 473.377" stroke="url(#paint13_linear_8_3552)" stroke-width="7" stroke-linecap="round"/>
    <path d="M229.699 413.618C234.034 405.489 226.021 431.758 225.704 440.965C225.401 449.736 224.167 461.788 236.001 459.422C241.571 458.308 248.835 458.865 254.458 459.253C255.498 459.325 266.827 460.769 262.111 459.197" stroke="url(#paint14_linear_8_3552)" stroke-width="7" stroke-linecap="round"/>
    <path d="M224.635 428.811C233.644 424.756 243.31 424.759 252.995 424.759" stroke="url(#paint15_linear_8_3552)" stroke-width="7" stroke-linecap="round"/>
    <path d="M223.622 405.514C239.65 399.726 253.705 399.437 270.214 399.437" stroke="url(#paint16_linear_8_3552)" stroke-width="7" stroke-linecap="round"/>
    <path d="M283.381 462.235C283.381 458.092 283.995 454.25 284.337 450.137C284.817 444.382 283.606 438.336 284.619 432.637C285.349 428.531 285.73 424.428 286.363 420.314C286.924 416.67 288.799 417.566 292.497 417.669C298.84 417.845 307.09 417.187 307.69 424.984C308.215 431.811 312.566 439.013 315.568 445.016C315.955 445.792 322.48 431.488 323.671 428.81C326.66 422.085 327.272 418.682 335.262 418.682C339.708 418.682 344.338 419.047 348.767 418.625C355.097 418.023 355.41 414.463 355.295 421.495C355.128 431.675 355.295 441.869 355.295 452.05C355.295 453.112 356.033 460.758 357.32 458.184" stroke="url(#paint17_linear_8_3552)" stroke-width="7" stroke-linecap="round"/>
    <path d="M411.002 406.527C402.716 402.628 393.469 418.699 391.983 424.759C390.119 432.359 388.563 445.082 395.697 450.531C403.873 456.776 415.347 457.921 424.395 452.894C432.93 448.153 440.189 440.107 442.401 430.499C445.025 419.103 443.467 415.414 434.748 409.003C429.904 405.441 426.218 401.782 421.919 397.637C419.051 394.871 416.739 398.203 415.054 400.45" stroke="url(#paint18_linear_8_3552)" stroke-width="7" stroke-linecap="round"/>
    <path d="M472.787 400.45C470.7 403.582 471.775 409.167 471.775 412.717C471.775 421.798 472.787 430.812 472.787 439.896C472.787 442.244 475.018 465.055 476.839 454.132" stroke="url(#paint19_linear_8_3552)" stroke-width="7" stroke-linecap="round"/>
    <path d="M473.8 401.463C474.264 397.289 496.148 399.437 499.46 399.437C504.292 399.437 511.428 399.444 514.09 404.502C521.952 419.439 508.636 427.798 495.071 427.798C489.868 427.798 484.834 426.785 479.878 426.785C475.16 426.785 489.227 435.469 490.963 436.857C493.899 439.206 497.703 440.126 500.585 442.484C502.819 444.312 504.791 447.491 507.225 448.843C509.255 449.971 514.038 456.296 514.315 456.158" stroke="url(#paint20_linear_8_3552)" stroke-width="7" stroke-linecap="round"/>
    <path d="M546.727 399.437C549.858 402.917 572.265 433.441 574.074 429.823" stroke="url(#paint21_linear_8_3552)" stroke-width="7" stroke-linecap="round"/>
    <path d="M596.357 399.437C596.002 402.639 590.774 405.924 588.705 408.159C584.604 412.588 581.319 417.786 577.563 422.508C573.564 427.535 572.049 430.825 572.049 437.476C572.049 447.312 573.152 457.567 574.131 467.356C574.373 469.776 575.087 471.939 575.087 474.39C575.087 478.284 575.549 475.461 577.113 473.377" stroke="url(#paint22_linear_8_3552)" stroke-width="7" stroke-linecap="round"/>
    <path d="M39.1492 37.7385C58.7365 37.7385 79.1659 34.0632 98.5377 31.1281C108.782 29.576 119.319 32.0724 129.701 32.0724C133.494 32.0724 147.164 29.6217 137.361 32.0724" stroke="url(#paint23_linear_8_3552)" stroke-width="16" stroke-linecap="round"/>
    <path d="M90.1436 43.4045C91.1326 61.2067 91.7204 80.2503 94.8653 97.8615C95.8561 103.41 101.476 120.425 101.476 105.731" stroke="url(#paint24_linear_8_3552)" stroke-width="16" stroke-linecap="round"/>
    <path d="M165.691 35.8496C158.683 52.979 160.025 72.3275 160.025 90.4115C160.025 94.236 162.304 115.76 158.136 109.508" stroke="url(#paint25_linear_8_3552)" stroke-width="16" stroke-linecap="round"/>
    <path d="M156.248 73.6234C166.221 71.8947 208.156 70.8819 212.908 56.6252" stroke="url(#paint26_linear_8_3552)" stroke-width="16" stroke-linecap="round"/>
    <path d="M224.24 26.4062C216.335 50.6994 209.13 75.2398 209.13 101.009C209.13 106.788 209.13 127.057 209.13 109.508" stroke="url(#paint27_linear_8_3552)" stroke-width="16" stroke-linecap="round"/>
    <path d="M263.902 41.5159C263.902 52.2058 262.798 61.7038 260.125 72.1545C257.478 82.5018 250.877 97.6792 252.99 108.669C255.641 122.454 285.541 110.48 294.121 107.62" stroke="url(#paint28_linear_8_3552)" stroke-width="16" stroke-linecap="round"/>
    <path d="M258.236 79.2894C264.872 77.6683 293.269 76.1804 296.01 67.9573" stroke="url(#paint29_linear_8_3552)" stroke-width="16" stroke-linecap="round"/>
    <path d="M258.236 49.0704C275.172 45.4879 292.224 40.5726 309.231 37.7383" stroke="url(#paint30_linear_8_3552)" stroke-width="16" stroke-linecap="round"/>
    <path d="M362.114 41.5159C361.24 57.2374 339.689 97.0683 358.756 109.089C373.102 118.133 391.921 109.508 407.442 109.508" stroke="url(#paint31_linear_8_3552)" stroke-width="16" stroke-linecap="round"/>
    <path d="M352.67 79.2893C369.009 76.5804 401.776 71.7346 401.776 71.7346" stroke="url(#paint32_linear_8_3552)" stroke-width="16" stroke-linecap="round"/>
    <path d="M352.67 45.2931C370.936 44.0754 387.77 44.1075 405.553 45.2931" stroke="url(#paint33_linear_8_3552)" stroke-width="16" stroke-linecap="round"/>
    <path d="M428.218 124.618H431.995" stroke="url(#paint34_linear_8_3552)" stroke-width="16" stroke-linecap="round"/>
    <path d="M428.218 124.618C429.396 104.757 428.815 85.6022 426.749 65.8588C426.507 63.5508 422.933 53.5464 424.86 51.3789C425.096 51.1129 432.043 64.2591 432.834 65.4391C442.481 79.8177 453.924 90.4939 467.565 100.904C469.585 102.446 485.383 117.982 486.557 111.817C489.66 95.5258 479.227 75.8736 476.694 59.9829C476.318 57.6234 472.73 35.1386 476.484 34.066C481.065 32.757 481.101 38.6445 481.101 41.5158" stroke="url(#paint35_linear_8_3552)" stroke-width="16" stroke-linecap="round"/>
    <path d="M513.208 45.2932C510.948 60.1736 498.003 99.5435 515.517 112.132C525.186 119.081 543.239 117.629 547.205 105.731" stroke="url(#paint36_linear_8_3552)" stroke-width="16" stroke-linecap="round"/>
    <path d="M511.32 81.178C527.178 78.9493 541.658 75.9319 556.648 71.7346" stroke="url(#paint37_linear_8_3552)" stroke-width="16" stroke-linecap="round"/>
    <path d="M507.542 49.0706C522.021 48.3892 536.499 47.7612 550.982 47.1819" stroke="url(#paint38_linear_8_3552)" stroke-width="16" stroke-linecap="round"/>
    <path d="M547.205 132.173C555.25 123.233 557.845 105.706 562.314 94.8186C566.055 85.7032 573.205 60.5915 583.929 55.9957C584.518 55.7433 583.403 92.9493 583.194 96.6023C582.894 101.858 585.579 119.779 592.953 109.508C602.268 96.5332 604.958 76.8264 609.531 61.6617C610.618 58.0572 617.722 42.3024 616.981 54.5267C615.699 75.6815 611.42 96.1874 611.42 117.483C611.42 120.289 610.441 139.864 613.308 128.395" stroke="url(#paint39_linear_8_3552)" stroke-width="16" stroke-linecap="round"/>
    <path d="M637.861 50.9592C646.223 60.569 654.47 69.9316 660.526 81.1781C662.543 84.9247 664.445 86.9155 668.08 88.7329" stroke="url(#paint40_linear_8_3552)" stroke-width="16" stroke-linecap="round"/>
    <path d="M685.078 49.0706C677.599 70.4403 671.948 91.8654 666.191 113.705C663.336 124.539 662.079 134.841 654.859 143.505" stroke="url(#paint41_linear_8_3552)" stroke-width="16" stroke-linecap="round"/>
    <defs>
        <linearGradient id="paint0_linear_8_3552" x1="448.509" y1="315.369" x2="448.509" y2="349.807" gradientUnits="userSpaceOnUse">
            <stop/>
            <stop offset="1" stop-color="#6A6A6A"/>
        </linearGradient>
        <linearGradient id="paint1_linear_8_3552" x1="481.071" y1="305.24" x2="481.071" y2="338.665" gradientUnits="userSpaceOnUse">
            <stop/>
            <stop offset="1" stop-color="#6A6A6A"/>
        </linearGradient>
        <linearGradient id="paint2_linear_8_3552" x1="355.965" y1="163.524" x2="355.965" y2="343.825" gradientUnits="userSpaceOnUse">
            <stop/>
            <stop offset="1" stop-color="#6A6A6A"/>
        </linearGradient>
        <linearGradient id="paint3_linear_8_3552" x1="282.205" y1="239.026" x2="282.205" y2="255.61" gradientUnits="userSpaceOnUse">
            <stop/>
            <stop offset="1" stop-color="#6A6A6A"/>
        </linearGradient>
        <linearGradient id="paint4_linear_8_3552" x1="308.033" y1="274.854" x2="308.033" y2="290.679" gradientUnits="userSpaceOnUse">
            <stop/>
            <stop offset="1" stop-color="#6A6A6A"/>
        </linearGradient>
        <linearGradient id="paint5_linear_8_3552" x1="371.844" y1="226.244" x2="371.844" y2="241.43" gradientUnits="userSpaceOnUse">
            <stop/>
            <stop offset="1" stop-color="#6A6A6A"/>
        </linearGradient>
        <linearGradient id="paint6_linear_8_3552" x1="411.852" y1="268.777" x2="411.852" y2="284.311" gradientUnits="userSpaceOnUse">
            <stop/>
            <stop offset="1" stop-color="#6A6A6A"/>
        </linearGradient>
        <linearGradient id="paint7_linear_8_3552" x1="463.509" y1="228.089" x2="463.509" y2="256.623" gradientUnits="userSpaceOnUse">
            <stop/>
            <stop offset="1" stop-color="#6A6A6A"/>
        </linearGradient>
        <linearGradient id="paint8_linear_8_3552" x1="327.784" y1="204.399" x2="327.784" y2="216.108" gradientUnits="userSpaceOnUse">
            <stop/>
            <stop offset="1" stop-color="#6A6A6A"/>
        </linearGradient>
        <linearGradient id="paint9_linear_8_3552" x1="255.364" y1="214.082" x2="255.364" y2="232.314" gradientUnits="userSpaceOnUse">
            <stop/>
            <stop offset="1" stop-color="#6A6A6A"/>
        </linearGradient>
        <linearGradient id="paint10_linear_8_3552" x1="257.39" y1="281.944" x2="257.39" y2="301.189" gradientUnits="userSpaceOnUse">
            <stop/>
            <stop offset="1" stop-color="#6A6A6A"/>
        </linearGradient>
        <linearGradient id="paint11_linear_8_3552" x1="362.056" y1="278.906" x2="362.056" y2="299.163" gradientUnits="userSpaceOnUse">
            <stop/>
            <stop offset="1" stop-color="#6A6A6A"/>
        </linearGradient>
        <linearGradient id="paint12_linear_8_3552" x1="429.489" y1="205.781" x2="429.489" y2="219.147" gradientUnits="userSpaceOnUse">
            <stop/>
            <stop offset="1" stop-color="#6A6A6A"/>
        </linearGradient>
        <linearGradient id="paint13_linear_8_3552" x1="153.366" y1="398.653" x2="153.366" y2="478.441" gradientUnits="userSpaceOnUse">
            <stop/>
            <stop offset="1" stop-color="#6A6A6A"/>
        </linearGradient>
        <linearGradient id="paint14_linear_8_3552" x1="244.386" y1="412.078" x2="244.386" y2="459.927" gradientUnits="userSpaceOnUse">
            <stop/>
            <stop offset="1" stop-color="#6A6A6A"/>
        </linearGradient>
        <linearGradient id="paint15_linear_8_3552" x1="238.815" y1="424.759" x2="238.815" y2="428.811" gradientUnits="userSpaceOnUse">
            <stop/>
            <stop offset="1" stop-color="#6A6A6A"/>
        </linearGradient>
        <linearGradient id="paint16_linear_8_3552" x1="246.918" y1="399.437" x2="246.918" y2="405.514" gradientUnits="userSpaceOnUse">
            <stop/>
            <stop offset="1" stop-color="#6A6A6A"/>
        </linearGradient>
        <linearGradient id="paint17_linear_8_3552" x1="320.351" y1="417.192" x2="320.351" y2="462.235" gradientUnits="userSpaceOnUse">
            <stop/>
            <stop offset="1" stop-color="#6A6A6A"/>
        </linearGradient>
        <linearGradient id="paint18_linear_8_3552" x1="416.986" y1="396.589" x2="416.986" y2="456.041" gradientUnits="userSpaceOnUse">
            <stop/>
            <stop offset="1" stop-color="#6A6A6A"/>
        </linearGradient>
        <linearGradient id="paint19_linear_8_3552" x1="474.168" y1="400.45" x2="474.168" y2="457.077" gradientUnits="userSpaceOnUse">
            <stop/>
            <stop offset="1" stop-color="#6A6A6A"/>
        </linearGradient>
        <linearGradient id="paint20_linear_8_3552" x1="495.118" y1="398.885" x2="495.118" y2="456.16" gradientUnits="userSpaceOnUse">
            <stop/>
            <stop offset="1" stop-color="#6A6A6A"/>
        </linearGradient>
        <linearGradient id="paint21_linear_8_3552" x1="560.401" y1="399.437" x2="560.401" y2="430.121" gradientUnits="userSpaceOnUse">
            <stop/>
            <stop offset="1" stop-color="#6A6A6A"/>
        </linearGradient>
        <linearGradient id="paint22_linear_8_3552" x1="584.203" y1="399.437" x2="584.203" y2="476.332" gradientUnits="userSpaceOnUse">
            <stop/>
            <stop offset="1" stop-color="#6A6A6A"/>
        </linearGradient>
        <linearGradient id="paint23_linear_8_3552" x1="89.9916" y1="30.6196" x2="89.9916" y2="37.7385" gradientUnits="userSpaceOnUse">
            <stop/>
            <stop offset="1" stop-color="#6A6A6A"/>
        </linearGradient>
        <linearGradient id="paint24_linear_8_3552" x1="95.8096" y1="43.4045" x2="95.8096" y2="111.568" gradientUnits="userSpaceOnUse">
            <stop/>
            <stop offset="1" stop-color="#6A6A6A"/>
        </linearGradient>
        <linearGradient id="paint25_linear_8_3552" x1="161.914" y1="35.8496" x2="161.914" y2="110.639" gradientUnits="userSpaceOnUse">
            <stop/>
            <stop offset="1" stop-color="#6A6A6A"/>
        </linearGradient>
        <linearGradient id="paint26_linear_8_3552" x1="184.578" y1="56.6252" x2="184.578" y2="73.6234" gradientUnits="userSpaceOnUse">
            <stop/>
            <stop offset="1" stop-color="#6A6A6A"/>
        </linearGradient>
        <linearGradient id="paint27_linear_8_3552" x1="216.685" y1="26.4062" x2="216.685" y2="116.51" gradientUnits="userSpaceOnUse">
            <stop/>
            <stop offset="1" stop-color="#6A6A6A"/>
        </linearGradient>
        <linearGradient id="paint28_linear_8_3552" x1="273.35" y1="41.5159" x2="273.35" y2="115.172" gradientUnits="userSpaceOnUse">
            <stop/>
            <stop offset="1" stop-color="#6A6A6A"/>
        </linearGradient>
        <linearGradient id="paint29_linear_8_3552" x1="277.123" y1="67.9573" x2="277.123" y2="79.2894" gradientUnits="userSpaceOnUse">
            <stop/>
            <stop offset="1" stop-color="#6A6A6A"/>
        </linearGradient>
        <linearGradient id="paint30_linear_8_3552" x1="283.733" y1="37.7383" x2="283.733" y2="49.0704" gradientUnits="userSpaceOnUse">
            <stop/>
            <stop offset="1" stop-color="#6A6A6A"/>
        </linearGradient>
        <linearGradient id="paint31_linear_8_3552" x1="379.174" y1="41.5159" x2="379.174" y2="113.22" gradientUnits="userSpaceOnUse">
            <stop/>
            <stop offset="1" stop-color="#6A6A6A"/>
        </linearGradient>
        <linearGradient id="paint32_linear_8_3552" x1="377.223" y1="71.7346" x2="377.223" y2="79.2893" gradientUnits="userSpaceOnUse">
            <stop/>
            <stop offset="1" stop-color="#6A6A6A"/>
        </linearGradient>
        <linearGradient id="paint33_linear_8_3552" x1="379.112" y1="44.3918" x2="379.112" y2="45.2931" gradientUnits="userSpaceOnUse">
            <stop/>
            <stop offset="1" stop-color="#6A6A6A"/>
        </linearGradient>
        <linearGradient id="paint34_linear_8_3552" x1="430.106" y1="124.618" x2="430.106" y2="125.618" gradientUnits="userSpaceOnUse">
            <stop/>
            <stop offset="1" stop-color="#6A6A6A"/>
        </linearGradient>
        <linearGradient id="paint35_linear_8_3552" x1="455.71" y1="33.8789" x2="455.71" y2="124.618" gradientUnits="userSpaceOnUse">
            <stop/>
            <stop offset="1" stop-color="#6A6A6A"/>
        </linearGradient>
        <linearGradient id="paint36_linear_8_3552" x1="526.844" y1="45.2932" x2="526.844" y2="116.308" gradientUnits="userSpaceOnUse">
            <stop/>
            <stop offset="1" stop-color="#6A6A6A"/>
        </linearGradient>
        <linearGradient id="paint37_linear_8_3552" x1="533.984" y1="71.7346" x2="533.984" y2="81.178" gradientUnits="userSpaceOnUse">
            <stop/>
            <stop offset="1" stop-color="#6A6A6A"/>
        </linearGradient>
        <linearGradient id="paint38_linear_8_3552" x1="529.262" y1="47.1819" x2="529.262" y2="49.0706" gradientUnits="userSpaceOnUse">
            <stop/>
            <stop offset="1" stop-color="#6A6A6A"/>
        </linearGradient>
        <linearGradient id="paint39_linear_8_3552" x1="582.12" y1="49.9541" x2="582.12" y2="132.173" gradientUnits="userSpaceOnUse">
            <stop/>
            <stop offset="1" stop-color="#6A6A6A"/>
        </linearGradient>
        <linearGradient id="paint40_linear_8_3552" x1="652.971" y1="50.9592" x2="652.971" y2="88.7329" gradientUnits="userSpaceOnUse">
            <stop/>
            <stop offset="1" stop-color="#6A6A6A"/>
        </linearGradient>
        <linearGradient id="paint41_linear_8_3552" x1="669.969" y1="49.0706" x2="669.969" y2="143.505" gradientUnits="userSpaceOnUse">
            <stop/>
            <stop offset="1" stop-color="#6A6A6A"/>
        </linearGradient>
    </defs>
</svg>
