<svg width="720" height="540" viewBox="0 0 720 540" fill="none" xmlns="http://www.w3.org/2000/svg">
    <rect width="720" height="540" fill="white"/>
    <path d="M424.513 320.433C425.679 324.861 428.777 349.807 435.655 349.807C437.954 349.807 440.821 348.513 442.97 347.781C450.485 345.223 458.836 345.831 466.491 343.279C471.373 341.652 473.941 344.397 471.668 338.553C469.938 334.104 469.919 328.725 468.573 324.091C467.446 320.209 463.655 316.273 469.08 315.369" stroke="url(#paint0_linear_17_9146)" stroke-width="7" stroke-linecap="round"/>
    <path d="M468.067 338.665C470.271 336.705 475.361 336.554 478.195 335.626C482.338 334.27 486.426 332.588 490.8 332.588C493.517 332.588 494.524 333.034 493.895 329.887C492.301 321.916 493.39 313.354 492.376 305.24" stroke="url(#paint1_linear_17_9146)" stroke-width="7" stroke-linecap="round"/>
    <path d="M414.385 322.459C420.103 316.503 416.264 321.245 413.147 323.472C407.245 327.687 401.524 332.217 395.084 335.627C382.427 342.327 364.847 348.911 352.093 338.046C348.063 334.613 341.879 327.148 341.458 321.672C341.157 317.762 333.242 325.316 332.399 325.948C320.553 334.833 297.899 344.511 284.85 331.463C284.418 331.03 278.563 319.908 277.647 321.053C273.149 326.675 267.719 327.617 260.654 326.511C248.443 324.6 231.252 318.875 222.953 309.067C220.191 305.803 218.296 301.248 217.438 297.081C217.146 295.663 217.413 290.229 216.425 291.06C207.884 298.253 190.463 288.958 186.208 280.763C182.107 272.865 183.38 262.205 184.013 253.697C184.827 242.765 186.355 231.358 190.316 221.06C193.238 213.461 202.207 215.095 208.716 215.095C211.946 215.095 212.518 215.032 211.361 212.057C209.421 207.069 216.024 201.703 219.126 198.889C229.319 189.646 247.944 176.925 262.454 183.921C264.864 185.083 265.914 186.889 267.744 188.536C268.33 189.063 269.037 187.545 269.094 187.466C273.147 181.894 277.486 176.509 282.881 172.161C295.96 161.619 315.005 161.512 324.802 175.931C326.008 177.705 326.726 181.928 328.291 183.246C330.218 184.869 339.156 175.626 340.614 174.637C355.477 164.551 376.854 159.304 393.677 167.715C397.239 169.496 400.094 172.43 400.992 176.381C401.338 177.904 400.69 180.245 402.849 179.082C416.116 171.938 427.43 167.273 442.52 172.555C446.119 173.814 450.68 175.196 450.848 179.645C450.937 182.012 447.129 186.622 449.498 186.622C452.087 186.622 455.664 183.554 458.107 182.74C463.522 180.935 469.951 180.432 474.932 183.753C478.346 186.029 480.479 189.811 481.178 193.769C481.433 195.215 481.393 201.802 482.472 202.716C484.631 204.543 492.801 202.196 495.189 201.928C500.946 201.283 509.324 202.144 512.577 207.836C515.777 213.437 515.384 220.109 513.646 226.068C513.035 228.164 512.345 230.254 511.62 232.314C511.252 233.36 509.232 234.963 510.27 235.353C511.833 235.939 513.765 235.077 515.447 235.803C520.829 238.127 524.629 246.404 526.588 251.39C530.523 261.405 528.019 268.316 525.013 277.668C524.391 279.601 525.716 280.566 526.588 282.17C529.943 288.343 526.787 294.621 523.662 300.176C520.049 306.599 515.211 312.277 509.707 317.17C505.224 321.155 502.365 319.634 497.44 317.395" stroke="url(#paint2_linear_17_9146)" stroke-width="7" stroke-linecap="round"/>
    <path d="M259.416 255.61C261.12 255.397 263.246 249.948 264.48 248.576C268.676 243.913 275.34 239.596 281.699 239.066C292.716 238.148 293.477 253.266 304.995 247.507" stroke="url(#paint3_linear_17_9146)" stroke-width="7" stroke-linecap="round"/>
    <path d="M293.853 274.854C296.766 279.386 298.654 285.857 303.419 288.81C310.477 293.184 316.35 289.042 322.214 284.983" stroke="url(#paint4_linear_17_9146)" stroke-width="7" stroke-linecap="round"/>
    <path d="M352.6 241.43C358.897 234.474 368.088 224.654 378.934 226.462C384.302 227.356 387.116 234.2 391.089 237.378" stroke="url(#paint5_linear_17_9146)" stroke-width="7" stroke-linecap="round"/>
    <path d="M398.179 268.777C400.856 273.276 403.306 278.627 407.52 281.945C413.46 286.621 419.372 283.325 425.526 280.932" stroke="url(#paint6_linear_17_9146)" stroke-width="7" stroke-linecap="round"/>
    <path d="M443.758 238.391C450.877 232.127 462.072 221.918 470.486 233.046C475.728 239.978 474.461 254.423 483.26 256.623" stroke="url(#paint7_linear_17_9146)" stroke-width="7" stroke-linecap="round"/>
    <path d="M304.995 216.108C309.288 211.278 314.868 207.374 321.201 205.417C332.127 202.039 341.635 207.706 350.574 213.069" stroke="url(#paint8_linear_17_9146)" stroke-width="7" stroke-linecap="round"/>
    <path d="M243.21 232.314C244.106 225.686 244.568 221.227 251.088 218.584C256.386 216.436 261.85 214.791 267.519 214.082" stroke="url(#paint9_linear_17_9146)" stroke-width="7" stroke-linecap="round"/>
    <path d="M245.236 281.944C251.05 293.915 255.805 299.226 269.544 301.189" stroke="url(#paint10_linear_17_9146)" stroke-width="7" stroke-linecap="round"/>
    <path d="M354.625 299.163C354.932 296.712 361.799 293.537 363.516 292.073C368.204 288.076 370.805 284.905 368.806 278.906" stroke="url(#paint11_linear_17_9146)" stroke-width="7" stroke-linecap="round"/>
    <path d="M417.423 219.147C415.283 206.661 433.085 205.115 441.732 205.979" stroke="url(#paint12_linear_17_9146)" stroke-width="7" stroke-linecap="round"/>
    <path d="M102.077 478.441C102.077 472.929 104.615 467.235 105.06 461.673C105.616 454.713 104.73 447.878 105.904 440.965C107.217 433.234 108.599 425.925 109.224 418.119C109.455 415.232 109.216 406.528 113.219 406.528C118.881 406.528 124.27 406.411 129.875 405.515C135.81 404.565 136.985 403.996 138.316 410.354C140.047 418.626 144.405 425.346 148.107 432.75C149.789 436.115 150.644 442.827 153.227 445.41C154.333 446.516 158.488 431.839 158.798 430.836C160.822 424.287 158.382 416.323 162.85 410.579C165.242 407.503 167.28 404.28 169.94 401.463C172.86 398.371 177.781 401.858 181.644 402.476C189.489 403.731 194.607 399.994 202.126 399.437C202.817 399.386 204.088 397.995 204.321 399.044C205.153 402.786 204.209 407.594 203.871 411.31C202.285 428.755 201.163 446.51 201.339 464.036C201.366 466.76 204.377 483.497 204.377 473.377" stroke="url(#paint13_linear_17_9146)" stroke-width="7" stroke-linecap="round"/>
    <path d="M229.699 413.618C234.034 405.489 226.021 431.758 225.704 440.965C225.401 449.736 224.167 461.788 236.001 459.422C241.571 458.308 248.835 458.865 254.458 459.253C255.498 459.325 266.827 460.769 262.111 459.197" stroke="url(#paint14_linear_17_9146)" stroke-width="7" stroke-linecap="round"/>
    <path d="M224.635 428.81C233.644 424.756 243.31 424.759 252.995 424.759" stroke="url(#paint15_linear_17_9146)" stroke-width="7" stroke-linecap="round"/>
    <path d="M223.622 405.515C239.65 399.727 253.705 399.438 270.214 399.438" stroke="url(#paint16_linear_17_9146)" stroke-width="7" stroke-linecap="round"/>
    <path d="M283.381 462.235C283.381 458.091 283.995 454.249 284.337 450.137C284.817 444.381 283.606 438.336 284.619 432.637C285.349 428.53 285.73 424.428 286.363 420.313C286.924 416.669 288.799 417.566 292.497 417.669C298.84 417.845 307.09 417.187 307.69 424.984C308.215 431.811 312.566 439.012 315.568 445.016C315.955 445.791 322.48 431.488 323.671 428.81C326.66 422.085 327.272 418.681 335.262 418.681C339.708 418.681 344.338 419.047 348.767 418.625C355.097 418.022 355.41 414.463 355.295 421.495C355.128 431.674 355.295 441.869 355.295 452.05C355.295 453.112 356.033 460.757 357.32 458.183" stroke="url(#paint17_linear_17_9146)" stroke-width="7" stroke-linecap="round"/>
    <path d="M411.002 406.528C402.716 402.628 393.469 418.699 391.983 424.759C390.119 432.359 388.563 445.082 395.697 450.531C403.873 456.777 415.347 457.921 424.395 452.895C432.93 448.153 440.189 440.107 442.401 430.499C445.025 419.103 443.467 415.415 434.748 409.004C429.904 405.441 426.218 401.782 421.919 397.637C419.051 394.871 416.739 398.203 415.054 400.45" stroke="url(#paint18_linear_17_9146)" stroke-width="7" stroke-linecap="round"/>
    <path d="M472.787 400.45C470.7 403.582 471.775 409.167 471.775 412.717C471.775 421.798 472.787 430.812 472.787 439.896C472.787 442.244 475.018 465.055 476.839 454.132" stroke="url(#paint19_linear_17_9146)" stroke-width="7" stroke-linecap="round"/>
    <path d="M473.8 401.463C474.264 397.289 496.148 399.437 499.46 399.437C504.292 399.437 511.428 399.444 514.09 404.502C521.952 419.439 508.636 427.798 495.071 427.798C489.868 427.798 484.834 426.785 479.878 426.785C475.16 426.785 489.227 435.469 490.963 436.857C493.899 439.206 497.703 440.126 500.585 442.484C502.819 444.312 504.791 447.491 507.225 448.843C509.255 449.971 514.038 456.296 514.315 456.158" stroke="url(#paint20_linear_17_9146)" stroke-width="7" stroke-linecap="round"/>
    <path d="M546.727 399.438C549.858 402.917 572.265 433.441 574.074 429.824" stroke="url(#paint21_linear_17_9146)" stroke-width="7" stroke-linecap="round"/>
    <path d="M596.357 399.438C596.002 402.64 590.774 405.924 588.705 408.159C584.604 412.588 581.319 417.787 577.563 422.508C573.564 427.535 572.049 430.826 572.049 437.476C572.049 447.313 573.152 457.567 574.131 467.356C574.373 469.777 575.087 471.939 575.087 474.39C575.087 478.284 575.549 475.462 577.113 473.377" stroke="url(#paint22_linear_17_9146)" stroke-width="7" stroke-linecap="round"/>
    <path d="M359.742 196.529C355.055 195.943 356.118 180.963 355.118 177.517C352.27 167.707 350.655 156.251 350.493 146.024C350.292 133.352 353.144 121.786 354.384 109.394C354.52 108.029 354.06 96.6339 355.778 100.071" stroke="url(#paint23_linear_17_9146)" stroke-width="7" stroke-linecap="round"/>
    <path d="M435.059 204.457C435.059 184.612 428.453 166.106 428.453 146.318C428.453 137.165 428.824 128.212 427.205 119.304C426.587 115.904 427.841 106.225 424.489 114.606" stroke="url(#paint24_linear_17_9146)" stroke-width="7" stroke-linecap="round"/>
    <path d="M334.637 101.392C334.637 92.7173 357.798 100.318 363.706 101.392C378.057 104.001 392.716 107.723 407.311 107.999C416.375 108.17 426.705 111.585 435.647 113.211C437.884 113.618 439.478 114.484 441.666 114.606C447.965 114.956 446.182 117.485 442.987 121.212" stroke="url(#paint25_linear_17_9146)" stroke-width="7" stroke-linecap="round"/>
    <path d="M329.351 100.071C329.351 96.1857 330.596 89.6254 328.691 86.1965C327.026 83.2003 326.153 71.4724 331.7 74.9651C339.902 80.1289 351.41 82.8932 361.064 82.8932C366.943 82.8932 372.621 84.2145 378.535 84.2145C382.978 84.2145 389.422 83.0169 393.51 84.8752C400.554 88.077 408.972 85.7235 416.267 87.8849C423.673 90.0793 431.969 89.4999 439.684 89.4999C445.569 89.4999 453.156 88.0622 453.558 96.1067C453.941 103.767 451.986 111.395 449.594 118.57" stroke="url(#paint26_linear_17_9146)" stroke-width="7" stroke-linecap="round"/>
    <path d="M380.884 78.9288C380.884 63.1302 387.491 48.1646 387.491 32.6816C387.491 21.2129 399.651 21.6564 407.972 23.5055C409.533 23.8524 421.562 25.7682 421.552 25.7812C416.323 32.5051 412.596 42.481 412.596 51.1071C412.596 58.6959 411.275 65.9286 411.275 73.3498C411.275 77.7197 411.028 83.2631 408.632 86.8569" stroke="url(#paint27_linear_17_9146)" stroke-width="7" stroke-linecap="round"/>
    <path d="M361.469 344.301C358.984 344.611 360.633 386.611 360.633 392.824" stroke="url(#paint28_linear_17_9146)" stroke-width="7" stroke-linecap="round"/>
    <path d="M438.437 353.503C438.437 356.084 438.988 367.868 439.274 373.582C439.426 376.632 439.274 379.731 439.274 382.785C439.274 384.894 439.653 389.098 441.784 386.968" stroke="url(#paint29_linear_17_9146)" stroke-width="7" stroke-linecap="round"/>
    <path d="M362.306 396.171C360.924 391.63 364.63 399.146 365.234 400.354C366.747 403.38 367.926 407.029 369.835 409.742C371.693 412.382 374.926 413.737 376.9 416.249C379.145 419.106 381.589 422.073 383.639 425.033C387.119 430.06 390.19 435.767 394.515 440.092C397.661 443.238 401.626 455.835 401.626 451.387" stroke="url(#paint30_linear_17_9146)" stroke-width="7" stroke-linecap="round"/>
    <path d="M403.3 451.387C406.348 445.406 410.166 439.892 412.921 433.771C415.797 427.38 418.281 420.311 422.356 414.576C427.174 407.794 430.93 401.168 436.764 395.334" stroke="url(#paint31_linear_17_9146)" stroke-width="7" stroke-linecap="round"/>
    <path d="M399.117 350.157C399.117 341.579 400.409 367.308 402.091 375.72C402.792 379.223 402.951 382.945 403.95 386.317C404.396 387.821 404.136 392.04 404.136 387.804" stroke="url(#paint32_linear_17_9146)" stroke-width="7" stroke-linecap="round"/>
    <path d="M389.914 142.679C389.914 151.894 390.75 161.312 390.75 170.659C390.75 177.695 392.424 184.324 392.424 191.202C392.424 196.252 394.097 211.311 394.097 206.261" stroke="url(#paint33_linear_17_9146)" stroke-width="7" stroke-linecap="round"/>
    <path d="M397.443 467.282C393.588 467.764 391.328 478.274 390.332 481.04C387.874 487.868 386.306 494.436 384.244 501.397C381.291 511.363 399.091 512.04 404.973 508.926C407.482 507.598 407.963 501.027 407.436 498.655C406.741 495.525 403.268 491.945 401.812 489.034C399.966 485.342 398.017 483.338 397.397 478.994C396.586 473.317 397.277 469.454 399.117 463.936" stroke="url(#paint34_linear_17_9146)" stroke-width="7" stroke-linecap="round"/>
    <path d="M454.333 369.399C457.477 372.543 460.382 375.722 461.676 380.089C462.796 383.868 461.875 388.491 462.745 392.406C463.711 396.752 467.288 394.407 470.275 393.661C475.588 392.333 477.082 389.547 481.104 386.782C483.609 385.06 482.777 380.547 482.777 377.951C482.777 372.253 481.564 370.63 476.131 372.327C473.144 373.261 468.158 371.072 464.79 371.072C458.598 371.072 456.128 371.218 451.823 366.053" stroke="url(#paint35_linear_17_9146)" stroke-width="7" stroke-linecap="round"/>
    <path d="M342.227 351.83C342.129 351.143 336.06 357.26 335.116 358.058C331.059 361.491 326.888 364.645 324.24 369.353C320.501 376 320.428 380.323 326.332 385.295C328.019 386.716 332.336 386.868 333.443 384.876C334.763 382.5 334.349 378.018 335.116 375.255C338.293 363.818 341.97 354.598 350.593 345.974" stroke="url(#paint36_linear_17_9146)" stroke-width="7" stroke-linecap="round"/>
    <path d="M36.1129 87.0005C37.3539 88.5518 37.1472 91.0748 37.435 92.9744C38.7019 101.336 39.7816 109.461 41.842 117.702C42.4038 119.95 46.6896 133.524 46.6896 124.9" stroke="url(#paint37_linear_17_9146)" stroke-width="7" stroke-linecap="round"/>
    <path d="M43.1641 114.324C50.8535 106.634 68.2993 79.0371 63.4361 88.7635" stroke="url(#paint38_linear_17_9146)" stroke-width="7" stroke-linecap="round"/>
    <path d="M44.9269 116.086C54.8614 119.581 64.6924 123.231 74.8942 125.782" stroke="url(#paint39_linear_17_9146)" stroke-width="7" stroke-linecap="round"/>
    <path d="M81.0638 89.645C83.1629 99.4405 84.4966 109.541 87.6743 119.074C88.053 120.21 90.377 124.901 89.8778 124.901" stroke="url(#paint40_linear_17_9146)" stroke-width="7" stroke-linecap="round"/>
    <path d="M100.454 87.0005C100.877 88.9613 103.783 120.301 107.701 119.416C116.395 117.453 123.58 119.612 132.185 119.612" stroke="url(#paint41_linear_17_9146)" stroke-width="7" stroke-linecap="round"/>
    <path d="M133.947 86.1191C134.202 88.7965 133.344 118.149 139.432 118.339C140.771 118.381 142.682 117.319 143.888 116.968C147.852 115.812 151.865 115.375 155.982 115.254C160.385 115.125 164.798 115.205 169.203 115.205" stroke="url(#paint42_linear_17_9146)" stroke-width="7" stroke-linecap="round"/>
    <path d="M533.218 59.6776C528.953 59.6776 524.523 63.2371 522.347 66.7287C516.379 76.3051 531.77 79.5763 538.261 77.6971C553.009 73.428 537.877 49.6045 528.811 63.2031" stroke="url(#paint43_linear_17_9146)" stroke-width="7" stroke-linecap="round"/>
    <path d="M558.778 57.0332C560.64 57.2659 556.721 75.9119 561.569 78.5783C566.524 81.3032 575.552 82.0498 579.981 77.9907C582.909 75.3059 591.354 59.6595 586.101 57.0332" stroke="url(#paint44_linear_17_9146)" stroke-width="7" stroke-linecap="round"/>
    <path d="M599.322 60.559C598.257 67.8761 597.556 74.9374 599.126 82.2021C600.125 86.821 598.693 81.4524 598.441 79.6559C597.168 70.5754 598.638 61.7326 604.219 54.2914C606.408 51.3724 611.469 48.9923 614.991 51.0596C617.316 52.4239 620.699 58.07 619.007 60.7549C615.775 65.8813 607.543 66.2137 604.317 71.3316C599.498 78.9752 623.12 76.0148 623.12 81.7124" stroke="url(#paint45_linear_17_9146)" stroke-width="7" stroke-linecap="round"/>
    <path d="M502.369 121.375C498.764 129.901 490.949 143.951 503.74 148.698C510.627 151.254 518.636 152.023 525.285 148.698" stroke="url(#paint46_linear_17_9146)" stroke-width="7" stroke-linecap="round"/>
    <path d="M494.437 136.358C505.574 132.979 516.72 129.746 527.929 126.663" stroke="url(#paint47_linear_17_9146)" stroke-width="7" stroke-linecap="round"/>
    <path d="M501.488 118.731C512.945 117.076 524.373 115.629 535.862 114.324" stroke="url(#paint48_linear_17_9146)" stroke-width="7" stroke-linecap="round"/>
    <path d="M540.269 152.224C540.353 144.492 540.787 136.785 541.15 129.063C541.342 124.991 540.945 119.767 542.081 115.793C542.17 115.481 542.654 116.149 542.815 116.429C545.044 120.301 546.796 124.488 548.691 128.524C551.261 133.997 553.545 139.94 557.897 144.291C563.807 150.201 563.071 134.95 563.136 132.392C563.342 124.249 562.119 118.065 567.592 111.68" stroke="url(#paint49_linear_17_9146)" stroke-width="7" stroke-linecap="round"/>
    <path d="M572.88 112.561C572.297 122.094 570.239 133.253 571.999 142.822C572.44 145.218 574.356 145.956 576.553 145.956C581.211 145.956 586.769 144.451 590.508 141.647" stroke="url(#paint50_linear_17_9146)" stroke-width="7" stroke-linecap="round"/>
    <path d="M566.711 130.189C575.235 129.523 584.093 129.485 592.565 128.23C594.55 127.936 594.329 127.248 594.915 125.782" stroke="url(#paint51_linear_17_9146)" stroke-width="7" stroke-linecap="round"/>
    <path d="M571.999 117.849C581.694 117.192 591.384 116.611 601.085 116.086" stroke="url(#paint52_linear_17_9146)" stroke-width="7" stroke-linecap="round"/>
    <path d="M599.322 153.105C602.748 145.301 603.774 136.727 605.884 128.524C606.12 127.606 610.783 114.036 611.662 115.989C614.542 122.39 613.498 130.88 615.187 137.73C615.48 138.918 616.913 144.976 618.909 142.137C622.425 137.133 623.63 128.68 625.372 122.844C626.337 119.613 626.264 118.16 627.723 122.159C631.057 131.298 642.943 157.928 639.866 148.698" stroke="url(#paint53_linear_17_9146)" stroke-width="7" stroke-linecap="round"/>
    <path d="M645.155 116.086C649.736 122.982 653.901 130.618 659.159 137.044C660.793 139.041 660.657 138.171 661.02 136.358" stroke="url(#paint54_linear_17_9146)" stroke-width="7" stroke-linecap="round"/>
    <path d="M668.952 111.68C665.85 126.089 658.94 138.871 655.437 153.007C655.059 154.534 653.243 159.353 654.85 160.156" stroke="url(#paint55_linear_17_9146)" stroke-width="7" stroke-linecap="round"/>
    <defs>
        <linearGradient id="paint0_linear_17_9146" x1="448.509" y1="315.369" x2="448.509" y2="349.807" gradientUnits="userSpaceOnUse">
            <stop/>
            <stop offset="1" stop-color="#6A6A6A"/>
        </linearGradient>
        <linearGradient id="paint1_linear_17_9146" x1="481.071" y1="305.24" x2="481.071" y2="338.665" gradientUnits="userSpaceOnUse">
            <stop/>
            <stop offset="1" stop-color="#6A6A6A"/>
        </linearGradient>
        <linearGradient id="paint2_linear_17_9146" x1="355.965" y1="163.524" x2="355.965" y2="343.825" gradientUnits="userSpaceOnUse">
            <stop/>
            <stop offset="1" stop-color="#6A6A6A"/>
        </linearGradient>
        <linearGradient id="paint3_linear_17_9146" x1="282.205" y1="239.026" x2="282.205" y2="255.61" gradientUnits="userSpaceOnUse">
            <stop/>
            <stop offset="1" stop-color="#6A6A6A"/>
        </linearGradient>
        <linearGradient id="paint4_linear_17_9146" x1="308.033" y1="274.854" x2="308.033" y2="290.679" gradientUnits="userSpaceOnUse">
            <stop/>
            <stop offset="1" stop-color="#6A6A6A"/>
        </linearGradient>
        <linearGradient id="paint5_linear_17_9146" x1="371.844" y1="226.244" x2="371.844" y2="241.43" gradientUnits="userSpaceOnUse">
            <stop/>
            <stop offset="1" stop-color="#6A6A6A"/>
        </linearGradient>
        <linearGradient id="paint6_linear_17_9146" x1="411.852" y1="268.777" x2="411.852" y2="284.311" gradientUnits="userSpaceOnUse">
            <stop/>
            <stop offset="1" stop-color="#6A6A6A"/>
        </linearGradient>
        <linearGradient id="paint7_linear_17_9146" x1="463.509" y1="228.089" x2="463.509" y2="256.623" gradientUnits="userSpaceOnUse">
            <stop/>
            <stop offset="1" stop-color="#6A6A6A"/>
        </linearGradient>
        <linearGradient id="paint8_linear_17_9146" x1="327.784" y1="204.399" x2="327.784" y2="216.108" gradientUnits="userSpaceOnUse">
            <stop/>
            <stop offset="1" stop-color="#6A6A6A"/>
        </linearGradient>
        <linearGradient id="paint9_linear_17_9146" x1="255.364" y1="214.082" x2="255.364" y2="232.314" gradientUnits="userSpaceOnUse">
            <stop/>
            <stop offset="1" stop-color="#6A6A6A"/>
        </linearGradient>
        <linearGradient id="paint10_linear_17_9146" x1="257.39" y1="281.944" x2="257.39" y2="301.189" gradientUnits="userSpaceOnUse">
            <stop/>
            <stop offset="1" stop-color="#6A6A6A"/>
        </linearGradient>
        <linearGradient id="paint11_linear_17_9146" x1="362.056" y1="278.906" x2="362.056" y2="299.163" gradientUnits="userSpaceOnUse">
            <stop/>
            <stop offset="1" stop-color="#6A6A6A"/>
        </linearGradient>
        <linearGradient id="paint12_linear_17_9146" x1="429.489" y1="205.781" x2="429.489" y2="219.147" gradientUnits="userSpaceOnUse">
            <stop/>
            <stop offset="1" stop-color="#6A6A6A"/>
        </linearGradient>
        <linearGradient id="paint13_linear_17_9146" x1="153.366" y1="398.653" x2="153.366" y2="478.441" gradientUnits="userSpaceOnUse">
            <stop/>
            <stop offset="1" stop-color="#6A6A6A"/>
        </linearGradient>
        <linearGradient id="paint14_linear_17_9146" x1="244.386" y1="412.078" x2="244.386" y2="459.927" gradientUnits="userSpaceOnUse">
            <stop/>
            <stop offset="1" stop-color="#6A6A6A"/>
        </linearGradient>
        <linearGradient id="paint15_linear_17_9146" x1="238.815" y1="424.759" x2="238.815" y2="428.81" gradientUnits="userSpaceOnUse">
            <stop/>
            <stop offset="1" stop-color="#6A6A6A"/>
        </linearGradient>
        <linearGradient id="paint16_linear_17_9146" x1="246.918" y1="399.438" x2="246.918" y2="405.515" gradientUnits="userSpaceOnUse">
            <stop/>
            <stop offset="1" stop-color="#6A6A6A"/>
        </linearGradient>
        <linearGradient id="paint17_linear_17_9146" x1="320.351" y1="417.191" x2="320.351" y2="462.235" gradientUnits="userSpaceOnUse">
            <stop/>
            <stop offset="1" stop-color="#6A6A6A"/>
        </linearGradient>
        <linearGradient id="paint18_linear_17_9146" x1="416.986" y1="396.589" x2="416.986" y2="456.042" gradientUnits="userSpaceOnUse">
            <stop/>
            <stop offset="1" stop-color="#6A6A6A"/>
        </linearGradient>
        <linearGradient id="paint19_linear_17_9146" x1="474.168" y1="400.45" x2="474.168" y2="457.077" gradientUnits="userSpaceOnUse">
            <stop/>
            <stop offset="1" stop-color="#6A6A6A"/>
        </linearGradient>
        <linearGradient id="paint20_linear_17_9146" x1="495.118" y1="398.885" x2="495.118" y2="456.16" gradientUnits="userSpaceOnUse">
            <stop/>
            <stop offset="1" stop-color="#6A6A6A"/>
        </linearGradient>
        <linearGradient id="paint21_linear_17_9146" x1="560.401" y1="399.438" x2="560.401" y2="430.121" gradientUnits="userSpaceOnUse">
            <stop/>
            <stop offset="1" stop-color="#6A6A6A"/>
        </linearGradient>
        <linearGradient id="paint22_linear_17_9146" x1="584.203" y1="399.438" x2="584.203" y2="476.332" gradientUnits="userSpaceOnUse">
            <stop/>
            <stop offset="1" stop-color="#6A6A6A"/>
        </linearGradient>
        <linearGradient id="paint23_linear_17_9146" x1="355.113" y1="99.4277" x2="355.113" y2="196.529" gradientUnits="userSpaceOnUse">
            <stop/>
            <stop offset="1" stop-color="#6A6A6A"/>
        </linearGradient>
        <linearGradient id="paint24_linear_17_9146" x1="429.774" y1="111.277" x2="429.774" y2="204.457" gradientUnits="userSpaceOnUse">
            <stop/>
            <stop offset="1" stop-color="#6A6A6A"/>
        </linearGradient>
        <linearGradient id="paint25_linear_17_9146" x1="390.263" y1="97.2866" x2="390.263" y2="121.212" gradientUnits="userSpaceOnUse">
            <stop/>
            <stop offset="1" stop-color="#6A6A6A"/>
        </linearGradient>
        <linearGradient id="paint26_linear_17_9146" x1="390.518" y1="74.3218" x2="390.518" y2="118.57" gradientUnits="userSpaceOnUse">
            <stop/>
            <stop offset="1" stop-color="#6A6A6A"/>
        </linearGradient>
        <linearGradient id="paint27_linear_17_9146" x1="401.218" y1="22.5039" x2="401.218" y2="86.8569" gradientUnits="userSpaceOnUse">
            <stop/>
            <stop offset="1" stop-color="#6A6A6A"/>
        </linearGradient>
        <linearGradient id="paint28_linear_17_9146" x1="360.783" y1="344.301" x2="360.783" y2="392.824" gradientUnits="userSpaceOnUse">
            <stop/>
            <stop offset="1" stop-color="#6A6A6A"/>
        </linearGradient>
        <linearGradient id="paint29_linear_17_9146" x1="440.11" y1="353.503" x2="440.11" y2="387.554" gradientUnits="userSpaceOnUse">
            <stop/>
            <stop offset="1" stop-color="#6A6A6A"/>
        </linearGradient>
        <linearGradient id="paint30_linear_17_9146" x1="381.813" y1="394.728" x2="381.813" y2="452.328" gradientUnits="userSpaceOnUse">
            <stop/>
            <stop offset="1" stop-color="#6A6A6A"/>
        </linearGradient>
        <linearGradient id="paint31_linear_17_9146" x1="420.032" y1="395.334" x2="420.032" y2="451.387" gradientUnits="userSpaceOnUse">
            <stop/>
            <stop offset="1" stop-color="#6A6A6A"/>
        </linearGradient>
        <linearGradient id="paint32_linear_17_9146" x1="401.664" y1="348.43" x2="401.664" y2="389.639" gradientUnits="userSpaceOnUse">
            <stop/>
            <stop offset="1" stop-color="#6A6A6A"/>
        </linearGradient>
        <linearGradient id="paint33_linear_17_9146" x1="392.005" y1="142.679" x2="392.005" y2="207.282" gradientUnits="userSpaceOnUse">
            <stop/>
            <stop offset="1" stop-color="#6A6A6A"/>
        </linearGradient>
        <linearGradient id="paint34_linear_17_9146" x1="395.772" y1="463.936" x2="395.772" y2="510.573" gradientUnits="userSpaceOnUse">
            <stop/>
            <stop offset="1" stop-color="#6A6A6A"/>
        </linearGradient>
        <linearGradient id="paint35_linear_17_9146" x1="467.366" y1="366.053" x2="467.366" y2="394.964" gradientUnits="userSpaceOnUse">
            <stop/>
            <stop offset="1" stop-color="#6A6A6A"/>
        </linearGradient>
        <linearGradient id="paint36_linear_17_9146" x1="336.112" y1="345.974" x2="336.112" y2="386.367" gradientUnits="userSpaceOnUse">
            <stop/>
            <stop offset="1" stop-color="#6A6A6A"/>
        </linearGradient>
        <linearGradient id="paint37_linear_17_9146" x1="41.4013" y1="87.0005" x2="41.4013" y2="127.738" gradientUnits="userSpaceOnUse">
            <stop/>
            <stop offset="1" stop-color="#6A6A6A"/>
        </linearGradient>
        <linearGradient id="paint38_linear_17_9146" x1="53.7213" y1="86.7119" x2="53.7213" y2="114.324" gradientUnits="userSpaceOnUse">
            <stop/>
            <stop offset="1" stop-color="#6A6A6A"/>
        </linearGradient>
        <linearGradient id="paint39_linear_17_9146" x1="59.9105" y1="116.086" x2="59.9105" y2="125.782" gradientUnits="userSpaceOnUse">
            <stop/>
            <stop offset="1" stop-color="#6A6A6A"/>
        </linearGradient>
        <linearGradient id="paint40_linear_17_9146" x1="85.5058" y1="89.645" x2="85.5058" y2="124.901" gradientUnits="userSpaceOnUse">
            <stop/>
            <stop offset="1" stop-color="#6A6A6A"/>
        </linearGradient>
        <linearGradient id="paint41_linear_17_9146" x1="116.32" y1="87.0005" x2="116.32" y2="119.612" gradientUnits="userSpaceOnUse">
            <stop/>
            <stop offset="1" stop-color="#6A6A6A"/>
        </linearGradient>
        <linearGradient id="paint42_linear_17_9146" x1="151.575" y1="86.1191" x2="151.575" y2="118.34" gradientUnits="userSpaceOnUse">
            <stop/>
            <stop offset="1" stop-color="#6A6A6A"/>
        </linearGradient>
        <linearGradient id="paint43_linear_17_9146" x1="532.718" y1="59.0547" x2="532.718" y2="78.2045" gradientUnits="userSpaceOnUse">
            <stop/>
            <stop offset="1" stop-color="#6A6A6A"/>
        </linearGradient>
        <linearGradient id="paint44_linear_17_9146" x1="573.282" y1="57.0332" x2="573.282" y2="80.8289" gradientUnits="userSpaceOnUse">
            <stop/>
            <stop offset="1" stop-color="#6A6A6A"/>
        </linearGradient>
        <linearGradient id="paint45_linear_17_9146" x1="610.567" y1="50.2803" x2="610.567" y2="84.0315" gradientUnits="userSpaceOnUse">
            <stop/>
            <stop offset="1" stop-color="#6A6A6A"/>
        </linearGradient>
        <linearGradient id="paint46_linear_17_9146" x1="510.987" y1="121.375" x2="510.987" y2="150.913" gradientUnits="userSpaceOnUse">
            <stop/>
            <stop offset="1" stop-color="#6A6A6A"/>
        </linearGradient>
        <linearGradient id="paint47_linear_17_9146" x1="511.183" y1="126.663" x2="511.183" y2="136.358" gradientUnits="userSpaceOnUse">
            <stop/>
            <stop offset="1" stop-color="#6A6A6A"/>
        </linearGradient>
        <linearGradient id="paint48_linear_17_9146" x1="518.675" y1="114.324" x2="518.675" y2="118.731" gradientUnits="userSpaceOnUse">
            <stop/>
            <stop offset="1" stop-color="#6A6A6A"/>
        </linearGradient>
        <linearGradient id="paint49_linear_17_9146" x1="553.93" y1="111.68" x2="553.93" y2="152.224" gradientUnits="userSpaceOnUse">
            <stop/>
            <stop offset="1" stop-color="#6A6A6A"/>
        </linearGradient>
        <linearGradient id="paint50_linear_17_9146" x1="580.905" y1="112.561" x2="580.905" y2="145.956" gradientUnits="userSpaceOnUse">
            <stop/>
            <stop offset="1" stop-color="#6A6A6A"/>
        </linearGradient>
        <linearGradient id="paint51_linear_17_9146" x1="580.813" y1="125.782" x2="580.813" y2="130.189" gradientUnits="userSpaceOnUse">
            <stop/>
            <stop offset="1" stop-color="#6A6A6A"/>
        </linearGradient>
        <linearGradient id="paint52_linear_17_9146" x1="586.542" y1="116.086" x2="586.542" y2="117.849" gradientUnits="userSpaceOnUse">
            <stop/>
            <stop offset="1" stop-color="#6A6A6A"/>
        </linearGradient>
        <linearGradient id="paint53_linear_17_9146" x1="619.846" y1="115.797" x2="619.846" y2="153.105" gradientUnits="userSpaceOnUse">
            <stop/>
            <stop offset="1" stop-color="#6A6A6A"/>
        </linearGradient>
        <linearGradient id="paint54_linear_17_9146" x1="653.087" y1="116.086" x2="653.087" y2="138.188" gradientUnits="userSpaceOnUse">
            <stop/>
            <stop offset="1" stop-color="#6A6A6A"/>
        </linearGradient>
        <linearGradient id="paint55_linear_17_9146" x1="661.574" y1="111.68" x2="661.574" y2="160.156" gradientUnits="userSpaceOnUse">
            <stop/>
            <stop offset="1" stop-color="#6A6A6A"/>
        </linearGradient>
    </defs>
</svg>
