<svg width="720" height="540" viewBox="0 0 720 540" fill="none" xmlns="http://www.w3.org/2000/svg">
    <rect width="720" height="540" fill="white"/>
    <path d="M31.2327 293.615H684.346" stroke="url(#paint0_linear_17_7704)" stroke-width="7" stroke-linecap="round"/>
    <path d="M37.7378 387.289H671.336" stroke="url(#paint1_linear_17_7704)" stroke-width="7" stroke-linecap="round"/>
    <path d="M84.5747 296.218V385.988" stroke="url(#paint2_linear_17_7704)" stroke-width="7" stroke-linecap="round"/>
    <path d="M169.141 297.519V387.289" stroke="url(#paint3_linear_17_7704)" stroke-width="7" stroke-linecap="round"/>
    <path d="M244.601 296.218V387.289" stroke="url(#paint4_linear_17_7704)" stroke-width="7" stroke-linecap="round"/>
    <path d="M310.953 293.615V387.289" stroke="url(#paint5_linear_17_7704)" stroke-width="7" stroke-linecap="round"/>
    <path d="M378.606 296.218V387.289" stroke="url(#paint6_linear_17_7704)" stroke-width="7" stroke-linecap="round"/>
    <path d="M443.657 296.218V383.386" stroke="url(#paint7_linear_17_7704)" stroke-width="7" stroke-linecap="round"/>
    <path d="M504.805 296.218V383.386" stroke="url(#paint8_linear_17_7704)" stroke-width="7" stroke-linecap="round"/>
    <path d="M569.856 297.519V385.988" stroke="url(#paint9_linear_17_7704)" stroke-width="7" stroke-linecap="round"/>
    <path d="M625.8 294.917V384.687" stroke="url(#paint10_linear_17_7704)" stroke-width="7" stroke-linecap="round"/>
    <path d="M36.4368 336.549C36.6937 334.494 38.0154 335.867 39.0388 336.549" stroke="url(#paint11_linear_17_7704)" stroke-width="7" stroke-linecap="round"/>
    <path d="M13.0184 337.85C14.5859 337.654 15.0491 336.549 16.9214 336.549" stroke="url(#paint12_linear_17_7704)" stroke-width="7" stroke-linecap="round"/>
    <path d="M58.5542 336.549C58.9005 334.991 59.9816 334.828 61.1562 333.947" stroke="url(#paint13_linear_17_7704)" stroke-width="7" stroke-linecap="round"/>
    <path d="M644.015 341.753C644.25 339.868 646.457 340.452 647.918 340.452" stroke="url(#paint14_linear_17_7704)" stroke-width="7" stroke-linecap="round"/>
    <path d="M660.928 340.452C661.078 341.651 661.35 341.314 662.229 341.753" stroke="url(#paint15_linear_17_7704)" stroke-width="7" stroke-linecap="round"/>
    <path d="M680.443 341.753H681.744" stroke="url(#paint16_linear_17_7704)" stroke-width="7" stroke-linecap="round"/>
    <path d="M124.083 331.249C123.972 330.474 119.91 339.279 125.257 336.53C130.011 334.085 123.314 325.153 121.866 334.965C121.581 336.898 123.543 339.106 125.191 336.986C126.56 335.226 126.043 330.84 123.17 330.923C121.306 330.976 121.467 334.906 122.942 335.552C125.262 336.566 127.508 331.536 125.713 330.14C119.408 325.236 116.444 343.85 125.811 337.605C129.302 335.278 129.083 330.309 125.387 328.249C121.485 326.075 118.74 334.74 118.9 337.377C119.135 341.264 122.504 342.866 125.583 340.376C127.914 338.49 129.8 330.182 125.517 329.325C118.818 327.985 122.723 345.865 124.083 337.703" stroke="url(#paint17_linear_17_7704)" stroke-width="7" stroke-linecap="round"/>
    <path d="M124.67 334.182C125.402 329.787 128.647 325.532 129.82 321.143C131.946 313.191 132.149 304.406 131.646 296.237C131.219 289.3 128.377 282.107 123.953 276.678C118.874 270.446 110.688 267.698 105.632 261.422C101.431 256.207 101.605 251.588 100.905 245.285C100.027 237.384 102.571 230.16 107.653 224.128C114.163 216.402 123.559 213.198 131.059 206.851C133.699 204.618 137.3 200.927 138.166 197.462" stroke="url(#paint18_linear_17_7704)" stroke-width="7" stroke-linecap="round"/>
    <path d="M122.909 201.57C118.78 203.513 123.906 200.414 125.387 199.809C129.999 197.927 134.619 196.041 139.079 193.811C140.323 193.189 145.561 190.067 142.99 192.638C141.03 194.598 141.838 197.622 141.654 200.103C141.463 202.682 140.513 205.144 140.513 207.731C140.513 209.806 141.069 209.233 140.154 208.318C137.587 205.751 133.687 204.872 130.538 203.297C130.05 203.054 125.843 200.292 125.843 200.983" stroke="url(#paint19_linear_17_7704)" stroke-width="7" stroke-linecap="round"/>
    <path d="M127.604 187.487H199.191" stroke="url(#paint20_linear_17_7704)" stroke-width="7" stroke-linecap="round"/>
    <path d="M128.19 107.098V186.314" stroke="url(#paint21_linear_17_7704)" stroke-width="7" stroke-linecap="round"/>
    <path d="M131.124 108.272H204.472" stroke="url(#paint22_linear_17_7704)" stroke-width="7" stroke-linecap="round"/>
    <path d="M199.191 112.379V188.074" stroke="url(#paint23_linear_17_7704)" stroke-width="7" stroke-linecap="round"/>
    <path d="M129.306 93.9454C129.306 90.4464 129.295 84.9917 132.52 82.7857C135.698 80.6112 142.322 83.3005 145.777 83.8124C151.265 84.6253 157.208 77.9065 159.348 73.4562C159.521 73.0953 160.646 69.7221 160.017 70.8895C158.935 72.8997 159.134 75.1207 158.723 77.2951C158.193 80.0957 162.506 81.8384 164.57 82.2054C166.484 82.5457 168.67 81.7823 170.507 81.268C172.635 80.6722 174.591 80.652 176.801 80.6877C180.527 80.7478 184.204 82.1795 186.354 85.2855C187.409 86.8087 188.991 89.0365 189.144 90.9546C189.22 91.8984 189.544 95.5524 188.765 95.5524" stroke="url(#paint24_linear_17_7704)" stroke-width="7" stroke-linecap="round"/>
    <path d="M132.925 10.4814C132.751 11.8735 127.071 16.9059 125.963 18.8625C123.491 23.2246 116.5 38.7269 123.191 42.3295C129.395 45.6704 135.255 35.6884 131.572 30.8539C126.043 23.5972 119.975 31.3235 119 37.1719" stroke="url(#paint25_linear_17_7704)" stroke-width="7" stroke-linecap="round"/>
    <path d="M152.653 7C148.894 7.46983 145.327 22.3121 143.949 25.3739C143.55 26.2607 140.178 30.0331 142.466 30.2091C147.293 30.5804 151.039 28.5245 154.716 25.5673C158.508 22.5166 160.88 19.1519 162.516 14.6074C165.174 7.22449 161.229 15.8797 160.196 18.2177C157.539 24.2292 155.206 31.7105 154.974 38.3323C154.922 39.7971 154.974 49.2194 154.974 42.9741" stroke="url(#paint26_linear_17_7704)" stroke-width="7" stroke-linecap="round"/>
    <path d="M182.825 9.3208C179.429 19.8875 177.089 30.54 175.347 41.4912C174.533 46.6044 172.674 50.969 174.057 42.5872C175.486 33.9321 176.836 23.1591 181.149 15.3165C183.409 11.2072 198.658 13.7679 195.977 16.5414C192.01 20.645 184.599 24.5394 181.858 29.5643C180.596 31.8779 188.423 31.7671 189.788 32.5299C195.908 35.9499 182.046 48.3955 179.666 50.7748C173.705 56.7361 177.154 47.7375 178.183 44.1345" stroke="url(#paint27_linear_17_7704)" stroke-width="7" stroke-linecap="round"/>
    <path d="M93.2335 402.96C93.2335 406.85 92.4447 410.858 95.4053 413.819C99.5866 418 103.485 418.689 108.276 415.267C113.11 411.814 115.463 408.602 122.031 408.751C127.484 408.875 133.761 414.072 134.459 419.651C134.819 422.535 134.499 425.669 134.499 428.58C134.499 433.137 135.346 418.503 138.883 415.629C141.928 413.154 148.833 408.899 151.874 414.221C155.462 420.501 159.113 404.558 159.113 401.512" stroke="url(#paint28_linear_17_7704)" stroke-width="7" stroke-linecap="round"/>
    <path d="M114.952 463.048C115.206 465.081 120.298 459.251 120.703 458.744C122.834 456.081 125.891 450.499 121.468 448.287C119.829 447.468 114.706 447.084 113.504 448.729C111.63 451.295 106.532 457.67 110.206 460.715C114.179 464.007 120.302 463.853 122.513 469.282C124.256 473.56 123.889 482.346 117.446 481.83C112.878 481.465 110.776 476.019 111.493 471.896C112.243 467.587 116.041 464.765 119.296 462.324" stroke="url(#paint29_linear_17_7704)" stroke-width="7" stroke-linecap="round"/>
    <path d="M138.119 450.017C138.119 457.283 137.732 464.625 139.245 471.775C139.82 474.495 140.419 477.917 142.06 480.262C142.17 480.418 142.462 474.331 142.462 473.183" stroke="url(#paint30_linear_17_7704)" stroke-width="7" stroke-linecap="round"/>
    <path d="M136.671 447.845C138.798 447.172 146.757 443.533 148.978 445.271C151.054 446.896 148.163 451.53 147.369 452.913C146.398 454.603 145.314 456.336 143.991 457.779C143.521 458.292 141.89 458.615 142.382 459.106C142.706 459.431 147.351 458.652 148.254 458.865C154.778 460.407 154.429 472.328 150.104 475.918C147.331 478.221 140.122 477.646 141.014 473.183" stroke="url(#paint31_linear_17_7704)" stroke-width="7" stroke-linecap="round"/>
    <path d="M306.488 211.163C308.638 211.431 299.744 222.584 298.549 224.308C297.565 225.727 288.472 238.011 293.603 234.59" stroke="url(#paint32_linear_17_7704)" stroke-width="7" stroke-linecap="round"/>
    <path d="M290.089 217.02C294.122 225.534 297.981 232.206 306.488 236.933" stroke="url(#paint33_linear_17_7704)" stroke-width="7" stroke-linecap="round"/>
    <path d="M329.915 202.963C333.296 200.504 349.365 198.06 350.999 202.963" stroke="url(#paint34_linear_17_7704)" stroke-width="7" stroke-linecap="round"/>
    <path d="M329.915 206.477C329.915 213.576 327.262 223.397 328.809 230.36C329.003 231.232 336.965 222.35 340.392 225.349C344.979 229.362 346.367 235.873 341.889 240.186C339.425 242.559 329.334 242.054 334.6 238.104" stroke="url(#paint35_linear_17_7704)" stroke-width="7" stroke-linecap="round"/>
    <path d="M360.37 211.163C361.217 214.975 359.364 239.275 361.542 239.275" stroke="url(#paint36_linear_17_7704)" stroke-width="7" stroke-linecap="round"/>
    <path d="M376.769 215.848C379.903 214.199 384.215 211.293 387.897 211.293C391.999 211.293 381.566 231.88 380.544 233.809C378.238 238.159 375.591 243.179 382.951 242.008C387.715 241.251 395.622 240.335 399.025 236.933" stroke="url(#paint37_linear_17_7704)" stroke-width="7" stroke-linecap="round"/>
    <path d="M422.452 226.39C424.883 226.962 433.578 229.47 435.207 225.805C436.735 222.366 432.2 219.819 429.35 220.208C412.822 222.462 428.767 249.358 435.337 242.789" stroke="url(#paint38_linear_17_7704)" stroke-width="7" stroke-linecap="round"/>
    <path d="M448.222 212.334C448.305 219.322 447.929 226.847 451.15 233.288C452.249 235.485 452.907 236.768 452.907 239.275" stroke="url(#paint39_linear_17_7704)" stroke-width="7" stroke-linecap="round"/>
    <path d="M461.106 228.733C465.195 227.915 471.148 226.822 472.82 222.225C474.089 218.735 472.137 216.135 468.395 218.451C464.161 221.072 463.43 229.117 465.336 233.353C467.776 238.775 472.777 237.983 477.505 236.932" stroke="url(#paint40_linear_17_7704)" stroke-width="7" stroke-linecap="round"/>
    <path d="M484.534 218.191C485.054 224.514 483.316 232.749 485.64 238.559C487.185 242.423 488.352 230.673 490.13 226.911C494.719 217.204 498.59 225.984 498.59 232.898C498.59 236.608 500.066 225.174 502.689 222.551C506.032 219.208 509.048 223.879 510.303 226.39C511.134 228.051 515.706 239.011 518.503 233.418" stroke="url(#paint41_linear_17_7704)" stroke-width="7" stroke-linecap="round"/>
    <path d="M520.845 225.219C526.121 224.57 530.793 225.459 533.73 220.794C536.431 216.505 532.384 216.662 529.045 217.735C519.488 220.807 521.011 235.802 530.216 238.104" stroke="url(#paint42_linear_17_7704)" stroke-width="7" stroke-linecap="round"/>
    <path d="M543.101 219.362C545.072 224.289 542.55 228.58 543.361 233.549C544.155 238.409 547.889 229.485 548.828 228.668C554.058 224.12 558.243 224.857 559.5 231.141C559.727 232.277 561.843 241.052 561.843 236.933" stroke="url(#paint43_linear_17_7704)" stroke-width="7" stroke-linecap="round"/>
    <path d="M572.385 205.306C573.843 212.414 575.495 219.515 575.899 226.78C576.011 228.799 575.976 231.275 577.721 232.702C580.248 234.77 581.756 232.075 581.756 229.904" stroke="url(#paint44_linear_17_7704)" stroke-width="7" stroke-linecap="round"/>
    <path d="M565.357 221.705C570.97 222.291 576.699 223.062 581.756 220.533" stroke="url(#paint45_linear_17_7704)" stroke-width="7" stroke-linecap="round"/>
    <path d="M600.497 213.505C593.73 216.012 588.709 222.035 597.504 225.805C605.737 229.333 593.49 241.638 588.784 236.932" stroke="url(#paint46_linear_17_7704)" stroke-width="7" stroke-linecap="round"/>
    <path d="M311.173 27.2605C317.533 27.2605 323.966 23.9298 330.566 23.7464C337.742 23.5471 337.538 34.1741 339.546 39.2343C344.059 50.6061 337.617 61.0656 326.922 66.5658C323.695 68.2254 318.276 69.5466 316.575 65.1993C314.515 59.9351 319.764 55.3724 322.887 51.8589" stroke="url(#paint47_linear_17_7704)" stroke-width="7" stroke-linecap="round"/>
    <path d="M360.37 46.002C353.326 46.1697 346.835 50.2168 346.835 58.3662C346.835 66.2601 357.187 63.402 360.37 59.7979C363.019 56.7992 365.5 53.0909 366.097 49.0605C366.59 45.7286 365.932 46.1458 366.487 49.2557C367.409 54.4178 371.869 56.2225 374.426 60.0582" stroke="url(#paint48_linear_17_7704)" stroke-width="7" stroke-linecap="round"/>
    <path d="M379.112 43.6595C379.615 44.679 386.508 63.0742 389.133 60.4489C393.643 55.9394 397.455 45.253 399.025 38.9741" stroke="url(#paint49_linear_17_7704)" stroke-width="7" stroke-linecap="round"/>
    <path d="M414.252 40.145C409.409 43.5424 399.634 50.195 401.498 57.6502C402.994 63.6352 412.123 54.7055 413.537 53.0299C415.918 50.2075 418.752 42.6168 418.938 50.0364C419.106 56.7828 420.193 60.058 427.137 60.058" stroke="url(#paint50_linear_17_7704)" stroke-width="7" stroke-linecap="round"/>
    <path d="M483.362 13.2041C473.132 29.3842 460.713 45.2784 451.996 62.4009C450.666 65.0141 449.132 67.8685 448.222 70.6003" stroke="url(#paint51_linear_17_7704)" stroke-width="7" stroke-linecap="round"/>
    <path d="M482.191 38.974C489.489 38.974 497.211 36.4731 504.186 34.5488C504.253 34.5305 507.919 48.4228 508.611 50.9478C511.654 62.0449 501.09 68.1338 491.171 68.2577C488.161 68.2954 483.795 67.1912 483.883 63.312C483.988 58.6984 489.418 57.7496 492.733 56.5442" stroke="url(#paint52_linear_17_7704)" stroke-width="7" stroke-linecap="round"/>
    <path d="M529.045 36.631C534.397 33.6202 529.235 33.2858 525.466 36.1755C521.765 39.013 509.484 48.9046 518.633 52.1189C525.685 54.5968 536.323 55.0409 528.199 65.1339C522.027 72.8025 516.399 69.6431 518.503 61.2294" stroke="url(#paint53_linear_17_7704)" stroke-width="7" stroke-linecap="round"/>
    <path d="M571.214 16.7183C570.322 31.874 564.077 46.6744 559.045 60.8392C558.238 63.1088 552.69 78.7999 553.643 78.7999" stroke="url(#paint54_linear_17_7704)" stroke-width="7" stroke-linecap="round"/>
    <path d="M582.927 38.9741C583.424 50.7203 582.495 63.4771 584.163 75.1559C584.607 78.2609 585.27 73.7123 585.27 72.9433" stroke="url(#paint55_linear_17_7704)" stroke-width="7" stroke-linecap="round"/>
    <path d="M581.756 37.8025C587.466 37.2358 602.642 33.0348 604.272 41.8371C605.156 46.6106 604.15 50.2444 599.716 52.7697C597.315 54.1374 577.881 60.6216 586.441 54.2014" stroke="url(#paint56_linear_17_7704)" stroke-width="7" stroke-linecap="round"/>
    <path d="M614.554 54.2017C614.135 58.9583 609.635 74.7223 619.239 69.234C625.321 65.7588 624.801 54.0437 623.924 65.6549C623.326 73.5797 624.196 90.2104 616.376 95.199C606.033 101.797 589.914 92.9369 579.413 90.5136" stroke="url(#paint57_linear_17_7704)" stroke-width="7" stroke-linecap="round"/>
    <path d="M217.346 452C217.346 460.75 215.109 477.134 222.005 484.03C229.658 491.683 236.62 462.234 238.239 458.188C239.654 454.648 237.415 465.824 237.802 469.616C238.173 473.255 239.025 481.495 244.863 479.953C251.785 478.125 260.785 456.03 252.725 452" stroke="url(#paint58_linear_17_7704)" stroke-width="7" stroke-linecap="round"/>
    <path d="M268.449 457.241C270.877 466.193 274.664 478.392 271.07 487.378" stroke="url(#paint59_linear_17_7704)" stroke-width="7" stroke-linecap="round"/>
    <path d="M267.139 474.276C275.191 472.393 283.394 471.124 289.414 465.104" stroke="url(#paint60_linear_17_7704)" stroke-width="7" stroke-linecap="round"/>
    <path d="M290.724 455.931C289.724 460.579 281.639 486.097 289.414 488.688" stroke="url(#paint61_linear_17_7704)" stroke-width="7" stroke-linecap="round"/>
    <path d="M301.207 489.999C302.245 485.848 305.843 460.016 313.291 462.774C319.34 465.014 322.172 480.299 322.172 486.068" stroke="url(#paint62_linear_17_7704)" stroke-width="7" stroke-linecap="round"/>
    <path d="M303.827 480.827L324.792 478.206" stroke="url(#paint63_linear_17_7704)" stroke-width="7" stroke-linecap="round"/>
    <path d="M341.826 462.482C347.364 462.329 365.521 462.264 368.032 457.241" stroke="url(#paint64_linear_17_7704)" stroke-width="7" stroke-linecap="round"/>
    <path d="M353.62 462.482C351.083 475.166 345.758 513.416 345.758 500.481" stroke="url(#paint65_linear_17_7704)" stroke-width="7" stroke-linecap="round"/>
    <path d="M394.239 489.999C394.525 487.716 396.554 484.37 397.806 482.574C401.932 476.654 406.072 468.042 412.292 464.084C419.862 459.267 417.825 485.123 417.825 489.999" stroke="url(#paint66_linear_17_7704)" stroke-width="7" stroke-linecap="round"/>
    <path d="M402.101 480.827C410.539 479.841 420.313 480.094 428.307 476.896" stroke="url(#paint67_linear_17_7704)" stroke-width="7" stroke-linecap="round"/>
    <path d="M441.411 459.862C441.22 463.344 443.288 487.75 438.79 489.999" stroke="url(#paint68_linear_17_7704)" stroke-width="7" stroke-linecap="round"/>
    <path d="M437.479 466.413C440.736 465.599 459.657 457.215 454.368 465.904C452.034 469.738 445.716 476.677 452.184 479.517C457.404 481.808 459.897 488.696 454.441 493.129C449.46 497.176 445.484 493.055 441.41 489.999" stroke="url(#paint69_linear_17_7704)" stroke-width="7" stroke-linecap="round"/>
    <path d="M472.858 465.104C469.607 471.98 464.994 480.601 466.961 488.471C467.793 491.797 470.321 493.264 473.149 490.436C478.47 485.115 478.988 476.288 476.716 469.471C476.116 467.671 474.259 463.612 472.858 466.414" stroke="url(#paint70_linear_17_7704)" stroke-width="7" stroke-linecap="round"/>
    <path d="M492.513 462.482C492.698 464.962 491.534 502.17 502.995 486.214C506.776 480.95 510.007 470.508 507.508 464.084C506.651 461.879 505.075 462.253 504.306 463.793" stroke="url(#paint71_linear_17_7704)" stroke-width="7" stroke-linecap="round"/>
    <path d="M522.649 461.172H542.304" stroke="url(#paint72_linear_17_7704)" stroke-width="7" stroke-linecap="round"/>
    <path d="M530.511 465.104C530.511 471.172 534.357 490.93 527.891 495.241" stroke="url(#paint73_linear_17_7704)" stroke-width="7" stroke-linecap="round"/>
    <path d="M568.511 466.414C570.166 470.828 597.403 463.793 602.579 463.793" stroke="url(#paint74_linear_17_7704)" stroke-width="7" stroke-linecap="round"/>
    <path d="M588.165 467.724C586.227 481.856 584.234 495.818 584.234 510.09C584.234 514.607 586.637 506.375 586.855 505.723" stroke="url(#paint75_linear_17_7704)" stroke-width="7" stroke-linecap="round"/>
    <path d="M613.061 462.482C613.061 475.203 611.766 487.327 610.149 499.899C609.725 503.197 609.283 513.788 605.199 508.343" stroke="url(#paint76_linear_17_7704)" stroke-width="7" stroke-linecap="round"/>
    <path d="M606.51 487.378C613.96 487.267 619.49 487.501 624.854 482.137" stroke="url(#paint77_linear_17_7704)" stroke-width="7" stroke-linecap="round"/>
    <path d="M630.095 466.414C627.737 478.294 624.854 490.067 624.854 502.229C624.854 502.751 624.854 508.927 624.854 507.033" stroke="url(#paint78_linear_17_7704)" stroke-width="7" stroke-linecap="round"/>
    <path d="M643.199 470.345C642.189 481.703 641.336 493.042 640.578 504.413" stroke="url(#paint79_linear_17_7704)" stroke-width="7" stroke-linecap="round"/>
    <path d="M672.025 467.724C667.716 467.878 662.425 468.407 659.723 472.31C656.628 476.78 665.855 480.801 667.658 483.957C670.3 488.581 653.925 512.9 657.612 492.62" stroke="url(#paint80_linear_17_7704)" stroke-width="7" stroke-linecap="round"/>
    <path d="M691.68 463.793C695.224 463.438 698.346 461.318 702.017 461.318C709.454 461.318 703.652 472.806 702.453 476.022C701.761 477.881 695.848 500.78 702.162 491.309" stroke="url(#paint81_linear_17_7704)" stroke-width="7" stroke-linecap="round"/>
    <path d="M689.06 508.344C690.812 509.707 691.155 508.609 691.68 507.033" stroke="url(#paint82_linear_17_7704)" stroke-width="7" stroke-linecap="round"/>
    <defs>
        <linearGradient id="paint0_linear_17_7704" x1="357.79" y1="293.615" x2="357.79" y2="294.615" gradientUnits="userSpaceOnUse">
            <stop/>
            <stop offset="1" stop-color="#6A6A6A"/>
        </linearGradient>
        <linearGradient id="paint1_linear_17_7704" x1="354.537" y1="387.289" x2="354.537" y2="388.289" gradientUnits="userSpaceOnUse">
            <stop/>
            <stop offset="1" stop-color="#6A6A6A"/>
        </linearGradient>
        <linearGradient id="paint2_linear_17_7704" x1="85.0747" y1="296.218" x2="85.0747" y2="385.988" gradientUnits="userSpaceOnUse">
            <stop/>
            <stop offset="1" stop-color="#6A6A6A"/>
        </linearGradient>
        <linearGradient id="paint3_linear_17_7704" x1="169.641" y1="297.519" x2="169.641" y2="387.289" gradientUnits="userSpaceOnUse">
            <stop/>
            <stop offset="1" stop-color="#6A6A6A"/>
        </linearGradient>
        <linearGradient id="paint4_linear_17_7704" x1="245.101" y1="296.218" x2="245.101" y2="387.289" gradientUnits="userSpaceOnUse">
            <stop/>
            <stop offset="1" stop-color="#6A6A6A"/>
        </linearGradient>
        <linearGradient id="paint5_linear_17_7704" x1="311.453" y1="293.615" x2="311.453" y2="387.289" gradientUnits="userSpaceOnUse">
            <stop/>
            <stop offset="1" stop-color="#6A6A6A"/>
        </linearGradient>
        <linearGradient id="paint6_linear_17_7704" x1="379.106" y1="296.218" x2="379.106" y2="387.289" gradientUnits="userSpaceOnUse">
            <stop/>
            <stop offset="1" stop-color="#6A6A6A"/>
        </linearGradient>
        <linearGradient id="paint7_linear_17_7704" x1="444.157" y1="296.218" x2="444.157" y2="383.386" gradientUnits="userSpaceOnUse">
            <stop/>
            <stop offset="1" stop-color="#6A6A6A"/>
        </linearGradient>
        <linearGradient id="paint8_linear_17_7704" x1="505.305" y1="296.218" x2="505.305" y2="383.386" gradientUnits="userSpaceOnUse">
            <stop/>
            <stop offset="1" stop-color="#6A6A6A"/>
        </linearGradient>
        <linearGradient id="paint9_linear_17_7704" x1="570.356" y1="297.519" x2="570.356" y2="385.988" gradientUnits="userSpaceOnUse">
            <stop/>
            <stop offset="1" stop-color="#6A6A6A"/>
        </linearGradient>
        <linearGradient id="paint10_linear_17_7704" x1="626.3" y1="294.917" x2="626.3" y2="384.687" gradientUnits="userSpaceOnUse">
            <stop/>
            <stop offset="1" stop-color="#6A6A6A"/>
        </linearGradient>
        <linearGradient id="paint11_linear_17_7704" x1="37.7378" y1="335.465" x2="37.7378" y2="336.549" gradientUnits="userSpaceOnUse">
            <stop/>
            <stop offset="1" stop-color="#6A6A6A"/>
        </linearGradient>
        <linearGradient id="paint12_linear_17_7704" x1="14.9699" y1="336.549" x2="14.9699" y2="337.85" gradientUnits="userSpaceOnUse">
            <stop/>
            <stop offset="1" stop-color="#6A6A6A"/>
        </linearGradient>
        <linearGradient id="paint13_linear_17_7704" x1="59.8552" y1="333.947" x2="59.8552" y2="336.549" gradientUnits="userSpaceOnUse">
            <stop/>
            <stop offset="1" stop-color="#6A6A6A"/>
        </linearGradient>
        <linearGradient id="paint14_linear_17_7704" x1="645.966" y1="340.367" x2="645.966" y2="341.753" gradientUnits="userSpaceOnUse">
            <stop/>
            <stop offset="1" stop-color="#6A6A6A"/>
        </linearGradient>
        <linearGradient id="paint15_linear_17_7704" x1="661.578" y1="340.452" x2="661.578" y2="341.753" gradientUnits="userSpaceOnUse">
            <stop/>
            <stop offset="1" stop-color="#6A6A6A"/>
        </linearGradient>
        <linearGradient id="paint16_linear_17_7704" x1="681.094" y1="341.753" x2="681.094" y2="342.753" gradientUnits="userSpaceOnUse">
            <stop/>
            <stop offset="1" stop-color="#6A6A6A"/>
        </linearGradient>
        <linearGradient id="paint17_linear_17_7704" x1="123.596" y1="327.903" x2="123.596" y2="341.569" gradientUnits="userSpaceOnUse">
            <stop/>
            <stop offset="1" stop-color="#6A6A6A"/>
        </linearGradient>
        <linearGradient id="paint18_linear_17_7704" x1="119.45" y1="197.462" x2="119.45" y2="334.182" gradientUnits="userSpaceOnUse">
            <stop/>
            <stop offset="1" stop-color="#6A6A6A"/>
        </linearGradient>
        <linearGradient id="paint19_linear_17_7704" x1="132.513" y1="191.637" x2="132.513" y2="209.146" gradientUnits="userSpaceOnUse">
            <stop/>
            <stop offset="1" stop-color="#6A6A6A"/>
        </linearGradient>
        <linearGradient id="paint20_linear_17_7704" x1="163.397" y1="187.487" x2="163.397" y2="188.487" gradientUnits="userSpaceOnUse">
            <stop/>
            <stop offset="1" stop-color="#6A6A6A"/>
        </linearGradient>
        <linearGradient id="paint21_linear_17_7704" x1="128.69" y1="107.098" x2="128.69" y2="186.314" gradientUnits="userSpaceOnUse">
            <stop/>
            <stop offset="1" stop-color="#6A6A6A"/>
        </linearGradient>
        <linearGradient id="paint22_linear_17_7704" x1="167.798" y1="108.272" x2="167.798" y2="109.272" gradientUnits="userSpaceOnUse">
            <stop/>
            <stop offset="1" stop-color="#6A6A6A"/>
        </linearGradient>
        <linearGradient id="paint23_linear_17_7704" x1="199.691" y1="112.379" x2="199.691" y2="188.074" gradientUnits="userSpaceOnUse">
            <stop/>
            <stop offset="1" stop-color="#6A6A6A"/>
        </linearGradient>
        <linearGradient id="paint24_linear_17_7704" x1="159.29" y1="70.645" x2="159.29" y2="95.5524" gradientUnits="userSpaceOnUse">
            <stop/>
            <stop offset="1" stop-color="#6A6A6A"/>
        </linearGradient>
        <linearGradient id="paint25_linear_17_7704" x1="125.963" y1="10.4814" x2="125.963" y2="43" gradientUnits="userSpaceOnUse">
            <stop/>
            <stop offset="1" stop-color="#6A6A6A"/>
        </linearGradient>
        <linearGradient id="paint26_linear_17_7704" x1="152.549" y1="7" x2="152.549" y2="45.0905" gradientUnits="userSpaceOnUse">
            <stop/>
            <stop offset="1" stop-color="#6A6A6A"/>
        </linearGradient>
        <linearGradient id="paint27_linear_17_7704" x1="184.926" y1="9.3208" x2="184.926" y2="52.7635" gradientUnits="userSpaceOnUse">
            <stop/>
            <stop offset="1" stop-color="#6A6A6A"/>
        </linearGradient>
        <linearGradient id="paint28_linear_17_7704" x1="126.126" y1="401.512" x2="126.126" y2="429.452" gradientUnits="userSpaceOnUse">
            <stop/>
            <stop offset="1" stop-color="#6A6A6A"/>
        </linearGradient>
        <linearGradient id="paint29_linear_17_7704" x1="116.32" y1="447.584" x2="116.32" y2="481.852" gradientUnits="userSpaceOnUse">
            <stop/>
            <stop offset="1" stop-color="#6A6A6A"/>
        </linearGradient>
        <linearGradient id="paint30_linear_17_7704" x1="140.268" y1="450.017" x2="140.268" y2="480.265" gradientUnits="userSpaceOnUse">
            <stop/>
            <stop offset="1" stop-color="#6A6A6A"/>
        </linearGradient>
        <linearGradient id="paint31_linear_17_7704" x1="144.969" y1="444.805" x2="144.969" y2="477.241" gradientUnits="userSpaceOnUse">
            <stop/>
            <stop offset="1" stop-color="#6A6A6A"/>
        </linearGradient>
        <linearGradient id="paint32_linear_17_7704" x1="299.433" y1="211.163" x2="299.433" y2="235.189" gradientUnits="userSpaceOnUse">
            <stop/>
            <stop offset="1" stop-color="#6A6A6A"/>
        </linearGradient>
        <linearGradient id="paint33_linear_17_7704" x1="298.289" y1="217.02" x2="298.289" y2="236.933" gradientUnits="userSpaceOnUse">
            <stop/>
            <stop offset="1" stop-color="#6A6A6A"/>
        </linearGradient>
        <linearGradient id="paint34_linear_17_7704" x1="340.457" y1="200.13" x2="340.457" y2="202.963" gradientUnits="userSpaceOnUse">
            <stop/>
            <stop offset="1" stop-color="#6A6A6A"/>
        </linearGradient>
        <linearGradient id="paint35_linear_17_7704" x1="336.475" y1="206.477" x2="336.475" y2="241.616" gradientUnits="userSpaceOnUse">
            <stop/>
            <stop offset="1" stop-color="#6A6A6A"/>
        </linearGradient>
        <linearGradient id="paint36_linear_17_7704" x1="360.956" y1="211.163" x2="360.956" y2="239.275" gradientUnits="userSpaceOnUse">
            <stop/>
            <stop offset="1" stop-color="#6A6A6A"/>
        </linearGradient>
        <linearGradient id="paint37_linear_17_7704" x1="387.897" y1="211.293" x2="387.897" y2="242.181" gradientUnits="userSpaceOnUse">
            <stop/>
            <stop offset="1" stop-color="#6A6A6A"/>
        </linearGradient>
        <linearGradient id="paint38_linear_17_7704" x1="428.8" y1="220.169" x2="428.8" y2="243.82" gradientUnits="userSpaceOnUse">
            <stop/>
            <stop offset="1" stop-color="#6A6A6A"/>
        </linearGradient>
        <linearGradient id="paint39_linear_17_7704" x1="450.564" y1="212.334" x2="450.564" y2="239.275" gradientUnits="userSpaceOnUse">
            <stop/>
            <stop offset="1" stop-color="#6A6A6A"/>
        </linearGradient>
        <linearGradient id="paint40_linear_17_7704" x1="469.306" y1="217.57" x2="469.306" y2="237.691" gradientUnits="userSpaceOnUse">
            <stop/>
            <stop offset="1" stop-color="#6A6A6A"/>
        </linearGradient>
        <linearGradient id="paint41_linear_17_7704" x1="501.448" y1="218.191" x2="501.448" y2="239.329" gradientUnits="userSpaceOnUse">
            <stop/>
            <stop offset="1" stop-color="#6A6A6A"/>
        </linearGradient>
        <linearGradient id="paint42_linear_17_7704" x1="527.73" y1="217.096" x2="527.73" y2="238.104" gradientUnits="userSpaceOnUse">
            <stop/>
            <stop offset="1" stop-color="#6A6A6A"/>
        </linearGradient>
        <linearGradient id="paint43_linear_17_7704" x1="552.472" y1="219.362" x2="552.472" y2="238.025" gradientUnits="userSpaceOnUse">
            <stop/>
            <stop offset="1" stop-color="#6A6A6A"/>
        </linearGradient>
        <linearGradient id="paint44_linear_17_7704" x1="577.07" y1="205.306" x2="577.07" y2="233.443" gradientUnits="userSpaceOnUse">
            <stop/>
            <stop offset="1" stop-color="#6A6A6A"/>
        </linearGradient>
        <linearGradient id="paint45_linear_17_7704" x1="573.556" y1="220.533" x2="573.556" y2="222.292" gradientUnits="userSpaceOnUse">
            <stop/>
            <stop offset="1" stop-color="#6A6A6A"/>
        </linearGradient>
        <linearGradient id="paint46_linear_17_7704" x1="594.641" y1="213.505" x2="594.641" y2="237.991" gradientUnits="userSpaceOnUse">
            <stop/>
            <stop offset="1" stop-color="#6A6A6A"/>
        </linearGradient>
        <linearGradient id="paint47_linear_17_7704" x1="326.089" y1="23.7437" x2="326.089" y2="68.1352" gradientUnits="userSpaceOnUse">
            <stop/>
            <stop offset="1" stop-color="#6A6A6A"/>
        </linearGradient>
        <linearGradient id="paint48_linear_17_7704" x1="360.631" y1="46.002" x2="360.631" y2="63.4101" gradientUnits="userSpaceOnUse">
            <stop/>
            <stop offset="1" stop-color="#6A6A6A"/>
        </linearGradient>
        <linearGradient id="paint49_linear_17_7704" x1="389.068" y1="38.9741" x2="389.068" y2="60.7051" gradientUnits="userSpaceOnUse">
            <stop/>
            <stop offset="1" stop-color="#6A6A6A"/>
        </linearGradient>
        <linearGradient id="paint50_linear_17_7704" x1="414.201" y1="40.145" x2="414.201" y2="60.058" gradientUnits="userSpaceOnUse">
            <stop/>
            <stop offset="1" stop-color="#6A6A6A"/>
        </linearGradient>
        <linearGradient id="paint51_linear_17_7704" x1="465.792" y1="13.2041" x2="465.792" y2="70.6003" gradientUnits="userSpaceOnUse">
            <stop/>
            <stop offset="1" stop-color="#6A6A6A"/>
        </linearGradient>
        <linearGradient id="paint52_linear_17_7704" x1="495.667" y1="34.5488" x2="495.667" y2="68.2587" gradientUnits="userSpaceOnUse">
            <stop/>
            <stop offset="1" stop-color="#6A6A6A"/>
        </linearGradient>
        <linearGradient id="paint53_linear_17_7704" x1="523.331" y1="34.1807" x2="523.331" y2="69.4964" gradientUnits="userSpaceOnUse">
            <stop/>
            <stop offset="1" stop-color="#6A6A6A"/>
        </linearGradient>
        <linearGradient id="paint54_linear_17_7704" x1="562.374" y1="16.7183" x2="562.374" y2="78.7999" gradientUnits="userSpaceOnUse">
            <stop/>
            <stop offset="1" stop-color="#6A6A6A"/>
        </linearGradient>
        <linearGradient id="paint55_linear_17_7704" x1="584.098" y1="38.9741" x2="584.098" y2="76.2282" gradientUnits="userSpaceOnUse">
            <stop/>
            <stop offset="1" stop-color="#6A6A6A"/>
        </linearGradient>
        <linearGradient id="paint56_linear_17_7704" x1="593.16" y1="36.3062" x2="593.16" y2="56.9911" gradientUnits="userSpaceOnUse">
            <stop/>
            <stop offset="1" stop-color="#6A6A6A"/>
        </linearGradient>
        <linearGradient id="paint57_linear_17_7704" x1="601.932" y1="54.2017" x2="601.932" y2="97.5955" gradientUnits="userSpaceOnUse">
            <stop/>
            <stop offset="1" stop-color="#6A6A6A"/>
        </linearGradient>
        <linearGradient id="paint58_linear_17_7704" x1="236.451" y1="452" x2="236.451" y2="485.293" gradientUnits="userSpaceOnUse">
            <stop/>
            <stop offset="1" stop-color="#6A6A6A"/>
        </linearGradient>
        <linearGradient id="paint59_linear_17_7704" x1="270.499" y1="457.241" x2="270.499" y2="487.378" gradientUnits="userSpaceOnUse">
            <stop/>
            <stop offset="1" stop-color="#6A6A6A"/>
        </linearGradient>
        <linearGradient id="paint60_linear_17_7704" x1="278.276" y1="465.104" x2="278.276" y2="474.276" gradientUnits="userSpaceOnUse">
            <stop/>
            <stop offset="1" stop-color="#6A6A6A"/>
        </linearGradient>
        <linearGradient id="paint61_linear_17_7704" x1="288.397" y1="455.931" x2="288.397" y2="488.688" gradientUnits="userSpaceOnUse">
            <stop/>
            <stop offset="1" stop-color="#6A6A6A"/>
        </linearGradient>
        <linearGradient id="paint62_linear_17_7704" x1="311.69" y1="462.568" x2="311.69" y2="489.999" gradientUnits="userSpaceOnUse">
            <stop/>
            <stop offset="1" stop-color="#6A6A6A"/>
        </linearGradient>
        <linearGradient id="paint63_linear_17_7704" x1="314.31" y1="478.206" x2="314.31" y2="480.827" gradientUnits="userSpaceOnUse">
            <stop/>
            <stop offset="1" stop-color="#6A6A6A"/>
        </linearGradient>
        <linearGradient id="paint64_linear_17_7704" x1="354.929" y1="457.241" x2="354.929" y2="462.482" gradientUnits="userSpaceOnUse">
            <stop/>
            <stop offset="1" stop-color="#6A6A6A"/>
        </linearGradient>
        <linearGradient id="paint65_linear_17_7704" x1="349.689" y1="462.482" x2="349.689" y2="503.115" gradientUnits="userSpaceOnUse">
            <stop/>
            <stop offset="1" stop-color="#6A6A6A"/>
        </linearGradient>
        <linearGradient id="paint66_linear_17_7704" x1="406.157" y1="463.489" x2="406.157" y2="489.999" gradientUnits="userSpaceOnUse">
            <stop/>
            <stop offset="1" stop-color="#6A6A6A"/>
        </linearGradient>
        <linearGradient id="paint67_linear_17_7704" x1="415.204" y1="476.896" x2="415.204" y2="480.827" gradientUnits="userSpaceOnUse">
            <stop/>
            <stop offset="1" stop-color="#6A6A6A"/>
        </linearGradient>
        <linearGradient id="paint68_linear_17_7704" x1="440.256" y1="459.862" x2="440.256" y2="489.999" gradientUnits="userSpaceOnUse">
            <stop/>
            <stop offset="1" stop-color="#6A6A6A"/>
        </linearGradient>
        <linearGradient id="paint69_linear_17_7704" x1="447.494" y1="461.993" x2="447.494" y2="494.815" gradientUnits="userSpaceOnUse">
            <stop/>
            <stop offset="1" stop-color="#6A6A6A"/>
        </linearGradient>
        <linearGradient id="paint70_linear_17_7704" x1="472.24" y1="465.104" x2="472.24" y2="491.935" gradientUnits="userSpaceOnUse">
            <stop/>
            <stop offset="1" stop-color="#6A6A6A"/>
        </linearGradient>
        <linearGradient id="paint71_linear_17_7704" x1="500.451" y1="462.482" x2="500.451" y2="490.177" gradientUnits="userSpaceOnUse">
            <stop/>
            <stop offset="1" stop-color="#6A6A6A"/>
        </linearGradient>
        <linearGradient id="paint72_linear_17_7704" x1="532.477" y1="461.172" x2="532.477" y2="462.172" gradientUnits="userSpaceOnUse">
            <stop/>
            <stop offset="1" stop-color="#6A6A6A"/>
        </linearGradient>
        <linearGradient id="paint73_linear_17_7704" x1="529.768" y1="465.104" x2="529.768" y2="495.241" gradientUnits="userSpaceOnUse">
            <stop/>
            <stop offset="1" stop-color="#6A6A6A"/>
        </linearGradient>
        <linearGradient id="paint74_linear_17_7704" x1="585.545" y1="463.793" x2="585.545" y2="467.869" gradientUnits="userSpaceOnUse">
            <stop/>
            <stop offset="1" stop-color="#6A6A6A"/>
        </linearGradient>
        <linearGradient id="paint75_linear_17_7704" x1="586.2" y1="467.724" x2="586.2" y2="511.438" gradientUnits="userSpaceOnUse">
            <stop/>
            <stop offset="1" stop-color="#6A6A6A"/>
        </linearGradient>
        <linearGradient id="paint76_linear_17_7704" x1="609.13" y1="462.482" x2="609.13" y2="509.873" gradientUnits="userSpaceOnUse">
            <stop/>
            <stop offset="1" stop-color="#6A6A6A"/>
        </linearGradient>
        <linearGradient id="paint77_linear_17_7704" x1="615.682" y1="482.137" x2="615.682" y2="487.378" gradientUnits="userSpaceOnUse">
            <stop/>
            <stop offset="1" stop-color="#6A6A6A"/>
        </linearGradient>
        <linearGradient id="paint78_linear_17_7704" x1="627.474" y1="466.414" x2="627.474" y2="507.393" gradientUnits="userSpaceOnUse">
            <stop/>
            <stop offset="1" stop-color="#6A6A6A"/>
        </linearGradient>
        <linearGradient id="paint79_linear_17_7704" x1="641.888" y1="470.345" x2="641.888" y2="504.413" gradientUnits="userSpaceOnUse">
            <stop/>
            <stop offset="1" stop-color="#6A6A6A"/>
        </linearGradient>
        <linearGradient id="paint80_linear_17_7704" x1="664.547" y1="467.724" x2="664.547" y2="500.58" gradientUnits="userSpaceOnUse">
            <stop/>
            <stop offset="1" stop-color="#6A6A6A"/>
        </linearGradient>
        <linearGradient id="paint81_linear_17_7704" x1="698.709" y1="461.318" x2="698.709" y2="493.596" gradientUnits="userSpaceOnUse">
            <stop/>
            <stop offset="1" stop-color="#6A6A6A"/>
        </linearGradient>
        <linearGradient id="paint82_linear_17_7704" x1="690.37" y1="507.033" x2="690.37" y2="508.961" gradientUnits="userSpaceOnUse">
            <stop/>
            <stop offset="1" stop-color="#6A6A6A"/>
        </linearGradient>
    </defs>
</svg>
