<svg width="720" height="540" viewBox="0 0 720 540" fill="none" xmlns="http://www.w3.org/2000/svg">
    <rect width="720" height="540" fill="white"/>
    <path d="M31.2327 293.615H684.346" stroke="url(#paint0_linear_17_7800)" stroke-width="7" stroke-linecap="round"/>
    <path d="M37.7378 387.289H671.336" stroke="url(#paint1_linear_17_7800)" stroke-width="7" stroke-linecap="round"/>
    <path d="M84.5746 296.218V385.988" stroke="url(#paint2_linear_17_7800)" stroke-width="7" stroke-linecap="round"/>
    <path d="M169.141 297.519V387.289" stroke="url(#paint3_linear_17_7800)" stroke-width="7" stroke-linecap="round"/>
    <path d="M244.601 296.218V387.289" stroke="url(#paint4_linear_17_7800)" stroke-width="7" stroke-linecap="round"/>
    <path d="M310.953 293.615V387.289" stroke="url(#paint5_linear_17_7800)" stroke-width="7" stroke-linecap="round"/>
    <path d="M378.606 296.218V387.289" stroke="url(#paint6_linear_17_7800)" stroke-width="7" stroke-linecap="round"/>
    <path d="M443.657 296.218V383.386" stroke="url(#paint7_linear_17_7800)" stroke-width="7" stroke-linecap="round"/>
    <path d="M504.805 296.218V383.386" stroke="url(#paint8_linear_17_7800)" stroke-width="7" stroke-linecap="round"/>
    <path d="M569.856 297.519V385.988" stroke="url(#paint9_linear_17_7800)" stroke-width="7" stroke-linecap="round"/>
    <path d="M625.8 294.917V384.687" stroke="url(#paint10_linear_17_7800)" stroke-width="7" stroke-linecap="round"/>
    <path d="M36.4368 336.549C36.6937 334.494 38.0154 335.867 39.0388 336.549" stroke="url(#paint11_linear_17_7800)" stroke-width="7" stroke-linecap="round"/>
    <path d="M13.0184 337.85C14.5859 337.654 15.0491 336.549 16.9214 336.549" stroke="url(#paint12_linear_17_7800)" stroke-width="7" stroke-linecap="round"/>
    <path d="M58.5542 336.549C58.9005 334.991 59.9816 334.828 61.1562 333.947" stroke="url(#paint13_linear_17_7800)" stroke-width="7" stroke-linecap="round"/>
    <path d="M644.015 341.753C644.25 339.868 646.457 340.452 647.918 340.452" stroke="url(#paint14_linear_17_7800)" stroke-width="7" stroke-linecap="round"/>
    <path d="M660.928 340.452C661.078 341.651 661.35 341.314 662.229 341.753" stroke="url(#paint15_linear_17_7800)" stroke-width="7" stroke-linecap="round"/>
    <path d="M680.443 341.753H681.744" stroke="url(#paint16_linear_17_7800)" stroke-width="7" stroke-linecap="round"/>
    <path d="M124.083 331.249C123.972 330.474 119.91 339.279 125.257 336.53C130.011 334.085 123.314 325.153 121.866 334.965C121.581 336.898 123.543 339.106 125.191 336.986C126.56 335.226 126.043 330.84 123.17 330.923C121.306 330.976 121.467 334.906 122.942 335.552C125.262 336.566 127.508 331.536 125.713 330.14C119.408 325.236 116.444 343.85 125.811 337.605C129.302 335.278 129.083 330.309 125.387 328.249C121.485 326.075 118.74 334.74 118.9 337.377C119.135 341.264 122.504 342.866 125.583 340.376C127.914 338.49 129.8 330.182 125.517 329.325C118.818 327.985 122.723 345.865 124.083 337.703" stroke="url(#paint17_linear_17_7800)" stroke-width="7" stroke-linecap="round"/>
    <path d="M124.67 334.182C125.402 329.787 128.647 325.532 129.82 321.143C131.946 313.191 132.149 304.406 131.646 296.237C131.219 289.3 128.377 282.107 123.953 276.678C118.874 270.446 110.688 267.698 105.632 261.422C101.431 256.207 101.605 251.588 100.905 245.285C100.027 237.384 102.571 230.16 107.653 224.128C114.163 216.402 123.559 213.198 131.059 206.851C133.699 204.618 137.3 200.927 138.166 197.462" stroke="url(#paint18_linear_17_7800)" stroke-width="7" stroke-linecap="round"/>
    <path d="M122.909 201.57C118.78 203.513 123.906 200.414 125.387 199.809C129.999 197.927 134.619 196.041 139.079 193.811C140.323 193.189 145.561 190.067 142.99 192.638C141.03 194.598 141.838 197.622 141.654 200.103C141.463 202.682 140.513 205.144 140.513 207.731C140.513 209.806 141.069 209.233 140.154 208.318C137.587 205.751 133.687 204.872 130.538 203.297C130.05 203.054 125.843 200.292 125.843 200.983" stroke="url(#paint19_linear_17_7800)" stroke-width="7" stroke-linecap="round"/>
    <path d="M127.604 187.487H199.191" stroke="url(#paint20_linear_17_7800)" stroke-width="7" stroke-linecap="round"/>
    <path d="M128.19 107.098V186.314" stroke="url(#paint21_linear_17_7800)" stroke-width="7" stroke-linecap="round"/>
    <path d="M131.124 108.272H204.472" stroke="url(#paint22_linear_17_7800)" stroke-width="7" stroke-linecap="round"/>
    <path d="M199.191 112.379V188.074" stroke="url(#paint23_linear_17_7800)" stroke-width="7" stroke-linecap="round"/>
    <path d="M93.2335 402.96C93.2335 406.85 92.4447 410.858 95.4054 413.819C99.5866 418 103.485 418.689 108.276 415.267C113.11 411.814 115.463 408.602 122.031 408.751C127.484 408.875 133.761 414.072 134.459 419.651C134.819 422.535 134.499 425.669 134.499 428.58C134.499 433.137 135.346 418.503 138.883 415.629C141.928 413.154 148.833 408.899 151.874 414.221C155.462 420.501 159.113 404.558 159.113 401.512" stroke="url(#paint24_linear_17_7800)" stroke-width="7" stroke-linecap="round"/>
    <path d="M114.952 463.048C115.206 465.081 120.298 459.251 120.703 458.744C122.834 456.081 125.891 450.499 121.468 448.287C119.829 447.468 114.706 447.084 113.504 448.729C111.63 451.295 106.532 457.67 110.206 460.715C114.179 464.007 120.302 463.853 122.513 469.282C124.256 473.56 123.889 482.346 117.446 481.83C112.878 481.465 110.776 476.019 111.493 471.896C112.243 467.587 116.041 464.765 119.296 462.324" stroke="url(#paint25_linear_17_7800)" stroke-width="7" stroke-linecap="round"/>
    <path d="M138.119 450.017C138.119 457.283 137.732 464.625 139.245 471.775C139.82 474.495 140.419 477.917 142.06 480.262C142.17 480.418 142.462 474.331 142.462 473.183" stroke="url(#paint26_linear_17_7800)" stroke-width="7" stroke-linecap="round"/>
    <path d="M136.671 447.845C138.798 447.172 146.757 443.533 148.978 445.271C151.054 446.896 148.163 451.53 147.369 452.913C146.398 454.603 145.314 456.336 143.991 457.779C143.521 458.292 141.89 458.615 142.382 459.106C142.706 459.431 147.351 458.652 148.254 458.865C154.778 460.407 154.428 472.328 150.104 475.918C147.331 478.221 140.122 477.646 141.014 473.183" stroke="url(#paint27_linear_17_7800)" stroke-width="7" stroke-linecap="round"/>
    <path d="M311.173 27.2605C317.533 27.2605 323.966 23.9298 330.566 23.7464C337.742 23.5471 337.538 34.1741 339.546 39.2343C344.059 50.6061 337.617 61.0656 326.922 66.5658C323.695 68.2254 318.276 69.5466 316.575 65.1993C314.515 59.9351 319.764 55.3724 322.887 51.8589" stroke="url(#paint28_linear_17_7800)" stroke-width="7" stroke-linecap="round"/>
    <path d="M360.37 46.002C353.326 46.1697 346.835 50.2168 346.835 58.3662C346.835 66.2601 357.187 63.402 360.37 59.7979C363.019 56.7992 365.5 53.0909 366.097 49.0605C366.59 45.7286 365.932 46.1458 366.487 49.2557C367.409 54.4178 371.869 56.2225 374.426 60.0582" stroke="url(#paint29_linear_17_7800)" stroke-width="7" stroke-linecap="round"/>
    <path d="M379.112 43.6595C379.615 44.679 386.508 63.0742 389.133 60.4489C393.643 55.9394 397.455 45.253 399.025 38.9741" stroke="url(#paint30_linear_17_7800)" stroke-width="7" stroke-linecap="round"/>
    <path d="M414.252 40.145C409.409 43.5424 399.634 50.195 401.498 57.6502C402.994 63.6352 412.123 54.7055 413.537 53.0299C415.918 50.2075 418.752 42.6168 418.938 50.0364C419.106 56.7828 420.193 60.058 427.137 60.058" stroke="url(#paint31_linear_17_7800)" stroke-width="7" stroke-linecap="round"/>
    <path d="M483.362 13.2041C473.132 29.3842 460.713 45.2784 451.996 62.4009C450.666 65.0141 449.132 67.8685 448.222 70.6003" stroke="url(#paint32_linear_17_7800)" stroke-width="7" stroke-linecap="round"/>
    <path d="M482.191 38.974C489.489 38.974 497.211 36.4731 504.186 34.5488C504.253 34.5305 507.919 48.4228 508.611 50.9478C511.654 62.0449 501.09 68.1338 491.171 68.2577C488.161 68.2954 483.795 67.1912 483.883 63.312C483.988 58.6984 489.418 57.7496 492.733 56.5442" stroke="url(#paint33_linear_17_7800)" stroke-width="7" stroke-linecap="round"/>
    <path d="M529.045 36.631C534.397 33.6202 529.235 33.2858 525.466 36.1755C521.765 39.013 509.484 48.9046 518.633 52.1189C525.685 54.5968 536.323 55.0409 528.199 65.1339C522.027 72.8025 516.399 69.6431 518.503 61.2294" stroke="url(#paint34_linear_17_7800)" stroke-width="7" stroke-linecap="round"/>
    <path d="M571.214 16.7183C570.322 31.874 564.077 46.6744 559.044 60.8392C558.238 63.1088 552.69 78.7999 553.643 78.7999" stroke="url(#paint35_linear_17_7800)" stroke-width="7" stroke-linecap="round"/>
    <path d="M582.927 38.9741C583.424 50.7203 582.495 63.4771 584.163 75.1559C584.607 78.2609 585.27 73.7123 585.27 72.9433" stroke="url(#paint36_linear_17_7800)" stroke-width="7" stroke-linecap="round"/>
    <path d="M581.756 37.8025C587.466 37.2358 602.642 33.0348 604.272 41.8371C605.156 46.6106 604.15 50.2444 599.716 52.7697C597.315 54.1374 577.881 60.6216 586.441 54.2014" stroke="url(#paint37_linear_17_7800)" stroke-width="7" stroke-linecap="round"/>
    <path d="M614.554 54.2017C614.135 58.9583 609.635 74.7223 619.239 69.234C625.321 65.7588 624.801 54.0437 623.924 65.6549C623.326 73.5797 624.196 90.2104 616.376 95.199C606.033 101.797 589.914 92.9369 579.413 90.5136" stroke="url(#paint38_linear_17_7800)" stroke-width="7" stroke-linecap="round"/>
    <path d="M164.768 126.282C159.709 121.785 155.367 144.7 164.71 133.955C165.489 133.06 170.208 125.359 166.326 125.359C164.375 125.359 162.722 131.32 164.768 132.282C167.093 133.377 167.931 127.799 167.884 126.513C167.713 121.921 161.699 129.269 161.306 130.898C160.641 133.652 164.569 139.25 167.249 135.975C170.051 132.55 164.942 131.388 162.691 132.513" stroke="url(#paint39_linear_17_7800)" stroke-width="7" stroke-linecap="round"/>
    <path d="M165.806 133.551C155.297 133.551 187.291 135.458 197.308 132.282C209.689 128.356 227.024 122.895 234.233 111.281C236.738 107.246 238.036 101.93 237.234 97.2029C235.96 89.7048 230.164 88.3053 224.194 84.9715C216.615 80.7386 206.532 75.7504 202.674 67.6051C202.157 66.5136 200.127 62.1467 200.078 62.9317C199.901 65.7515 199.076 69.4721 198.462 72.2784C197.572 76.3458 195.748 79.9422 194.077 83.7022C192.715 86.7684 198.295 78.1329 198.808 74.817C199.017 73.4672 199.632 64.0856 201.751 64.0856C205.047 64.0856 208.671 65.5507 211.963 65.9896C216.308 66.569 222.302 73.8374 225.002 67.0858" stroke="url(#paint40_linear_17_7800)" stroke-width="7" stroke-linecap="round"/>
    <path d="M166.845 153.283C162.552 153.536 161.435 156.858 161.652 160.553C161.81 163.238 163.73 158.191 163.73 157.207C163.73 155.756 162.013 148.425 159.172 151.899C153.328 159.041 168.867 162.941 170.307 153.341C171.403 146.035 155.673 156.137 165.807 159.514" stroke="url(#paint41_linear_17_7800)" stroke-width="7" stroke-linecap="round"/>
    <path d="M162.691 157.437C170.125 157.437 179.228 152.133 186.346 150.168C206.112 144.71 225.201 142.195 245.657 141.052C255.765 140.487 345.471 130.816 345.471 139.783" stroke="url(#paint42_linear_17_7800)" stroke-width="7" stroke-linecap="round"/>
    <path d="M188.654 173.015C194.844 173.015 201.043 172.82 207.117 174.284C219.606 177.295 231.951 187.505 241.965 195.17C249.989 201.312 253.735 207.374 256.158 217.21C256.825 219.917 257.569 229.761 261.351 225.98" stroke="url(#paint43_linear_17_7800)" stroke-width="7" stroke-linecap="round"/>
    <path d="M139.843 148.091C138.157 146.615 135.299 151.911 136.266 152.187C139.465 153.101 142.355 145.408 140.42 143.36C137.716 140.496 132.986 148.273 135.343 150.629C137.117 152.403 142.191 153.585 141.92 149.937C141.612 145.777 135.356 144.337 134.824 149.129C134.272 154.095 142.938 154.538 144.574 150.399C146.126 146.475 138.921 139.375 137.882 144.052C137.519 145.683 139.309 152.276 140.882 149.129" stroke="url(#paint44_linear_17_7800)" stroke-width="7" stroke-linecap="round"/>
    <path d="M141.921 153.283C124.791 153.283 107.469 150.241 94.1485 138.513C91.1284 135.854 68.4096 109.937 78.5707 106.55" stroke="url(#paint45_linear_17_7800)" stroke-width="7" stroke-linecap="round"/>
    <path d="M77.5321 102.396C70.8317 109.884 70.2625 123.764 70.2625 133.378C70.2625 137.952 69.5158 130.58 69.4548 129.743C68.7973 120.727 71.1864 112.347 73.955 103.896C74.3094 102.814 74.8718 98.2539 77.0706 99.4532C80.8601 101.52 85.1493 108.051 88.3212 111.223C93.182 116.084 89.1683 120.983 93.11 119.012" stroke="url(#paint46_linear_17_7800)" stroke-width="7" stroke-linecap="round"/>
    <path d="M31.8372 93.0488H103.495" stroke="url(#paint47_linear_17_7800)" stroke-width="7" stroke-linecap="round"/>
    <path d="M30.7987 17.2368V88.8948" stroke="url(#paint48_linear_17_7800)" stroke-width="7" stroke-linecap="round"/>
    <path d="M29.7602 23.4683H101.418" stroke="url(#paint49_linear_17_7800)" stroke-width="7" stroke-linecap="round"/>
    <path d="M95.187 28.6606V87.8564" stroke="url(#paint50_linear_17_7800)" stroke-width="7" stroke-linecap="round"/>
    <path d="M165.807 59.8164H233.31" stroke="url(#paint51_linear_17_7800)" stroke-width="7" stroke-linecap="round"/>
    <path d="M234.349 9.96729V58.7778" stroke="url(#paint52_linear_17_7800)" stroke-width="7" stroke-linecap="round"/>
    <path d="M166.845 9.96729H231.233" stroke="url(#paint53_linear_17_7800)" stroke-width="7" stroke-linecap="round"/>
    <path d="M164.768 13.083V60.855" stroke="url(#paint54_linear_17_7800)" stroke-width="7" stroke-linecap="round"/>
    <path d="M348.586 137.705C343.822 133.471 338.41 132.103 336.124 125.243" stroke="url(#paint55_linear_17_7800)" stroke-width="7" stroke-linecap="round"/>
    <path d="M347.548 141.859C342.181 143.393 336.124 145.842 336.124 152.245" stroke="url(#paint56_linear_17_7800)" stroke-width="7" stroke-linecap="round"/>
    <path d="M351.702 100.319V164.707" stroke="url(#paint57_linear_17_7800)" stroke-width="7" stroke-linecap="round"/>
    <path d="M356.895 102.396H401.551" stroke="url(#paint58_linear_17_7800)" stroke-width="7" stroke-linecap="round"/>
    <path d="M411.936 103.434V162.63" stroke="url(#paint59_linear_17_7800)" stroke-width="7" stroke-linecap="round"/>
    <path d="M355.856 163.668H411.936" stroke="url(#paint60_linear_17_7800)" stroke-width="7" stroke-linecap="round"/>
    <path d="M246.811 225.98C252.653 226.564 266.801 237.076 263.197 232.442C259.81 228.087 265.398 212.585 268.62 209.363" stroke="url(#paint61_linear_17_7800)" stroke-width="7" stroke-linecap="round"/>
    <path d="M265.505 232.211V275.829" stroke="url(#paint62_linear_17_7800)" stroke-width="7" stroke-linecap="round"/>
    <path d="M270.697 223.903H334.047" stroke="url(#paint63_linear_17_7800)" stroke-width="7" stroke-linecap="round"/>
    <path d="M264.466 277.906H327.816" stroke="url(#paint64_linear_17_7800)" stroke-width="7" stroke-linecap="round"/>
    <path d="M335.086 221.826V273.752" stroke="url(#paint65_linear_17_7800)" stroke-width="7" stroke-linecap="round"/>
    <path d="M413.289 475.883C412.539 469.88 402.429 481.091 401.595 482.461C394.491 494.132 405.652 501.678 417.024 501.544C434.064 501.344 429.121 484.401 418.405 478.319C414.335 476.009 400.335 473.565 403.057 481.73" stroke="url(#paint66_linear_17_7800)" stroke-width="7" stroke-linecap="round"/>
    <path d="M443.985 475.883C442.548 483.07 444.612 488.774 446.909 495.535C447.452 497.135 451.93 504.68 449.507 501.869C443.64 495.063 442.54 482.949 445.772 474.746C447.789 469.624 454.717 460.65 461.282 465.163C466.147 468.508 461.708 478.857 458.359 481.648C457.015 482.769 445.609 486.485 445.609 486.927C445.609 490.072 455.593 494.468 457.79 495.454C463.948 498.214 471.137 499.33 474.681 493.423" stroke="url(#paint67_linear_17_7800)" stroke-width="7" stroke-linecap="round"/>
    <path d="M505.377 474.421C517.203 473.184 528.405 470.711 540.053 468.655C542.171 468.282 546.182 465.899 544.844 468.574" stroke="url(#paint68_linear_17_7800)" stroke-width="7" stroke-linecap="round"/>
    <path d="M524.38 475.883C525.199 485.08 524.485 498.084 529.577 506.417C531.655 509.817 533.744 510.052 534.612 506.579" stroke="url(#paint69_linear_17_7800)" stroke-width="7" stroke-linecap="round"/>
    <path d="M556.538 470.036C556.711 480.986 555.541 494.047 561.248 503.981C563.441 507.799 564.361 509.852 565.308 505.117" stroke="url(#paint70_linear_17_7800)" stroke-width="7" stroke-linecap="round"/>
    <path d="M552.152 490.5C562.286 487.511 572.486 483.802 582.849 481.729" stroke="url(#paint71_linear_17_7800)" stroke-width="7" stroke-linecap="round"/>
    <path d="M577.002 468.574C577.656 474.31 576.27 510.721 588.695 506.579" stroke="url(#paint72_linear_17_7800)" stroke-width="7" stroke-linecap="round"/>
    <path d="M593.081 470.036C591.037 468.248 595.477 481.67 596.004 483.841C597.008 487.977 598.725 505.117 603.313 505.117" stroke="url(#paint73_linear_17_7800)" stroke-width="7" stroke-linecap="round"/>
    <path d="M629.624 474.421C624.42 473.279 613.184 468.163 612.164 477.344C611.021 487.638 619.169 489.845 626.7 492.774C630.669 494.317 637.69 501.598 633.034 506.254C628.468 510.82 611.549 512.032 616.468 502.194" stroke="url(#paint74_linear_17_7800)" stroke-width="7" stroke-linecap="round"/>
    <path d="M650.088 474.421C655.495 474.421 666.361 466.405 660.969 480.268C659.512 484.016 649.844 513.563 660.32 506.579" stroke="url(#paint75_linear_17_7800)" stroke-width="7" stroke-linecap="round"/>
    <path d="M655.935 528.505V529.967" stroke="url(#paint76_linear_17_7800)" stroke-width="7" stroke-linecap="round"/>
    <defs>
        <linearGradient id="paint0_linear_17_7800" x1="357.79" y1="293.615" x2="357.79" y2="294.615" gradientUnits="userSpaceOnUse">
            <stop/>
            <stop offset="1" stop-color="#6A6A6A"/>
        </linearGradient>
        <linearGradient id="paint1_linear_17_7800" x1="354.537" y1="387.289" x2="354.537" y2="388.289" gradientUnits="userSpaceOnUse">
            <stop/>
            <stop offset="1" stop-color="#6A6A6A"/>
        </linearGradient>
        <linearGradient id="paint2_linear_17_7800" x1="85.0746" y1="296.218" x2="85.0746" y2="385.988" gradientUnits="userSpaceOnUse">
            <stop/>
            <stop offset="1" stop-color="#6A6A6A"/>
        </linearGradient>
        <linearGradient id="paint3_linear_17_7800" x1="169.641" y1="297.519" x2="169.641" y2="387.289" gradientUnits="userSpaceOnUse">
            <stop/>
            <stop offset="1" stop-color="#6A6A6A"/>
        </linearGradient>
        <linearGradient id="paint4_linear_17_7800" x1="245.101" y1="296.218" x2="245.101" y2="387.289" gradientUnits="userSpaceOnUse">
            <stop/>
            <stop offset="1" stop-color="#6A6A6A"/>
        </linearGradient>
        <linearGradient id="paint5_linear_17_7800" x1="311.453" y1="293.615" x2="311.453" y2="387.289" gradientUnits="userSpaceOnUse">
            <stop/>
            <stop offset="1" stop-color="#6A6A6A"/>
        </linearGradient>
        <linearGradient id="paint6_linear_17_7800" x1="379.106" y1="296.218" x2="379.106" y2="387.289" gradientUnits="userSpaceOnUse">
            <stop/>
            <stop offset="1" stop-color="#6A6A6A"/>
        </linearGradient>
        <linearGradient id="paint7_linear_17_7800" x1="444.157" y1="296.218" x2="444.157" y2="383.386" gradientUnits="userSpaceOnUse">
            <stop/>
            <stop offset="1" stop-color="#6A6A6A"/>
        </linearGradient>
        <linearGradient id="paint8_linear_17_7800" x1="505.305" y1="296.218" x2="505.305" y2="383.386" gradientUnits="userSpaceOnUse">
            <stop/>
            <stop offset="1" stop-color="#6A6A6A"/>
        </linearGradient>
        <linearGradient id="paint9_linear_17_7800" x1="570.356" y1="297.519" x2="570.356" y2="385.988" gradientUnits="userSpaceOnUse">
            <stop/>
            <stop offset="1" stop-color="#6A6A6A"/>
        </linearGradient>
        <linearGradient id="paint10_linear_17_7800" x1="626.3" y1="294.917" x2="626.3" y2="384.687" gradientUnits="userSpaceOnUse">
            <stop/>
            <stop offset="1" stop-color="#6A6A6A"/>
        </linearGradient>
        <linearGradient id="paint11_linear_17_7800" x1="37.7378" y1="335.465" x2="37.7378" y2="336.549" gradientUnits="userSpaceOnUse">
            <stop/>
            <stop offset="1" stop-color="#6A6A6A"/>
        </linearGradient>
        <linearGradient id="paint12_linear_17_7800" x1="14.9699" y1="336.549" x2="14.9699" y2="337.85" gradientUnits="userSpaceOnUse">
            <stop/>
            <stop offset="1" stop-color="#6A6A6A"/>
        </linearGradient>
        <linearGradient id="paint13_linear_17_7800" x1="59.8552" y1="333.947" x2="59.8552" y2="336.549" gradientUnits="userSpaceOnUse">
            <stop/>
            <stop offset="1" stop-color="#6A6A6A"/>
        </linearGradient>
        <linearGradient id="paint14_linear_17_7800" x1="645.966" y1="340.367" x2="645.966" y2="341.753" gradientUnits="userSpaceOnUse">
            <stop/>
            <stop offset="1" stop-color="#6A6A6A"/>
        </linearGradient>
        <linearGradient id="paint15_linear_17_7800" x1="661.578" y1="340.452" x2="661.578" y2="341.753" gradientUnits="userSpaceOnUse">
            <stop/>
            <stop offset="1" stop-color="#6A6A6A"/>
        </linearGradient>
        <linearGradient id="paint16_linear_17_7800" x1="681.094" y1="341.753" x2="681.094" y2="342.753" gradientUnits="userSpaceOnUse">
            <stop/>
            <stop offset="1" stop-color="#6A6A6A"/>
        </linearGradient>
        <linearGradient id="paint17_linear_17_7800" x1="123.596" y1="327.903" x2="123.596" y2="341.569" gradientUnits="userSpaceOnUse">
            <stop/>
            <stop offset="1" stop-color="#6A6A6A"/>
        </linearGradient>
        <linearGradient id="paint18_linear_17_7800" x1="119.45" y1="197.462" x2="119.45" y2="334.182" gradientUnits="userSpaceOnUse">
            <stop/>
            <stop offset="1" stop-color="#6A6A6A"/>
        </linearGradient>
        <linearGradient id="paint19_linear_17_7800" x1="132.513" y1="191.637" x2="132.513" y2="209.146" gradientUnits="userSpaceOnUse">
            <stop/>
            <stop offset="1" stop-color="#6A6A6A"/>
        </linearGradient>
        <linearGradient id="paint20_linear_17_7800" x1="163.397" y1="187.487" x2="163.397" y2="188.487" gradientUnits="userSpaceOnUse">
            <stop/>
            <stop offset="1" stop-color="#6A6A6A"/>
        </linearGradient>
        <linearGradient id="paint21_linear_17_7800" x1="128.69" y1="107.098" x2="128.69" y2="186.314" gradientUnits="userSpaceOnUse">
            <stop/>
            <stop offset="1" stop-color="#6A6A6A"/>
        </linearGradient>
        <linearGradient id="paint22_linear_17_7800" x1="167.798" y1="108.272" x2="167.798" y2="109.272" gradientUnits="userSpaceOnUse">
            <stop/>
            <stop offset="1" stop-color="#6A6A6A"/>
        </linearGradient>
        <linearGradient id="paint23_linear_17_7800" x1="199.691" y1="112.379" x2="199.691" y2="188.074" gradientUnits="userSpaceOnUse">
            <stop/>
            <stop offset="1" stop-color="#6A6A6A"/>
        </linearGradient>
        <linearGradient id="paint24_linear_17_7800" x1="126.126" y1="401.512" x2="126.126" y2="429.452" gradientUnits="userSpaceOnUse">
            <stop/>
            <stop offset="1" stop-color="#6A6A6A"/>
        </linearGradient>
        <linearGradient id="paint25_linear_17_7800" x1="116.32" y1="447.584" x2="116.32" y2="481.852" gradientUnits="userSpaceOnUse">
            <stop/>
            <stop offset="1" stop-color="#6A6A6A"/>
        </linearGradient>
        <linearGradient id="paint26_linear_17_7800" x1="140.268" y1="450.017" x2="140.268" y2="480.265" gradientUnits="userSpaceOnUse">
            <stop/>
            <stop offset="1" stop-color="#6A6A6A"/>
        </linearGradient>
        <linearGradient id="paint27_linear_17_7800" x1="144.969" y1="444.805" x2="144.969" y2="477.241" gradientUnits="userSpaceOnUse">
            <stop/>
            <stop offset="1" stop-color="#6A6A6A"/>
        </linearGradient>
        <linearGradient id="paint28_linear_17_7800" x1="326.089" y1="23.7437" x2="326.089" y2="68.1352" gradientUnits="userSpaceOnUse">
            <stop/>
            <stop offset="1" stop-color="#6A6A6A"/>
        </linearGradient>
        <linearGradient id="paint29_linear_17_7800" x1="360.631" y1="46.002" x2="360.631" y2="63.4101" gradientUnits="userSpaceOnUse">
            <stop/>
            <stop offset="1" stop-color="#6A6A6A"/>
        </linearGradient>
        <linearGradient id="paint30_linear_17_7800" x1="389.068" y1="38.9741" x2="389.068" y2="60.7051" gradientUnits="userSpaceOnUse">
            <stop/>
            <stop offset="1" stop-color="#6A6A6A"/>
        </linearGradient>
        <linearGradient id="paint31_linear_17_7800" x1="414.201" y1="40.145" x2="414.201" y2="60.058" gradientUnits="userSpaceOnUse">
            <stop/>
            <stop offset="1" stop-color="#6A6A6A"/>
        </linearGradient>
        <linearGradient id="paint32_linear_17_7800" x1="465.792" y1="13.2041" x2="465.792" y2="70.6003" gradientUnits="userSpaceOnUse">
            <stop/>
            <stop offset="1" stop-color="#6A6A6A"/>
        </linearGradient>
        <linearGradient id="paint33_linear_17_7800" x1="495.667" y1="34.5488" x2="495.667" y2="68.2587" gradientUnits="userSpaceOnUse">
            <stop/>
            <stop offset="1" stop-color="#6A6A6A"/>
        </linearGradient>
        <linearGradient id="paint34_linear_17_7800" x1="523.331" y1="34.1807" x2="523.331" y2="69.4964" gradientUnits="userSpaceOnUse">
            <stop/>
            <stop offset="1" stop-color="#6A6A6A"/>
        </linearGradient>
        <linearGradient id="paint35_linear_17_7800" x1="562.373" y1="16.7183" x2="562.373" y2="78.7999" gradientUnits="userSpaceOnUse">
            <stop/>
            <stop offset="1" stop-color="#6A6A6A"/>
        </linearGradient>
        <linearGradient id="paint36_linear_17_7800" x1="584.098" y1="38.9741" x2="584.098" y2="76.2282" gradientUnits="userSpaceOnUse">
            <stop/>
            <stop offset="1" stop-color="#6A6A6A"/>
        </linearGradient>
        <linearGradient id="paint37_linear_17_7800" x1="593.16" y1="36.3062" x2="593.16" y2="56.9911" gradientUnits="userSpaceOnUse">
            <stop/>
            <stop offset="1" stop-color="#6A6A6A"/>
        </linearGradient>
        <linearGradient id="paint38_linear_17_7800" x1="601.932" y1="54.2017" x2="601.932" y2="97.5955" gradientUnits="userSpaceOnUse">
            <stop/>
            <stop offset="1" stop-color="#6A6A6A"/>
        </linearGradient>
        <linearGradient id="paint39_linear_17_7800" x1="163.643" y1="125.024" x2="163.643" y2="136.973" gradientUnits="userSpaceOnUse">
            <stop/>
            <stop offset="1" stop-color="#6A6A6A"/>
        </linearGradient>
        <linearGradient id="paint40_linear_17_7800" x1="200.592" y1="62.8379" x2="200.592" y2="134.119" gradientUnits="userSpaceOnUse">
            <stop/>
            <stop offset="1" stop-color="#6A6A6A"/>
        </linearGradient>
        <linearGradient id="paint41_linear_17_7800" x1="164.113" y1="150.748" x2="164.113" y2="161.331" gradientUnits="userSpaceOnUse">
            <stop/>
            <stop offset="1" stop-color="#6A6A6A"/>
        </linearGradient>
        <linearGradient id="paint42_linear_17_7800" x1="254.081" y1="135.99" x2="254.081" y2="157.437" gradientUnits="userSpaceOnUse">
            <stop/>
            <stop offset="1" stop-color="#6A6A6A"/>
        </linearGradient>
        <linearGradient id="paint43_linear_17_7800" x1="225.002" y1="173.006" x2="225.002" y2="226.834" gradientUnits="userSpaceOnUse">
            <stop/>
            <stop offset="1" stop-color="#6A6A6A"/>
        </linearGradient>
        <linearGradient id="paint44_linear_17_7800" x1="139.749" y1="142.512" x2="139.749" y2="153.208" gradientUnits="userSpaceOnUse">
            <stop/>
            <stop offset="1" stop-color="#6A6A6A"/>
        </linearGradient>
        <linearGradient id="paint45_linear_17_7800" x1="108.947" y1="106.55" x2="108.947" y2="153.283" gradientUnits="userSpaceOnUse">
            <stop/>
            <stop offset="1" stop-color="#6A6A6A"/>
        </linearGradient>
        <linearGradient id="paint46_linear_17_7800" x1="81.2273" y1="99.2539" x2="81.2273" y2="134.863" gradientUnits="userSpaceOnUse">
            <stop/>
            <stop offset="1" stop-color="#6A6A6A"/>
        </linearGradient>
        <linearGradient id="paint47_linear_17_7800" x1="67.6662" y1="93.0488" x2="67.6662" y2="94.0488" gradientUnits="userSpaceOnUse">
            <stop/>
            <stop offset="1" stop-color="#6A6A6A"/>
        </linearGradient>
        <linearGradient id="paint48_linear_17_7800" x1="31.2987" y1="17.2368" x2="31.2987" y2="88.8948" gradientUnits="userSpaceOnUse">
            <stop/>
            <stop offset="1" stop-color="#6A6A6A"/>
        </linearGradient>
        <linearGradient id="paint49_linear_17_7800" x1="65.5892" y1="23.4683" x2="65.5892" y2="24.4683" gradientUnits="userSpaceOnUse">
            <stop/>
            <stop offset="1" stop-color="#6A6A6A"/>
        </linearGradient>
        <linearGradient id="paint50_linear_17_7800" x1="95.687" y1="28.6606" x2="95.687" y2="87.8564" gradientUnits="userSpaceOnUse">
            <stop/>
            <stop offset="1" stop-color="#6A6A6A"/>
        </linearGradient>
        <linearGradient id="paint51_linear_17_7800" x1="199.558" y1="59.8164" x2="199.558" y2="60.8164" gradientUnits="userSpaceOnUse">
            <stop/>
            <stop offset="1" stop-color="#6A6A6A"/>
        </linearGradient>
        <linearGradient id="paint52_linear_17_7800" x1="234.849" y1="9.96729" x2="234.849" y2="58.7778" gradientUnits="userSpaceOnUse">
            <stop/>
            <stop offset="1" stop-color="#6A6A6A"/>
        </linearGradient>
        <linearGradient id="paint53_linear_17_7800" x1="199.039" y1="9.96729" x2="199.039" y2="10.9673" gradientUnits="userSpaceOnUse">
            <stop/>
            <stop offset="1" stop-color="#6A6A6A"/>
        </linearGradient>
        <linearGradient id="paint54_linear_17_7800" x1="165.268" y1="13.083" x2="165.268" y2="60.855" gradientUnits="userSpaceOnUse">
            <stop/>
            <stop offset="1" stop-color="#6A6A6A"/>
        </linearGradient>
        <linearGradient id="paint55_linear_17_7800" x1="342.355" y1="125.243" x2="342.355" y2="137.705" gradientUnits="userSpaceOnUse">
            <stop/>
            <stop offset="1" stop-color="#6A6A6A"/>
        </linearGradient>
        <linearGradient id="paint56_linear_17_7800" x1="341.836" y1="141.859" x2="341.836" y2="152.245" gradientUnits="userSpaceOnUse">
            <stop/>
            <stop offset="1" stop-color="#6A6A6A"/>
        </linearGradient>
        <linearGradient id="paint57_linear_17_7800" x1="352.202" y1="100.319" x2="352.202" y2="164.707" gradientUnits="userSpaceOnUse">
            <stop/>
            <stop offset="1" stop-color="#6A6A6A"/>
        </linearGradient>
        <linearGradient id="paint58_linear_17_7800" x1="379.223" y1="102.396" x2="379.223" y2="103.396" gradientUnits="userSpaceOnUse">
            <stop/>
            <stop offset="1" stop-color="#6A6A6A"/>
        </linearGradient>
        <linearGradient id="paint59_linear_17_7800" x1="412.436" y1="103.434" x2="412.436" y2="162.63" gradientUnits="userSpaceOnUse">
            <stop/>
            <stop offset="1" stop-color="#6A6A6A"/>
        </linearGradient>
        <linearGradient id="paint60_linear_17_7800" x1="383.896" y1="163.668" x2="383.896" y2="164.668" gradientUnits="userSpaceOnUse">
            <stop/>
            <stop offset="1" stop-color="#6A6A6A"/>
        </linearGradient>
        <linearGradient id="paint61_linear_17_7800" x1="257.716" y1="209.363" x2="257.716" y2="233.618" gradientUnits="userSpaceOnUse">
            <stop/>
            <stop offset="1" stop-color="#6A6A6A"/>
        </linearGradient>
        <linearGradient id="paint62_linear_17_7800" x1="266.005" y1="232.211" x2="266.005" y2="275.829" gradientUnits="userSpaceOnUse">
            <stop/>
            <stop offset="1" stop-color="#6A6A6A"/>
        </linearGradient>
        <linearGradient id="paint63_linear_17_7800" x1="302.372" y1="223.903" x2="302.372" y2="224.903" gradientUnits="userSpaceOnUse">
            <stop/>
            <stop offset="1" stop-color="#6A6A6A"/>
        </linearGradient>
        <linearGradient id="paint64_linear_17_7800" x1="296.141" y1="277.906" x2="296.141" y2="278.906" gradientUnits="userSpaceOnUse">
            <stop/>
            <stop offset="1" stop-color="#6A6A6A"/>
        </linearGradient>
        <linearGradient id="paint65_linear_17_7800" x1="335.586" y1="221.826" x2="335.586" y2="273.752" gradientUnits="userSpaceOnUse">
            <stop/>
            <stop offset="1" stop-color="#6A6A6A"/>
        </linearGradient>
        <linearGradient id="paint66_linear_17_7800" x1="413.766" y1="474.128" x2="413.766" y2="501.546" gradientUnits="userSpaceOnUse">
            <stop/>
            <stop offset="1" stop-color="#6A6A6A"/>
        </linearGradient>
        <linearGradient id="paint67_linear_17_7800" x1="459.095" y1="463.933" x2="459.095" y2="502.49" gradientUnits="userSpaceOnUse">
            <stop/>
            <stop offset="1" stop-color="#6A6A6A"/>
        </linearGradient>
        <linearGradient id="paint68_linear_17_7800" x1="525.244" y1="467.321" x2="525.244" y2="474.421" gradientUnits="userSpaceOnUse">
            <stop/>
            <stop offset="1" stop-color="#6A6A6A"/>
        </linearGradient>
        <linearGradient id="paint69_linear_17_7800" x1="529.496" y1="475.883" x2="529.496" y2="509.077" gradientUnits="userSpaceOnUse">
            <stop/>
            <stop offset="1" stop-color="#6A6A6A"/>
        </linearGradient>
        <linearGradient id="paint70_linear_17_7800" x1="560.923" y1="470.036" x2="560.923" y2="507.864" gradientUnits="userSpaceOnUse">
            <stop/>
            <stop offset="1" stop-color="#6A6A6A"/>
        </linearGradient>
        <linearGradient id="paint71_linear_17_7800" x1="567.501" y1="481.729" x2="567.501" y2="490.5" gradientUnits="userSpaceOnUse">
            <stop/>
            <stop offset="1" stop-color="#6A6A6A"/>
        </linearGradient>
        <linearGradient id="paint72_linear_17_7800" x1="582.849" y1="468.574" x2="582.849" y2="506.906" gradientUnits="userSpaceOnUse">
            <stop/>
            <stop offset="1" stop-color="#6A6A6A"/>
        </linearGradient>
        <linearGradient id="paint73_linear_17_7800" x1="597.929" y1="469.873" x2="597.929" y2="505.117" gradientUnits="userSpaceOnUse">
            <stop/>
            <stop offset="1" stop-color="#6A6A6A"/>
        </linearGradient>
        <linearGradient id="paint74_linear_17_7800" x1="623.315" y1="471.97" x2="623.315" y2="509.679" gradientUnits="userSpaceOnUse">
            <stop/>
            <stop offset="1" stop-color="#6A6A6A"/>
        </linearGradient>
        <linearGradient id="paint75_linear_17_7800" x1="656.259" y1="472.116" x2="656.259" y2="507.643" gradientUnits="userSpaceOnUse">
            <stop/>
            <stop offset="1" stop-color="#6A6A6A"/>
        </linearGradient>
        <linearGradient id="paint76_linear_17_7800" x1="656.435" y1="528.505" x2="656.435" y2="529.967" gradientUnits="userSpaceOnUse">
            <stop/>
            <stop offset="1" stop-color="#6A6A6A"/>
        </linearGradient>
    </defs>
</svg>
