<svg width="720" height="540" viewBox="0 0 720 540" fill="none" xmlns="http://www.w3.org/2000/svg">
    <rect width="720" height="540" fill="white"/>
    <path d="M70.323 72.7246V409.447" stroke="url(#paint0_linear_17_7896)" stroke-width="7" stroke-linecap="round"/>
    <path d="M61.6415 407.586H567.655" stroke="url(#paint1_linear_17_7896)" stroke-width="7" stroke-linecap="round"/>
    <path d="M71 396.5C73.4 396.5 179 396.5 231.5 396.5L263 379L423 370L453 324L486.5 195L518.5 169L619.5 159.5L705.5 121" stroke="url(#paint2_linear_17_7896)" stroke-width="7"/>
    <path d="M227.973 356.591V457.3" stroke="url(#paint3_linear_17_7896)" stroke-opacity="0.5" stroke-width="7" stroke-linecap="round"/>
    <path d="M203.641 478.253C206.911 477.889 208.916 474.222 212.728 474.948C215.482 475.473 214.894 480.326 214.606 482.308C214.482 483.155 213.633 485.006 213.892 485.049C219.213 485.936 221.527 491.385 219.712 496.202C217.671 501.62 211.727 500.614 214.455 494.474" stroke="url(#paint4_linear_17_7896)" stroke-width="7" stroke-linecap="round"/>
    <path d="M226.622 482.308C228.71 479.987 229.278 476.957 232.029 475.024C234.015 473.628 234.706 475.798 234.995 477.502C235.907 482.873 234.214 487.652 232.141 492.522C232.083 492.658 229.958 496.865 231.428 496.277C234.397 495.089 236.596 492.589 239.726 491.546C242.788 490.525 245.757 490.419 248.926 490.419" stroke="url(#paint5_linear_17_7896)" stroke-width="7" stroke-linecap="round"/>
    <path d="M251.63 472.846C254.41 477.995 257.21 484.179 259.065 489.743" stroke="url(#paint6_linear_17_7896)" stroke-width="7" stroke-linecap="round"/>
    <path d="M267.851 474.198C265.881 476.508 258.81 482.479 264.322 484.562C267.987 485.946 270.731 484.836 273.258 482.309" stroke="url(#paint7_linear_17_7896)" stroke-width="7" stroke-linecap="round"/>
    <path d="M275.286 466.763C275.89 467.97 283.392 482.994 284.073 481.632" stroke="url(#paint8_linear_17_7896)" stroke-width="7" stroke-linecap="round"/>
    <path d="M277.99 466.087C279.278 465.549 288.222 460.533 289.668 462.783C290.738 464.448 287.357 468.708 286.514 469.955C283.914 473.797 284.168 473.086 288.429 474.198C293.296 475.467 297.604 479.482 292.409 483.961C289.185 486.74 286.483 486.364 282.721 486.364" stroke="url(#paint9_linear_17_7896)" stroke-width="7" stroke-linecap="round"/>
    <path d="M44.8051 61.9003C47.8488 61.5621 50.4985 52.8415 51.564 50.7104C53.9486 45.9412 60.3256 35.5419 57.2716 29.8702C56.23 27.9359 54.3566 29.3315 53.5917 30.7339C50.9311 35.6117 50.449 42.6099 51.3012 48.0068C51.8324 51.3714 59.9994 65.9824 63.7302 58.5208" stroke="url(#paint10_linear_17_7896)" stroke-width="7" stroke-linecap="round"/>
    <path d="M71.841 45.0024C69.4036 47.4399 65.419 53.316 67.5228 57.0559C69.5088 60.5867 74.5143 49.5691 74.9201 48.5321C76.8844 43.5123 74.6919 51.0014 74.5822 52.8128C74.4118 55.6239 76.077 63.0711 79.9518 59.1963" stroke="url(#paint11_linear_17_7896)" stroke-width="7" stroke-linecap="round"/>
    <path d="M86.7107 34.8643C86.7107 41.166 85.6482 48.555 87.3866 54.6906C88.9549 60.2257 93.7623 56.2366 95.4974 53.1135" stroke="url(#paint12_linear_17_7896)" stroke-width="7" stroke-linecap="round"/>
    <path d="M84.0072 50.41C86.7712 49.837 89.4202 49.1531 92.118 48.3823" stroke="url(#paint13_linear_17_7896)" stroke-width="7" stroke-linecap="round"/>
    <path d="M99.5528 50.4097C102.753 49.5022 107.664 48.4069 107.664 44.1764C107.664 41.2581 104.774 42.7672 103.458 43.9511C100.586 46.536 98.0587 52.6277 99.8532 56.4928C101.527 60.0972 107.721 60.124 109.691 57.1687" stroke="url(#paint14_linear_17_7896)" stroke-width="7" stroke-linecap="round"/>
    <path d="M114.423 43.6509C114.818 47.9052 114.289 52.9627 115.436 57.0937C115.609 57.7136 115.783 59.0739 116.3 57.6945C117.836 53.5995 118.376 49.1711 120.018 45.1153C121.44 41.5999 125.887 54.2057 126.589 55.1411" stroke="url(#paint15_linear_17_7896)" stroke-width="7" stroke-linecap="round"/>
    <path d="M136.727 40.9473C134.511 44.7305 130.333 51.3754 134.399 55.4415C136.56 57.6019 138.182 57.0655 140.107 55.1411" stroke="url(#paint16_linear_17_7896)" stroke-width="7" stroke-linecap="round"/>
    <path d="M144.162 41.6234C144.817 44.5912 144.937 54.7195 149.344 49.8093C152.088 46.7521 153.807 43.0678 155.502 39.3704C155.701 38.9364 156.951 34.6617 157.38 36.7419C158.245 40.9457 158.332 45.3573 158.694 49.6215C159.174 55.2757 160.21 61.4864 158.731 67.0822C156.193 76.6863 144.724 69.4547 139.431 66.6316" stroke="url(#paint17_linear_17_7896)" stroke-width="7" stroke-linecap="round"/>
    <path d="M537.534 435.671C537.105 432.238 530.151 439.118 529.724 439.877C528.091 442.78 527.437 446.919 530.813 448.701C533.457 450.096 535.734 448.519 536.708 445.885C537.151 444.687 539.303 437.055 537.872 436.197C537.514 435.982 538.493 443.945 538.736 444.683C539.402 446.707 541.027 449.715 543.58 449.715C546.089 449.715 546.133 444.799 546.321 443.106" stroke="url(#paint18_linear_17_7896)" stroke-width="7" stroke-linecap="round"/>
    <path d="M545.645 439.051C547.266 439.254 547.977 451.743 550.677 451.743C551.39 451.743 550.726 448.467 550.714 448.364C550.358 445.087 550.417 442.076 551.879 439.051C553.003 436.725 556.266 431.326 559.163 432.292" stroke="url(#paint19_linear_17_7896)" stroke-width="7" stroke-linecap="round"/>
    <path d="M562.543 432.292C562.591 437.214 562.106 443.461 564.232 448.138C565.071 449.983 564.489 446.561 564.42 446.035C564.046 443.181 562.815 438.24 564.683 435.671C566.921 432.594 571.06 431.712 574.033 429.588" stroke="url(#paint20_linear_17_7896)" stroke-width="7" stroke-linecap="round"/>
    <path d="M582.819 427.561C580.595 430.652 572.719 440.365 577.788 444.082C582.32 447.406 586.256 440.63 587.1 437.098C587.604 434.991 586.933 430.627 587.701 434.62C588.253 437.492 589.777 440.403 592.958 440.403" stroke="url(#paint21_linear_17_7896)" stroke-width="7" stroke-linecap="round"/>
    <path d="M597.689 424.857C598.001 428.071 597.598 435.329 600.43 437.737C603.052 439.965 605.961 431.862 606.401 430.602C607.38 427.798 607.614 424.67 608.654 421.928C609.087 420.786 611.665 427.125 611.733 427.335C615.539 439.207 612.781 453.312 605.537 463.383C599.758 471.418 596.761 461.449 596.337 455.948" stroke="url(#paint22_linear_17_7896)" stroke-width="7" stroke-linecap="round"/>
    <path d="M574.709 481.632C571.876 481.85 569.059 484.444 568.438 487.302C567.815 490.165 575.284 490.106 576.736 491.921C578.675 494.344 580.58 502.378 576.699 504.125C571.682 506.382 572.011 498.857 573.357 496.502" stroke="url(#paint23_linear_17_7896)" stroke-width="7" stroke-linecap="round"/>
    <path d="M589.579 483.66C590.616 486.875 591.867 490.866 593.033 494.099C593.514 495.431 594.484 499.291 594.873 497.929C595.156 496.938 594.443 494.864 594.31 493.799" stroke="url(#paint24_linear_17_7896)" stroke-width="7" stroke-linecap="round"/>
    <path d="M590.254 473.521H593.634" stroke="url(#paint25_linear_17_7896)" stroke-width="7" stroke-linecap="round"/>
    <path d="M600.393 480.957C603.467 480.247 606.412 477.887 609.705 479.605C614.974 482.354 608.863 492.089 606.776 494.85C606.696 494.957 603.417 498.605 604.974 498.605C607.676 498.605 610.723 496.539 613.085 495.451C615.63 494.278 620.67 492.851 620.67 489.743" stroke="url(#paint26_linear_17_7896)" stroke-width="7" stroke-linecap="round"/>
    <path d="M610.531 489.743C611.894 488.892 612.847 488.103 613.911 487.04" stroke="url(#paint27_linear_17_7896)" stroke-width="7" stroke-linecap="round"/>
    <path d="M628.105 479.605C626.197 482.057 632.458 479.894 632.986 479.605C636.996 477.406 640.062 473.285 632.874 472.958C625.43 472.62 622.99 482.177 625.176 487.903C628.64 496.977 636.875 491.657 638.919 485.012" stroke="url(#paint28_linear_17_7896)" stroke-width="7" stroke-linecap="round"/>
    <path d="M453.047 290.354V463.383" stroke="url(#paint29_linear_17_7896)" stroke-opacity="0.5" stroke-width="7" stroke-linecap="round"/>
    <path d="M428.9 489.194C428.547 489.194 431.84 484.963 432.746 484.386C439.363 480.176 436.126 490.895 434.944 493.864C434.228 495.663 428.93 502.214 433.502 500.183C435.551 499.271 437.892 498.717 440.026 499.702C440.963 500.134 441.805 500.938 442.499 500.938" stroke="url(#paint30_linear_17_7896)" stroke-width="7" stroke-linecap="round"/>
    <path d="M447.443 502.792C449.651 497.825 448.547 491.32 451.495 486.687C453.569 483.428 455.611 493.868 457.642 494.997C459.636 496.105 461.497 476.003 462.896 484.867C463.521 488.824 463.643 493.279 465.06 497.057C465.336 497.793 465.987 499.517 465.987 497.847" stroke="url(#paint31_linear_17_7896)" stroke-width="7" stroke-linecap="round"/>
    <path d="M473.404 479.922C473.978 481.023 480.329 495.25 480.822 494.757" stroke="url(#paint32_linear_17_7896)" stroke-width="7" stroke-linecap="round"/>
    <path d="M475.259 478.686C475.727 478.362 484.931 471.186 485.629 472.505C486.141 473.471 483.705 476.64 483.294 477.45C480.818 482.332 481.507 481.692 486.247 483.013C491.648 484.518 490.235 491.32 486.659 494.345C483.99 496.604 481.959 495.153 482.676 492.285" stroke="url(#paint33_linear_17_7896)" stroke-width="7" stroke-linecap="round"/>
    <path d="M6.88194 391.395C3.60111 394.676 14.1957 385.217 18.672 383.996C27.6093 381.559 19.5942 391.394 19.7547 392.839C20.0009 395.054 24.3674 390.901 26.3716 391.876C29.5096 393.403 31.2775 397.536 29.9808 400.719C27.807 406.054 15.0374 412.39 22.0406 406.554" stroke="url(#paint34_linear_17_7896)" stroke-width="7" stroke-linecap="round"/>
    <path d="M43.6958 387.064C41.8467 390.327 38.0664 401.14 33.9509 401.14" stroke="url(#paint35_linear_17_7896)" stroke-width="7" stroke-linecap="round"/>
    <path d="M36.1165 389.229C41.6478 391.236 47.0006 393.382 52.3578 395.726" stroke="url(#paint36_linear_17_7896)" stroke-width="7" stroke-linecap="round"/>
    <path d="M43.6958 324.264H485.462" stroke="url(#paint37_linear_17_7896)" stroke-opacity="0.5" stroke-width="7" stroke-linecap="round"/>
    <path d="M12.2958 316.685C12.7693 320.473 15.6884 325.333 17.108 329.076C18.1557 331.838 23.1234 345.611 23.1234 336.174" stroke="url(#paint38_linear_17_7896)" stroke-width="7" stroke-linecap="round"/>
    <path d="M20.9579 316.685C22.8207 313.802 29.5575 301.845 31.7855 311.15C33.4837 318.243 28.9991 324.17 29.8004 330.58C30.1798 333.615 38.4484 327.614 39.7859 327.091C42.6494 325.971 43.4034 327.776 45.8613 328.595" stroke="url(#paint39_linear_17_7896)" stroke-width="7" stroke-linecap="round"/>
    <path d="M46.9441 299.361C47.3755 305.131 48.0269 322.471 48.0269 316.685" stroke="url(#paint40_linear_17_7896)" stroke-width="7" stroke-linecap="round"/>
    <path d="M41.5303 303.692L58.8544 310.188" stroke="url(#paint41_linear_17_7896)" stroke-width="7" stroke-linecap="round"/>
    <path d="M27.4912 479.236C27.1382 479.545 28.8538 473.756 29.1693 472.35C29.9797 468.74 30.7663 469.576 31.3972 472.871C31.9977 476.007 31.0812 485.718 34.7823 487.569" stroke="url(#paint42_linear_17_7896)" stroke-width="3" stroke-linecap="round"/>
    <path d="M30.616 490.694C32.2786 489.85 37.0178 488.306 37.9071 486.527" stroke="url(#paint43_linear_17_7896)" stroke-width="3" stroke-linecap="round"/>
    <path d="M39.4695 477.674C40.5784 477.812 41.5404 481.005 41.9577 481.84C42.4034 482.731 42.9018 484.531 43.8384 485.052C44.0862 485.189 44.2496 480.707 44.2724 480.393C44.3561 479.242 44.2635 472.879 46.3556 475.59C47.4767 477.044 48.7835 478.534 49.3646 480.278" stroke="url(#paint44_linear_17_7896)" stroke-width="3" stroke-linecap="round"/>
    <path d="M55.6142 470.903C54.3457 472.552 52.8241 476.308 53.3285 478.426C54.0349 481.393 56.0813 478.424 56.5979 477.095C57.0969 475.812 57.074 474.467 57.437 473.16C57.6865 472.262 58.8686 476.057 59.0283 476.458C59.2605 477.042 60.8221 480.656 60.8221 478.194" stroke="url(#paint45_linear_17_7896)" stroke-width="3" stroke-linecap="round"/>
    <path d="M60.3013 467.257C61.73 469.94 63.061 472.668 64.4676 475.359C64.8539 476.098 64.975 475.851 64.9884 475.127C65.0398 472.352 64.3672 468.261 66.03 465.811C68.3243 462.43 71.238 479.099 71.238 470.903" stroke="url(#paint46_linear_17_7896)" stroke-width="3" stroke-linecap="round"/>
    <path d="M73.8419 460.487C73.7259 462.792 72.3634 468.952 74.1023 471.077C75.2613 472.493 76.5245 468.264 76.6195 467.923C77.174 465.933 77.6357 462.808 76.3302 460.95C75.1216 459.23 73.9918 463.743 73.8419 464.133" stroke="url(#paint47_linear_17_7896)" stroke-width="3" stroke-linecap="round"/>
    <path d="M82.6954 463.612C85.1148 463.128 90.1688 457.18 88.4242 458.925" stroke="url(#paint48_linear_17_7896)" stroke-width="3" stroke-linecap="round"/>
    <path d="M44.1566 502.672C44.0246 500.559 42.4796 502.281 42.0735 503.308C40.7645 506.619 42.5975 506.685 45.4008 507.619C51.8163 509.758 42.8274 515.225 45.1982 510.484" stroke="url(#paint49_linear_17_7896)" stroke-width="3" stroke-linecap="round"/>
    <path d="M51.4478 501.11C51.5497 500.989 56.7732 494.87 55.2669 494.628C53.5273 494.35 51.9128 501.09 51.6792 502.209C50.9813 505.552 52.252 509.174 56.1349 507.88" stroke="url(#paint50_linear_17_7896)" stroke-width="3" stroke-linecap="round"/>
    <path d="M64.9884 489.652C63.9589 491.56 58.2727 503.439 65.5092 501.63" stroke="url(#paint51_linear_17_7896)" stroke-width="3" stroke-linecap="round"/>
    <path d="M70.7172 488.61C70.3322 490.246 68.8847 493.947 69.7913 495.67C70.5193 497.053 72.1705 491.261 72.1928 490.838C72.3593 487.674 69.1548 487.434 69.1548 490.693" stroke="url(#paint52_linear_17_7896)" stroke-width="3" stroke-linecap="round"/>
    <path d="M74.8835 484.965C75.3245 485.771 77.9839 491.933 78.2976 490.722C79.0708 487.74 78.9305 483.626 80.728 481.03C82.549 478.399 83.942 488.516 84.7787 486.006" stroke="url(#paint53_linear_17_7896)" stroke-width="3" stroke-linecap="round"/>
    <path d="M90.5074 469.341C91.7588 473.02 94.1136 477.187 94.8763 481.001C94.9198 481.218 93.6374 480.327 93.6033 480.306C92.6672 479.745 91.706 479.739 90.7968 480.393C89.1254 481.597 88.0107 485.366 90.3338 486.585C94.1102 488.566 95.8077 482.113 96.2362 479.757" stroke="url(#paint54_linear_17_7896)" stroke-width="3" stroke-linecap="round"/>
    <path d="M43.115 463.091C43.7729 461.588 41.0898 460.564 40.0481 459.619C34.717 454.786 31.0808 449.076 28.417 442.433C27.8949 441.131 21.8534 429.194 24.8872 427.677" stroke="url(#paint55_linear_17_7896)" stroke-width="3" stroke-linecap="round"/>
    <path d="M25.9288 418.303C24.0067 419.371 23.5214 426.322 23.0355 428.198C22.3941 430.674 20.7787 434.053 20.7787 436.675C20.7787 439.717 23.2419 431.063 23.8456 428.082C24.2497 426.087 24.3637 424.058 24.7715 422.064C25.2088 419.926 25.6023 422.176 26.0156 423.106C27.6675 426.822 29.3677 431.949 32.6991 434.447" stroke="url(#paint56_linear_17_7896)" stroke-width="3" stroke-linecap="round"/>
    <defs>
        <linearGradient id="paint0_linear_17_7896" x1="70.823" y1="72.7246" x2="70.823" y2="409.447" gradientUnits="userSpaceOnUse">
            <stop/>
            <stop offset="1" stop-color="#6A6A6A"/>
        </linearGradient>
        <linearGradient id="paint1_linear_17_7896" x1="314.648" y1="407.586" x2="314.648" y2="408.586" gradientUnits="userSpaceOnUse">
            <stop/>
            <stop offset="1" stop-color="#6A6A6A"/>
        </linearGradient>
        <linearGradient id="paint2_linear_17_7896" x1="388.25" y1="121" x2="388.25" y2="396.5" gradientUnits="userSpaceOnUse">
            <stop/>
            <stop offset="1" stop-color="#444444"/>
        </linearGradient>
        <linearGradient id="paint3_linear_17_7896" x1="228.473" y1="356.591" x2="228.473" y2="457.3" gradientUnits="userSpaceOnUse">
            <stop/>
            <stop offset="1" stop-color="#6A6A6A"/>
        </linearGradient>
        <linearGradient id="paint4_linear_17_7896" x1="211.982" y1="474.854" x2="211.982" y2="499.733" gradientUnits="userSpaceOnUse">
            <stop/>
            <stop offset="1" stop-color="#6A6A6A"/>
        </linearGradient>
        <linearGradient id="paint5_linear_17_7896" x1="237.774" y1="474.577" x2="237.774" y2="496.333" gradientUnits="userSpaceOnUse">
            <stop/>
            <stop offset="1" stop-color="#6A6A6A"/>
        </linearGradient>
        <linearGradient id="paint6_linear_17_7896" x1="255.347" y1="472.846" x2="255.347" y2="489.743" gradientUnits="userSpaceOnUse">
            <stop/>
            <stop offset="1" stop-color="#6A6A6A"/>
        </linearGradient>
        <linearGradient id="paint7_linear_17_7896" x1="267.76" y1="474.198" x2="267.76" y2="485.163" gradientUnits="userSpaceOnUse">
            <stop/>
            <stop offset="1" stop-color="#6A6A6A"/>
        </linearGradient>
        <linearGradient id="paint8_linear_17_7896" x1="279.679" y1="466.763" x2="279.679" y2="481.72" gradientUnits="userSpaceOnUse">
            <stop/>
            <stop offset="1" stop-color="#6A6A6A"/>
        </linearGradient>
        <linearGradient id="paint9_linear_17_7896" x1="286.38" y1="462.206" x2="286.38" y2="486.381" gradientUnits="userSpaceOnUse">
            <stop/>
            <stop offset="1" stop-color="#6A6A6A"/>
        </linearGradient>
        <linearGradient id="paint10_linear_17_7896" x1="54.2676" y1="28.9204" x2="54.2676" y2="61.9003" gradientUnits="userSpaceOnUse">
            <stop/>
            <stop offset="1" stop-color="#6A6A6A"/>
        </linearGradient>
        <linearGradient id="paint11_linear_17_7896" x1="73.4409" y1="45.0024" x2="73.4409" y2="60.2902" gradientUnits="userSpaceOnUse">
            <stop/>
            <stop offset="1" stop-color="#6A6A6A"/>
        </linearGradient>
        <linearGradient id="paint12_linear_17_7896" x1="90.9433" y1="34.8643" x2="90.9433" y2="57.4503" gradientUnits="userSpaceOnUse">
            <stop/>
            <stop offset="1" stop-color="#6A6A6A"/>
        </linearGradient>
        <linearGradient id="paint13_linear_17_7896" x1="88.0626" y1="48.3823" x2="88.0626" y2="50.41" gradientUnits="userSpaceOnUse">
            <stop/>
            <stop offset="1" stop-color="#6A6A6A"/>
        </linearGradient>
        <linearGradient id="paint14_linear_17_7896" x1="104.472" y1="42.4897" x2="104.472" y2="59.2977" gradientUnits="userSpaceOnUse">
            <stop/>
            <stop offset="1" stop-color="#6A6A6A"/>
        </linearGradient>
        <linearGradient id="paint15_linear_17_7896" x1="120.506" y1="43.6509" x2="120.506" y2="58.2913" gradientUnits="userSpaceOnUse">
            <stop/>
            <stop offset="1" stop-color="#6A6A6A"/>
        </linearGradient>
        <linearGradient id="paint16_linear_17_7896" x1="136.398" y1="40.9473" x2="136.398" y2="56.839" gradientUnits="userSpaceOnUse">
            <stop/>
            <stop offset="1" stop-color="#6A6A6A"/>
        </linearGradient>
        <linearGradient id="paint17_linear_17_7896" x1="149.464" y1="36.1743" x2="149.464" y2="71.9047" gradientUnits="userSpaceOnUse">
            <stop/>
            <stop offset="1" stop-color="#6A6A6A"/>
        </linearGradient>
        <linearGradient id="paint18_linear_17_7896" x1="537.354" y1="434.717" x2="537.354" y2="449.715" gradientUnits="userSpaceOnUse">
            <stop/>
            <stop offset="1" stop-color="#6A6A6A"/>
        </linearGradient>
        <linearGradient id="paint19_linear_17_7896" x1="552.404" y1="432.178" x2="552.404" y2="451.743" gradientUnits="userSpaceOnUse">
            <stop/>
            <stop offset="1" stop-color="#6A6A6A"/>
        </linearGradient>
        <linearGradient id="paint20_linear_17_7896" x1="568.28" y1="429.588" x2="568.28" y2="448.679" gradientUnits="userSpaceOnUse">
            <stop/>
            <stop offset="1" stop-color="#6A6A6A"/>
        </linearGradient>
        <linearGradient id="paint21_linear_17_7896" x1="584.538" y1="427.561" x2="584.538" y2="444.975" gradientUnits="userSpaceOnUse">
            <stop/>
            <stop offset="1" stop-color="#6A6A6A"/>
        </linearGradient>
        <linearGradient id="paint22_linear_17_7896" x1="604.89" y1="421.791" x2="604.89" y2="466.396" gradientUnits="userSpaceOnUse">
            <stop/>
            <stop offset="1" stop-color="#6A6A6A"/>
        </linearGradient>
        <linearGradient id="paint23_linear_17_7896" x1="573.677" y1="481.632" x2="573.677" y2="504.542" gradientUnits="userSpaceOnUse">
            <stop/>
            <stop offset="1" stop-color="#6A6A6A"/>
        </linearGradient>
        <linearGradient id="paint24_linear_17_7896" x1="592.259" y1="483.66" x2="592.259" y2="498.216" gradientUnits="userSpaceOnUse">
            <stop/>
            <stop offset="1" stop-color="#6A6A6A"/>
        </linearGradient>
        <linearGradient id="paint25_linear_17_7896" x1="591.944" y1="473.521" x2="591.944" y2="474.521" gradientUnits="userSpaceOnUse">
            <stop/>
            <stop offset="1" stop-color="#6A6A6A"/>
        </linearGradient>
        <linearGradient id="paint26_linear_17_7896" x1="610.531" y1="478.991" x2="610.531" y2="498.605" gradientUnits="userSpaceOnUse">
            <stop/>
            <stop offset="1" stop-color="#6A6A6A"/>
        </linearGradient>
        <linearGradient id="paint27_linear_17_7896" x1="612.221" y1="487.04" x2="612.221" y2="489.743" gradientUnits="userSpaceOnUse">
            <stop/>
            <stop offset="1" stop-color="#6A6A6A"/>
        </linearGradient>
        <linearGradient id="paint28_linear_17_7896" x1="631.663" y1="472.95" x2="631.663" y2="492.729" gradientUnits="userSpaceOnUse">
            <stop/>
            <stop offset="1" stop-color="#6A6A6A"/>
        </linearGradient>
        <linearGradient id="paint29_linear_17_7896" x1="453.547" y1="290.354" x2="453.547" y2="463.383" gradientUnits="userSpaceOnUse">
            <stop/>
            <stop offset="1" stop-color="#6A6A6A"/>
        </linearGradient>
        <linearGradient id="paint30_linear_17_7896" x1="435.686" y1="483.419" x2="435.686" y2="500.938" gradientUnits="userSpaceOnUse">
            <stop/>
            <stop offset="1" stop-color="#6A6A6A"/>
        </linearGradient>
        <linearGradient id="paint31_linear_17_7896" x1="456.715" y1="482.603" x2="456.715" y2="502.792" gradientUnits="userSpaceOnUse">
            <stop/>
            <stop offset="1" stop-color="#6A6A6A"/>
        </linearGradient>
        <linearGradient id="paint32_linear_17_7896" x1="477.113" y1="479.922" x2="477.113" y2="494.77" gradientUnits="userSpaceOnUse">
            <stop/>
            <stop offset="1" stop-color="#6A6A6A"/>
        </linearGradient>
        <linearGradient id="paint33_linear_17_7896" x1="482.544" y1="472.343" x2="482.544" y2="495.453" gradientUnits="userSpaceOnUse">
            <stop/>
            <stop offset="1" stop-color="#6A6A6A"/>
        </linearGradient>
        <linearGradient id="paint34_linear_17_7896" x1="18.336" y1="383.61" x2="18.336" y2="408.883" gradientUnits="userSpaceOnUse">
            <stop/>
            <stop offset="1" stop-color="#6A6A6A"/>
        </linearGradient>
        <linearGradient id="paint35_linear_17_7896" x1="38.8233" y1="387.064" x2="38.8233" y2="401.14" gradientUnits="userSpaceOnUse">
            <stop/>
            <stop offset="1" stop-color="#6A6A6A"/>
        </linearGradient>
        <linearGradient id="paint36_linear_17_7896" x1="44.2371" y1="389.229" x2="44.2371" y2="395.726" gradientUnits="userSpaceOnUse">
            <stop/>
            <stop offset="1" stop-color="#6A6A6A"/>
        </linearGradient>
        <linearGradient id="paint37_linear_17_7896" x1="264.579" y1="324.264" x2="264.579" y2="325.264" gradientUnits="userSpaceOnUse">
            <stop/>
            <stop offset="1" stop-color="#6A6A6A"/>
        </linearGradient>
        <linearGradient id="paint38_linear_17_7896" x1="17.7096" y1="316.685" x2="17.7096" y2="339.435" gradientUnits="userSpaceOnUse">
            <stop/>
            <stop offset="1" stop-color="#6A6A6A"/>
        </linearGradient>
        <linearGradient id="paint39_linear_17_7896" x1="33.4096" y1="307.666" x2="33.4096" y2="331.433" gradientUnits="userSpaceOnUse">
            <stop/>
            <stop offset="1" stop-color="#6A6A6A"/>
        </linearGradient>
        <linearGradient id="paint40_linear_17_7896" x1="47.4855" y1="299.361" x2="47.4855" y2="317.85" gradientUnits="userSpaceOnUse">
            <stop/>
            <stop offset="1" stop-color="#6A6A6A"/>
        </linearGradient>
        <linearGradient id="paint41_linear_17_7896" x1="50.1923" y1="303.692" x2="50.1923" y2="310.188" gradientUnits="userSpaceOnUse">
            <stop/>
            <stop offset="1" stop-color="#6A6A6A"/>
        </linearGradient>
        <linearGradient id="paint42_linear_17_7896" x1="31.113" y1="469.997" x2="31.113" y2="487.569" gradientUnits="userSpaceOnUse">
            <stop/>
            <stop offset="1" stop-color="#6A6A6A"/>
        </linearGradient>
        <linearGradient id="paint43_linear_17_7896" x1="34.2615" y1="486.527" x2="34.2615" y2="490.694" gradientUnits="userSpaceOnUse">
            <stop/>
            <stop offset="1" stop-color="#6A6A6A"/>
        </linearGradient>
        <linearGradient id="paint44_linear_17_7896" x1="44.417" y1="474.924" x2="44.417" y2="485.055" gradientUnits="userSpaceOnUse">
            <stop/>
            <stop offset="1" stop-color="#6A6A6A"/>
        </linearGradient>
        <linearGradient id="paint45_linear_17_7896" x1="57.0258" y1="470.903" x2="57.0258" y2="479.7" gradientUnits="userSpaceOnUse">
            <stop/>
            <stop offset="1" stop-color="#6A6A6A"/>
        </linearGradient>
        <linearGradient id="paint46_linear_17_7896" x1="65.7696" y1="465.352" x2="65.7696" y2="475.806" gradientUnits="userSpaceOnUse">
            <stop/>
            <stop offset="1" stop-color="#6A6A6A"/>
        </linearGradient>
        <linearGradient id="paint47_linear_17_7896" x1="75.1993" y1="460.487" x2="75.1993" y2="471.366" gradientUnits="userSpaceOnUse">
            <stop/>
            <stop offset="1" stop-color="#6A6A6A"/>
        </linearGradient>
        <linearGradient id="paint48_linear_17_7896" x1="85.7393" y1="458.605" x2="85.7393" y2="463.612" gradientUnits="userSpaceOnUse">
            <stop/>
            <stop offset="1" stop-color="#6A6A6A"/>
        </linearGradient>
        <linearGradient id="paint49_linear_17_7896" x1="44.6989" y1="501.668" x2="44.6989" y2="512.363" gradientUnits="userSpaceOnUse">
            <stop/>
            <stop offset="1" stop-color="#6A6A6A"/>
        </linearGradient>
        <linearGradient id="paint50_linear_17_7896" x1="53.7913" y1="494.62" x2="53.7913" y2="508.149" gradientUnits="userSpaceOnUse">
            <stop/>
            <stop offset="1" stop-color="#6A6A6A"/>
        </linearGradient>
        <linearGradient id="paint51_linear_17_7896" x1="63.701" y1="489.652" x2="63.701" y2="501.817" gradientUnits="userSpaceOnUse">
            <stop/>
            <stop offset="1" stop-color="#6A6A6A"/>
        </linearGradient>
        <linearGradient id="paint52_linear_17_7896" x1="70.6769" y1="488.355" x2="70.6769" y2="495.883" gradientUnits="userSpaceOnUse">
            <stop/>
            <stop offset="1" stop-color="#6A6A6A"/>
        </linearGradient>
        <linearGradient id="paint53_linear_17_7896" x1="79.8311" y1="480.589" x2="79.8311" y2="490.879" gradientUnits="userSpaceOnUse">
            <stop/>
            <stop offset="1" stop-color="#6A6A6A"/>
        </linearGradient>
        <linearGradient id="paint54_linear_17_7896" x1="92.6238" y1="469.341" x2="92.6238" y2="486.957" gradientUnits="userSpaceOnUse">
            <stop/>
            <stop offset="1" stop-color="#6A6A6A"/>
        </linearGradient>
        <linearGradient id="paint55_linear_17_7896" x1="33.6284" y1="427.677" x2="33.6284" y2="463.091" gradientUnits="userSpaceOnUse">
            <stop/>
            <stop offset="1" stop-color="#6A6A6A"/>
        </linearGradient>
        <linearGradient id="paint56_linear_17_7896" x1="26.7389" y1="418.303" x2="26.7389" y2="437.314" gradientUnits="userSpaceOnUse">
            <stop/>
            <stop offset="1" stop-color="#6A6A6A"/>
        </linearGradient>
    </defs>
</svg>
