<svg width="720" height="374" viewBox="0 0 720 374" fill="none" xmlns="http://www.w3.org/2000/svg">
    <rect width="720" height="374" fill="white"/>
    <path d="M120.144 121.747C120.144 123.063 119.787 124.215 119.787 125.49C119.787 128.051 120.782 130.816 121.748 133.155C124.174 139.027 127.067 146.244 131.888 150.584C134.524 152.956 136.353 155.952 138.761 158.545C139.547 159.392 142.603 164.456 142.603 161.318" stroke="url(#paint0_linear_17_8051)" stroke-width="7" stroke-linecap="round"/>
    <path d="M137.256 109.27C140.491 122.57 142.984 136.057 146.168 149.356C147.018 152.905 147.123 156.619 147.574 160.229C147.712 161.335 147.594 164.375 147.594 161.318" stroke="url(#paint1_linear_17_8051)" stroke-width="7" stroke-linecap="round"/>
    <path d="M140.108 110.339C144.121 110.912 148.978 112.043 152.446 114.28C155.28 116.108 158.433 117.763 161.141 119.687C163.28 121.207 165.139 123.196 166.667 125.312C168.18 127.407 168.714 129.847 170.053 132.006C172.919 136.622 173.937 142.761 174.609 148.048C175.027 151.347 174.876 155.143 174.668 158.466C174.451 161.936 174.151 165.841 173.084 169.161C170.986 175.687 169.025 182.27 165.954 188.412C164.792 190.735 162.821 192.472 161.22 194.472C159.886 196.14 163.196 196.297 164.547 196.809C167.352 197.873 170.166 198.95 172.905 200.176C173.884 200.614 174.857 200.332 175.836 200.612C177.577 201.109 179.011 202.089 180.669 202.79C182.421 203.531 184.169 203.868 185.818 204.89C186.73 205.454 187.57 206.058 188.393 206.732C188.681 206.967 190.099 207.69 188.948 207.306" stroke="url(#paint2_linear_17_8051)" stroke-width="7" stroke-linecap="round"/>
    <path d="M119.074 119.964C118.96 120.99 116.811 123.421 116.024 124.064C114.351 125.433 112.582 127.409 111.41 129.233C108.743 133.381 105.863 137.549 104.894 142.503C103.548 149.381 103.74 156.682 105.349 163.477C107.134 171.012 113.042 174.826 119.629 178.252C122.195 179.586 124.456 181.448 126.838 183.064C129.105 184.602 131.688 186.164 133.691 188.055C135.196 189.477 136.644 190.499 137.79 192.155C139.293 194.325 140.639 196.392 142.603 198.215C144.698 200.161 146.152 203.021 147.951 205.246C151.144 209.196 153.594 213.483 157.734 216.575C160.542 218.671 163.545 220.447 166.31 222.616C168.314 224.187 170.502 225.683 172.905 226.557C174.415 227.106 175.569 227.854 177.163 228.161C179.159 228.545 178.124 227.767 177.183 226.557" stroke="url(#paint3_linear_17_8051)" stroke-width="7" stroke-linecap="round"/>
    <path d="M194.652 206.593C192.695 206.593 191.274 203.249 190.572 201.78C189.287 199.093 188.348 196.221 187.165 193.482C185.652 189.979 182.524 184.878 184.67 181.123C186.622 177.706 192.276 177.688 195.701 176.489C196.85 176.087 198.102 176.417 199.286 176.212C200.787 175.952 202.125 174.97 203.643 174.865C205.188 174.758 208.546 174.37 206.693 172.449C204.496 170.17 203.938 167.311 202.653 164.507C201.336 161.634 199.406 158.487 199.286 155.257C199.206 153.095 195.606 142.014 199.128 141.374C201.716 140.903 203.652 140.863 206.059 142.067C207.209 142.642 208.398 142.873 209.605 143.295C210.879 143.741 212.289 143.202 213.546 143.691C215.836 144.582 218.499 145.431 220.953 144.642C221.81 144.366 224.832 143.521 224.954 142.424C225.149 140.669 224.714 138.193 224.419 136.482C224.119 134.743 224.241 132.933 224.241 131.174C224.241 127.524 223.28 123.97 223.171 120.321C223.083 117.361 223.275 115.194 224.954 112.676C225.996 111.112 226.544 108.999 228.717 109.289C231.06 109.602 234.421 111.072 236.282 112.478C237.452 113.362 238.847 113.655 239.946 114.617C240.761 115.329 242.088 116.1 243.135 116.399C244.538 116.8 246.657 117.652 248.126 117.033C250.84 115.89 251.691 112.335 251.691 109.547C251.691 105.827 251.21 102.459 251.849 98.7132C252.615 94.2317 252.771 90.4663 254.543 86.1764C255.219 84.5388 256.797 81.1464 258.821 83.4234C260.564 85.3843 263.777 85.8804 265.594 87.8994C267.293 89.7868 268.781 92.9427 271.219 93.9401C273.502 94.874 276.194 96.5746 278.706 95.8018C280.994 95.0976 283.459 93.344 284.271 90.9099C285.514 87.1806 284.121 82.8794 285.578 79.1455C286.34 77.1939 290.847 64.5824 295.184 67.9554C297.93 70.0919 299.232 73.847 301.878 76.1153C303.887 77.8373 305.352 80.0691 307.938 81.027C313.445 83.0666 318.211 75.2483 320.495 71.4016C322.547 67.9455 324.302 64.4936 325.486 60.6473C326.101 58.6465 329.013 57.261 330.912 57.7953C332.439 58.2248 334.326 58.5854 335.111 60.0729C335.967 61.6946 337.61 62.9076 338.24 64.6281C339.086 66.9343 340.147 68.9657 341.35 71.1045C344.664 76.9966 350.824 70.4487 353.57 67.6386C355.743 65.4147 356.63 62.276 359.195 60.4294C361.258 58.9434 363.461 56.5439 365.77 55.5177C367.224 54.8712 369.481 54.6927 370.741 55.795C373.06 57.8244 373.259 59.7816 374.504 62.5486C375.604 64.9928 376.72 67.3231 377.97 69.6983C378.466 70.6399 381.45 74.085 382.208 73.4217C384.823 71.1338 388.95 70.3153 391.992 68.708C393.784 67.7612 395.292 66.2053 397.062 65.1431C398.222 64.4471 399.284 63.8533 400.35 63.0041C401.691 61.9365 403.095 61.0276 404.41 59.9145C404.922 59.4817 405.529 59.0034 406.232 59.0034C407.051 59.0034 408.121 59.9132 408.866 60.2314C411.339 61.2869 412.438 63.4218 413.738 65.6976C414.778 67.5162 415.011 69.3351 415.521 71.3026C415.93 72.8797 417.105 74.5302 417.105 76.1549C417.105 77.5162 417.187 78.8477 417.482 80.1754C417.596 80.6887 420.138 80.3872 420.512 80.413C422.062 80.5199 423.577 81.1199 425.028 80.314C426.751 79.3566 428.539 78.5156 430.296 77.6205C433.052 76.2165 434.886 73.3518 437.941 72.3918C441.049 71.4148 442.424 70.8864 445.823 72.1938C447.342 72.7778 446.678 75.6034 446.695 76.9075C446.724 79.2428 447.782 81.7204 447.328 84.0374C446.656 87.4751 446.107 91.0139 447.942 94.2768C449 96.1574 456.616 96.2725 458.102 95.3265C461.259 93.3177 464.377 91.7824 467.807 90.2959C469.567 89.5332 472.288 89.6776 472.719 87.5231" stroke="url(#paint4_linear_17_8051)" stroke-width="7" stroke-linecap="round"/>
    <path d="M470.936 88.5924C470.936 85.3591 476.541 85.1013 476.64 88.5924C476.766 92.9845 476.64 97.2724 476.64 101.704C476.64 104.01 475.557 107.811 476.838 109.824C477.758 111.27 478.175 113.19 479.849 113.983C481.938 114.973 484.867 113.056 486.8 112.299C489.674 111.175 492.53 110.042 495.535 109.348C498.227 108.727 500.364 109.035 503.021 109.626C505.026 110.071 505.976 112.232 506.943 113.824C508.089 115.714 507.102 119.66 506.408 121.588C505.266 124.759 504.299 128.03 503.813 131.372C503.08 136.415 501.986 144.399 509.161 144.562C512.181 144.631 514.866 143.255 517.835 142.78C519.442 142.523 520.921 142.458 522.549 142.423C523.552 142.402 524.562 141.861 525.56 142.146C528.089 142.869 529.467 143.184 529.778 145.988C530.136 149.206 530.508 150.637 529.402 153.831C528.287 157.052 527.007 160.132 526.015 163.437C525.282 165.881 523.083 168.019 522.985 170.666C522.92 172.409 523.768 175.328 525.837 175.558C528.658 175.871 531.543 175.144 534.393 175.221C536.977 175.291 539.83 176.633 542.434 176.112C543.568 175.886 548.258 176.237 548.296 177.518C548.37 180.027 547.077 182.74 545.781 184.846C543.933 187.849 542.403 191.03 540.532 194.036C538.674 197.023 537.884 199.009 537.581 202.493C537.376 204.859 537.961 205.357 539.74 206.949C540.673 207.784 541.683 206.061 542.434 205.543C544.195 204.328 546.336 203.752 547.94 202.295C549.485 200.89 551.303 199.463 552.653 197.878C554.045 196.244 555.167 194.324 556.852 192.967C559.271 191.018 559.67 188.48 560.952 185.916C561.551 184.718 562.008 182.818 560.774 181.995" stroke="url(#paint5_linear_17_8051)" stroke-width="7" stroke-linecap="round"/>
    <path d="M561.13 180.925C559.026 180.925 559.034 178.244 558.278 176.647C557.617 175.252 557.56 173.746 556.852 172.369C556.327 171.347 555.962 170.578 555.703 169.438C554.61 164.626 553.25 159.726 551.94 154.98C551.425 153.113 551.767 151.005 551.227 149.118C550.495 146.553 551.808 142.988 551.861 140.284C552.022 132.085 557.357 124.143 561.823 117.667C566.77 110.494 574.692 106.275 583.055 104.457C584.536 104.134 586.099 103.868 587.531 103.367C588.821 102.916 589.933 101.74 591.254 101.446C592.165 101.244 590.484 103.221 590.303 103.447C588.584 105.596 586.462 107.724 585.451 110.339C583.655 114.985 582.168 119.73 581.53 124.678C580.867 129.813 580.024 134.938 580.024 140.126C580.024 143.131 579.787 146.253 580.46 149.197C580.79 150.641 582.528 155.441 583.926 151.712C584.245 150.861 584.897 150.243 585.57 149.692C587.088 148.45 587.738 146.718 588.957 145.256C590.718 143.142 592.547 141.079 594.225 138.898C595.571 137.148 596.422 134.987 597.691 133.174C599.822 130.129 602.761 127.212 604.425 123.886C605.918 120.898 607.577 117.976 609.079 114.973C610.147 112.838 610.081 110.241 611.218 108.22C611.995 106.838 611.788 109.955 611.951 110.537C612.461 112.36 612.956 114.186 613.872 115.845C615.161 118.182 615.145 121.114 615.496 123.707C615.783 125.835 616.22 128.006 616.367 130.144C616.733 135.45 614.27 141.403 612.465 146.266C611.361 149.242 609.619 151.933 608.465 154.901C607.577 157.183 606.299 159.746 604.9 161.754C601.779 166.231 598.218 170.481 594.641 174.587C591.155 178.589 587.102 182.129 583.312 185.837C581.857 187.26 580.32 188.554 578.678 189.758C576.679 191.224 575.44 193.189 573.786 194.987C571.742 197.208 569.996 199.545 568.042 201.8C565.902 204.269 563.694 206.869 562.556 209.999C561.845 211.954 560.181 213.451 559.348 215.327C558.895 216.345 558.477 217.3 558.1 218.357C557.929 218.835 557.94 220.55 557.565 219.427" stroke="url(#paint6_linear_17_8051)" stroke-width="7" stroke-linecap="round"/>
    <path d="M557.922 220.853C555.122 221.018 558.956 223.015 559.704 223.705C561.513 225.375 564.034 226.486 566.279 227.448C567.69 228.053 568.21 229.455 569.329 230.201C570.005 230.651 571.551 232.271 572.003 232.974C574.098 236.232 572.129 239.616 570.32 242.679C567.314 247.766 564.544 253.313 560.972 258.008C558.662 261.044 557.176 264.514 555.07 267.673C553.631 269.831 551.857 271.728 550.455 273.931C548.67 276.736 547.056 279.67 545.088 282.349C539.653 289.746 534.975 298.03 530.986 306.274C529.446 309.457 527.097 312.259 525.678 315.483C524.705 317.695 524.094 320.155 523.341 322.455C523.048 323.351 522.811 324.217 522.609 325.128C522.219 326.883 522.6 323.371 522.609 323.128C522.806 317.79 523.359 312.829 524.847 307.68C526.245 302.838 528.444 298.273 529.679 293.38C530.868 288.667 531.916 283.799 533.858 279.318C536.839 272.438 539.354 265.309 542.414 258.483C544.56 253.696 546.961 248.404 548.019 243.233C548.26 242.056 548.886 238.273 547.048 240.817C544.999 243.655 542.802 246.181 540.968 249.214C536.682 256.306 533.052 263.381 527.817 269.871C524.04 274.555 520.546 279.503 516.924 284.309C514.902 286.994 514.181 290.203 512.132 292.826C510.627 294.751 509.221 296.761 507.695 298.668C507.065 299.456 508.213 296.716 508.527 295.757C509.482 292.834 510.211 289.867 510.943 286.884C512.223 281.672 514.444 276.662 515.677 271.456C516.432 268.267 517.098 264.984 517.994 261.85" stroke="url(#paint7_linear_17_8051)" stroke-width="7" stroke-linecap="round"/>
    <path d="M176.114 225.131C170.978 225.987 165.718 230.733 162.567 234.479C158.219 239.647 159.736 246.511 164.171 251.274C167.419 254.762 171.51 257.667 175.044 260.86C178.977 264.412 182.869 268.009 186.809 271.555C189.818 274.263 192.311 277.69 194.988 280.725C197.547 283.624 200.501 286.281 202.475 289.637C205.977 295.592 210.284 301.24 214.774 306.491C218.333 310.655 221.316 315.021 224.577 319.424C225.745 321.001 227.224 322.509 228.162 324.237C229.815 327.282 229.553 324.782 228.519 322.89C224.508 315.557 220.657 308.161 216.576 300.886C213.222 294.907 209.364 289.49 205.03 284.171C203.316 282.068 202.423 279.433 201.068 277.1C199.322 274.092 198.078 270.741 197.583 267.277C197.247 264.927 197.293 262.597 196.771 260.246C196.204 257.698 195.291 255.196 195.028 252.561C194.833 250.612 195.365 248.44 195.365 246.441C195.365 245.066 194.225 241.401 195.365 240.262C195.566 240.061 199.616 242.236 200.019 242.678C201.413 244.212 201.858 246.366 202.93 248.105C204.032 249.892 205.476 251.436 206.753 253.096C209.064 256.101 211.667 258.864 213.902 261.929C216.77 265.862 219.465 269.697 222.894 273.179C227.622 277.98 231.597 283.529 236.005 288.567C237.556 290.34 238.559 292.491 240.204 294.212C240.584 294.61 241.609 295.521 241.333 296.212C241.186 296.58 238.947 294.494 238.778 294.291C236.384 291.428 234.353 287.46 232.777 284.111C230.945 280.219 228.357 276.915 226.301 273.179C224.04 269.073 222.769 264.537 220.517 260.444C219.536 258.659 218.709 256.946 217.982 255.077C217.311 253.35 216.511 250.313 218.26 248.739C218.957 248.111 220.981 249.347 221.547 249.551C223.515 250.259 225.592 250.749 227.608 251.314C229.136 251.742 230.607 252.322 232.163 252.66C234.184 253.1 236.126 253.783 238.204 253.967C239.163 254.053 240.108 253.999 240.996 254.443C242.645 255.267 244.41 255.773 246.185 256.324C248.68 257.099 250.766 258.227 253.157 259.156C257.51 260.849 262.155 262.358 266.743 263.355C269.79 264.018 272.87 264.516 275.913 265.237C279.396 266.062 282.601 267.679 286.093 268.445C290.894 269.499 295.699 269.78 300.571 270.406C305.459 271.034 310.233 272.29 315.128 272.901C318.762 273.356 322.338 274.157 325.961 274.684C332.849 275.685 339.946 274.375 346.876 274.327C352.917 274.286 358.627 272.545 364.601 272.188C371.217 271.793 377.883 271.359 384.466 270.604C393.987 269.511 403.632 270.372 413.184 269.614C429.08 268.352 444.718 265.39 460.558 263.91C469.295 263.093 477.803 261.631 485.929 258.285C488.926 257.051 491.855 256.303 494.742 254.72C496.37 253.828 497.674 254.176 497.674 252.225" stroke="url(#paint8_linear_17_8051)" stroke-width="7" stroke-linecap="round"/>
    <path d="M499.456 254.364C509.152 251.132 519.323 248.002 527.441 241.688C528.074 241.196 529.609 239.689 528.689 241.53C526.842 245.223 523.903 248.423 521.4 251.67C518.673 255.21 515.066 258.521 513.082 262.563C512.921 262.892 512.165 265.665 512.646 264.702" stroke="url(#paint9_linear_17_8051)" stroke-width="7" stroke-linecap="round"/>
    <path d="M407.124 189.481C407.077 189.806 406.376 189.463 406.054 189.481C405.55 189.509 404.961 189.925 404.549 190.194C403.077 191.156 400.433 192.755 400.073 194.631C399.489 197.668 399.084 201.694 399.716 204.731C400.067 206.415 403.218 209.761 404.806 210.495C411.648 213.652 413.099 202.506 413.62 198.473C414.168 194.22 410.625 189.289 406.074 189.857C403.566 190.171 401.01 195.847 400.568 197.859C399.897 200.916 400.398 207.202 403.202 209.227C405.834 211.128 407.813 208.397 408.708 206.038C409.901 202.893 410.089 198.065 408.55 194.987C407.325 192.538 404.693 197.154 404.549 198.196C404.261 200.265 404.274 202.114 404.985 204.098C405.369 205.17 406.563 206.418 407.48 205.108C408.309 203.923 408.283 196.014 406.767 197.205C405.44 198.248 405.106 201.598 405.004 203.167C404.961 203.832 405.568 205.815 404.985 205.523" stroke="url(#paint10_linear_17_8051)" stroke-width="7" stroke-linecap="round"/>
    <path d="M328.338 189.838C327.072 189.416 324.101 193.883 323.525 195.066C321.234 199.769 319.864 208.855 324.931 212.297C329.337 215.29 330.773 207.699 331.368 204.989C332.077 201.76 332.263 196.279 329.764 193.601C328.293 192.025 326.963 189.695 324.773 192.135C323.163 193.929 323.086 197.723 323.01 199.958C322.912 202.849 323.11 205.789 325.347 207.86C328.039 210.353 330.236 211.527 331.982 207.583C333.723 203.65 333.058 198.195 331.546 194.195C331.067 192.927 329.824 190.2 328.16 190.57C327.171 190.79 326.594 193.27 326.278 194.036C325.243 196.544 324.601 199.695 324.852 202.394C325.109 205.155 326.443 212.215 329.803 213.148C333.803 214.26 333.853 205.899 334.22 203.919C334.523 202.283 334.358 200.737 334.121 199.106C333.886 197.493 334.296 195.789 333.962 194.195C333.545 192.202 332.525 190.194 330.318 190.194C325.898 190.194 325.899 195.535 326.634 198.829C327.063 200.749 327.744 202.916 329.051 204.454C329.761 205.289 329.47 204.413 329.764 203.384" stroke="url(#paint11_linear_17_8051)" stroke-width="7" stroke-linecap="round"/>
    <path d="M321.564 194.829C322.027 195.357 320.087 197.333 319.782 197.879C318.391 200.363 317.8 203.525 316.93 206.237C316.062 208.941 317.276 212.406 317.801 215.11C318.512 218.762 318.247 222.336 319.782 225.844C322.558 232.189 326.493 236.821 334.002 235.648C339.793 234.743 345.32 233.113 350.005 229.409C353.416 226.712 356.35 221.238 356.501 216.932C356.713 210.889 356.516 202.863 351.51 198.414C350.029 197.097 347.627 195.494 345.806 194.829C343.812 194.1 342.52 192.69 340.3 192.69C338.914 192.69 337.18 191.851 335.824 191.541C334.045 191.135 332.716 191.189 331.19 192.333" stroke="url(#paint12_linear_17_8051)" stroke-width="7" stroke-linecap="round"/>
    <path d="M398.211 192.69C392.371 198.683 389.565 205.404 389.655 213.723C389.743 221.84 394.509 227.553 401.954 230.458C406.859 232.372 413.64 233.403 418.729 231.706C423.71 230.046 429.856 227.184 432.356 222.279C433.702 219.635 433.29 216.906 433.683 214.079C434.2 210.355 434.194 207.097 433.148 203.464C432.433 200.982 431.161 198.664 429.919 196.413C428.736 194.268 426.175 192.819 424.255 191.283C422.845 190.155 421.456 188.764 419.957 187.778C418.716 186.961 416.601 187.3 415.125 186.807C413.141 186.146 403.926 188.445 404.272 189.481" stroke="url(#paint13_linear_17_8051)" stroke-width="7" stroke-linecap="round"/>
    <path d="M360.422 249.729C360.521 248.941 362.38 249.013 362.918 248.937C365.721 248.536 368.648 247.734 371.335 246.857C375.855 245.381 380.689 243.808 385.377 242.955C386.547 242.743 387.569 242.018 388.744 241.906C389.427 241.841 390.086 241.954 390.645 241.45C391.301 240.86 391.085 242.157 391.061 242.579C390.924 244.976 390.905 247.579 390.368 249.927C388.974 256.028 384.145 260.447 377.713 260.76C373.994 260.942 370.189 260.277 366.641 259.176C363.686 258.259 360.045 257.498 359.729 253.868C359.667 253.151 359.52 252.709 359.373 252.046C359.149 251.039 359.336 251.566 359.789 251.868C363.814 254.551 371.19 250.314 374.96 248.739C378.079 247.435 381.334 246.696 384.644 246.144C384.649 246.143 380.13 247.642 378.921 248.224C375.534 249.852 372.224 251.493 369.018 253.452C364.946 255.941 378.284 250.929 382.565 248.818C383.364 248.424 386.038 247.245 384.209 249.075C381.797 251.487 378.708 253.207 375.831 254.997C373.689 256.33 377.349 254.957 377.891 254.74C379.474 254.106 384.097 252.574 382.921 253.809C381.723 255.067 379.133 256.705 377.415 257.195C376.308 257.512 379.487 256.152 380.386 255.433" stroke="url(#paint14_linear_17_8051)" stroke-width="7" stroke-linecap="round"/>
    <defs>
        <linearGradient id="paint0_linear_17_8051" x1="131.195" y1="121.747" x2="131.195" y2="162.333" gradientUnits="userSpaceOnUse">
            <stop/>
            <stop offset="1" stop-color="#6A6A6A"/>
        </linearGradient>
        <linearGradient id="paint1_linear_17_8051" x1="142.448" y1="109.27" x2="142.448" y2="162.643" gradientUnits="userSpaceOnUse">
            <stop/>
            <stop offset="1" stop-color="#6A6A6A"/>
        </linearGradient>
        <linearGradient id="paint2_linear_17_8051" x1="164.75" y1="110.339" x2="164.75" y2="207.416" gradientUnits="userSpaceOnUse">
            <stop/>
            <stop offset="1" stop-color="#6A6A6A"/>
        </linearGradient>
        <linearGradient id="paint3_linear_17_8051" x1="141.153" y1="119.964" x2="141.153" y2="228.26" gradientUnits="userSpaceOnUse">
            <stop/>
            <stop offset="1" stop-color="#6A6A6A"/>
        </linearGradient>
        <linearGradient id="paint4_linear_17_8051" x1="328.33" y1="55" x2="328.33" y2="206.593" gradientUnits="userSpaceOnUse">
            <stop/>
            <stop offset="1" stop-color="#6A6A6A"/>
        </linearGradient>
        <linearGradient id="paint5_linear_17_8051" x1="516.245" y1="86.0698" x2="516.245" y2="207.174" gradientUnits="userSpaceOnUse">
            <stop/>
            <stop offset="1" stop-color="#6A6A6A"/>
        </linearGradient>
        <linearGradient id="paint6_linear_17_8051" x1="583.705" y1="101.432" x2="583.705" y2="219.801" gradientUnits="userSpaceOnUse">
            <stop/>
            <stop offset="1" stop-color="#6A6A6A"/>
        </linearGradient>
        <linearGradient id="paint7_linear_17_8051" x1="540.207" y1="220.853" x2="540.207" y2="325.618" gradientUnits="userSpaceOnUse">
            <stop/>
            <stop offset="1" stop-color="#6A6A6A"/>
        </linearGradient>
        <linearGradient id="paint8_linear_17_8051" x1="328.823" y1="225.131" x2="328.823" y2="325.662" gradientUnits="userSpaceOnUse">
            <stop/>
            <stop offset="1" stop-color="#6A6A6A"/>
        </linearGradient>
        <linearGradient id="paint9_linear_17_8051" x1="514.216" y1="240.64" x2="514.216" y2="264.904" gradientUnits="userSpaceOnUse">
            <stop/>
            <stop offset="1" stop-color="#6A6A6A"/>
        </linearGradient>
        <linearGradient id="paint10_linear_17_8051" x1="406.536" y1="189.48" x2="406.536" y2="211.051" gradientUnits="userSpaceOnUse">
            <stop/>
            <stop offset="1" stop-color="#6A6A6A"/>
        </linearGradient>
        <linearGradient id="paint11_linear_17_8051" x1="327.927" y1="189.81" x2="327.927" y2="213.25" gradientUnits="userSpaceOnUse">
            <stop/>
            <stop offset="1" stop-color="#6A6A6A"/>
        </linearGradient>
        <linearGradient id="paint12_linear_17_8051" x1="336.59" y1="191.311" x2="336.59" y2="235.83" gradientUnits="userSpaceOnUse">
            <stop/>
            <stop offset="1" stop-color="#6A6A6A"/>
        </linearGradient>
        <linearGradient id="paint13_linear_17_8051" x1="411.836" y1="186.69" x2="411.836" y2="232.564" gradientUnits="userSpaceOnUse">
            <stop/>
            <stop offset="1" stop-color="#6A6A6A"/>
        </linearGradient>
        <linearGradient id="paint14_linear_17_8051" x1="375.196" y1="241.299" x2="375.196" y2="260.79" gradientUnits="userSpaceOnUse">
            <stop/>
            <stop offset="1" stop-color="#6A6A6A"/>
        </linearGradient>
    </defs>
</svg>
